<svg width="1919" height="932" viewBox="0 0 1919 932" fill="none" xmlns="http://www.w3.org/2000/svg">
<mask id="mask0" mask-type="alpha" maskUnits="userSpaceOnUse" x="0" y="0" width="1920" height="932">
<path d="M0 0H1920V876.03C1920 906.406 1895.38 931.03 1865 931.03H0V0Z" fill="url(#paint0_linear)"/>
</mask>
<g mask="url(#mask0)">
<path d="M410.376 857.109L419.966 896.495L412.174 905.583L421.165 900.13L429.556 931.032H393.594L398.389 909.219L404.383 928.003L401.386 900.13L410.376 857.109Z" fill="#269C75"/>
<path d="M457.777 911.055L461.523 931.034H453.531L457.777 911.055Z" fill="#55CB81"/>
<path d="M1541.92 808.803L1542.34 932.283L1537.76 932.024L1537.5 811.982L1541.92 808.803Z" fill="#FFFEF5"/>
<path d="M1533.79 816.919L1531.06 931.648L1538.03 932.043L1537.5 811.985L1533.79 816.919Z" fill="#94967E"/>
<path d="M1517.68 822.867C1526.12 813.058 1535.98 808.472 1535.98 808.472L1499.39 843.093C1499.39 843.093 1509.23 832.677 1517.68 822.867Z" fill="#B8B8AD"/>
<path d="M1556.91 808.287C1553.29 806.449 1547.17 804.649 1547.17 804.649C1547.17 804.649 1546.66 803.072 1545.94 802.178C1545.17 801.22 1543.32 799.972 1543.32 799.972C1543.32 799.972 1541.01 781.411 1539.22 769.561C1535.28 743.556 1526.85 703.36 1526.85 703.36C1526.85 703.36 1532.58 743.635 1536.48 769.406C1538.41 782.112 1541.5 801.926 1541.5 801.926C1541.5 801.926 1540.58 806.044 1543.58 807.531C1544.78 808.125 1546.98 808.067 1546.98 808.067C1546.98 808.067 1554.64 813.444 1563.57 817.923C1570.87 821.587 1580.92 825.473 1588.32 828.927C1598.01 833.447 1631.68 850.587 1631.68 850.587L1631.09 848.839C1631.09 848.839 1586.58 823.342 1556.91 808.287Z" fill="#FFFDF7"/>
<path d="M1586.73 826.777C1604.41 835.822 1631.68 850.585 1631.68 850.585C1631.68 850.585 1589.61 830.37 1570.82 823.133C1557.76 817.592 1545.61 810.16 1544.47 809.98C1543.35 809.804 1542.65 809.685 1541.75 809.484C1537.92 810.638 1536.47 811.928 1536.47 811.928C1536.47 811.928 1534.68 812.292 1530.98 811.96C1529.04 811.786 1525.55 810.934 1525.63 809.599L1525.77 807.206C1525.84 805.871 1525.78 806.161 1525.86 805.497C1526.07 803.726 1526.04 802.42 1526.04 802.42C1526.04 802.42 1526.92 801.535 1527.4 802.498C1527.63 802.948 1527.15 805.226 1527.57 805.594C1528.21 806.149 1529.58 806.394 1529.58 806.394L1537.68 802.737L1537.93 798.293C1537.93 798.293 1532.6 783.245 1532.37 775.345C1532.14 767.444 1527.62 707.86 1527.62 707.86L1538.66 773.3L1542.37 804.717C1542.37 804.717 1545.62 806.367 1547.7 807.42C1562.89 815.094 1571.58 819.031 1586.73 826.777Z" fill="#64655D"/>
<path d="M1513.55 829.147C1499.62 842.541 1478.64 864.206 1478.64 864.206C1478.64 864.206 1504.43 845.717 1519.22 831.869C1528.01 823.643 1540.71 809.766 1540.71 809.766C1540.71 809.766 1540.43 808.236 1539.44 807.979C1538.45 807.722 1535.64 808.45 1535.64 808.45C1535.64 808.45 1522.07 820.951 1513.55 829.147Z" fill="#FFFEF5"/>
<path d="M1717.94 357.303L1739.08 349.204L1752.49 929.277L1718.47 928.683L1717.94 357.303Z" fill="white"/>
<path d="M1717.94 357.303L1733.2 349.102L1740.02 929.059L1715.53 928.632L1717.94 357.303Z" fill="#777C69"/>
<path d="M1743.93 347.95C1746.06 351.543 1743.75 358.635 1743.75 358.635C1743.75 358.635 1742.34 351.053 1738.57 349.192C1735.76 347.807 1730.55 349.052 1730.55 349.052C1730.55 349.052 1698.65 373.132 1678.64 389.118C1647.25 414.196 1599.99 455.437 1599.99 455.437C1599.99 455.437 1646.01 412.922 1676.89 387.306C1698.19 369.636 1732.44 343.296 1732.44 343.296C1732.44 343.296 1741.47 343.778 1743.93 347.95Z" fill="#5A6364"/>
<path d="M1539.4 507.819C1539.4 507.819 1620.79 434.99 1675.05 390.834C1697.75 372.353 1733.75 344.207 1733.75 344.207C1733.75 344.207 1741.23 344.551 1743.49 347.939C1745.7 351.269 1743.31 358.179 1743.31 358.179C1743.31 358.179 1716.47 390.221 1690.3 409.805C1664.13 429.388 1545.08 514.153 1545.08 514.153L1539.4 507.819Z" fill="#FFFFFD"/>
<path d="M1543.66 509.745C1545.23 511.514 1545.89 513.498 1545.13 514.177C1544.36 514.857 1542.47 513.973 1540.89 512.203C1539.32 510.434 1538.66 508.45 1539.43 507.771C1540.19 507.091 1542.09 507.975 1543.66 509.745Z" fill="#657576"/>
<path d="M1693.02 355.969L1733.9 335.751L1736.93 340.703L1690.88 376.417L1682.94 372.27L1681.32 362.89L1683.11 362.476L1683.37 347.784L1681.14 347.745L1681.17 345.964L1685.62 346.042L1693.02 355.969Z" fill="#5A6364"/>
<path d="M1746.22 343.986C1744.81 340.061 1742.62 346.595 1742.62 346.595C1742.62 346.595 1746.6 348 1743.76 357.748C1743.24 359.521 1752.15 361.458 1752.15 361.458C1752.15 361.458 1759.2 366.038 1764.12 369.242C1780.12 379.652 1981.36 497.285 1981.36 497.285C1981.36 497.285 1859.76 422.126 1824.5 401.024C1814.88 395.269 1758.09 353.104 1758.09 353.104C1758.09 353.104 1749.62 353.402 1746.22 343.986Z" fill="#5A6364"/>
<path d="M2027.71 520.823C2027.71 520.823 1921.1 444.903 1849.85 398.672C1820.03 379.323 1760.91 344.523 1760.91 344.523C1760.91 344.523 1764.04 349.571 1759.48 349.842C1753.69 350.186 1755.87 352.62 1755.87 352.62C1755.87 352.62 1798.92 386.327 1832.42 406.507C1865.91 426.687 2024.96 525.212 2024.96 525.212L2027.71 520.823Z" fill="#FEFFFD"/>
<path d="M1716 111.433C1716 111.433 1715.77 161.808 1716.95 184.486C1717.95 203.654 1721.79 264.288 1721.79 264.288L1725.8 238.973C1725.8 238.973 1724.06 134.563 1724.25 123.601C1724.44 112.64 1709.98 -2.68032 1709.98 -2.68032L1716 111.433Z" fill="#FEFFFD"/>
<path d="M1709.97 -2.68345C1709.97 -2.68345 1721.17 98.6933 1728.1 183.342C1731 218.771 1745.89 337.741 1745.89 337.741C1745.89 337.741 1744.98 334.425 1749.1 332.453C1750.9 331.594 1752.23 331.615 1752.23 331.615C1752.23 331.615 1743.86 239.752 1739.37 200.907C1734.88 162.062 1717.02 1.44756 1717.02 1.44756L1709.97 -2.68345Z" fill="#FEFFFD"/>
<path d="M1721.46 129.784C1721.46 129.784 1722.84 156.606 1722.6 192.152C1722.48 210.409 1720.13 255.793 1721.31 266.502C1722.48 277.21 1720.59 282.076 1731.13 316.106C1732.36 320.093 1733.46 335.297 1733.46 335.297L1733.32 343.756L1743.49 347.496L1745.81 342.638L1745.93 335.515C1745.93 335.515 1735.82 241.392 1731.33 202.547C1726.84 163.702 1709.97 -2.68415 1709.97 -2.68415L1721.46 129.784Z" fill="#5A6364"/>
<path d="M1761.16 339.115C1763.66 344.95 1762.44 351.08 1758.42 352.807C1754.4 354.533 1749.11 351.203 1746.6 345.367C1744.1 339.532 1745.32 333.402 1749.34 331.676C1753.36 329.949 1758.65 333.28 1761.16 339.115Z" fill="#FFFFFD"/>
<path d="M1371.88 657.592C1371.88 657.592 1302.98 661.433 1251.39 667.268C1248.68 667.575 1243.67 669.559 1240.16 671.012C1236.85 672.385 1232.31 673.785 1232.31 673.785L1233.4 679.066C1233.4 679.066 1262.9 677.366 1281.65 674.962C1292.93 673.518 1299.17 672.171 1310.41 670.526C1334.48 667.005 1372.18 662.539 1372.18 662.539L1371.88 657.592Z" fill="#FEFCFC"/>
<path d="M1230.87 681.512L1233.4 679.065L1296.42 672.91C1296.42 672.91 1269.85 678.534 1252.56 680.182C1244.12 680.987 1230.87 681.512 1230.87 681.512Z" fill="#7C744D"/>
<path d="M1214.68 934.588L1220.32 933.097C1220.32 933.097 1222.02 913.924 1221.88 902.445C1221.72 889.331 1221.89 882.338 1221.75 869.224C1221.75 869.224 1222.31 830.94 1222.09 806.182L1221.07 745.897L1221.07 683.639L1218.55 686.086C1218.55 686.086 1215.87 760.73 1214.95 808.147C1214.01 857.022 1214.68 934.588 1214.68 934.588Z" fill="#989B79"/>
<path d="M1220.32 933.097L1229.46 932.537C1229.46 932.537 1229.32 914.622 1229.18 903.144C1229.02 890.03 1228.79 882.679 1228.65 869.565C1228.65 869.565 1228.81 830.924 1228.59 806.166L1225.5 681.076L1221.07 683.639C1221.07 683.639 1220.42 760.072 1220.71 808.558C1221.01 857.441 1220.32 933.097 1220.32 933.097Z" fill="#FFFEFE"/>
<path d="M1227.29 672.946L1225.12 674.988C1225.12 674.988 1220.83 671.261 1217.33 666.299C1211.33 655.591 1201.39 643.596 1196.42 636.643C1174.69 606.273 1138.76 549.656 1138.76 549.656C1138.76 549.656 1181.68 607.132 1208.73 644.292C1216.41 654.844 1227.29 672.946 1227.29 672.946Z" fill="#FEFFFE"/>
<path d="M1187.01 626.528C1191.87 634.716 1201.97 652.347 1201.97 652.347L1204.03 654.894L1203.1 658.389C1203.1 658.389 1179.07 617.229 1163.16 592.469C1154.79 579.453 1144.21 563.839 1142.01 559.008C1139.8 554.178 1138.02 550.086 1138.02 550.086C1138.02 550.086 1147.09 561.983 1152.6 569.818C1168.58 592.528 1172.84 602.645 1187.01 626.528Z" fill="#FDFDF1"/>
<path d="M1219.46 676.1L1225.12 674.989L1160.22 581.953C1160.22 581.953 1181.73 617.523 1195.13 640.543C1197.98 645.434 1201.29 650.86 1202.39 653.084C1203.49 655.308 1202.14 657.3 1203.1 658.388C1204.05 659.475 1210.47 664.771 1214.48 669.531C1216.55 671.996 1219.46 676.1 1219.46 676.1Z" fill="#635F42"/>
<path d="M1182.15 821.237L1179.44 820.639C1179.44 820.639 1194.69 763.713 1206.99 728.047C1213.25 709.898 1223.26 681.98 1223.26 681.98L1227.4 680.962L1230.87 681.513C1230.87 681.513 1226.95 689.898 1225.53 694.063C1221.56 705.743 1221.11 712.057 1217.81 723.946C1214.55 735.757 1207.29 754.085 1202.52 767.28C1191.54 797.654 1182.15 821.237 1182.15 821.237Z" fill="#FEFFFE"/>
<path d="M1218.77 683.402L1223.26 681.981L1189.18 786.432C1189.18 786.432 1199.93 745.702 1208.02 719.964C1211.53 708.808 1214.94 702.202 1217.31 690.749C1217.96 687.601 1218.77 683.402 1218.77 683.402Z" fill="#8A8164"/>
<path d="M1233.61 676.375C1233.8 679.527 1231.75 682.218 1229.01 682.386C1226.28 682.553 1223.91 680.134 1223.72 676.981C1223.52 673.829 1225.58 671.138 1228.31 670.97C1231.05 670.803 1233.42 673.222 1233.61 676.375Z" fill="#FFFDFD"/>
<path d="M1208.09 683.671L1219.47 676.099L1225.13 674.988C1225.13 674.988 1224.57 676.691 1224.93 678.055C1225.29 679.381 1226.64 681.006 1226.64 681.006L1219.69 686.015L1212.74 691.025C1212.74 691.025 1209.16 690.91 1208.06 689.402C1206.83 687.718 1208.09 683.671 1208.09 683.671Z" fill="#70714F"/>
<path d="M273.496 654.401C262.67 633.439 253.574 596.915 253.574 596.915C253.574 596.915 237.801 645.814 215.182 665.655C202.306 676.949 177.61 687.249 177.61 687.249C177.61 687.249 184.566 689.679 189.187 689.961C198.648 690.538 212.555 682.978 212.555 682.978C212.555 682.978 197.871 699.427 186.56 707.284C173.966 716.033 151.399 723.962 151.399 723.962C151.399 723.962 163.644 730.651 172.185 731.821C183.138 733.321 200.158 727.411 200.158 727.411C200.158 727.411 179.243 743.185 164.867 751.533C154.169 757.746 136.721 765.868 136.721 765.868C136.721 765.868 148.605 774.928 157.464 776.208C166.637 777.534 180.79 771.707 180.79 771.707C180.79 771.707 172.264 788.211 164.09 796.197C152.111 807.902 126.562 815.31 126.562 815.31C126.562 815.31 149.163 823.173 163.658 821.011C172.187 819.738 184.703 813.982 184.703 813.982C184.703 813.982 177.991 835.335 167.917 843.435C153.343 855.154 121.352 847.475 121.352 847.475C121.352 847.475 147.132 873.161 167.226 883.137C222.985 910.816 272.258 897.927 323.362 861.413C343.632 846.929 368.337 815.143 368.337 815.143C368.337 815.143 328.507 823.655 310.325 809.028C301.041 801.559 292.166 783.846 292.166 783.846C292.166 783.846 318.46 795.636 333.91 789.638C343.637 785.863 355.128 772.684 355.128 772.684C355.128 772.684 331.458 775.344 317.988 769.465C306.56 764.477 292.77 749.107 292.77 749.107C292.77 749.107 304.014 752.439 311.319 751.957C319.914 751.39 332.364 744.928 332.364 744.928C332.364 744.928 304.621 735.955 293.245 721.812C285.835 712.599 277.496 691.713 277.496 691.713C277.496 691.713 287.823 701.421 293.634 699.48C297.31 698.252 305.383 692.266 305.383 692.266C305.383 692.266 282.263 671.375 273.496 654.401Z" fill="url(#paint1_linear)"/>
<path d="M648.279 915.874C656.494 926.565 674.132 930.756 674.132 930.756C674.132 930.756 634.373 965.623 606.26 972.517C569.961 981.419 513.336 953.43 513.336 953.43C513.336 953.43 534.427 955.703 545.182 945.44C552.685 938.282 560.548 919.881 560.548 919.881C560.548 919.881 550.772 923.702 545.632 919.585C541.998 916.673 538.374 907.945 538.374 907.945C544.966 905.832 549.024 906.523 555.255 902.533C563.91 896.99 574.3 879.92 574.3 879.92C574.3 879.92 567.432 880.628 563.113 879.698C557.871 878.57 550.161 873.693 550.161 873.693C550.161 873.693 559.766 870.085 565.227 865.371C571.12 860.284 578.579 848.393 578.579 848.393C578.579 848.393 571.736 848.808 567.392 848.171C562.987 847.524 556.255 845.076 556.255 845.076C556.255 845.076 571.702 832.206 581.093 811.083C595.25 779.241 609.046 705.305 609.046 705.305C609.046 705.305 611.076 759.927 620.648 788.877C626.762 807.369 642.321 829.541 642.321 829.541C642.321 829.541 637.961 834.113 634.763 835.138C631.903 836.055 627.306 834.99 627.306 834.99C627.306 834.99 638.814 853.978 647.315 864.126C659.09 878.182 680.376 893.52 680.376 893.52C680.376 893.52 665.5 897.652 656.087 895.912C647.856 894.391 639.407 889.833 639.407 889.833C639.407 889.833 641.535 907.096 648.279 915.874Z" fill="url(#paint2_linear)"/>
<path d="M10.1197 883.416C-3.7041 897.25 -33.2252 902.462 -33.2252 902.462C-33.2252 902.462 18.5387 920.595 52.6342 925.764C96.8008 932.46 124.825 943.992 166.573 925.776C184.621 917.902 209.759 897.64 209.759 897.64C209.759 897.64 172.134 881.809 155.934 860.063C144.21 844.326 134.222 812.756 134.222 812.756C134.222 812.756 142.076 818.053 147.629 819.309C155.683 821.132 168.471 816.623 168.471 816.623C168.471 816.623 148.952 792.133 139.245 774.011C132.071 760.619 123.425 737.953 123.425 737.953C123.425 737.953 132.368 745.717 138.809 749.014C149.255 754.359 167.403 755.266 167.403 755.266C167.403 755.266 143.55 730.389 132.442 710.495C123.763 694.95 114.606 667.657 114.606 667.657C114.606 667.657 118.906 678.66 124.335 681.103C128.505 682.98 135.725 680.877 135.725 680.877C135.725 680.877 122.602 654.018 115.95 635.805C106.633 610.293 97.6788 567.969 97.6788 567.969C97.6788 567.969 88.9021 603.724 77.7466 622.923C68.7831 638.349 49.8652 657.575 49.8652 657.575C49.8652 657.575 57.8639 661.153 63.2325 661.856C67.6571 662.436 74.6224 661.63 74.6224 661.63C74.6224 661.63 64.4835 679.735 56.1139 689.277C46.4545 700.288 28.0347 712.566 28.0347 712.566C28.0347 712.566 40.7672 714.188 48.9557 714.425C55.6279 714.617 66.0406 714.085 66.0406 714.085C66.0406 714.085 57.0878 730.844 49.3908 739.422C38.2394 751.849 15.6166 762.824 15.6166 762.824C15.6166 762.824 28.2888 767.119 36.5772 766.955C44.8656 766.79 57.3796 761.996 57.3796 761.996C57.3796 761.996 37.391 792.81 20.1648 805.926C3.57277 818.559 -26.9372 827.32 -26.9372 827.32C-26.9372 827.32 -6.23428 846.554 9.52639 849.329C17.6009 850.751 30.4079 848.914 30.4079 848.914C30.4079 848.914 20.6791 872.848 10.1197 883.416Z" fill="url(#paint3_linear)"/>
<path d="M450.542 874.654C460.793 887.238 482.783 892.192 482.783 892.192C482.783 892.192 433.27 933.141 398.24 941.209C353.007 951.628 282.396 918.633 282.396 918.633C282.396 918.633 308.686 921.335 322.079 909.281C331.421 900.873 341.2 879.244 341.2 879.244C341.2 879.244 329.02 883.724 322.608 878.875C318.074 875.446 313.548 865.177 313.548 865.177C321.762 862.7 326.819 863.519 334.581 858.835C345.362 852.328 358.29 832.268 358.29 832.268C358.29 832.268 349.732 833.091 344.347 831.991C337.813 830.657 328.197 824.912 328.197 824.912C328.197 824.912 340.164 820.681 346.965 815.145C354.303 809.171 363.585 795.197 363.585 795.197C363.585 795.197 355.057 795.676 349.642 794.92C344.151 794.154 335.757 791.265 335.757 791.265C335.757 791.265 354.994 776.151 366.674 751.323C384.28 713.896 401.384 626.965 401.384 626.965C401.384 626.965 403.981 691.205 415.947 725.264C423.59 747.019 443.011 773.116 443.011 773.116C443.011 773.116 437.582 778.487 433.597 779.688C430.034 780.763 424.301 779.504 424.301 779.504C424.301 779.504 438.669 801.849 449.277 813.796C463.97 830.343 490.52 848.41 490.52 848.41C490.52 848.41 471.984 853.249 460.25 851.189C449.988 849.389 439.452 844.017 439.452 844.017C439.452 844.017 442.125 864.321 450.542 874.654Z" fill="url(#paint4_linear)"/>
<path d="M296.19 904.593C283.13 919.243 256.757 937.007 256.757 937.007C256.757 937.007 323.747 943.913 366.869 943.86C379.558 943.844 399.356 943.215 399.356 943.215C399.356 943.215 387.731 932.991 381.549 925.493C368.795 910.025 358.272 880.767 358.272 880.767C358.272 880.767 366.05 887.929 370.963 891.813C377.716 897.151 388.574 898.241 388.574 898.241C388.574 898.241 380.651 881.882 375.607 871.386C368.475 856.543 357.446 833.337 357.446 833.337C357.446 833.337 367.08 843.034 375.175 846.541C381.567 849.311 392.746 850.711 392.746 850.711C392.746 850.711 384.75 838.558 379.898 830.632C373.574 820.302 364.432 803.826 364.432 803.826C364.432 803.826 369.892 809.1 374.546 810.403C379.199 811.706 387.041 810.155 387.041 810.155C387.041 810.155 374.744 795.943 369.116 785.658C363.656 775.679 356.07 754.285 356.07 754.285C361.956 755.933 367.834 761.324 373.72 762.972C373.72 762.972 360.081 744.524 355.638 729.44C348.506 705.229 346.961 661.83 346.961 661.83C346.961 661.83 346.532 723.947 331.12 757.039C323.634 773.113 306.72 791.415 306.72 791.415L319.175 788.908L304.574 811.792L319.49 806.977C319.49 806.977 310.268 832.691 300.166 845.77C290.19 858.688 262.956 862.324 262.956 862.324C262.956 862.324 287.756 869.28 300.559 868.356C308.346 867.795 320.551 867.96 320.551 867.96C320.551 867.96 307.781 891.592 296.19 904.593Z" fill="url(#paint5_linear)"/>
<path d="M697.362 934.173C705.632 941.632 723.292 944.645 723.292 944.645C723.292 944.645 683.722 968.567 655.65 973.174C619.402 979.123 562.633 959.38 562.633 959.38C562.633 959.38 583.734 961.084 594.434 954.036C601.897 949.121 609.662 936.415 609.662 936.415C609.662 936.415 599.907 939.004 594.746 936.119C591.096 934.079 587.426 928.008 587.426 928.008C594.006 926.583 598.067 927.088 604.276 924.36C612.901 920.571 623.198 908.803 623.198 908.803C623.198 908.803 616.335 909.252 612.011 908.581C606.764 907.768 599.029 904.341 599.029 904.341C599.029 904.341 608.614 901.898 614.049 898.664C619.914 895.175 627.308 886.979 627.308 886.979C627.308 886.979 620.469 887.225 616.121 886.757C611.714 886.282 604.969 884.544 604.969 884.544C604.969 884.544 620.345 875.718 629.623 861.136C643.609 839.153 657.008 787.995 657.008 787.995C657.008 787.995 659.329 825.864 669.055 845.986C675.267 858.84 690.944 874.301 690.944 874.301C690.944 874.301 686.608 877.444 683.416 878.135C680.561 878.753 675.958 877.987 675.958 877.987C675.958 877.987 687.567 891.217 696.121 898.302C707.97 908.115 729.336 918.875 729.336 918.875C729.336 918.875 714.484 921.648 705.063 920.385C696.824 919.281 688.351 916.071 688.351 916.071C688.351 916.071 690.571 928.048 697.362 934.173Z" fill="url(#paint6_linear)"/>
<path d="M1811.95 897.429C1808.45 902.169 1800.93 904.038 1800.93 904.038C1800.93 904.038 1817.86 919.452 1829.83 922.487C1845.3 926.405 1869.45 913.971 1869.45 913.971C1869.45 913.971 1860.46 914.992 1855.88 910.454C1852.69 907.288 1849.34 899.144 1849.34 899.144C1849.34 899.144 1853.51 900.83 1855.7 899.003C1857.25 897.711 1858.8 893.843 1858.8 893.843C1855.99 892.912 1854.26 893.221 1851.61 891.458C1847.92 889.008 1843.5 881.456 1843.5 881.456C1843.5 881.456 1846.43 881.764 1848.27 881.35C1850.51 880.847 1853.8 878.682 1853.8 878.682C1853.8 878.682 1849.7 877.09 1847.38 875.006C1844.87 872.757 1841.7 867.496 1841.7 867.496C1841.7 867.496 1844.61 867.675 1846.47 867.39C1848.34 867.1 1851.21 866.012 1851.21 866.012C1851.21 866.012 1844.64 860.322 1840.65 850.974C1834.63 836.881 1828.79 804.146 1828.79 804.146C1828.79 804.146 1827.89 828.338 1823.8 841.166C1821.18 849.36 1814.54 859.19 1814.54 859.19C1814.54 859.19 1816.4 861.212 1817.76 861.664C1818.98 862.068 1820.94 861.593 1820.94 861.593C1820.94 861.593 1816.02 870.01 1812.39 874.51C1807.37 880.743 1798.29 887.551 1798.29 887.551C1798.29 887.551 1804.62 889.371 1808.64 888.594C1812.15 887.914 1815.75 885.89 1815.75 885.89C1815.75 885.89 1814.83 893.537 1811.95 897.429Z" fill="url(#paint7_linear)"/>
<path d="M589.193 935.835L620.335 968.316C620.335 968.316 607.861 973.293 599.687 975.872C544.509 993.283 452.357 974.94 452.357 974.94L428.465 954.552C428.465 954.552 451.819 946.952 464.203 937.337C478.003 926.623 492.794 902.058 492.794 902.058C492.794 902.058 481.476 906.385 474.08 905.67C467.199 905.004 457.403 899.365 457.403 899.365C457.403 899.365 475.082 888.147 483.887 877.984C493.641 866.726 503.121 844.511 503.121 844.511C503.121 844.511 493.444 852.201 486.167 854.132C478.393 856.194 465.658 853.725 465.658 853.725C465.658 853.725 480.726 841.906 488.413 832.27C498.137 820.081 507.682 796.806 507.682 796.806C507.682 796.806 502.616 803.116 498.221 804.584L486.964 808.344C486.964 808.344 501.282 787.617 508.097 772.917C519.149 749.08 526.021 707.554 526.021 707.554C526.021 707.554 529.613 741.622 540.036 759.61C548.165 773.637 567.484 790.027 567.484 790.027C567.484 790.027 559.131 791.853 554.398 791.759C549.665 791.665 543.246 789.546 543.246 789.546C543.246 789.546 559.497 806.612 567.034 815.907C575.151 825.918 590.891 838.287 590.891 838.287C590.891 838.287 579.435 839.159 572.246 837.917C563.152 836.345 550.011 829.509 550.011 829.509C550.011 829.509 566.659 846.507 579.427 853.991C590.935 860.736 610.915 866.564 610.915 866.564C610.915 866.564 596.543 874.492 586.503 876.037C578.575 877.258 565.994 875.63 565.994 875.63C565.994 875.63 585.761 897.557 600.865 908.186C619.949 921.616 654.52 933.148 654.52 933.148C654.52 933.148 631.944 940.543 617.091 940.371C606.071 940.244 589.193 935.835 589.193 935.835Z" fill="url(#paint8_linear)"/>
<path d="M1965.02 875.265C1970.69 883.786 1982.88 887.126 1982.88 887.126C1982.88 887.126 1955.42 914.914 1936 920.409C1910.93 927.504 1871.82 905.197 1871.82 905.197C1871.82 905.197 1886.39 907.008 1893.82 898.829C1899 893.124 1904.43 878.458 1904.43 878.458C1904.43 878.458 1897.68 881.504 1894.13 878.223C1891.62 875.902 1889.11 868.946 1889.11 868.946C1893.67 867.262 1896.47 867.813 1900.77 864.632C1906.75 860.215 1913.93 846.61 1913.93 846.61C1913.93 846.61 1909.18 847.174 1906.2 846.433C1902.58 845.535 1897.26 841.648 1897.26 841.648C1897.26 841.648 1903.89 838.772 1907.66 835.015C1911.73 830.961 1916.88 821.484 1916.88 821.484C1916.88 821.484 1912.16 821.815 1909.16 821.307C1906.11 820.791 1901.46 818.84 1901.46 818.84C1901.46 818.84 1912.13 808.583 1918.62 791.748C1928.4 766.371 1937.92 707.446 1937.92 707.446C1937.92 707.446 1939.33 750.978 1945.94 774.051C1950.16 788.788 1960.91 806.459 1960.91 806.459C1960.91 806.459 1957.9 810.103 1955.69 810.92C1953.71 811.651 1950.54 810.802 1950.54 810.802C1950.54 810.802 1958.48 825.935 1964.36 834.023C1972.49 845.225 1987.19 857.45 1987.19 857.45C1987.19 857.45 1976.92 860.743 1970.41 859.356C1964.73 858.143 1958.89 854.511 1958.89 854.511C1958.89 854.511 1960.36 868.269 1965.02 875.265Z" fill="url(#paint9_linear)"/>
<path d="M1924.21 891.172L1945.72 917.06C1945.72 917.06 1937.11 921.026 1931.46 923.082C1893.35 936.958 1829.71 922.339 1829.71 922.339L1813.21 906.089C1813.21 906.089 1829.34 900.032 1837.89 892.37C1847.42 883.831 1857.63 864.253 1857.63 864.253C1857.63 864.253 1849.82 867.702 1844.71 867.132C1839.96 866.601 1833.19 862.106 1833.19 862.106C1833.19 862.106 1845.4 853.166 1851.48 845.066C1858.22 836.094 1864.77 818.389 1864.77 818.389C1864.77 818.389 1858.08 824.518 1853.06 826.056C1847.69 827.7 1838.89 825.732 1838.89 825.732C1838.89 825.732 1849.3 816.313 1854.61 808.633C1861.33 798.919 1867.92 780.369 1867.92 780.369C1867.92 780.369 1864.42 785.398 1861.38 786.568L1853.61 789.564C1853.61 789.564 1863.5 773.046 1868.2 761.33C1875.84 742.332 1880.58 709.237 1880.58 709.237C1880.58 709.237 1883.06 736.389 1890.26 750.724C1895.88 761.904 1909.22 774.966 1909.22 774.966C1909.22 774.966 1903.45 776.421 1900.18 776.346C1896.91 776.271 1892.48 774.583 1892.48 774.583C1892.48 774.583 1903.7 788.184 1908.91 795.592C1914.52 803.571 1925.39 813.428 1925.39 813.428C1925.39 813.428 1917.47 814.124 1912.51 813.133C1906.23 811.881 1897.15 806.433 1897.15 806.433C1897.15 806.433 1908.65 819.98 1917.47 825.944C1925.42 831.32 1939.22 835.965 1939.22 835.965C1939.22 835.965 1929.29 842.283 1922.36 843.515C1916.88 844.488 1908.19 843.191 1908.19 843.191C1908.19 843.191 1921.84 860.665 1932.27 869.137C1945.46 879.84 1969.33 889.031 1969.33 889.031C1969.33 889.031 1953.74 894.925 1943.48 894.788C1935.87 894.686 1924.21 891.172 1924.21 891.172Z" fill="url(#paint10_linear)"/>
<path d="M88.9154 851.271L119.583 911C119.583 911 107.032 920.444 98.8165 925.368C43.3633 958.604 -48.5427 926.139 -48.5427 926.139L-72.1382 888.721C-72.1382 888.721 -48.6641 874.225 -36.1342 856.18C-22.1698 836.068 -7.00957 790.247 -7.00957 790.247C-7.00957 790.247 -18.3951 798.466 -25.7831 797.264C-32.6559 796.146 -42.3706 785.85 -42.3706 785.85C-42.3706 785.85 -24.5195 764.739 -15.5605 745.737C-5.63616 724.686 4.17738 683.313 4.17738 683.313C4.17738 683.313 -5.61705 697.744 -12.9245 701.448C-20.7319 705.407 -33.434 701.041 -33.434 701.041C-33.434 701.041 -18.1859 678.861 -10.3528 660.854C-0.444701 638.077 9.44936 594.736 9.44936 594.736C9.44936 594.736 4.28873 606.528 -0.130267 609.326L-11.4458 616.492C-11.4458 616.492 3.18459 577.798 10.2209 550.411C21.6301 506.003 29.123 428.85 29.123 428.85C29.123 428.85 32.2083 491.991 42.3673 525.184C50.2894 551.068 69.3703 581.145 69.3703 581.145C69.3703 581.145 60.9874 584.674 56.2546 584.58C51.5217 584.486 45.1319 580.664 45.1319 580.664C45.1319 580.664 61.134 612.048 68.5345 629.164C76.5052 647.599 92.0657 670.276 92.0657 670.276C92.0657 670.276 80.5934 672.09 73.4208 669.906C64.3481 667.145 51.304 654.687 51.304 654.687C51.304 654.687 67.7041 685.938 80.3644 699.605C91.7762 711.923 111.675 722.396 111.675 722.396C111.675 722.396 97.1807 737.346 87.1152 740.384C79.1658 742.783 66.6057 739.977 66.6057 739.977C66.6057 739.977 86.0522 780.318 101.002 799.78C119.892 824.371 154.301 845.178 154.301 845.178C154.301 845.178 131.609 859.28 116.754 859.213C105.733 859.164 88.9154 851.271 88.9154 851.271Z" fill="url(#paint11_linear)"/>
<path d="M455.916 942.978C462.33 943.239 514.73 938.774 521.103 937.554C553.995 931.257 556.254 921.456 556.254 921.456C556.254 921.456 537.403 912.947 528.717 900.756C521.715 890.928 515.3 870.259 515.3 870.259L533.833 873.986C533.833 873.986 516.162 851.716 508.971 833.185C502.404 816.262 498.169 785.945 498.169 785.945C498.169 785.945 492.646 840.163 478.175 866.163C472.513 876.338 461.499 889.345 461.499 889.345C461.499 889.345 467.17 889.912 470.794 889.53C475.415 889.042 482.473 886.402 482.473 886.402C482.473 886.402 471.081 909.496 460.973 919.566C451.894 928.609 435.117 935.847 435.117 935.847C435.117 935.847 447.552 942.639 455.916 942.978Z" fill="url(#paint12_linear)"/>
<path d="M492.463 893.247C502.772 902.544 524.782 906.299 524.782 906.299C524.782 906.299 475.463 936.117 440.473 941.859C395.292 949.274 324.535 924.665 324.535 924.665C324.535 924.665 350.836 926.789 364.172 918.005C373.475 911.878 383.152 896.042 383.152 896.042C383.152 896.042 370.994 899.269 364.561 895.673C360.011 893.13 355.438 885.563 355.438 885.563C363.639 883.787 368.7 884.416 376.439 881.016C387.189 876.293 400.024 861.626 400.024 861.626C400.024 861.626 391.47 862.185 386.081 861.349C379.541 860.335 369.899 856.064 369.899 856.064C369.899 856.064 381.846 853.02 388.62 848.989C395.931 844.639 405.147 834.423 405.147 834.423C405.147 834.423 396.622 834.731 391.204 834.147C385.71 833.555 377.303 831.389 377.303 831.389C377.303 831.389 396.469 820.388 408.033 802.212C425.464 774.813 442.166 711.048 442.166 711.048C442.166 711.048 445.059 758.249 457.181 783.33C464.924 799.35 484.463 818.622 484.463 818.622C484.463 818.622 479.06 822.539 475.081 823.4C471.523 824.171 465.785 823.216 465.785 823.216C465.785 823.216 480.254 839.705 490.917 848.536C505.685 860.768 532.316 874.18 532.316 874.18C532.316 874.18 513.804 877.636 502.061 876.062C491.793 874.685 481.232 870.684 481.232 870.684C481.232 870.684 483.999 885.612 492.463 893.247Z" fill="url(#paint13_linear)"/>
<path d="M250.134 883.78C267.08 899.39 303.228 905.317 303.228 905.317C303.228 905.317 239.891 925.641 198.161 931.397C144.105 938.852 109.818 951.787 58.6802 931.189C36.5728 922.285 5.76431 899.414 5.76431 899.414C5.76431 899.414 51.7979 881.655 71.5919 857.193C85.9171 839.49 98.0907 803.95 98.0907 803.95C98.0907 803.95 88.4853 809.901 81.6895 811.306C71.8334 813.343 56.1708 808.239 56.1708 808.239C56.1708 808.239 80.0237 780.693 91.8763 760.3C100.635 745.23 111.181 719.716 111.181 719.716C111.181 719.716 100.247 728.444 92.3663 732.145C79.5883 738.146 57.3736 739.132 57.3736 739.132C57.3736 739.132 86.5309 711.158 100.095 688.771C110.694 671.279 121.857 640.555 121.857 640.555C121.857 640.555 116.612 652.94 109.97 655.681C104.868 657.787 96.0268 655.405 96.0268 655.405C96.0268 655.405 112.046 625.177 120.157 604.675C131.519 575.957 142.409 528.304 142.409 528.304C142.409 528.304 153.214 568.594 166.903 590.24C177.902 607.633 201.094 629.325 201.094 629.325C201.094 629.325 191.308 633.339 184.737 634.121C179.322 634.765 170.794 633.844 170.794 633.844C170.794 633.844 183.236 654.257 193.498 665.02C205.342 677.442 227.912 691.307 227.912 691.307C227.912 691.307 212.328 693.109 202.304 693.359C194.137 693.564 181.389 692.944 181.389 692.944C181.389 692.944 192.377 711.838 201.814 721.514C215.486 735.533 243.199 747.94 243.199 747.94C243.199 747.94 227.694 752.753 217.547 752.552C207.4 752.35 192.073 746.925 192.073 746.925C192.073 746.925 216.595 781.673 237.705 796.479C258.038 810.74 295.402 820.668 295.402 820.668C295.402 820.668 270.091 842.291 250.802 845.387C240.92 846.973 225.239 844.88 225.239 844.88C225.239 844.88 237.189 871.857 250.134 883.78Z" fill="url(#paint14_linear)"/>
<path d="M875.383 920.619C871.263 924.742 862.465 926.295 862.465 926.295C862.465 926.295 877.892 931.699 888.053 933.24C901.216 935.235 909.568 938.672 922.01 933.243C927.389 930.896 934.881 924.858 934.881 924.858C934.881 924.858 923.667 920.14 918.839 913.659C915.345 908.969 912.369 899.56 912.369 899.56C912.369 899.56 914.709 901.139 916.364 901.513C918.764 902.057 922.576 900.713 922.576 900.713C922.576 900.713 916.759 893.414 913.866 888.013C911.728 884.022 909.151 877.267 909.151 877.267C909.151 877.267 911.816 879.581 913.736 880.563C916.849 882.157 922.257 882.427 922.257 882.427C922.257 882.427 915.149 875.013 911.838 869.084C909.252 864.451 906.523 856.317 906.523 856.317C906.523 856.317 907.804 859.596 909.422 860.324C910.665 860.884 912.816 860.257 912.816 860.257C912.816 860.257 908.906 852.252 906.923 846.824C904.147 839.221 901.478 826.608 901.478 826.608C901.478 826.608 898.862 837.264 895.538 842.985C892.866 847.583 887.228 853.312 887.228 853.312C887.228 853.312 889.612 854.379 891.212 854.588C892.531 854.761 894.606 854.521 894.606 854.521C894.606 854.521 891.585 859.917 889.09 862.76C886.212 866.042 880.722 869.701 880.722 869.701C880.722 869.701 884.517 870.185 886.957 870.255C888.946 870.312 892.049 870.154 892.049 870.154C892.049 870.154 889.381 875.148 887.087 877.705C883.763 881.408 877.021 884.679 877.021 884.679C877.021 884.679 880.798 885.959 883.268 885.91C885.738 885.861 889.468 884.432 889.468 884.432C889.468 884.432 883.511 893.616 878.377 897.525C873.432 901.29 864.339 903.901 864.339 903.901C864.339 903.901 870.509 909.633 875.206 910.46C877.613 910.884 881.429 910.336 881.429 910.336C881.429 910.336 878.53 917.469 875.383 920.619Z" fill="url(#paint15_linear)"/>
<path d="M966.64 918.711C971.69 923.363 982.463 925.13 982.463 925.13C982.463 925.13 963.587 931.187 951.15 932.902C935.04 935.124 924.822 938.979 909.581 932.84C902.993 930.187 893.811 923.371 893.811 923.371C893.811 923.371 907.53 918.078 913.429 910.788C917.699 905.512 921.327 894.92 921.327 894.92C921.327 894.92 918.464 896.693 916.439 897.112C913.501 897.719 908.834 896.198 908.834 896.198C908.834 896.198 915.942 887.989 919.475 881.911C922.085 877.42 925.228 869.816 925.228 869.816C925.228 869.816 921.969 872.417 919.621 873.52C915.813 875.308 909.192 875.602 909.192 875.602C909.192 875.602 917.882 867.265 921.924 860.593C925.083 855.38 928.41 846.224 928.41 846.224C928.41 846.224 926.846 849.915 924.867 850.732C923.347 851.36 920.712 850.65 920.712 850.65C920.712 850.65 925.486 841.641 927.903 835.531C931.289 826.972 934.535 812.77 934.535 812.77C934.535 812.77 937.755 824.778 941.835 831.229C945.113 836.412 952.024 842.877 952.024 842.877C952.024 842.877 949.108 844.073 947.15 844.306C945.536 844.499 942.994 844.224 942.994 844.224C942.994 844.224 946.702 850.307 949.761 853.515C953.29 857.217 960.017 861.349 960.017 861.349C960.017 861.349 955.372 861.886 952.385 861.961C949.951 862.022 946.152 861.837 946.152 861.837C946.152 861.837 949.426 867.468 952.239 870.352C956.314 874.53 964.573 878.227 964.573 878.227C964.573 878.227 959.952 879.662 956.928 879.602C953.904 879.542 949.336 877.925 949.336 877.925C949.336 877.925 956.644 888.281 962.935 892.693C968.995 896.943 980.131 899.902 980.131 899.902C980.131 899.902 972.587 906.346 966.839 907.269C963.894 907.742 959.22 907.118 959.22 907.118C959.22 907.118 962.782 915.158 966.64 918.711Z" fill="url(#paint16_linear)"/>
<path d="M91.2412 896.385C103.295 915.237 127.712 938.024 127.712 938.024C127.712 938.024 65.3623 947.438 25.2557 947.681C13.4547 947.752 -4.95543 947.081 -4.95543 947.081C-4.95543 947.081 5.92203 933.773 11.7189 924.032C23.6789 903.934 33.6514 866.017 33.6514 866.017C33.6514 866.017 26.3718 875.335 21.7774 880.394C15.463 887.346 5.35733 888.835 5.35733 888.835C5.35733 888.835 12.8299 867.619 17.5872 854.008C24.3151 834.758 34.7192 804.665 34.7192 804.665C34.7192 804.665 25.6975 817.276 18.1466 821.871C12.1841 825.499 1.77732 827.391 1.77732 827.391C1.77732 827.391 9.29122 811.615 13.8547 801.328C19.8014 787.923 28.4085 766.546 28.4085 766.546C28.4085 766.546 23.2965 773.408 18.9602 775.127C14.6239 776.845 7.34051 774.896 7.34051 774.896C7.34051 774.896 18.8679 756.425 24.1674 743.082C29.3087 730.137 36.499 702.411 36.499 702.411C31.014 704.585 25.5131 711.601 20.0281 713.775C20.0281 713.775 32.8303 689.815 37.0584 670.274C43.8449 638.909 45.5557 582.767 45.5557 582.767C45.5557 582.767 45.5622 663.103 59.6875 705.794C66.5481 726.529 82.1641 750.078 82.1641 750.078L70.5953 746.926L84.0304 776.418L70.1885 770.298C70.1885 770.298 78.6029 803.489 87.9155 820.333C97.1127 836.968 122.419 841.475 122.419 841.475C122.419 841.475 99.309 850.65 87.407 849.548C80.1678 848.878 68.8155 849.179 68.8155 849.179C68.8155 849.179 80.5435 879.653 91.2412 896.385Z" fill="url(#paint17_linear)"/>
<path d="M357.639 895.318L396.455 935.803C396.455 935.803 380.908 942.006 370.719 945.221C301.944 966.923 187.085 944.06 187.085 944.06L157.306 918.647C157.306 918.647 186.414 909.174 201.849 897.191C219.051 883.836 237.485 853.218 237.485 853.218C237.485 853.218 223.379 858.612 214.16 857.72C205.584 856.89 193.374 849.861 193.374 849.861C193.374 849.861 215.409 835.879 226.384 823.212C238.541 809.18 250.358 781.49 250.358 781.49C250.358 781.49 238.296 791.075 229.226 793.482C219.536 796.052 203.663 792.974 203.663 792.974C203.663 792.974 222.444 778.244 232.025 766.233C244.145 751.04 256.042 722.03 256.042 722.03C256.042 722.03 249.729 729.895 244.25 731.725L230.22 736.411C230.22 736.411 248.065 710.577 256.56 692.254C270.335 662.543 278.901 610.784 278.901 610.784C278.901 610.784 283.377 653.248 296.37 675.668C306.501 693.152 330.581 713.58 330.581 713.58C330.581 713.58 320.169 715.856 314.27 715.739C308.371 715.622 300.37 712.981 300.37 712.981C300.37 712.981 320.625 734.252 330.019 745.838C340.137 758.316 359.755 773.732 359.755 773.732C359.755 773.732 345.476 774.819 336.516 773.271C325.182 771.312 308.802 762.792 308.802 762.792C308.802 762.792 329.552 783.978 345.466 793.306C359.811 801.714 384.714 808.978 384.714 808.978C384.714 808.978 366.8 818.859 354.287 820.785C344.404 822.307 328.724 820.278 328.724 820.278C328.724 820.278 353.362 847.607 372.187 860.856C395.974 877.595 439.063 891.969 439.063 891.969C439.063 891.969 410.924 901.186 392.412 900.972C378.676 900.813 357.639 895.318 357.639 895.318Z" fill="url(#paint18_linear)"/>
<path d="M413 593.871L432.672 595.095C432.672 595.095 434.853 591.172 437.974 588.45L445.966 581.48C445.966 581.48 438.588 589.828 437.172 593.097C435.003 598.104 435.976 602.39 435.976 602.39C435.976 602.39 432.321 598.512 428.172 597.034C423.247 595.279 413 593.871 413 593.871Z" fill="#545454" fill-opacity="0.1"/>
<path d="M813.66 724.211L837.084 729.146C837.084 729.146 840.472 723.728 844.756 720.225L855.727 711.255C855.727 711.255 845.226 722.348 842.886 726.926C839.302 733.94 839.637 740.394 839.637 740.394C839.637 740.394 835.996 734.111 831.293 731.278C825.711 727.914 813.66 724.211 813.66 724.211Z" fill="#545454" fill-opacity="0.1"/>
<path d="M405 548.344L424.692 549.925C424.692 549.925 426.876 544.858 430 541.344L438 532.344C438 532.344 430.614 543.123 429.197 547.344C427.026 553.809 428 559.344 428 559.344C428 559.344 424.341 554.336 420.188 552.427C415.258 550.162 405 548.344 405 548.344Z" fill="#545454" fill-opacity="0.1"/>
<path d="M250 254.909L273.273 256.777C273.273 256.777 275.853 250.79 279.545 246.636L289 236C289 236 280.272 248.739 278.597 253.727C276.031 261.368 277.182 267.909 277.182 267.909C277.182 267.909 272.858 261.991 267.949 259.735C262.123 257.058 250 254.909 250 254.909Z" fill="#545454" fill-opacity="0.1"/>
<path d="M411 221.946L434.273 223.522C434.273 223.522 436.853 218.473 440.545 214.97L450 206C450 206 441.272 216.743 439.597 220.949C437.031 227.393 438.182 232.909 438.182 232.909C438.182 232.909 433.858 227.918 428.949 226.016C423.123 223.758 411 221.946 411 221.946Z" fill="#545454" fill-opacity="0.1"/>
<path d="M268 152.427L291.273 154.002C291.273 154.002 293.853 148.953 297.545 145.45L307 136.48C307 136.48 298.272 147.223 296.597 151.43C294.031 157.874 295.182 163.39 295.182 163.39C295.182 163.39 290.858 158.398 285.949 156.496C280.123 154.239 268 152.427 268 152.427Z" fill="#545454" fill-opacity="0.1"/>
<path d="M172 100.404L185.725 101.333C185.725 101.333 187.247 98.3556 189.424 96.2898L195 91C195 91 189.852 97.3354 188.865 99.8164C187.351 103.616 188.03 106.869 188.03 106.869C188.03 106.869 185.48 103.926 182.585 102.804C179.149 101.473 172 100.404 172 100.404Z" fill="#545454" fill-opacity="0.1"/>
<path d="M1081 863.391L1100.67 864.615C1100.67 864.615 1102.85 860.692 1105.97 857.97L1113.97 851C1113.97 851 1106.59 859.347 1105.17 862.616C1103 867.623 1103.98 871.909 1103.98 871.909C1103.98 871.909 1100.32 868.031 1096.17 866.553C1091.25 864.799 1081 863.391 1081 863.391Z" fill="#545454" fill-opacity="0.1"/>
<path d="M971.66 780.211L995.084 785.146C995.084 785.146 998.472 779.728 1002.76 776.225L1013.73 767.255C1013.73 767.255 1003.23 778.348 1000.89 782.926C997.302 789.94 997.637 796.394 997.637 796.394C997.637 796.394 993.996 790.111 989.293 787.278C983.711 783.914 971.66 780.211 971.66 780.211Z" fill="#545454" fill-opacity="0.1"/>
<path d="M1064 740.909L1087.27 742.777C1087.27 742.777 1089.85 736.79 1093.55 732.636L1103 722C1103 722 1094.27 734.739 1092.6 739.727C1090.03 747.368 1091.18 753.909 1091.18 753.909C1091.18 753.909 1086.86 747.991 1081.95 745.735C1076.12 743.058 1064 740.909 1064 740.909Z" fill="#545454" fill-opacity="0.1"/>
<path d="M1042 629.427L1065.27 631.002C1065.27 631.002 1067.85 625.953 1071.55 622.45L1081 613.48C1081 613.48 1072.27 624.223 1070.6 628.43C1068.03 634.874 1069.18 640.39 1069.18 640.39C1069.18 640.39 1064.86 635.398 1059.95 633.496C1054.12 631.239 1042 629.427 1042 629.427Z" fill="#545454" fill-opacity="0.1"/>
<path d="M841 597.427L864.273 599.002C864.273 599.002 866.853 593.953 870.545 590.45L880 581.48C880 581.48 871.272 592.223 869.597 596.43C867.031 602.874 868.182 608.39 868.182 608.39C868.182 608.39 863.858 603.398 858.949 601.496C853.123 599.239 841 597.427 841 597.427Z" fill="#545454" fill-opacity="0.1"/>
<path d="M745 545.404L758.725 546.333C758.725 546.333 760.247 543.356 762.424 541.29L768 536C768 536 762.852 542.335 761.865 544.816C760.351 548.616 761.03 551.869 761.03 551.869C761.03 551.869 758.48 548.926 755.585 547.804C752.149 546.473 745 545.404 745 545.404Z" fill="#545454" fill-opacity="0.1"/>
</g>
<defs>
<linearGradient id="paint0_linear" x1="1920" y1="-0.000153243" x2="257.732" y2="806.16" gradientUnits="userSpaceOnUse">
<stop stop-color="#8FD3F4"/>
<stop offset="1" stop-color="#84FAB0"/>
</linearGradient>
<linearGradient id="paint1_linear" x1="248.926" y1="596.823" x2="242.942" y2="898.401" gradientUnits="userSpaceOnUse">
<stop stop-color="#7EF4AA"/>
<stop offset="0.262927" stop-color="#66DC92"/>
</linearGradient>
<linearGradient id="paint2_linear" x1="600.656" y1="705.139" x2="595.313" y2="974.381" gradientUnits="userSpaceOnUse">
<stop stop-color="#67DD93"/>
<stop offset="0.536458" stop-color="#55CB81"/>
</linearGradient>
<linearGradient id="paint3_linear" x1="82.4923" y1="568.271" x2="89.7936" y2="936.218" gradientUnits="userSpaceOnUse">
<stop stop-color="#4BC177"/>
<stop offset="0.536458" stop-color="#55CB81"/>
</linearGradient>
<linearGradient id="paint4_linear" x1="406" y1="611.204" x2="384.606" y2="943.35" gradientUnits="userSpaceOnUse">
<stop stop-color="#80F6AC"/>
<stop offset="0.743716" stop-color="#55CB81"/>
</linearGradient>
<linearGradient id="paint5_linear" x1="323.221" y1="662.302" x2="328.825" y2="944.72" gradientUnits="userSpaceOnUse">
<stop stop-color="#67DD93"/>
<stop offset="0.536458" stop-color="#4CC278"/>
</linearGradient>
<linearGradient id="paint6_linear" x1="672" y1="840.204" x2="631.758" y2="939.606" gradientUnits="userSpaceOnUse">
<stop stop-color="#3BB18A"/>
<stop offset="1" stop-color="#118760"/>
</linearGradient>
<linearGradient id="paint7_linear" x1="1822.53" y1="837.461" x2="1855.24" y2="891.913" gradientUnits="userSpaceOnUse">
<stop stop-color="#3BB18A"/>
<stop offset="1" stop-color="#118760"/>
</linearGradient>
<linearGradient id="paint8_linear" x1="545.599" y1="707.942" x2="540.131" y2="983.465" gradientUnits="userSpaceOnUse">
<stop stop-color="#3BB18A"/>
<stop offset="1" stop-color="#1B916A"/>
</linearGradient>
<linearGradient id="paint9_linear" x1="1932.13" y1="707.313" x2="1927.22" y2="921.866" gradientUnits="userSpaceOnUse">
<stop stop-color="#67DD93"/>
<stop offset="0.536458" stop-color="#55CB81"/>
</linearGradient>
<linearGradient id="paint10_linear" x1="1894.1" y1="709.546" x2="1889.08" y2="929.105" gradientUnits="userSpaceOnUse">
<stop stop-color="#3BB18A"/>
<stop offset="1" stop-color="#1B916A"/>
</linearGradient>
<linearGradient id="paint11_linear" x1="77" y1="406.204" x2="-60.3066" y2="942.369" gradientUnits="userSpaceOnUse">
<stop stop-color="#3BB18A"/>
<stop offset="1" stop-color="#269C75"/>
</linearGradient>
<linearGradient id="paint12_linear" x1="498.169" y1="785.945" x2="495.038" y2="943.757" gradientUnits="userSpaceOnUse">
<stop stop-color="#3BB18A"/>
<stop offset="1" stop-color="#269C75"/>
</linearGradient>
<linearGradient id="paint13_linear" x1="499" y1="737.704" x2="278.135" y2="887.666" gradientUnits="userSpaceOnUse">
<stop stop-color="#3BB18A"/>
<stop offset="1" stop-color="#269C75"/>
</linearGradient>
<linearGradient id="paint14_linear" x1="70" y1="816.704" x2="215.075" y2="786.058" gradientUnits="userSpaceOnUse">
<stop stop-color="#3BB18A"/>
<stop offset="1" stop-color="#269C75"/>
</linearGradient>
<linearGradient id="paint15_linear" x1="896.952" y1="826.698" x2="899.128" y2="936.355" gradientUnits="userSpaceOnUse">
<stop stop-color="#428A5D"/>
<stop offset="0.957974" stop-color="#43B96F"/>
</linearGradient>
<linearGradient id="paint16_linear" x1="912.955" y1="898.721" x2="956.191" y2="889.587" gradientUnits="userSpaceOnUse">
<stop stop-color="#42B891"/>
<stop offset="1" stop-color="#158B64"/>
</linearGradient>
<linearGradient id="paint17_linear" x1="64.7236" y1="688.584" x2="51.0831" y2="817.076" gradientUnits="userSpaceOnUse">
<stop stop-color="#3BB18A"/>
<stop offset="1" stop-color="#269C75"/>
</linearGradient>
<linearGradient id="paint18_linear" x1="232.5" y1="589.704" x2="318.144" y2="940.913" gradientUnits="userSpaceOnUse">
<stop stop-color="#3BB18A"/>
<stop offset="1" stop-color="#269C75"/>
</linearGradient>
</defs>
</svg>
