<svg width="131" height="170" viewBox="0 0 131 170" fill="none" xmlns="http://www.w3.org/2000/svg">
<path d="M6.89113 5.22698C-10.8079 12.4595 -27.0328 40.4711 -27.0328 40.4711C-27.0328 40.4711 -45.2189 29.3046 -70.3996 40.4711C-95.5802 51.6375 -99.0775 77.4599 -99.0775 77.4599C-99.0775 77.4599 -119.547 75.2749 -130.204 81.2984C-140.783 87.2779 -146.52 93.9483 -149.439 105.725C-153.827 123.429 -149.439 136.433 -130.204 148.297C-110.968 160.161 -88.5856 151.787 -88.5856 151.787C-88.5856 151.787 -63.4049 166.094 -45.2189 166.443C-27.0328 166.792 -6.39868 156.672 -6.39868 156.672C-6.39868 156.672 15.9841 173.771 37.3178 169.234C58.6514 164.698 69.4931 148.297 69.4931 148.297C69.4931 148.297 106.215 157.021 119.155 135.386C132.095 113.751 134.258 103.394 126.499 85.1369C119.162 67.872 88.3786 55.8249 88.3786 55.8249C88.3786 55.8249 83.1328 29.0542 71.5915 17.4403C53.4855 -0.779598 30.688 -4.49733 6.89113 5.22698Z" fill="url(#paint0_linear)"/>
<defs>
<linearGradient id="paint0_linear" x1="92.5455" y1="50.4688" x2="-106.326" y2="148.619" gradientUnits="userSpaceOnUse">
<stop stop-color="#EDFFFF"/>
<stop offset="1" stop-color="#F4FDFF" stop-opacity="0.47"/>
</linearGradient>
</defs>
</svg>
