<?xml version="1.0" encoding="utf-8"?>
<!-- Generator: Adobe Illustrator 21.0.2, SVG Export Plug-In . SVG Version: 6.00 Build 0)  -->
<svg version="1.1" id="Layer_1" xmlns="http://www.w3.org/2000/svg" xmlns:xlink="http://www.w3.org/1999/xlink" x="0px" y="0px"
	 viewBox="0 0 1920 2028.3" style="enable-background:new 0 0 1920 2028.3;" xml:space="preserve">
<style type="text/css">
	.st0{fill:#F2FFFF;}
	.st1{fill:url(#SVGID_1_);filter:url(#Adobe_OpacityMaskFilter);}
	.st2{mask:url(#mask0);}
	.st3{fill:#FFFFFF;}
	.st4{fill:#269C75;}
	.st5{fill:#FFFEF5;}
	.st6{fill:#94967E;}
	.st7{fill:#B8B8AD;}
	.st8{fill:#FFFDF7;}
	.st9{fill:#64655D;}
	.st10{fill:#777C69;}
	.st11{fill:#5A6364;}
	.st12{fill:#FFFFFD;}
	.st13{fill:#657576;}
	.st14{fill:#FEFFFD;}
	.st15{fill:#FEFCFC;}
	.st16{fill:#7C744D;}
	.st17{fill:#989B79;}
	.st18{fill:#FFFEFE;}
	.st19{fill:#FEFFFE;}
	.st20{fill:#FDFDF1;}
	.st21{fill:#635F42;}
	.st22{fill:#8A8164;}
	.st23{fill:#FFFDFD;}
	.st24{fill:#70714F;}
	.st25{fill:url(#SVGID_2_);}
	.st26{fill:url(#SVGID_3_);}
	.st27{fill:url(#SVGID_4_);}
	.st28{fill:url(#SVGID_5_);}
	.st29{fill:url(#SVGID_6_);}
	.st30{fill:url(#SVGID_7_);}
	.st31{fill:url(#SVGID_8_);}
	.st32{fill:url(#SVGID_9_);}
	.st33{fill:url(#SVGID_10_);}
	.st34{fill:url(#SVGID_11_);}
	.st35{fill:url(#SVGID_12_);}
	.st36{fill:url(#SVGID_13_);}
	.st37{fill:url(#SVGID_14_);}
	.st38{fill:url(#SVGID_15_);}
	.st39{fill:url(#SVGID_16_);}
	.st40{fill:url(#SVGID_17_);}
	.st41{fill:url(#SVGID_18_);}
	.st42{fill:url(#SVGID_19_);}
	.st43{opacity:0.3;fill:#545454;enable-background:new    ;}
	.st44{fill:#F4FDFF;}
	.st45{fill:#8EE3FF;fill-opacity:0.1;}
	.st46{fill:#8EE3FF;fill-opacity:7.000000e-02;}
</style>
<path class="st0" d="M771,1849.7c361.1-44,759.8,89.3,979.7,180.1H1920V556.8c0,0-315.2-94.1-525.5-108.5
	c-400.9-27.4-605.7,236.5-1005,194.8C233.6,626.8,0,556.8,0,556.8v1102C0,1658.8,175.5,1922.3,771,1849.7z"/>
<defs>
	<filter id="Adobe_OpacityMaskFilter" filterUnits="userSpaceOnUse" x="-71.1" y="1125.3" width="2098.7" height="904.5">
		<feColorMatrix  type="matrix" values="1 0 0 0 0  0 1 0 0 0  0 0 1 0 0  0 0 0 1 0"/>
	</filter>
</defs>
<mask maskUnits="userSpaceOnUse" x="-71.1" y="1125.3" width="2098.7" height="904.5" id="mask0">
	
		<linearGradient id="SVGID_1_" gradientUnits="userSpaceOnUse" x1="1920.9757" y1="1271.3507" x2="258.7077" y2="465.1907" gradientTransform="matrix(1 0 0 -1 0 2396.6013)">
		<stop  offset="0" style="stop-color:#8FD3F4"/>
		<stop  offset="1" style="stop-color:#84FAB0"/>
	</linearGradient>
	<path class="st1" d="M1,1125.3h1920v931H1V1125.3z"/>
</mask>
<g class="st2">
	<path class="st3" d="M1425.4,1385.4c-18.2,10.3-11.7,22.9-11.7,22.9s-18.2,0-21.9,16.9c-3.7,16.9,5.6,26.7,21.9,31.4
		c16.3,4.7,29.8-11.7,29.8-11.7s9.3,13.6,24.3,13.6c14.9,0,27.1-9.4,27.1-9.4s12.1,16.7,30.3,9.4c9.8-4,22.9-13.6,19.1-33.2
		c-3.7-19.7-23.8-22.5-23.8-22.5s2.8-37-25.7-38.4c-28.5-1.4-35.5,25.3-35.5,25.3S1443.6,1375.1,1425.4,1385.4z"/>
	<path class="st3" d="M-3.2,1199.4c-17.8,10-18.7,28.2-18.7,28.2s-30.8,3-40.4,24.7c-9.6,21.7-7.8,34.7-1.3,47.7
		s19.1,19.1,34.4,24.3s36.1-2.2,36.1-2.2s17.4,18.6,41.3,18.2c23.9-0.4,39.1-18.2,39.1-18.2s26.4,10.9,43.1,7.4
		c17.3-3.6,28.7-10.2,37.4-25.6c9.7-17.1,9.7-33.2,0-50.3c-9.7-17.1-43.1-26-43.1-26s0-14.7-8.3-32.1c-8.3-17.3-27.4-26-50.4-25.1
		c-23,0.9-34.4,25.1-34.4,25.1S14.7,1189.4-3.2,1199.4z"/>
	<path class="st3" d="M1799.6,1131.7c-21.6,8.8-41.4,43.1-41.4,43.1s-22.2-13.7-52.9,0c-30.7,13.7-35,45.3-35,45.3s-25-2.7-38,4.7
		c-12.9,7.3-19.9,15.5-23.5,29.9c-5.3,21.7,0,37.6,23.5,52.1c23.5,14.5,50.8,4.3,50.8,4.3s30.7,17.5,52.9,17.9
		c22.2,0.4,47.3-12,47.3-12s27.3,20.9,53.3,15.4c26-5.6,39.3-25.6,39.3-25.6s44.8,10.7,60.6-15.8c15.8-26.5,18.4-39.1,9-61.5
		c-8.9-21.1-46.5-35.9-46.5-35.9s-6.4-32.8-20.5-47C1856.4,1124.3,1828.6,1119.8,1799.6,1131.7z"/>
	<polygon class="st4" points="423.4,2029.8 422.2,2025.4 414.9,2029.8 	"/>
	<polygon class="st4" points="414.1,2029.8 421,2021.8 411.4,1982.4 402.4,2025.4 402.9,2029.8 	"/>
	<polygon class="st5" points="1500.2,2029.8 1499.9,1934.1 1495.5,1937.3 1495.7,2029.8 	"/>
	<polygon class="st6" points="1495.9,2029.8 1495.5,1937.3 1491.8,1942.2 1489.7,2029.8 	"/>
	<path class="st7" d="M1475.7,1948.2c8.4-9.8,18.3-14.4,18.3-14.4l-36.6,34.6C1457.4,1968.4,1467.2,1958,1475.7,1948.2z"/>
	<path class="st8" d="M1514.9,1933.6c-3.6-1.8-9.7-3.6-9.7-3.6s-0.5-1.6-1.2-2.5c-0.8-1-2.6-2.2-2.6-2.2s-2.3-18.6-4.1-30.4
		c-3.9-26-12.4-66.2-12.4-66.2s5.7,40.3,9.6,66.1c1.9,12.7,5,32.5,5,32.5s-0.9,4.1,2.1,5.6c1.2,0.6,3.4,0.5,3.4,0.5
		s7.7,5.4,16.6,9.9c7.3,3.7,17.4,7.5,24.8,11c9.7,4.5,43.4,21.7,43.4,21.7l-0.6-1.8C1589.1,1974.1,1544.6,1948.6,1514.9,1933.6z"/>
	<path class="st9" d="M1544.7,1952.1c17.7,9,45,23.8,45,23.8s-42.1-20.2-60.9-27.4c-13.1-5.5-25.2-13-26.3-13.2
		c-1.1-0.2-1.8-0.3-2.7-0.5c-3.8,1.2-5.3,2.5-5.3,2.5s-1.8,0.4-5.5,0c-1.9-0.2-5.4-1-5.3-2.4l0.1-2.4c0.1-1.3,0-1,0.1-1.7
		c0.2-1.8,0.2-3.1,0.2-3.1s0.9-0.9,1.4,0.1c0.2,0.4-0.3,2.7,0.2,3.1c0.6,0.6,2,0.8,2,0.8l8.1-3.7l0.3-4.4c0,0-5.3-15.1-5.6-23
		s-4.8-67.5-4.8-67.5l11,65.4l3.7,31.4c0,0,3.3,1.7,5.3,2.7C1520.9,1940.4,1529.6,1944.3,1544.7,1952.1z"/>
	<path class="st5" d="M1471.6,1954.5c-13.9,13.4-34.9,35.1-34.9,35.1s25.8-18.5,40.6-32.3c8.8-8.2,21.5-22.1,21.5-22.1
		s-0.3-1.5-1.3-1.8c-1-0.3-3.8,0.5-3.8,0.5S1480.1,1946.3,1471.6,1954.5z"/>
	<polygon class="st3" points="1794.6,2029.8 1783.9,1565.5 1766,1572.4 1766.5,2029.8 	"/>
	<polygon class="st10" points="1784.4,2029.8 1778.9,1565.4 1766,1572.4 1764.1,2029.8 	"/>
	<path class="st11" d="M1788,1564.5c1.8,3-0.2,9-0.2,9s-1.2-6.4-4.4-8c-2.4-1.2-6.8-0.1-6.8-0.1s-26.9,20.3-43.8,33.8
		c-26.5,21.2-66.4,56-66.4,56s38.9-35.9,64.9-57.5c18-14.9,46.9-37.2,46.9-37.2S1785.9,1560.9,1788,1564.5z"/>
	<path class="st12" d="M1615.3,1699.4c0,0,68.7-61.5,114.5-98.8c19.2-15.6,49.6-39.4,49.6-39.4s6.3,0.3,8.2,3.2
		c1.9,2.8-0.2,8.6-0.2,8.6s-22.7,27.1-44.8,43.6c-22.1,16.5-122.6,88.1-122.6,88.1L1615.3,1699.4z"/>
	<path class="st13" d="M1618.9,1701.1c1.3,1.5,1.9,3.2,1.2,3.7c-0.6,0.6-2.2-0.2-3.6-1.7c-1.3-1.5-1.9-3.2-1.2-3.8
		C1615.9,1698.8,1617.6,1699.6,1618.9,1701.1z"/>
	<path class="st11" d="M1745,1571.2l34.5-17.1l2.6,4.2l-38.9,30.1l-6.7-3.5l-1.4-7.9l1.5-0.3l0.2-12.4l-1.9,0l0-1.5l3.8,0.1
		L1745,1571.2z"/>
	<path class="st11" d="M1789.9,1561.1c-1.2-3.3-3,2.2-3,2.2s3.4,1.2,1,9.4c-0.4,1.5,7.1,3.1,7.1,3.1s5.9,3.9,10.1,6.6
		c13.5,8.8,183.4,108.1,183.4,108.1s-102.7-63.5-132.4-81.3c-8.1-4.9-56.1-40.5-56.1-40.5S1792.8,1569.1,1789.9,1561.1z"/>
	<path class="st14" d="M2027.6,1710.4c0,0-90-64.1-150.2-103.1c-25.2-16.3-75.1-45.7-75.1-45.7s2.6,4.3-1.2,4.5
		c-4.9,0.3-3,2.3-3,2.3s36.3,28.5,64.6,45.5c28.3,17,162.6,100.2,162.6,100.2L2027.6,1710.4z"/>
	<path class="st14" d="M1764.4,1364.8c0,0-0.2,42.5,0.8,61.7c0.8,16.2,4.1,67.4,4.1,67.4l3.4-21.4c0,0-1.5-88.2-1.3-97.4
		c0.2-9.3-12-106.6-12-106.6L1764.4,1364.8z"/>
	<path class="st14" d="M1759.3,1268.4c0,0,9.5,85.6,15.3,157.1c2.5,29.9,15,130.4,15,130.4s-0.8-2.8,2.7-4.5
		c1.5-0.7,2.7-0.7,2.7-0.7s-7.1-77.6-10.9-110.4c-3.8-32.8-18.9-168.4-18.9-168.4L1759.3,1268.4z"/>
	<path class="st11" d="M1769,1380.2c0,0,1.2,22.6,1,52.7c-0.1,15.4-2.1,53.7-1.1,62.8c1,9-0.6,13.2,8.3,41.9c1,3.4,2,16.2,2,16.2
		l-0.1,7.2l8.6,3.2l2-4.1l0.1-6c0,0-8.5-79.5-12.3-112.3c-3.8-32.8-18-173.3-18-173.3L1769,1380.2z"/>
	<path class="st12" d="M1802.5,1557c2.1,4.9,1.1,10.1-2.3,11.6s-7.9-1.4-10-6.3c-2.1-4.9-1.1-10.1,2.3-11.6
		C1795.9,1549.3,1800.4,1552.1,1802.5,1557z"/>
	<path class="st15" d="M1802.4,1759.3c0,0-75,4.2-131.2,10.5c-3,0.3-8.4,2.5-12.2,4.1c-3.6,1.5-8.5,3-8.5,3l1.2,5.8
		c0,0,32.1-1.8,52.5-4.5c12.3-1.6,19.1-3,31.3-4.8c26.2-3.8,67.2-8.7,67.2-8.7L1802.4,1759.3z"/>
	<path class="st16" d="M1648.9,1785.3l2.8-2.7l68.6-6.7c0,0-28.9,6.1-47.8,7.9C1663.3,1784.8,1648.9,1785.3,1648.9,1785.3z"/>
	<path class="st17" d="M1639.1,2029.8c0-1.4,0-2.7,0-4c-0.2-14.3,0-21.9-0.1-36.2c0,0,0.6-41.7,0.4-68.6l-1.1-65.6v-67.8l-2.8,2.7
		c0,0-2.9,81.3-3.9,132.9c-0.6,32.7-0.6,77.2-0.5,106.7H1639.1z"/>
	<path class="st18" d="M1637.7,2029.8h9.5c0-1.1,0-2.2,0-3.2c-0.2-14.3-0.4-22.3-0.6-36.6c0,0,0.2-42.1-0.1-69l-3.4-136.2l-4.8,2.8
		c0,0-0.7,83.2-0.4,136C1638.1,1956.7,1637.9,2001,1637.7,2029.8z"/>
	<path class="st19" d="M1645,1776l-2.4,2.2c0,0-4.7-4.1-8.5-9.5c-6.5-11.6-17.4-24.7-22.8-32.3c-23.7-33.1-62.8-94.7-62.8-94.7
		s46.7,62.6,76.2,103C1633.2,1756.3,1645,1776,1645,1776z"/>
	<path class="st20" d="M1601.2,1725.5c5.3,8.9,16.3,28.1,16.3,28.1l2.3,2.8l-1,3.8c0,0-26.2-44.8-43.5-71.8
		c-9.1-14.2-20.6-31.2-23-36.4c-2.4-5.3-4.3-9.7-4.3-9.7s9.9,13,15.9,21.5C1581.1,1688.5,1585.8,1699.5,1601.2,1725.5z"/>
	<path class="st21" d="M1636.5,1779.4l6.2-1.2l-70.7-101.3c0,0,23.4,38.7,38,63.8c3.1,5.3,6.7,11.2,7.9,13.6
		c1.2,2.4-0.3,4.6,0.8,5.8c1,1.2,8,7,12.4,12.1C1633.3,1775,1636.5,1779.4,1636.5,1779.4z"/>
	<path class="st19" d="M1595.9,1937.4l-2.9-0.7c0,0,16.6-62,30-100.8c6.8-19.8,17.7-50.1,17.7-50.1l4.5-1.1l3.8,0.6
		c0,0-4.3,9.1-5.8,13.7c-4.3,12.7-4.8,19.6-8.4,32.5c-3.6,12.9-11.4,32.8-16.6,47.2C1606.1,1911.8,1595.9,1937.4,1595.9,1937.4z"/>
	<path class="st22" d="M1635.8,1787.4l4.9-1.5l-37.1,113.7c0,0,11.7-44.3,20.5-72.3c3.8-12.2,7.5-19.3,10.1-31.8
		C1634.9,1792,1635.8,1787.4,1635.8,1787.4z"/>
	<path class="st23" d="M1651.9,1779.7c0.2,3.4-2,6.4-5,6.5c-3,0.2-5.6-2.4-5.8-5.9c-0.2-3.4,2-6.4,5-6.5
		C1649.1,1773.7,1651.7,1776.3,1651.9,1779.7z"/>
	<path class="st24" d="M1624.1,1787.7l12.4-8.3l6.2-1.2c0,0-0.6,1.9-0.2,3.3c0.4,1.4,1.9,3.2,1.9,3.2l-7.6,5.5l-7.6,5.4
		c0,0-3.9-0.1-5.1-1.8C1622.8,1792.1,1624.1,1787.7,1624.1,1787.7z"/>
	
		<linearGradient id="SVGID_2_" gradientUnits="userSpaceOnUse" x1="250.4961" y1="674.4715" x2="244.512" y2="372.8854" gradientTransform="matrix(1 0 0 -1 0 2396.6013)">
		<stop  offset="0" style="stop-color:#7EF4AA"/>
		<stop  offset="0.2629" style="stop-color:#66DC92"/>
	</linearGradient>
	<path class="st25" d="M274.5,1779.7c-10.8-21-19.9-57.5-19.9-57.5s-15.8,48.9-38.4,68.7c-12.9,11.3-37.6,21.6-37.6,21.6
		s7,2.4,11.6,2.7c9.5,0.6,23.4-7,23.4-7s-14.7,16.5-26,24.3c-12.6,8.8-35.2,16.7-35.2,16.7s12.2,6.7,20.8,7.9c11,1.5,28-4.4,28-4.4
		s-20.9,15.8-35.3,24.1c-10.7,6.2-28.1,14.3-28.1,14.3s11.9,9.1,20.7,10.3c9.2,1.3,23.3-4.5,23.3-4.5s-8.5,16.5-16.7,24.5
		c-12,11.7-37.5,19.1-37.5,19.1s22.6,7.9,37.1,5.7c8.5-1.3,21-7,21-7s-6.7,21.4-16.8,29.5c-14.6,11.7-46.6,4-46.6,4
		s25.8,25.7,45.9,35.7c55.8,27.7,105,14.8,156.1-21.7c20.3-14.5,45-46.3,45-46.3s-39.8,8.5-58-6.1c-9.3-7.5-18.2-25.2-18.2-25.2
		s26.3,11.8,41.7,5.8c9.7-3.8,21.2-17,21.2-17s-23.7,2.7-37.1-3.2c-11.4-5-25.2-20.3-25.2-20.3s11.2,3.3,18.5,2.8c8.6-0.6,21-7,21-7
		s-27.7-9-39.1-23.1c-7.4-9.2-15.7-30.1-15.7-30.1s10.3,9.7,16.1,7.8c3.7-1.2,11.7-7.2,11.7-7.2S283.3,1796.7,274.5,1779.7z"/>
	
		<linearGradient id="SVGID_3_" gradientUnits="userSpaceOnUse" x1="619.8019" y1="565.7969" x2="614.4589" y2="296.5573" gradientTransform="matrix(1 0 0 -1 0 2396.6013)">
		<stop  offset="0" style="stop-color:#67DD93"/>
		<stop  offset="0.5365" style="stop-color:#55CB81"/>
	</linearGradient>
	<path class="st26" d="M566.2,1990.7c-5.5,4.7-15.1,8.3-15.1,8.3s7.7,4.9,13,6c4.3,0.9,11.2,0.2,11.2,0.2s-10.4,17.1-19,22.6
		c-1.4,0.9-2.6,1.5-3.8,2h91.3c-2.5-7.5-3.4-14.7-3.4-14.7s8.4,4.6,16.7,6.1c9.4,1.7,24.3-2.4,24.3-2.4s-21.3-15.3-33.1-29.4
		c-8.5-10.2-20-29.1-20-29.1s4.6,1.1,7.5,0.2c3.2-1,7.6-5.6,7.6-5.6s-15.6-22.2-21.7-40.7c-9.6-28.9-11.6-83.6-11.6-83.6
		s-13.8,73.9-28,105.8c-9.4,21.1-24.8,34-24.8,34s6.7,2.4,11.1,3.1c4.3,0.6,11.2,0.2,11.2,0.2S572.1,1985.6,566.2,1990.7z"/>
	
		<linearGradient id="SVGID_4_" gradientUnits="userSpaceOnUse" x1="82.6837" y1="703.0132" x2="89.9849" y2="335.0665" gradientTransform="matrix(1 0 0 -1 0 2396.6013)">
		<stop  offset="0" style="stop-color:#4BC177"/>
		<stop  offset="0.5365" style="stop-color:#55CB81"/>
	</linearGradient>
	<path class="st27" d="M-32.2,2027.8c0,0,2.3,0.8,6.1,2.1h227.8c5.4-4,9-6.9,9-6.9s-37.6-15.8-53.8-37.6
		c-11.7-15.7-21.7-47.3-21.7-47.3s7.9,5.3,13.4,6.6c8.1,1.8,20.8-2.7,20.8-2.7s-19.5-24.5-29.2-42.6c-7.2-13.4-15.8-36.1-15.8-36.1
		s8.9,7.8,15.4,11.1c10.4,5.3,28.6,6.3,28.6,6.3s-23.9-24.9-35-44.8c-8.7-15.5-17.8-42.8-17.8-42.8s4.3,11,9.7,13.4
		c4.2,1.9,11.4-0.2,11.4-0.2s-13.1-26.9-19.8-45.1c-9.3-25.5-18.3-67.8-18.3-67.8s-8.8,35.8-19.9,55c-9,15.4-27.9,34.7-27.9,34.7
		s8,3.6,13.4,4.3c4.4,0.6,11.4-0.2,11.4-0.2s-10.1,18.1-18.5,27.7c-9.7,11-28.1,23.3-28.1,23.3s12.7,1.6,20.9,1.9
		c6.7,0.2,17.1-0.3,17.1-0.3s-9,16.8-16.6,25.3c-11.2,12.4-33.8,23.4-33.8,23.4s12.7,4.3,21,4.1c8.3-0.2,20.8-4.9,20.8-4.9
		s-20,30.8-37.2,43.9c-16.6,12.6-47.1,21.4-47.1,21.4s20.7,19.2,36.5,22c8.1,1.4,20.9-0.4,20.9-0.4s-9.7,23.9-20.3,34.5
		C-2.7,2022.6-32.2,2027.8-32.2,2027.8z"/>
	
		<linearGradient id="SVGID_5_" gradientUnits="userSpaceOnUse" x1="418.804" y1="659.3404" x2="397.41" y2="327.1903" gradientTransform="matrix(1 0 0 -1 0 2396.6013)">
		<stop  offset="0" style="stop-color:#80F6AC"/>
		<stop  offset="0.7437" style="stop-color:#55CB81"/>
	</linearGradient>
	<path class="st28" d="M335.6,1984.1c-7.8,4.7-12.8,3.9-21,6.4c0,0,4.5,10.3,9.1,13.7c6.4,4.8,18.6,0.4,18.6,0.4s-7,15.4-14.8,25.3
		h140.3c9.8-7.1,16.1-12.4,16.1-12.4s-22-4.9-32.2-17.5c-8.4-10.3-11.1-30.6-11.1-30.6s10.5,5.4,20.8,7.2
		c11.7,2.1,30.3-2.8,30.3-2.8s-26.5-18.1-41.2-34.6c-10.6-12-25-34.3-25-34.3s5.7,1.3,9.3,0.2c4-1.2,9.4-6.6,9.4-6.6
		s-19.4-26.1-27.1-47.9c-12-34.1-14.6-98.3-14.6-98.3s-17.1,86.9-34.7,124.4c-11.7,24.8-30.9,40-30.9,40s8.4,2.9,13.9,3.7
		c5.4,0.8,13.9,0.3,13.9,0.3s-9.3,14-16.6,20c-6.8,5.5-18.8,9.8-18.8,9.8s9.6,5.8,16.1,7.1c5.4,1.1,13.9,0.3,13.9,0.3
		S346.4,1977.6,335.6,1984.1z"/>
	
		<linearGradient id="SVGID_6_" gradientUnits="userSpaceOnUse" x1="324.997" y1="609.015" x2="330.6009" y2="326.5969" gradientTransform="matrix(1 0 0 -1 0 2396.6013)">
		<stop  offset="0" style="stop-color:#67DD93"/>
		<stop  offset="0.5365" style="stop-color:#4CC278"/>
	</linearGradient>
	<path class="st29" d="M301.6,1993.7c7.8-0.6,20-0.4,20-0.4s-12.7,23.6-24.3,36.6h72.4c-6.2-12.3-10.3-23.8-10.3-23.8
		s7.8,7.2,12.7,11c6.8,5.3,17.6,6.4,17.6,6.4s-7.9-16.4-13-26.8c-7.1-14.8-18.2-38.1-18.2-38.1s9.6,9.7,17.7,13.2
		c6.4,2.8,17.6,4.2,17.6,4.2s-8-12.1-12.8-20.1c-6.3-10.3-15.5-26.8-15.5-26.8s5.5,5.3,10.1,6.6c4.7,1.3,12.5-0.2,12.5-0.2
		s-12.3-14.2-17.9-24.5c-5.5-10-13-31.4-13-31.4c5.9,1.7,11.8,7,17.7,8.7c0,0-13.6-18.4-18.1-33.5c-7.1-24.2-8.7-67.6-8.7-67.6
		s-0.4,62.1-15.8,95.2c-7.5,16.1-24.4,34.4-24.4,34.4l12.5-2.5l-14.6,22.9l14.9-4.8c0,0-9.2,25.7-19.3,38.8
		c-10,12.9-37.2,16.5-37.2,16.5S288.8,1994.6,301.6,1993.7z"/>
	
		<linearGradient id="SVGID_7_" gradientUnits="userSpaceOnUse" x1="677.1232" y1="429.4315" x2="636.8812" y2="330.0215" gradientTransform="matrix(1 0 0 -1 0 2396.6013)">
		<stop  offset="0" style="stop-color:#3BB18A"/>
		<stop  offset="1" style="stop-color:#118760"/>
	</linearGradient>
	<path class="st30" d="M615,2024c-5.4,3.2-15,5.7-15,5.7s0.2,0.1,0.5,0.2h105.1c-3.1-2.1-6-4.2-8.5-6.2
		c-8.6-7.1-20.2-20.3-20.2-20.3s4.6,0.8,7.5,0.1c3.2-0.7,7.5-3.8,7.5-3.8s-15.7-15.5-21.9-28.3c-9.7-20.1-12-58-12-58
		s-13.4,51.2-27.4,73.2c-9.3,14.6-24.7,23.4-24.7,23.4s6.7,1.7,11.2,2.2c4.3,0.5,11.2,0.2,11.2,0.2S620.9,2020.5,615,2024z"/>
	
		<linearGradient id="SVGID_8_" gradientUnits="userSpaceOnUse" x1="1810.5508" y1="426.0436" x2="1843.2607" y2="371.5935" gradientTransform="matrix(1 0 0 -1 0 2396.6013)">
		<stop  offset="0" style="stop-color:#3BB18A"/>
		<stop  offset="1" style="stop-color:#118760"/>
	</linearGradient>
	<path class="st31" d="M1809.6,2013.9c3.5-0.7,7.1-2.7,7.1-2.7s-0.9,7.7-3.8,11.5c-3.5,4.7-11,6.6-11,6.6s0.2,0.2,0.6,0.5h50.4
		c-1.5-2.8-2.6-5.4-2.6-5.4s4.2,1.7,6.4-0.1c1.6-1.3,3.1-5.2,3.1-5.2c-2.8-0.9-4.5-0.6-7.2-2.4c-3.7-2.4-8.1-10-8.1-10
		s2.9,0.3,4.8-0.1c2.2-0.5,5.5-2.7,5.5-2.7s-4.1-1.6-6.4-3.7c-2.5-2.3-5.7-7.5-5.7-7.5s2.9,0.2,4.8-0.1c1.9-0.3,4.7-1.4,4.7-1.4
		s-6.6-5.7-10.6-15c-6-14.1-11.9-46.8-11.9-46.8s-0.9,24.2-5,37c-2.6,8.2-9.3,18-9.3,18s1.9,2,3.2,2.5c1.2,0.4,3.2-0.1,3.2-0.1
		s-4.9,8.4-8.5,12.9c-5,6.2-14.1,13-14.1,13S1805.6,2014.7,1809.6,2013.9z"/>
	
		<linearGradient id="SVGID_9_" gradientUnits="userSpaceOnUse" x1="538.6355" y1="563.5201" x2="533.1676" y2="287.9954" gradientTransform="matrix(1 0 0 -1 0 2396.6013)">
		<stop  offset="0" style="stop-color:#3BB18A"/>
		<stop  offset="1" style="stop-color:#1B916A"/>
	</linearGradient>
	<path class="st32" d="M458.4,2024.7c0,0,5.8,3.3,11.6,5.2h15.5c4.5-1.1,8.2-2.5,8.2-2.5s-0.6,0.9-1.6,2.5H597
		c-14.2-11.3-30-28.9-30-28.9s12.6,1.6,20.5,0.4c10-1.6,24.4-9.5,24.4-9.5s-20-5.8-31.5-12.6c-12.8-7.5-29.4-24.5-29.4-24.5
		s13.1,6.8,22.2,8.4c7.2,1.2,18.6,0.4,18.6,0.4s-15.7-12.4-23.9-22.4c-7.5-9.3-23.8-26.4-23.8-26.4s6.4,2.1,11.2,2.2
		c4.7,0.1,13.1-1.7,13.1-1.7s-19.3-16.4-27.4-30.4c-10.4-18-14-52.1-14-52.1s-6.9,41.5-17.9,65.4c-6.8,14.7-21.1,35.4-21.1,35.4
		l11.3-3.8c4.4-1.5,9.5-7.8,9.5-7.8s-9.5,23.3-19.3,35.5c-7.7,9.6-22.8,21.4-22.8,21.4s12.7,2.5,20.5,0.4c7.3-1.9,17-9.6,17-9.6
		s-9.5,22.2-19.2,33.5C476.1,2013.5,458.4,2024.7,458.4,2024.7z"/>
	
		<linearGradient id="SVGID_10_" gradientUnits="userSpaceOnUse" x1="1940.121" y1="563.8232" x2="1935.2112" y2="349.2744" gradientTransform="matrix(1 0 0 -1 0 2396.6013)">
		<stop  offset="0" style="stop-color:#67DD93"/>
		<stop  offset="0.5365" style="stop-color:#55CB81"/>
	</linearGradient>
	<path class="st33" d="M1966,2000.6c-4.7-7-6.1-20.8-6.1-20.8s5.8,3.6,11.5,4.8c6.5,1.4,16.8-1.9,16.8-1.9s-14.7-12.2-22.8-23.4
		c-5.9-8.1-13.8-23.2-13.8-23.2s3.2,0.8,5.1,0.1c2.2-0.8,5.2-4.5,5.2-4.5s-10.8-17.7-15-32.4c-6.6-23.1-8-66.6-8-66.6
		s-9.5,58.9-19.3,84.3c-6.5,16.8-17.2,27.1-17.2,27.1s4.7,2,7.7,2.5c3,0.5,7.7,0.2,7.7,0.2s-5.2,9.5-9.2,13.5
		c-3.8,3.8-10.4,6.6-10.4,6.6s5.3,3.9,8.9,4.8c3,0.7,7.7,0.2,7.7,0.2s-7.2,13.6-13.2,18c-4.3,3.2-7.1,2.6-11.7,4.3c0,0,2.5,7,5,9.3
		c3.6,3.3,10.3,0.2,10.3,0.2s-5.4,14.7-10.6,20.4c-2.9,3.2-6.9,4.9-10.7,5.7h80.1c11-8.7,19.7-17.4,19.7-17.4
		S1971.7,2009.1,1966,2000.6z"/>
	
		<linearGradient id="SVGID_11_" gradientUnits="userSpaceOnUse" x1="1898.4358" y1="561.6752" x2="1893.4156" y2="342.119" gradientTransform="matrix(1 0 0 -1 0 2396.6013)">
		<stop  offset="0" style="stop-color:#3BB18A"/>
		<stop  offset="1" style="stop-color:#1B916A"/>
	</linearGradient>
	<path class="st34" d="M1834.2,1987.4c0,0,6.8,4.5,11.5,5c5.1,0.6,12.9-2.9,12.9-2.9s-10.2,19.6-19.7,28.1
		c-6,5.3-15.6,9.9-20.9,12.2h118.3l-11.1-13.4c0,0,11.7,3.5,19.3,3.6c10.3,0.1,25.8-5.8,25.8-5.8s-23.9-9.2-37.1-19.9
		c-10.4-8.5-24.1-26-24.1-26s8.7,1.3,14.2,0.3c6.9-1.2,16.9-7.5,16.9-7.5s-13.8-4.7-21.8-10c-8.8-6-20.3-19.5-20.3-19.5
		s9.1,5.4,15.4,6.7c5,1,12.9,0.3,12.9,0.3s-10.9-9.9-16.5-17.8c-5.2-7.4-16.4-21-16.4-21s4.4,1.7,7.7,1.8c3.3,0.1,9-1.4,9-1.4
		s-13.3-13.1-19-24.3c-7.2-14.3-9.7-41.5-9.7-41.5s-4.7,33.1-12.4,52.1c-4.7,11.7-14.6,28.2-14.6,28.2l7.8-3c3-1.2,6.5-6.2,6.5-6.2
		s-6.6,18.6-13.3,28.3c-5.3,7.7-15.7,17.1-15.7,17.1s8.8,2,14.2,0.3c5-1.5,11.7-7.7,11.7-7.7s-6.6,17.7-13.3,26.7
		C1846.4,1978.5,1834.2,1987.4,1834.2,1987.4z"/>
	
		<linearGradient id="SVGID_12_" gradientUnits="userSpaceOnUse" x1="147.2776" y1="847.3595" x2="9.971" y2="311.1895" gradientTransform="matrix(1 0 0 -1 0 2396.6013)">
		<stop  offset="0" style="stop-color:#3BB18A"/>
		<stop  offset="1" style="stop-color:#269C75"/>
	</linearGradient>
	<path class="st35" d="M117.3,2029.8l-27.4-53.3c0,0,16.8,7.9,27.8,7.9c14.9,0.1,37.5-14,37.5-14s-34.4-20.8-53.3-45.4
		c-14.9-19.5-34.4-59.8-34.4-59.8s12.6,2.8,20.5,0.4c10.1-3,24.6-18,24.6-18s-19.9-10.5-31.3-22.8c-12.7-13.7-29.1-44.9-29.1-44.9
		s13,12.5,22.1,15.2c7.2,2.2,18.6,0.4,18.6,0.4s-15.6-22.7-23.5-41.1c-7.4-17.1-23.4-48.5-23.4-48.5s6.4,3.8,11.1,3.9
		c4.7,0.1,13.1-3.4,13.1-3.4s-19.1-30.1-27-56c-10.2-33.2-13.2-96.3-13.2-96.3s-7.5,77.2-18.9,121.6c-7,27.4-21.7,66.1-21.7,66.1
		l11.3-7.2c4.4-2.8,9.6-14.6,9.6-14.6s-9.9,43.3-19.8,66.1c-7.8,18-23.1,40.2-23.1,40.2s12.7,4.4,20.5,0.4
		c7.3-3.7,17.1-18.1,17.1-18.1s-9.8,41.4-19.7,62.4c-9,19-26.8,40.1-26.8,40.1s9.7,10.3,16.6,11.4c7.4,1.2,18.8-7,18.8-7
		s-15.2,45.8-29.1,65.9c-12.5,18-36,32.5-36,32.5l10,15.8H117.3z"/>
	
		<linearGradient id="SVGID_13_" gradientUnits="userSpaceOnUse" x1="500.5647" y1="485.333" x2="497.4337" y2="327.5145" gradientTransform="matrix(1 0 0 -1 0 2396.6013)">
		<stop  offset="0" style="stop-color:#3BB18A"/>
		<stop  offset="1" style="stop-color:#269C75"/>
	</linearGradient>
	<path class="st36" d="M471.8,2014.8c4.6-0.5,11.7-3.1,11.7-3.1s-4.4,9-10.2,18.1h59.6c-1.1-1.2-2.2-2.5-3.1-3.8
		c-7-9.8-13.4-30.5-13.4-30.5l18.5,3.7c0,0-17.7-22.3-24.9-40.8c-6.6-16.9-10.8-47.2-10.8-47.2s-5.5,54.2-20,80.2
		c-5.7,10.2-16.7,23.2-16.7,23.2S468.2,2015.2,471.8,2014.8z"/>
	
		<linearGradient id="SVGID_14_" gradientUnits="userSpaceOnUse" x1="526.4515" y1="494.6448" x2="305.5866" y2="344.6747" gradientTransform="matrix(1 0 0 -1 0 2396.6013)">
		<stop  offset="0" style="stop-color:#3BB18A"/>
		<stop  offset="1" style="stop-color:#269C75"/>
	</linearGradient>
	<path class="st37" d="M377.4,2006.3c-7.7,3.4-12.8,2.8-21,4.5c0,0,4.6,7.6,9.1,10.1c6.4,3.6,18.6,0.4,18.6,0.4s-2.4,3.9-5.9,8.5
		H518c-7.4-1.9-18.2-5.6-24.5-11.3c-8.5-7.6-11.2-22.6-11.2-22.6s10.6,4,20.8,5.4c11.7,1.6,30.3-1.9,30.3-1.9s-26.6-13.4-41.4-25.6
		c-10.7-8.8-25.1-25.3-25.1-25.3s5.7,1,9.3,0.2c4-0.9,9.4-4.8,9.4-4.8s-19.5-19.3-27.3-35.3c-12.1-25.1-15-72.3-15-72.3
		s-16.7,63.8-34.1,91.2c-11.6,18.2-30.7,29.2-30.7,29.2s8.4,2.2,13.9,2.8c5.4,0.6,13.9,0.3,13.9,0.3s-9.2,10.2-16.5,14.6
		c-6.8,4-18.7,7.1-18.7,7.1s9.6,4.3,16.2,5.3c5.4,0.8,13.9,0.3,13.9,0.3S388.2,2001.6,377.4,2006.3z"/>
	
		<linearGradient id="SVGID_15_" gradientUnits="userSpaceOnUse" x1="57.1655" y1="520.1049" x2="202.2405" y2="550.7448" gradientTransform="matrix(1 0 0 -1 0 2396.6013)">
		<stop  offset="0" style="stop-color:#3BB18A"/>
		<stop  offset="1" style="stop-color:#269C75"/>
	</linearGradient>
	<path class="st38" d="M6.8,2024.7c0,0,2.8,2,7.2,5.1h286.2c-9.9-2-35.6-8.3-49.1-20.8c-12.9-11.9-24.9-38.9-24.9-38.9
		s15.7,2.1,25.6,0.5c19.3-3.1,44.6-24.7,44.6-24.7s-37.4-9.9-57.7-24.2c-21.1-14.8-45.6-49.5-45.6-49.5s15.3,5.4,25.5,5.6
		c10.1,0.2,25.7-4.6,25.7-4.6s-27.7-12.4-41.4-26.4c-9.4-9.7-20.4-28.6-20.4-28.6s12.7,0.6,20.9,0.4c10-0.3,25.6-2,25.6-2
		s-22.6-13.9-34.4-26.3c-10.3-10.8-22.7-31.2-22.7-31.2s8.5,0.9,13.9,0.3c6.6-0.8,16.4-4.8,16.4-4.8s-23.2-21.7-34.2-39.1
		c-13.7-21.7-24.5-61.9-24.5-61.9s-10.9,47.7-22.3,76.4c-8.1,20.5-24.1,50.7-24.1,50.7s8.8,2.4,13.9,0.3
		c6.6-2.7,11.9-15.1,11.9-15.1s-11.2,30.7-21.8,48.2c-13.6,22.4-42.7,50.4-42.7,50.4s22.2-1,35-7c7.9-3.7,18.8-12.4,18.8-12.4
		s-10.5,25.5-19.3,40.6c-11.9,20.4-35.7,47.9-35.7,47.9s15.7,5.1,25.5,3.1c6.8-1.4,16.4-7.4,16.4-7.4s-12.2,35.5-26.5,53.2
		C52.8,2007,6.8,2024.7,6.8,2024.7z"/>
	
		<linearGradient id="SVGID_16_" gradientUnits="userSpaceOnUse" x1="892.9811" y1="444.5022" x2="895.1569" y2="334.8498" gradientTransform="matrix(1 0 0 -1 0 2396.6013)">
		<stop  offset="0" style="stop-color:#428A5D"/>
		<stop  offset="0.958" style="stop-color:#43B96F"/>
	</linearGradient>
	<path class="st39" d="M879.4,2022.8c-4.9,3.8-14,6.4-14,6.4s0.3,0.3,0.7,0.6h49.1c-1.1-2.8-1.8-5-1.8-5s2.3,1.6,4,1.9
		c2.4,0.6,6.2-0.8,6.2-0.8s-5.8-7.3-8.7-12.7c-2.1-4-4.7-10.7-4.7-10.7s2.7,2.3,4.6,3.3c3.1,1.6,8.5,1.9,8.5,1.9s-7.1-7.4-10.4-13.4
		c-2.6-4.6-5.3-12.8-5.3-12.8s1.3,3.3,2.9,4c1.2,0.6,3.4-0.1,3.4-0.1s-3.9-8-5.9-13.4c-2.8-7.6-5.4-20.2-5.4-20.2
		s-2.6,10.7-5.9,16.4c-2.7,4.6-8.3,10.3-8.3,10.3s2.4,1.1,4,1.3c1.3,0.2,3.4-0.1,3.4-0.1s-3,5.4-5.5,8.2c-2.9,3.3-8.4,6.9-8.4,6.9
		s3.8,0.5,6.2,0.6c2,0.1,5.1-0.1,5.1-0.1s-2.7,5-5,7.5c-3.3,3.7-10.1,7-10.1,7s3.8,1.3,6.2,1.2c2.5-0.1,6.2-1.5,6.2-1.5
		S884.5,2018.9,879.4,2022.8z"/>
	
		<linearGradient id="SVGID_17_" gradientUnits="userSpaceOnUse" x1="907.6115" y1="402.6258" x2="950.8475" y2="411.7558" gradientTransform="matrix(1 0 0 -1 0 2396.6013)">
		<stop  offset="0" style="stop-color:#42B891"/>
		<stop  offset="1" style="stop-color:#158B64"/>
	</linearGradient>
	<path class="st40" d="M909.8,2021.5c0,0,4.7,1.5,7.6,0.9c2-0.4,4.9-2.2,4.9-2.2s-1.7,4.9-4.1,9.6h56.3c3.6-2.1,6.6-4.6,6.6-4.6
		s-11.1-3-17.2-7.2c-6.3-4.4-13.6-14.8-13.6-14.8s4.6,1.6,7.6,1.7c3,0.1,7.6-1.4,7.6-1.4s-8.3-3.7-12.3-7.9
		c-2.8-2.9-6.1-8.5-6.1-8.5s3.8,0.2,6.2,0.1c3-0.1,7.6-0.6,7.6-0.6s-6.7-4.1-10.3-7.8c-3.1-3.2-6.8-9.3-6.8-9.3s2.5,0.3,4.2,0.1
		c2-0.2,4.9-1.4,4.9-1.4s-6.9-6.5-10.2-11.7c-4.1-6.4-7.3-18.5-7.3-18.5s-3.2,14.2-6.6,22.8c-2.4,6.1-7.2,15.1-7.2,15.1
		s2.6,0.7,4.2,0.1c2-0.8,3.5-4.5,3.5-4.5s-3.3,9.2-6.5,14.4c-4,6.7-12.7,15-12.7,15s6.6-0.3,10.4-2.1c2.3-1.1,5.6-3.7,5.6-3.7
		s-3.1,7.6-5.8,12.1C916.9,2013.3,909.8,2021.5,909.8,2021.5z"/>
	
		<linearGradient id="SVGID_18_" gradientUnits="userSpaceOnUse" x1="78.4334" y1="581.3715" x2="64.7929" y2="452.8715" gradientTransform="matrix(1 0 0 -1 0 2396.6013)">
		<stop  offset="0" style="stop-color:#3BB18A"/>
		<stop  offset="1" style="stop-color:#269C75"/>
	</linearGradient>
	<path class="st41" d="M2.8,1952.7c0,0,10.4-1.9,16.4-5.5c7.6-4.6,16.6-17.2,16.6-17.2s-10.4,30.1-17.1,49.3
		c-4.8,13.6-12.2,34.8-12.2,34.8s10.1-1.5,16.4-8.4c4.6-5.1,11.9-14.4,11.9-14.4s-5.2,19.9-12.7,38.5h76c-2.1-2.8-4.1-5.5-5.8-8.2
		c-10.7-16.7-22.4-47.2-22.4-47.2s11.4-0.3,18.6,0.4c11.9,1.1,35-8.1,35-8.1s-25.3-4.5-34.5-21.2c-9.3-16.8-17.7-50-17.7-50
		l13.8,6.1l-13.4-29.5l11.6,3.1c0,0-15.6-23.5-22.5-44.3c-14.1-42.7-14.1-123-14.1-123s-1.7,56.1-8.5,87.5
		c-4.2,19.5-17,43.5-17,43.5c5.5-2.2,11-9.2,16.5-11.4c0,0-7.2,27.7-12.3,40.7c-5.3,13.4-16.8,31.8-16.8,31.8s7.3,1.9,11.6,0.2
		s9.4-8.6,9.4-8.6s-8.6,21.4-14.6,34.8C10.3,1936.9,2.8,1952.7,2.8,1952.7z"/>
	
		<linearGradient id="SVGID_19_" gradientUnits="userSpaceOnUse" x1="240.0641" y1="683.2014" x2="325.7081" y2="331.9913" gradientTransform="matrix(1 0 0 -1 0 2396.6013)">
		<stop  offset="0" style="stop-color:#3BB18A"/>
		<stop  offset="1" style="stop-color:#269C75"/>
	</linearGradient>
	<path class="st42" d="M194.4,1975.2c0,0,12.2,7,20.8,7.9c9.2,0.9,23.3-4.5,23.3-4.5s-18.4,30.6-35.6,44c-3.3,2.6-7.3,5.1-11.5,7.4
		h176.2l-8.8-9.2c0,0,21,5.5,34.8,5.7c18.5,0.2,46.7-9,46.7-9s-43.1-14.4-66.9-31.1c-18.8-13.3-43.5-40.6-43.5-40.6s15.7,2,25.6,0.5
		c12.5-1.9,30.4-11.8,30.4-11.8s-24.9-7.3-39.2-15.7c-15.9-9.3-36.7-30.5-36.7-30.5s16.4,8.5,27.7,10.5c9,1.5,23.2,0.5,23.2,0.5
		s-19.6-15.4-29.7-27.9c-9.4-11.6-29.6-32.9-29.6-32.9s8,2.6,13.9,2.8s16.3-2.2,16.3-2.2s-24.1-20.4-34.2-37.9
		c-13-22.4-17.5-64.9-17.5-64.9s-8.6,51.8-22.3,81.5c-8.5,18.3-26.3,44.2-26.3,44.2l14-4.7c5.5-1.8,11.8-9.7,11.8-9.7
		s-11.9,29-24,44.2c-9.6,12-28.4,26.7-28.4,26.7s15.9,3.1,25.6,0.5c9.1-2.4,21.1-12,21.1-12s-11.8,27.7-24,41.7
		C216.4,1961.2,194.4,1975.2,194.4,1975.2z"/>
	<path class="st43" d="M427,1724.2l19.7,1.2c0,0,2.2-3.9,5.3-6.7l8-7c0,0-7.4,8.3-8.8,11.6c-2.2,5-1.2,9.3-1.2,9.3s-3.7-3.9-7.8-5.4
		C437.2,1725.6,427,1724.2,427,1724.2z"/>
	<path class="st43" d="M356.7,1706l23.4,4.9c0,0,3.4-5.4,7.7-8.9l11-9c0,0-10.5,11.1-12.8,15.7c-3.6,7-3.2,13.5-3.2,13.5
		s-3.6-6.3-8.3-9.1C368.7,1709.7,356.7,1706,356.7,1706z"/>
	<path class="st43" d="M419,1678.6l19.7,1.6c0,0,2.2-5.1,5.3-8.6l8-9c0,0-7.4,10.8-8.8,15c-2.2,6.5-1.2,12-1.2,12s-3.7-5-7.8-6.9
		C429.3,1680.5,419,1678.6,419,1678.6z"/>
	<path class="st43" d="M242,1619.7l23.3,1.9c0,0,2.6-6,6.3-10.1l9.5-10.6c0,0-8.7,12.7-10.4,17.7c-2.6,7.6-1.4,14.2-1.4,14.2
		s-4.3-5.9-9.2-8.2C254.1,1621.8,242,1619.7,242,1619.7z"/>
	<path class="st43" d="M367,1530.7l23.3,1.6c0,0,2.6-5.1,6.3-8.6l9.5-9c0,0-8.7,10.7-10.4,15c-2.6,6.4-1.4,12-1.4,12s-4.3-5-9.2-6.9
		C379.1,1532.5,367,1530.7,367,1530.7z"/>
	<path class="st43" d="M166,1498.7l23.3,1.6c0,0,2.6-5.1,6.3-8.6l9.5-9c0,0-8.7,10.7-10.4,15c-2.6,6.4-1.4,12-1.4,12s-4.3-5-9.2-6.9
		C178.1,1500.5,166,1498.7,166,1498.7z"/>
	<path class="st43" d="M70,1446.7l13.7,0.9c0,0,1.5-3,3.7-5l5.6-5.3c0,0-5.1,6.3-6.1,8.8c-1.5,3.8-0.8,7.1-0.8,7.1s-2.6-2.9-5.4-4.1
		C77.1,1447.8,70,1446.7,70,1446.7z"/>
</g>
<path class="st44" d="M1848.2,271.3c-21.6,8.8-41.4,43.1-41.4,43.1s-22.2-13.7-52.9,0c-30.7,13.7-35,45.3-35,45.3s-25-2.7-38,4.7
	c-12.9,7.3-19.9,15.5-23.5,29.9c-5.4,21.7,0,37.6,23.5,52.1c23.5,14.5,50.8,4.3,50.8,4.3s30.7,17.5,52.9,17.9s47.4-12,47.4-12
	s27.3,20.9,53.3,15.4c26-5.6,39.2-25.6,39.2-25.6s44.8,10.7,60.6-15.8c15.8-26.5,18.4-39.1,9-61.5c-9-21.1-46.5-35.9-46.5-35.9
	s-6.4-32.8-20.5-47C1905.1,264,1877.2,259.4,1848.2,271.3z"/>
<path class="st45" d="M-6.2,142.1c-17.8,10-18.7,28.2-18.7,28.2s-30.8,3-40.4,24.7c-9.6,21.7-7.8,34.7-1.3,47.7s19.1,19.1,34.4,24.3
	s36.1-2.2,36.1-2.2s17.4,18.6,41.3,18.2c23.9-0.4,39.1-18.2,39.1-18.2s26.4,10.9,43.1,7.4c17.3-3.6,28.7-10.2,37.4-25.6
	c9.7-17.1,9.7-33.2,0-50.3c-9.7-17.1-43.1-26-43.1-26s0-14.7-8.3-32.1c-8.3-17.3-27.4-26-50.4-25.1c-23,0.9-34.4,25.1-34.4,25.1
	S11.7,132.1-6.2,142.1z"/>
<path class="st46" d="M1337.4,256.1c-18.2,10.3-11.7,22.9-11.7,22.9s-18.2,0-21.9,16.9s5.6,26.7,21.9,31.4
	c16.3,4.7,29.9-11.7,29.9-11.7s9.3,13.6,24.3,13.6s27.1-9.4,27.1-9.4s12.1,16.7,30.3,9.4c9.8-4,22.9-13.6,19.1-33.2
	c-3.7-19.7-23.8-22.5-23.8-22.5s2.8-37-25.7-38.4c-28.5-1.4-35.5,25.3-35.5,25.3S1355.6,245.8,1337.4,256.1z"/>
</svg>
