<svg width="45" height="54" viewBox="0 0 45 54" fill="none" xmlns="http://www.w3.org/2000/svg">
<path fill-rule="evenodd" clip-rule="evenodd" d="M7.69351 29.9524C8.55892 28.4789 9.45102 27.7414 10.9556 27.1244C11.41 26.938 11.6917 26.4698 11.6071 25.986L11.1712 23.4928C11.0761 22.9487 11.44 22.4306 11.9841 22.3355L14.9962 21.8089C15.5403 21.7138 16.0584 22.0777 16.1535 22.6217L16.5957 25.1509C16.6775 25.6188 17.0781 25.9607 17.5519 25.9938C19.4582 26.1268 20.6795 26.5453 22.2909 27.5562C22.6606 27.7882 23.1376 27.772 23.479 27.5001L25.4505 25.9304C25.8738 25.5933 26.4884 25.6541 26.8375 26.0676L28.6757 28.245C28.9956 28.6238 28.9895 29.1799 28.6615 29.5517L26.8078 31.6525C26.5452 31.9501 26.4872 32.3741 26.6391 32.7408C27.2494 34.2135 27.3876 35.2932 27.3305 36.9015C27.3183 37.2468 27.4766 37.5776 27.7594 37.7762L30.5505 39.7366C30.934 40.006 31.079 40.5056 30.8992 40.9384L29.8666 43.4249C29.67 43.8981 29.1475 44.1462 28.6566 43.9994L25.9016 43.1756C25.4774 43.0487 25.0233 43.219 24.7646 43.5783C23.7233 45.0245 22.7553 45.7789 21.1141 46.5556C20.6961 46.7535 20.4508 47.2015 20.5304 47.6571L20.9773 50.2131C21.0724 50.7572 20.7085 51.2753 20.1644 51.3704L17.4844 51.8389C16.9404 51.9341 16.4223 51.5701 16.3272 51.0261L15.8779 48.4565C15.7994 48.0072 15.4258 47.6701 14.9721 47.6235C12.864 47.4071 11.6837 47.0383 10.5642 46.1892C10.17 45.8901 9.62108 45.8609 9.23395 46.1692L7.33346 47.6823C6.92185 48.0101 6.32668 47.9628 5.97198 47.5742L4.21246 45.6464C3.88157 45.2839 3.86269 44.7349 4.1679 44.3505L5.81137 42.2806C6.02963 42.0057 6.08618 41.6363 5.9687 41.3056C5.32267 39.4868 5.09901 38.2619 5.10708 36.471C5.10878 36.0954 4.91059 35.7452 4.58122 35.5645L2.08857 34.1974C1.65383 33.959 1.45946 33.438 1.63181 32.973L2.63414 30.2691C2.81742 29.7747 3.3531 29.5076 3.85828 29.6586L6.49444 30.4469C6.95757 30.5854 7.4487 30.3692 7.69351 29.9524ZM17.3226 42.9669C20.6246 42.3896 22.8334 39.2448 22.2561 35.9429C21.6788 32.6409 18.5341 30.4321 15.2321 31.0094C11.9302 31.5867 9.72136 34.7314 10.2986 38.0334C10.8759 41.3354 14.0207 43.5441 17.3226 42.9669Z" fill="#8EE3FF"/>
<path d="M7.39146 37.3376C7.42759 37.2231 7.52492 37.1391 7.64235 37.1144C7.92851 37.054 8.15879 37.3581 8.07568 37.6385C7.86889 38.3362 8.03901 38.8626 8.56353 39.5224C8.74792 39.7544 8.6371 40.1088 8.34717 40.1699C8.19761 40.2015 8.04308 40.1405 7.95793 40.0136C7.27037 38.9887 7.06796 38.3621 7.39146 37.3376Z" fill="white"/>
<path fill-rule="evenodd" clip-rule="evenodd" d="M23.6718 8.44054C24.3439 7.33694 25.0492 6.74913 26.1811 6.26398C26.6325 6.07047 26.9153 5.60416 26.8307 5.12032L26.5217 3.35301C26.4266 2.80897 26.7906 2.29084 27.3346 2.19573L29.5092 1.81555C30.0532 1.72043 30.5713 2.08436 30.6664 2.62839L30.9817 4.4317C31.0635 4.89953 31.4639 5.2402 31.9373 5.27817C33.4051 5.39592 34.3874 5.73228 35.6384 6.5026C36.01 6.73144 36.4865 6.71614 36.8279 6.44429L38.2438 5.31698C38.6671 4.97993 39.2817 5.04073 39.6308 5.45419L40.961 7.02983C41.2809 7.4087 41.2748 7.96475 40.9468 8.33655L39.5734 9.89305C39.3108 10.1907 39.2536 10.6138 39.4018 10.9821C39.8629 12.1277 39.9763 12.9983 39.9386 14.2484C39.9282 14.5938 40.086 14.9247 40.3687 15.1233L42.5039 16.6229C42.8874 16.8923 43.0324 17.392 42.8526 17.8248L42.1034 19.6287C41.9069 20.102 41.3844 20.35 40.8934 20.2032L38.867 19.5973C38.4428 19.4704 37.99 19.6411 37.7273 19.9974C36.914 21.1005 36.1392 21.7078 34.8836 22.316C34.4673 22.5176 34.2218 22.9644 34.3014 23.42L34.6214 25.2502C34.7165 25.7942 34.3526 26.3124 33.8086 26.4075L31.9103 26.7393C31.3663 26.8345 30.8481 26.4705 30.753 25.9265L30.4307 24.0828C30.3521 23.6335 29.9783 23.2971 29.5248 23.2478C27.9233 23.0737 26.9786 22.7831 26.1042 22.1543C25.7025 21.8654 25.1551 21.8336 24.768 22.1418L23.4231 23.2126C23.0115 23.5403 22.4164 23.493 22.0617 23.1044L20.8004 21.7226C20.4695 21.36 20.4506 20.811 20.7558 20.4266L21.9749 18.8913C22.1931 18.6164 22.2495 18.2478 22.1334 17.9165C21.6323 16.4869 21.4502 15.4924 21.4479 14.0871C21.4473 13.7114 21.2498 13.3609 20.9204 13.1803L19.0643 12.1623C18.6295 11.9238 18.4351 11.4028 18.6075 10.9379L19.3361 8.97238C19.5194 8.47797 20.0551 8.21082 20.5602 8.36188L22.4678 8.93229C22.9309 9.07078 23.4204 8.8534 23.6718 8.44054ZM31.6113 19.3872C34.3581 18.907 36.1956 16.2909 35.7154 13.544C35.2351 10.7971 32.6191 8.95967 29.8722 9.4399C27.1253 9.92014 25.2879 12.5362 25.7681 15.2831C26.2483 18.03 28.8644 19.8674 31.6113 19.3872Z" fill="url(#paint0_linear)"/>
<defs>
<linearGradient id="paint0_linear" x1="35.8124" y1="5.28194" x2="24.8234" y2="23.5016" gradientUnits="userSpaceOnUse">
<stop stop-color="#58ADC9"/>
<stop offset="1" stop-color="#7CD1ED"/>
<stop offset="1" stop-color="#7CD1ED"/>
</linearGradient>
</defs>
</svg>
