<svg width="43" height="58" viewBox="0 0 43 58" fill="none" xmlns="http://www.w3.org/2000/svg">
<path fill-rule="evenodd" clip-rule="evenodd" d="M42.1957 0.539984C42.4498 0.648022 42.5682 0.941618 42.4602 1.19575L30.5755 29.1514L25.5626 15.9678L19.4974 49.9277L11.0142 39.0238L1.41479 53.2794C1.26055 53.5085 0.94983 53.5691 0.720777 53.4149C0.491725 53.2606 0.431076 52.9499 0.585315 52.7209L10.9558 37.3202L18.9078 47.5413L25.2134 12.2356L30.6272 26.4738L41.5399 0.804509C41.6479 0.550378 41.9415 0.431947 42.1957 0.539984Z" fill="#066989" fill-opacity="0.3"/>
<path d="M3.66162 25.9619H13.3961V57.9972H3.66162V25.9619Z" fill="#FFBB4B"/>
<path d="M16.7446 10.207H26.4791V57.9944H16.7446V10.207Z" fill="#00B2ED"/>
<path d="M29.8457 20.125H39.5802V58.0009H29.8457V20.125Z" fill="#33DBBD"/>
<path d="M3.66162 25.9619H9.14832V57.9972H3.66162V25.9619Z" fill="#FFCB5B"/>
<path d="M16.7446 10.207H22.2313V57.9944H16.7446V10.207Z" fill="#10C2FD"/>
<path d="M29.8457 20.125H35.3324V58.0009H29.8457V20.125Z" fill="#3FE7C9"/>
</svg>
