<svg version="1.1" xmlns="http://www.w3.org/2000/svg" xmlns:xlink="http://www.w3.org/1999/xlink" x="0px" y="0px"
	 width="47.6px" height="64.6px" viewBox="0 0 47.6 64.6" style="enable-background:new 0 0 47.6 64.6;" xml:space="preserve">
<style type="text/css">
	.st0{fill:url(#SVGID_1_);}
	.st1{fill:url(#SVGID_2_);}
	.st2{fill:url(#SVGID_3_);}
	.st3{fill:url(#SVGID_4_);}
</style>
<linearGradient id="SVGID_1_" gradientUnits="userSpaceOnUse" x1="18.2184" y1="81.2941" x2="19.0784" y2="37.9509" gradientTransform="matrix(1 0 0 -1 0 99.5592)">
	<stop  offset="0" style="stop-color:#4BC177"/>
	<stop  offset="0.5365" style="stop-color:#55CB81"/>
</linearGradient>
<path class="st0" d="M9.8,55.4c-1.6,1.6-5.1,2.2-5.1,2.2s6.1,2.1,10.1,2.7c5.2,0.8,8.5,2.1,13.4,0c2.1-0.9,5.1-3.3,5.1-3.3
	s-4.4-1.9-6.3-4.4c-1.4-1.9-2.6-5.6-2.6-5.6s0.9,0.6,1.6,0.8c0.9,0.2,2.5-0.3,2.5-0.3s-2.3-2.9-3.4-5c-0.8-1.6-1.9-4.2-1.9-4.2
	s1.1,0.9,1.8,1.3c1.2,0.6,3.4,0.7,3.4,0.7s-2.8-2.9-4.1-5.3c-1-1.8-2.1-5-2.1-5s0.5,1.3,1.1,1.6c0.5,0.2,1.3,0,1.3,0
	s-1.5-3.2-2.3-5.3c-1.1-3-2.2-8-2.2-8s-1,4.2-2.3,6.5c-1.1,1.8-3.3,4.1-3.3,4.1s0.9,0.4,1.6,0.5c0.5,0.1,1.3,0,1.3,0
	s-1.2,2.1-2.2,3.3c-1.1,1.3-3.3,2.7-3.3,2.7s1.5,0.2,2.5,0.2c0.8,0,2,0,2,0s-1.1,2-2,3c-1.3,1.5-4,2.8-4,2.8s1.5,0.5,2.5,0.5
	s2.5-0.6,2.5-0.6S13,44.7,11,46.3c-2,1.5-5.5,2.5-5.5,2.5s2.4,2.3,4.3,2.6c1,0.2,2.5,0,2.5,0S11,54.1,9.8,55.4z"/>
<linearGradient id="SVGID_2_" gradientUnits="userSpaceOnUse" x1="26.0071" y1="100.1432" x2="9.6578" y2="36.3011" gradientTransform="matrix(1 0 0 -1 0 99.5592)">
	<stop  offset="0" style="stop-color:#3BB18A"/>
	<stop  offset="1" style="stop-color:#269C75"/>
</linearGradient>
<path class="st1" d="M19.2,50.3l3.7,7.1c0,0-1.5,1.1-2.5,1.7c-6.6,4-17.5,0.1-17.5,0.1L0,54.8c0,0,2.8-1.7,4.3-3.9
	C5.9,48.5,7.8,43,7.8,43s-1.4,1-2.2,0.8c-0.8-0.1-2-1.4-2-1.4s2.1-2.5,3.2-4.8c1.2-2.5,2.4-7.4,2.4-7.4s-1.2,1.7-2,2.2
	c-0.9,0.5-2.4,0-2.4,0s1.8-2.6,2.7-4.8c1.2-2.7,2.4-7.9,2.4-7.9s-0.6,1.4-1.1,1.7l-1.3,0.9c0,0,1.7-4.6,2.6-7.9
	C11.2,9.2,12.1,0,12.1,0s0.4,7.5,1.6,11.5c0.9,3.1,3.2,6.7,3.2,6.7s-1,0.4-1.6,0.4c-0.6,0-1.3-0.5-1.3-0.5s1.9,3.7,2.8,5.8
	c0.9,2.2,2.8,4.9,2.8,4.9s-1.4,0.2-2.2,0c-1.1-0.3-2.6-1.8-2.6-1.8s2,3.7,3.5,5.3c1.4,1.5,3.7,2.7,3.7,2.7s-1.7,1.8-2.9,2.1
	c-0.9,0.3-2.4,0-2.4,0s2.3,4.8,4.1,7.1c2.2,2.9,6.3,5.4,6.3,5.4s-2.7,1.7-4.5,1.7C21.2,51.2,19.2,50.3,19.2,50.3z"/>
<linearGradient id="SVGID_3_" gradientUnits="userSpaceOnUse" x1="15.6708" y1="51.8515" x2="37.1721" y2="40.9865" gradientTransform="matrix(1 0 0 -1 0 99.5592)">
	<stop  offset="0" style="stop-color:#3BB18A"/>
	<stop  offset="1" style="stop-color:#269C75"/>
</linearGradient>
<path class="st2" d="M19.4,59c-0.9,1-2.7,1.4-2.7,1.4s4.1,3.3,7,4c3.8,0.9,9.7-1.9,9.7-1.9s-2.2,0.2-3.3-0.8
	c-0.8-0.7-1.6-2.5-1.6-2.5s1,0.4,1.5,0c0.4-0.3,0.8-1.1,0.8-1.1c-0.7-0.2-1.1-0.1-1.8-0.5c-0.9-0.5-2-2.2-2-2.2s0.7,0.1,1.2,0
	c0.5-0.1,1.3-0.6,1.3-0.6s-1-0.3-1.6-0.8c-0.6-0.5-1.4-1.6-1.4-1.6s0.7,0,1.2,0c0.5-0.1,1.2-0.3,1.2-0.3s-1.6-1.2-2.6-3.3
	c-1.5-3.1-2.9-10.2-2.9-10.2s-0.2,5.3-1.2,8c-0.6,1.8-2.3,3.9-2.3,3.9s0.5,0.4,0.8,0.5c0.3,0.1,0.8,0,0.8,0S20.3,53,19.5,54
	c-1.2,1.4-3.4,2.8-3.4,2.8s1.5,0.4,2.5,0.2c0.9-0.1,1.7-0.6,1.7-0.6S20.1,58.1,19.4,59z"/>
<linearGradient id="SVGID_4_" gradientUnits="userSpaceOnUse" x1="24.5478" y1="53.4234" x2="38.1475" y2="56.2962" gradientTransform="matrix(1 0 0 -1 0 99.5592)">
	<stop  offset="0" style="stop-color:#3BB18A"/>
	<stop  offset="1" style="stop-color:#269C75"/>
</linearGradient>
<path class="st3" d="M42.7,58.3c1.6,1.5,5,2,5,2s-5.9,1.9-9.8,2.4c-5.1,0.7-8.3,1.9-13.1,0c-2.1-0.8-5-3-5-3s4.3-1.7,6.2-4
	c1.3-1.7,2.5-5,2.5-5s-0.9,0.6-1.5,0.7c-0.9,0.2-2.4-0.3-2.4-0.3s2.2-2.6,3.3-4.5c0.8-1.4,1.8-3.8,1.8-3.8s-1,0.8-1.8,1.2
	c-1.2,0.6-3.3,0.7-3.3,0.7s2.7-2.6,4-4.7c1-1.6,2-4.5,2-4.5s-0.5,1.2-1.1,1.4c-0.5,0.2-1.3,0-1.3,0s1.5-2.8,2.3-4.8
	c1.1-2.7,2.1-7.2,2.1-7.2s1,3.8,2.3,5.8c1,1.6,3.2,3.7,3.2,3.7s-0.9,0.4-1.5,0.4c-0.5,0.1-1.3,0-1.3,0s1.2,1.9,2.1,2.9
	c1.1,1.2,3.2,2.5,3.2,2.5s-1.5,0.2-2.4,0.2c-0.8,0-2,0-2,0s1,1.8,1.9,2.7c1.3,1.3,3.9,2.5,3.9,2.5S40.6,46,39.6,46
	c-1,0-2.4-0.5-2.4-0.5s2.3,3.3,4.3,4.6c1.9,1.3,5.4,2.3,5.4,2.3s-2.4,2-4.2,2.3c-0.9,0.1-2.4,0-2.4,0S41.5,57.2,42.7,58.3z"/>
</svg>
