<?xml version="1.0" encoding="utf-8"?>
<!-- Generated by IcoMoon.io -->
<svg version="1.1" xmlns="http://www.w3.org/2000/svg" xmlns:xlink="http://www.w3.org/1999/xlink" width="784" height="34" viewBox="0 0 784 34">
<svg id="icon-fb" width="34" height="34" viewBox="0 0 34 34" x="0" y="0">
<path fill="#4e71a8" d="M34 17c0 9.389-7.611 17-17 17s-17-7.611-17-17c0-9.389 7.611-17 17-17s17 7.611 17 17z"></path>
<path fill="#fff" d="M18.028 8.642c-0.55 0-1.078 0.066-1.694 0.308-1.254 0.506-1.892 1.694-1.892 3.542v1.804h-1.76v3.014h1.76v8.69h3.586v-8.69h2.442l0.33-3.014h-2.772v-1.364c0-0.418 0.044-0.726 0.154-0.902 0.154-0.264 0.462-0.396 0.946-0.396h1.628v-2.992h-2.728z"></path>
</svg>
<svg id="icon-in" width="34" height="34" viewBox="0 0 34 34" x="50" y="0">
<path fill="#2797cf" d="M34 17c0 9.389-7.611 17-17 17s-17-7.611-17-17c0-9.389 7.611-17 17-17s17 7.611 17 17z"></path>
<path fill="#fff" d="M12.136 26v-13.203h-4.104v13.203h4.104zM10.111 7.073c-1.323 0-2.187 0.891-2.187 2.052 0 1.134 0.837 2.052 2.133 2.052 1.377 0 2.214-0.918 2.214-2.052-0.027-1.161-0.837-2.052-2.16-2.052zM15.441 26h4.104v-7.614c0-0.378 0.027-0.756 0.135-1.026 0.297-0.756 0.972-1.539 2.106-1.539 1.485 0 2.079 1.161 2.079 2.862v7.317h4.104v-7.803c0-3.888-2.025-5.697-4.725-5.697-2.214 0-3.537 1.269-4.077 2.133h-0.081l-0.189-1.836h-3.564c0.054 1.188 0.108 2.565 0.108 4.212v8.991z"></path>
</svg>
<svg id="icon-tw" width="34" height="34" viewBox="0 0 34 34" x="100" y="0">
<path fill="#00aeef" d="M34 17c0 9.389-7.611 17-17 17s-17-7.611-17-17c0-9.389 7.611-17 17-17s17 7.611 17 17z"></path>
<path fill="#fff" d="M29 9.359c-0.904 0.41-1.808 0.718-2.812 0.821 1.004-0.615 1.808-1.641 2.209-2.769-1.004 0.615-2.008 1.026-3.113 1.231-0.456-0.517-1.014-0.93-1.637-1.213s-1.297-0.429-1.978-0.428c-3.213 0-5.523 3.077-4.82 6.154-4.117-0.205-7.732-2.256-10.142-5.231-1.305 2.256-0.703 5.231 1.506 6.769-0.803 0-1.607-0.205-2.209-0.615-0.1 2.359 1.607 4.513 3.916 5.026-0.703 0.205-1.506 0.205-2.209 0.103 0.603 2.051 2.41 3.487 4.619 3.487-2.109 1.641-4.72 2.359-7.33 2.051 2.209 1.436 4.82 2.256 7.531 2.256 9.138 0 14.36-7.897 14.059-14.974 0.904-0.82 1.707-1.743 2.41-2.667z"></path>
</svg>
<svg id="icon-yt" width="34" height="34" viewBox="0 0 34 34" x="150" y="0">
<path fill="#e04f5f" d="M34 17c0 9.389-7.611 17-17 17s-17-7.611-17-17c0-9.389 7.611-17 17-17s17 7.611 17 17z"></path>
<path fill="#fff" d="M7.5 10h19c0.552 0 1 0.448 1 1v12c0 0.552-0.448 1-1 1h-19c-0.552 0-1-0.448-1-1v-12c0-0.552 0.448-1 1-1z"></path>
<path fill="#e04f5f" d="M22.95 16.394c0.467 0.269 0.467 0.943 0 1.212l-8.4 4.85c-0.467 0.269-1.050-0.067-1.050-0.606v-9.699c0-0.539 0.583-0.876 1.050-0.606l8.4 4.85z"></path>
</svg>
</svg>
