<?xml version="1.0" encoding="utf-8"?>
<!-- Generator: Adobe Illustrator 21.0.2, SVG Export Plug-In . SVG Version: 6.00 Build 0)  -->
<svg version="1.1" id="Layer_1" xmlns="http://www.w3.org/2000/svg" xmlns:xlink="http://www.w3.org/1999/xlink" x="0px" y="0px"
	 viewBox="0 0 1920 875" style="enable-background:new 0 0 1920 875;" xml:space="preserve">
<style type="text/css">
	.st0{fill:url(#SVGID_1_);filter:url(#Adobe_OpacityMaskFilter);}
	.st1{mask:url(#mask0);}
	.st2{fill:#8EE3FF;fill-opacity:7.000000e-02;}
	.st3{fill:#8EE3FF;fill-opacity:0.1;}
	.st4{fill:#F4FDFF;}
	.st5{fill:#269C75;}
	.st6{fill:#55CB81;}
	.st7{fill:#FFFEF5;}
	.st8{fill:#94967E;}
	.st9{fill:#B8B8AD;}
	.st10{fill:#FFFDF7;}
	.st11{fill:#64655D;}
	.st12{fill:#FFFFFF;}
	.st13{fill:#777C69;}
	.st14{fill:#5A6364;}
	.st15{fill:#FFFFFD;}
	.st16{fill:#657576;}
	.st17{fill:#FEFFFD;}
	.st18{fill:#FEFCFC;}
	.st19{fill:#7C744D;}
	.st20{fill:#989B79;}
	.st21{fill:#FFFEFE;}
	.st22{fill:#FEFFFE;}
	.st23{fill:#FDFDF1;}
	.st24{fill:#635F42;}
	.st25{fill:#8A8164;}
	.st26{fill:#FFFDFD;}
	.st27{fill:#70714F;}
	.st28{fill:url(#SVGID_2_);}
	.st29{fill:url(#SVGID_3_);}
	.st30{fill:url(#SVGID_4_);}
	.st31{fill:url(#SVGID_5_);}
	.st32{fill:url(#SVGID_6_);}
	.st33{fill:url(#SVGID_7_);}
	.st34{fill:url(#SVGID_8_);}
	.st35{fill:url(#SVGID_9_);}
	.st36{fill:url(#SVGID_10_);}
	.st37{fill:url(#SVGID_11_);}
	.st38{fill:url(#SVGID_12_);}
	.st39{fill:url(#SVGID_13_);}
	.st40{fill:url(#SVGID_14_);}
	.st41{fill:url(#SVGID_15_);}
	.st42{fill:url(#SVGID_16_);}
	.st43{fill:url(#SVGID_17_);}
	.st44{fill:url(#SVGID_18_);}
	.st45{fill:url(#SVGID_19_);}
	.st46{fill:#545454;fill-opacity:0.3;}
</style>
<defs>
	<filter id="Adobe_OpacityMaskFilter" filterUnits="userSpaceOnUse" x="-122" y="83" width="2148.6" height="791.6">
		<feColorMatrix  type="matrix" values="1 0 0 0 0  0 1 0 0 0  0 0 1 0 0  0 0 0 1 0"/>
	</filter>
</defs>
<mask maskUnits="userSpaceOnUse" x="-122" y="83" width="2148.6" height="791.6" id="mask0">
	
		<linearGradient id="SVGID_1_" gradientUnits="userSpaceOnUse" x1="1919.9757" y1="932.0501" x2="257.7076" y2="125.8901" gradientTransform="matrix(1 0 0 -1 0 932)">
		<stop  offset="0" style="stop-color:#8FD3F4"/>
		<stop  offset="1" style="stop-color:#84FAB0"/>
	</linearGradient>
	<path class="st0" d="M0,0h1920v931H0V0z"/>
</mask>
<g class="st1">
	<path class="st2" d="M1424.4,214.1c-18.2,10.3-11.7,22.9-11.7,22.9s-18.2,0-21.9,16.9c-3.7,16.9,5.6,26.7,21.9,31.4
		c16.3,4.7,29.8-11.7,29.8-11.7s9.3,13.6,24.3,13.6c14.9,0,27.1-9.4,27.1-9.4s12.1,16.7,30.3,9.4c9.8-4,22.9-13.6,19.1-33.2
		c-3.7-19.7-23.8-22.5-23.8-22.5s2.8-37-25.7-38.4c-28.5-1.4-35.5,25.3-35.5,25.3S1442.6,203.8,1424.4,214.1z"/>
	<path class="st3" d="M-56.2,112.1c-17.8,10-18.7,28.2-18.7,28.2s-30.8,3-40.4,24.7c-9.6,21.7-7.8,34.7-1.3,47.7
		c6.5,13,19.1,19.1,34.4,24.3s36.1-2.2,36.1-2.2s17.4,18.6,41.3,18.2c23.9-0.4,39.1-18.2,39.1-18.2s26.4,10.9,43.1,7.4
		c17.3-3.6,28.7-10.2,37.4-25.6c9.7-17.1,9.7-33.2,0-50.3c-9.7-17.1-43.1-26-43.1-26s0-14.7-8.3-32.1C55.2,90.9,36,82.2,13,83.1
		c-23,0.9-34.4,25.1-34.4,25.1S-38.3,102.1-56.2,112.1z"/>
	<path class="st4" d="M1798.6,229.4c-21.6,8.8-41.4,43.1-41.4,43.1s-22.2-13.7-52.9,0c-30.7,13.7-35,45.3-35,45.3s-25-2.7-38,4.7
		c-12.9,7.3-19.9,15.5-23.5,29.9c-5.3,21.7,0,37.6,23.5,52.1c23.5,14.5,50.8,4.3,50.8,4.3s30.7,17.5,52.9,17.9
		c22.2,0.4,47.3-12,47.3-12s27.3,20.9,53.3,15.4c26-5.5,39.3-25.6,39.3-25.6s44.8,10.7,60.6-15.8c15.8-26.5,18.4-39.1,9-61.5
		c-8.9-21.1-46.5-35.9-46.5-35.9s-6.4-32.8-20.5-47C1855.4,222,1827.6,217.5,1798.6,229.4z"/>
	<path class="st4" d="M618,542.7c-10.2,4.8-15.5,16.5-15.5,16.5s-27.5-12-38.5,14.5c-11,26.5,27.5,33,27.5,33s4.5,19.5,36.5,27.5
		s46-5,46-5s6,8.2,20,8c14-0.2,21-8,21-8s14.5,12.7,34.5,10c20-2.7,31-19.5,31-19.5s17.5,5.2,32-3s17.2-21.4,14.5-31.5
		c-6.5-24-42-23-42-23s-4.5-11.3-15.5-19.5c-11-8.2-25.5-9.5-25.5-9.5s-17.5-40-56.5-33.5s-43.5,43-43.5,43S630.5,536.8,618,542.7z"
		/>
	<polygon class="st5" points="426.7,874.6 421.2,854.1 412.2,859.6 420,850.5 410.4,811.1 401.4,854.1 403.6,874.6 	"/>
	<polygon class="st5" points="402,874.6 398.4,863.2 395.9,874.6 	"/>
	<polygon class="st6" points="459.6,874.6 457.8,865.1 455.8,874.6 	"/>
	<polygon class="st7" points="1542.3,874.6 1541.9,762.8 1537.5,766 1537.7,874.6 	"/>
	<polygon class="st8" points="1538,874.6 1537.5,766 1533.8,770.9 1531.3,874.6 	"/>
	<path class="st9" d="M1517.7,776.9c8.4-9.8,18.3-14.4,18.3-14.4l-36.6,34.6C1499.4,797.1,1509.2,786.7,1517.7,776.9z"/>
	<path class="st10" d="M1556.9,762.3c-3.6-1.8-9.7-3.6-9.7-3.6s-0.5-1.6-1.2-2.5c-0.8-1-2.6-2.2-2.6-2.2s-2.3-18.6-4.1-30.4
		c-3.9-26-12.4-66.2-12.4-66.2s5.7,40.3,9.6,66c1.9,12.7,5,32.5,5,32.5s-0.9,4.1,2.1,5.6c1.2,0.6,3.4,0.5,3.4,0.5s7.7,5.4,16.6,9.9
		c7.3,3.7,17.4,7.5,24.8,11c9.7,4.5,43.4,21.7,43.4,21.7l-0.6-1.7C1631.1,802.8,1586.6,777.3,1556.9,762.3z"/>
	<path class="st11" d="M1586.7,780.8c17.7,9,45,23.8,45,23.8s-42.1-20.2-60.9-27.5c-13.1-5.5-25.2-13-26.3-13.2
		c-1.1-0.2-1.8-0.3-2.7-0.5c-3.8,1.2-5.3,2.4-5.3,2.4s-1.8,0.4-5.5,0c-1.9-0.2-5.4-1-5.3-2.4l0.1-2.4c0.1-1.3,0-1,0.1-1.7
		c0.2-1.8,0.2-3.1,0.2-3.1s0.9-0.9,1.4,0.1c0.2,0.5-0.3,2.7,0.2,3.1c0.6,0.6,2,0.8,2,0.8l8.1-3.7l0.3-4.4c0,0-5.3-15-5.6-22.9
		c-0.2-7.9-4.8-67.5-4.8-67.5l11,65.4l3.7,31.4c0,0,3.3,1.7,5.3,2.7C1562.9,769.1,1571.6,773,1586.7,780.8z"/>
	<path class="st7" d="M1513.6,783.1c-13.9,13.4-34.9,35.1-34.9,35.1s25.8-18.5,40.6-32.3c8.8-8.2,21.5-22.1,21.5-22.1
		s-0.3-1.5-1.3-1.8c-1-0.3-3.8,0.5-3.8,0.5S1522.1,775,1513.6,783.1z"/>
	<polygon class="st12" points="1794,874.6 1782.9,394.2 1765,401.1 1765.5,874.6 	"/>
	<polygon class="st13" points="1783.6,874.6 1777.9,394.1 1765,401.1 1763,874.6 	"/>
	<path class="st14" d="M1787,393.2c1.8,3-0.2,9-0.2,9s-1.2-6.4-4.4-8c-2.4-1.2-6.8-0.1-6.8-0.1s-26.9,20.3-43.8,33.8
		c-26.5,21.2-66.4,56-66.4,56s38.9-35.9,64.9-57.5c18-14.9,46.9-37.2,46.9-37.2S1784.9,389.6,1787,393.2z"/>
	<path class="st15" d="M1614.3,528.1c0,0,68.7-61.5,114.5-98.8c19.2-15.6,49.6-39.4,49.6-39.4s6.3,0.3,8.2,3.2
		c1.9,2.8-0.2,8.6-0.2,8.6s-22.7,27.1-44.8,43.6c-22.1,16.5-122.6,88.1-122.6,88.1L1614.3,528.1z"/>
	<path class="st16" d="M1617.9,529.8c1.3,1.5,1.9,3.2,1.2,3.7c-0.7,0.6-2.3-0.2-3.6-1.7c-1.3-1.5-1.9-3.2-1.2-3.7
		C1614.9,527.5,1616.6,528.3,1617.9,529.8z"/>
	<path class="st14" d="M1744,399.9l34.5-17.1l2.6,4.2l-38.9,30.2l-6.7-3.5l-1.4-7.9l1.5-0.4l0.2-12.4l-1.9,0l0-1.5l3.8,0.1
		L1744,399.9z"/>
	<path class="st14" d="M1788.9,389.8c-1.2-3.3-3,2.2-3,2.2s3.4,1.2,1,9.4c-0.4,1.5,7.1,3.1,7.1,3.1s5.9,3.9,10.1,6.6
		c13.5,8.8,183.4,108.1,183.4,108.1S1884.8,455.8,1855,438c-8.1-4.9-56.1-40.5-56.1-40.5S1791.8,397.8,1788.9,389.8z"/>
	<path class="st17" d="M2026.6,539.1c0,0-90-64.1-150.2-103.1c-25.2-16.3-75.1-45.7-75.1-45.7s2.6,4.3-1.2,4.5c-4.9,0.3-3,2.3-3,2.3
		s36.3,28.5,64.6,45.5c28.3,17,162.6,100.2,162.6,100.2L2026.6,539.1z"/>
	<path class="st17" d="M1763.4,193.5c0,0-0.2,42.5,0.8,61.7c0.8,16.2,4.1,67.4,4.1,67.4l3.4-21.4c0,0-1.5-88.2-1.3-97.4
		c0.2-9.3-12-106.6-12-106.6L1763.4,193.5z"/>
	<path class="st17" d="M1758.3,97.1c0,0,9.5,85.6,15.3,157.1c2.5,29.9,15,130.4,15,130.4s-0.8-2.8,2.7-4.5c1.5-0.7,2.7-0.7,2.7-0.7
		s-7.1-77.6-10.9-110.4s-18.9-168.4-18.9-168.4L1758.3,97.1z"/>
	<path class="st14" d="M1768,208.9c0,0,1.2,22.6,1,52.7c-0.1,15.4-2.1,53.7-1.1,62.8c1,9-0.6,13.2,8.3,41.9c1,3.4,2,16.2,2,16.2
		l-0.1,7.1l8.6,3.2l2-4.1l0.1-6c0,0-8.5-79.5-12.3-112.3c-3.8-32.8-18-173.3-18-173.3L1768,208.9z"/>
	<path class="st15" d="M1801.5,385.7c2.1,4.9,1.1,10.1-2.3,11.6s-7.9-1.4-10-6.3c-2.1-4.9-1.1-10.1,2.3-11.6
		C1794.9,378,1799.4,380.8,1801.5,385.7z"/>
	<path class="st18" d="M1371.9,611.6c0,0-68.9,3.8-120.5,9.7c-2.7,0.3-7.7,2.3-11.2,3.7c-3.3,1.4-7.8,2.8-7.8,2.8l1.1,5.3
		c0,0,29.5-1.7,48.3-4.1c11.3-1.4,17.5-2.8,28.8-4.4c24.1-3.5,61.8-8,61.8-8L1371.9,611.6z"/>
	<path class="st19" d="M1230.9,635.5l2.5-2.4l63-6.2c0,0-26.6,5.6-43.9,7.3C1244.1,635,1230.9,635.5,1230.9,635.5z"/>
	<path class="st20" d="M1221.2,874.6c0.4-5.9,0.7-12.8,0.6-18.1c-0.2-13.1,0-20.1-0.1-33.2c0,0,0.6-38.3,0.3-63l-1-60.3v-62.3
		l-2.5,2.4c0,0-2.7,74.6-3.6,122.1c-0.7,36.1-0.5,87.8-0.4,112.4H1221.2z"/>
	<path class="st21" d="M1220.4,874.6h8.9c-0.1-5.6-0.1-12.2-0.2-17.4c-0.2-13.1-0.4-20.5-0.5-33.6c0,0,0.2-38.6-0.1-63.4l-3.1-125.1
		l-4.4,2.6c0,0-0.6,76.4-0.4,124.9C1220.9,799.3,1220.6,851,1220.4,874.6z"/>
	<path class="st22" d="M1227.3,626.9l-2.2,2c0,0-4.3-3.7-7.8-8.7c-6-10.7-15.9-22.7-20.9-29.7c-21.7-30.4-57.7-87-57.7-87
		s42.9,57.5,70,94.6C1216.4,608.8,1227.3,626.9,1227.3,626.9z"/>
	<path class="st23" d="M1187,580.5c4.9,8.2,15,25.8,15,25.8l2.1,2.5l-0.9,3.5c0,0-24-41.2-39.9-65.9c-8.4-13-19-28.6-21.2-33.5
		c-2.2-4.8-4-8.9-4-8.9s9.1,11.9,14.6,19.7C1168.6,546.5,1172.8,556.6,1187,580.5z"/>
	<path class="st24" d="M1219.5,630.1l5.7-1.1l-64.9-93c0,0,21.5,35.6,34.9,58.6c2.8,4.9,6.2,10.3,7.3,12.5s-0.3,4.2,0.7,5.3
		c1,1.1,7.4,6.4,11.4,11.1C1216.6,626,1219.5,630.1,1219.5,630.1z"/>
	<path class="st22" d="M1182.2,775.2l-2.7-0.6c0,0,15.3-56.9,27.6-92.6c6.3-18.1,16.3-46.1,16.3-46.1l4.1-1l3.5,0.6
		c0,0-3.9,8.4-5.3,12.5c-4,11.7-4.4,18-7.7,29.9c-3.3,11.8-10.5,30.1-15.3,43.3C1191.5,751.7,1182.2,775.2,1182.2,775.2z"/>
	<path class="st25" d="M1218.8,637.4l4.5-1.4l-34.1,104.5c0,0,10.8-40.7,18.8-66.5c3.5-11.2,6.9-17.8,9.3-29.2
		C1218,641.6,1218.8,637.4,1218.8,637.4z"/>
	<path class="st26" d="M1233.6,630.4c0.2,3.2-1.9,5.8-4.6,6c-2.7,0.2-5.1-2.3-5.3-5.4c-0.2-3.2,1.9-5.8,4.6-6
		C1231.1,624.8,1233.4,627.2,1233.6,630.4z"/>
	<path class="st27" d="M1208.1,637.7l11.4-7.6l5.7-1.1c0,0-0.6,1.7-0.2,3.1c0.4,1.3,1.7,3,1.7,3l-7,5l-6.9,5c0,0-3.6-0.1-4.7-1.6
		C1206.8,641.7,1208.1,637.7,1208.1,637.7z"/>
	
		<linearGradient id="SVGID_2_" gradientUnits="userSpaceOnUse" x1="249.4978" y1="381.1659" x2="243.5128" y2="79.5878" gradientTransform="matrix(1 0 0 -1 0 932)">
		<stop  offset="0" style="stop-color:#7EF4AA"/>
		<stop  offset="0.2629" style="stop-color:#66DC92"/>
	</linearGradient>
	<path class="st28" d="M273.5,608.4c-10.8-21-19.9-57.5-19.9-57.5s-15.8,48.9-38.4,68.7c-12.9,11.3-37.6,21.6-37.6,21.6
		s7,2.4,11.6,2.7c9.5,0.6,23.4-7,23.4-7s-14.7,16.4-26,24.3C174,670,151.4,678,151.4,678s12.2,6.7,20.8,7.9c11,1.5,28-4.4,28-4.4
		s-20.9,15.8-35.3,24.1c-10.7,6.2-28.1,14.3-28.1,14.3s11.9,9.1,20.7,10.3c9.2,1.3,23.3-4.5,23.3-4.5s-8.5,16.5-16.7,24.5
		c-12,11.7-37.5,19.1-37.5,19.1s22.6,7.9,37.1,5.7c8.5-1.3,21-7,21-7s-6.7,21.4-16.8,29.5c-14.6,11.7-46.6,4-46.6,4
		s25.8,25.7,45.9,35.7c55.8,27.7,105,14.8,156.1-21.7c20.3-14.5,45-46.3,45-46.3s-39.8,8.5-58-6.1c-9.3-7.5-18.2-25.2-18.2-25.2
		s26.3,11.8,41.7,5.8c9.7-3.8,21.2-17,21.2-17s-23.7,2.7-37.1-3.2c-11.4-5-25.2-20.4-25.2-20.4s11.2,3.3,18.5,2.8c8.6-0.6,21-7,21-7
		s-27.7-9-39.1-23.1c-7.4-9.2-15.7-30.1-15.7-30.1s10.3,9.7,16.1,7.8c3.7-1.2,11.7-7.2,11.7-7.2S282.3,625.4,273.5,608.4z"/>
	
		<linearGradient id="SVGID_3_" gradientUnits="userSpaceOnUse" x1="613.2515" y1="272.6115" x2="607.9085" y2="3.369" gradientTransform="matrix(1 0 0 -1 0 932)">
		<stop  offset="0" style="stop-color:#67DD93"/>
		<stop  offset="0.5365" style="stop-color:#55CB81"/>
	</linearGradient>
	<path class="st29" d="M555.3,856.5c-6.2,4-10.3,3.3-16.9,5.4c0,0,3.6,8.7,7.3,11.6c0.5,0.4,1,0.7,1.6,1h11.1
		c1.3-0.4,2.2-0.7,2.2-0.7s-0.1,0.3-0.3,0.7h92.7c-1.7-1.4-3.3-3-4.6-4.7c-6.7-8.8-8.9-26-8.9-26s8.4,4.6,16.7,6.1
		c9.4,1.7,24.3-2.4,24.3-2.4s-21.3-15.3-33.1-29.4c-8.5-10.1-20-29.1-20-29.1s4.6,1.1,7.5,0.1c3.2-1,7.6-5.6,7.6-5.6
		s-15.6-22.2-21.7-40.7c-9.6-29-11.6-83.6-11.6-83.6s-13.8,73.9-28,105.8c-9.4,21.1-24.8,34-24.8,34s6.7,2.4,11.1,3.1
		c4.3,0.6,11.2,0.2,11.2,0.2s-7.5,11.9-13.4,17c-5.5,4.7-15.1,8.3-15.1,8.3s7.7,4.9,13,6c4.3,0.9,11.2,0.2,11.2,0.2
		S563.9,851,555.3,856.5z"/>
	
		<linearGradient id="SVGID_4_" gradientUnits="userSpaceOnUse" x1="81.6844" y1="409.7136" x2="88.9857" y2="41.7657" gradientTransform="matrix(1 0 0 -1 0 932)">
		<stop  offset="0" style="stop-color:#4BC177"/>
		<stop  offset="0.5365" style="stop-color:#55CB81"/>
	</linearGradient>
	<path class="st30" d="M-33.2,856.5c0,0,30.8,10.8,60.6,18.1h149.3c16.1-9.2,33-22.9,33-22.9s-37.6-15.8-53.8-37.6
		c-11.7-15.7-21.7-47.3-21.7-47.3s7.9,5.3,13.4,6.6c8.1,1.8,20.8-2.7,20.8-2.7S149,746.1,139.2,728c-7.2-13.4-15.8-36.1-15.8-36.1
		s8.9,7.8,15.4,11.1c10.4,5.3,28.6,6.3,28.6,6.3s-23.9-24.9-35-44.8c-8.7-15.5-17.8-42.8-17.8-42.8s4.3,11,9.7,13.4
		c4.2,1.9,11.4-0.2,11.4-0.2S122.6,608,116,589.8c-9.3-25.5-18.3-67.8-18.3-67.8s-8.8,35.8-19.9,55c-9,15.4-27.9,34.7-27.9,34.7
		s8,3.6,13.4,4.3c4.4,0.6,11.4-0.2,11.4-0.2s-10.1,18.1-18.5,27.6c-9.7,11-28.1,23.3-28.1,23.3s12.7,1.6,20.9,1.9
		c6.7,0.2,17.1-0.3,17.1-0.3s-9,16.8-16.6,25.3c-11.2,12.4-33.8,23.4-33.8,23.4s12.7,4.3,21,4.1c8.3-0.2,20.8-5,20.8-5
		s-20,30.8-37.2,43.9c-16.6,12.6-47.1,21.4-47.1,21.4s20.7,19.2,36.5,22c8.1,1.4,20.9-0.4,20.9-0.4s-9.7,23.9-20.3,34.5
		C-3.7,851.3-33.2,856.5-33.2,856.5z"/>
	
		<linearGradient id="SVGID_5_" gradientUnits="userSpaceOnUse" x1="404.0067" y1="366.9244" x2="382.6126" y2="34.7784" gradientTransform="matrix(1 0 0 -1 0 932)">
		<stop  offset="0" style="stop-color:#80F6AC"/>
		<stop  offset="0.7437" style="stop-color:#55CB81"/>
	</linearGradient>
	<path class="st31" d="M443,874.6c21.9-13.6,39.8-28.4,39.8-28.4s-22-5-32.2-17.5c-8.4-10.3-11.1-30.6-11.1-30.6s10.5,5.4,20.8,7.2
		c11.7,2.1,30.3-2.8,30.3-2.8s-26.5-18.1-41.2-34.6c-10.6-11.9-25-34.3-25-34.3s5.7,1.3,9.3,0.2c4-1.2,9.4-6.6,9.4-6.6
		s-19.4-26.1-27.1-47.9c-12-34.1-14.6-98.3-14.6-98.3s-17.1,86.9-34.7,124.4c-11.7,24.8-30.9,39.9-30.9,39.9s8.4,2.9,13.9,3.7
		c5.4,0.8,13.9,0.3,13.9,0.3s-9.3,14-16.6,19.9c-6.8,5.5-18.8,9.8-18.8,9.8s9.6,5.7,16.1,7.1c5.4,1.1,13.9,0.3,13.9,0.3
		s-12.9,20.1-23.7,26.6c-7.8,4.7-12.8,3.9-21,6.3c0,0,4.5,10.3,9.1,13.7c6.4,4.8,18.6,0.4,18.6,0.4s-9.8,21.6-19.1,30
		c-13.4,12.1-39.7,9.4-39.7,9.4s1.6,0.7,4.4,1.9H443z"/>
	
		<linearGradient id="SVGID_6_" gradientUnits="userSpaceOnUse" x1="323.9969" y1="315.7143" x2="329.6009" y2="33.2958" gradientTransform="matrix(1 0 0 -1 0 932)">
		<stop  offset="0" style="stop-color:#67DD93"/>
		<stop  offset="0.5365" style="stop-color:#4CC278"/>
	</linearGradient>
	<path class="st32" d="M300.6,822.4c7.8-0.6,20-0.4,20-0.4s-12.8,23.6-24.4,36.6c-4.7,5.2-11.1,10.9-17.3,16h99
		c-11-16-19.6-39.8-19.6-39.8s7.8,7.2,12.7,11c6.8,5.3,17.6,6.4,17.6,6.4s-7.9-16.4-13-26.9c-7.1-14.8-18.2-38-18.2-38
		s9.6,9.7,17.7,13.2c6.4,2.8,17.6,4.2,17.6,4.2s-8-12.2-12.8-20.1c-6.3-10.3-15.5-26.8-15.5-26.8s5.5,5.3,10.1,6.6
		c4.7,1.3,12.5-0.2,12.5-0.2s-12.3-14.2-17.9-24.5c-5.5-10-13-31.4-13-31.4c5.9,1.6,11.8,7,17.7,8.7c0,0-13.6-18.4-18.1-33.5
		c-7.1-24.2-8.7-67.6-8.7-67.6s-0.4,62.1-15.8,95.2c-7.5,16.1-24.4,34.4-24.4,34.4l12.5-2.5l-14.6,22.9l14.9-4.8
		c0,0-9.2,25.7-19.3,38.8c-10,12.9-37.2,16.6-37.2,16.6S287.8,823.3,300.6,822.4z"/>
	
		<linearGradient id="SVGID_7_" gradientUnits="userSpaceOnUse" x1="689.2287" y1="130.8211" x2="648.9867" y2="31.4191" gradientTransform="matrix(1 0 0 -1 0 932)">
		<stop  offset="0" style="stop-color:#3BB18A"/>
		<stop  offset="1" style="stop-color:#118760"/>
	</linearGradient>
	<path class="st33" d="M614,852.7c-5.4,3.2-15,5.7-15,5.7s7.7,3.4,13,4.2c4.3,0.7,11.2,0.2,11.2,0.2s-6,6.8-12.7,11.8h79
		c-0.8-2.6-1.2-4.5-1.2-4.5s8.5,3.2,16.7,4.3c0.6,0.1,1.2,0.1,1.8,0.2h8.5c7.3-0.4,14.1-1.7,14.1-1.7s-21.4-10.8-33.2-20.6
		C687.6,845.2,676,832,676,832s4.6,0.8,7.5,0.1c3.2-0.7,7.5-3.8,7.5-3.8s-15.7-15.5-21.9-28.3c-9.7-20.1-12-58-12-58
		s-13.4,51.2-27.4,73.1c-9.3,14.6-24.7,23.4-24.7,23.4s6.7,1.7,11.2,2.2c4.3,0.5,11.2,0.2,11.2,0.2S619.9,849.2,614,852.7z"/>
	
		<linearGradient id="SVGID_8_" gradientUnits="userSpaceOnUse" x1="1809.5526" y1="132.7433" x2="1842.2626" y2="78.2913" gradientTransform="matrix(1 0 0 -1 0 932)">
		<stop  offset="0" style="stop-color:#3BB18A"/>
		<stop  offset="1" style="stop-color:#118760"/>
	</linearGradient>
	<path class="st34" d="M1808.6,842.6c3.5-0.7,7.1-2.7,7.1-2.7s-0.9,7.6-3.8,11.5c-3.5,4.7-11,6.6-11,6.6s12.5,11.4,23.7,16.5h28
		c9.3-2.7,16.8-6.6,16.8-6.6s-9,1-13.6-3.5c-3.2-3.2-6.5-11.3-6.5-11.3s4.2,1.7,6.4-0.1c1.6-1.3,3.1-5.2,3.1-5.2
		c-2.8-0.9-4.5-0.6-7.2-2.4c-3.7-2.5-8.1-10-8.1-10s2.9,0.3,4.8-0.1c2.2-0.5,5.5-2.7,5.5-2.7s-4.1-1.6-6.4-3.7
		c-2.5-2.2-5.7-7.5-5.7-7.5s2.9,0.2,4.8-0.1c1.9-0.3,4.7-1.4,4.7-1.4s-6.6-5.7-10.6-15c-6-14.1-11.9-46.8-11.9-46.8s-0.9,24.2-5,37
		c-2.6,8.2-9.3,18-9.3,18s1.9,2,3.2,2.5c1.2,0.4,3.2-0.1,3.2-0.1s-4.9,8.4-8.5,12.9c-5,6.2-14.1,13-14.1,13
		S1804.6,843.4,1808.6,842.6z"/>
	
		<linearGradient id="SVGID_9_" gradientUnits="userSpaceOnUse" x1="544.2827" y1="270.0836" x2="538.8147" y2="-5.4391" gradientTransform="matrix(1 0 0 -1 0 932)">
		<stop  offset="0" style="stop-color:#3BB18A"/>
		<stop  offset="1" style="stop-color:#1B916A"/>
	</linearGradient>
	<path class="st35" d="M457.4,853.4c0,0,9.8,5.6,16.7,6.3c7.4,0.7,18.7-3.6,18.7-3.6s-5.4,9-12.8,18.5h143.1
		c-7.9-3.7-15.9-7.9-22.3-12.4c-15.1-10.6-34.9-32.6-34.9-32.6s12.6,1.6,20.5,0.4c10-1.5,24.4-9.5,24.4-9.5s-20-5.8-31.5-12.6
		c-12.8-7.5-29.4-24.5-29.4-24.5s13.1,6.8,22.2,8.4c7.2,1.2,18.6,0.4,18.6,0.4s-15.7-12.4-23.9-22.4c-7.5-9.3-23.8-26.4-23.8-26.4
		s6.4,2.1,11.2,2.2c4.7,0.1,13.1-1.7,13.1-1.7s-19.3-16.4-27.4-30.4c-10.4-18-14-52.1-14-52.1s-6.9,41.5-17.9,65.4
		c-6.8,14.7-21.1,35.4-21.1,35.4l11.3-3.8c4.4-1.5,9.5-7.8,9.5-7.8s-9.5,23.3-19.3,35.5c-7.7,9.6-22.8,21.5-22.8,21.5
		s12.7,2.5,20.5,0.4c7.3-1.9,17-9.6,17-9.6s-9.5,22.2-19.2,33.5C475.1,842.1,457.4,853.4,457.4,853.4z"/>
	
		<linearGradient id="SVGID_10_" gradientUnits="userSpaceOnUse" x1="1933.4865" y1="270.6555" x2="1928.5764" y2="56.1023" gradientTransform="matrix(1 0 0 -1 0 932)">
		<stop  offset="0" style="stop-color:#67DD93"/>
		<stop  offset="0.5365" style="stop-color:#55CB81"/>
	</linearGradient>
	<path class="st36" d="M1935.4,874.6c0.2-0.1,0.4-0.1,0.6-0.2c19.4-5.5,46.9-33.3,46.9-33.3s-12.2-3.3-17.9-11.9
		c-4.7-7-6.1-20.8-6.1-20.8s5.8,3.6,11.5,4.8c6.5,1.4,16.8-1.9,16.8-1.9s-14.7-12.2-22.8-23.4c-5.9-8.1-13.8-23.2-13.8-23.2
		s3.2,0.8,5.1,0.1c2.2-0.8,5.2-4.5,5.2-4.5s-10.8-17.7-15-32.4c-6.6-23.1-8-66.6-8-66.6s-9.5,58.9-19.3,84.3
		c-6.5,16.8-17.2,27.1-17.2,27.1s4.7,2,7.7,2.5c3,0.5,7.7,0.2,7.7,0.2s-5.2,9.5-9.2,13.5c-3.8,3.8-10.4,6.6-10.4,6.6
		s5.3,3.9,8.9,4.8c3,0.7,7.7,0.2,7.7,0.2s-7.2,13.6-13.2,18c-4.3,3.2-7.1,2.6-11.7,4.3c0,0,2.5,7,5,9.3c3.6,3.3,10.3,0.2,10.3,0.2
		s-5.4,14.7-10.6,20.4c-7.4,8.2-22,6.4-22,6.4s20.2,11.5,40.9,15.4H1935.4z"/>
	
		<linearGradient id="SVGID_11_" gradientUnits="userSpaceOnUse" x1="1895.568" y1="268.4203" x2="1890.548" y2="48.8617" gradientTransform="matrix(1 0 0 -1 0 932)">
		<stop  offset="0" style="stop-color:#3BB18A"/>
		<stop  offset="1" style="stop-color:#1B916A"/>
	</linearGradient>
	<path class="st37" d="M1837.9,846.4c-8.6,7.7-24.7,13.7-24.7,13.7l14.7,14.5h109.8c4.2-1.8,8-3.5,8-3.5l-21.5-25.9
		c0,0,11.7,3.5,19.3,3.6c10.3,0.1,25.8-5.8,25.8-5.8s-23.9-9.2-37.1-19.9c-10.4-8.5-24.1-25.9-24.1-25.9s8.7,1.3,14.2,0.3
		c6.9-1.2,16.9-7.5,16.9-7.5s-13.8-4.6-21.8-10c-8.8-6-20.3-19.5-20.3-19.5s9.1,5.4,15.4,6.7c5,1,12.9,0.3,12.9,0.3
		s-10.9-9.9-16.5-17.8c-5.2-7.4-16.4-21-16.4-21s4.4,1.7,7.7,1.8c3.3,0.1,9-1.4,9-1.4s-13.3-13.1-19-24.2
		c-7.2-14.3-9.7-41.5-9.7-41.5s-4.7,33.1-12.4,52.1c-4.7,11.7-14.6,28.2-14.6,28.2l7.8-3c3-1.2,6.5-6.2,6.5-6.2s-6.6,18.5-13.3,28.3
		c-5.3,7.7-15.7,17.1-15.7,17.1s8.8,2,14.2,0.3c5-1.5,11.7-7.7,11.7-7.7s-6.6,17.7-13.3,26.7c-6.1,8.1-18.3,17-18.3,17
		s6.8,4.5,11.5,5c5.1,0.6,12.9-2.9,12.9-2.9S1847.4,837.8,1837.9,846.4z"/>
	
		<linearGradient id="SVGID_12_" gradientUnits="userSpaceOnUse" x1="146.2768" y1="554.0549" x2="8.9703" y2="17.8898" gradientTransform="matrix(1 0 0 -1 0 932)">
		<stop  offset="0" style="stop-color:#3BB18A"/>
		<stop  offset="1" style="stop-color:#269C75"/>
	</linearGradient>
	<path class="st38" d="M106.2,874.6c6.8-4.6,13.4-9.6,13.4-9.6l-30.7-59.7c0,0,16.8,7.9,27.8,7.9c14.9,0.1,37.5-14,37.5-14
		s-34.4-20.8-53.3-45.4C86.1,734.3,66.6,694,66.6,694s12.6,2.8,20.5,0.4c10.1-3,24.6-18,24.6-18s-19.9-10.5-31.3-22.8
		c-12.7-13.7-29.1-44.9-29.1-44.9s13,12.5,22.1,15.2c7.2,2.2,18.6,0.4,18.6,0.4s-15.6-22.7-23.5-41.1c-7.4-17.1-23.4-48.5-23.4-48.5
		s6.4,3.8,11.1,3.9s13.1-3.4,13.1-3.4s-19.1-30.1-27-56c-10.2-33.2-13.2-96.3-13.2-96.3S21.6,460,10.2,504.4
		c-7,27.4-21.7,66.1-21.7,66.1l11.3-7.2c4.4-2.8,9.6-14.6,9.6-14.6s-9.9,43.3-19.8,66.1c-7.8,18-23.1,40.2-23.1,40.2
		s12.7,4.4,20.5,0.4c7.3-3.7,17.1-18.1,17.1-18.1s-9.8,41.4-19.7,62.4c-9,19-26.8,40.1-26.8,40.1s9.7,10.3,16.6,11.4
		c7.4,1.2,18.8-7,18.8-7s-15.2,45.8-29.1,65.9c-12.5,18-36,32.5-36,32.5l20.1,31.8H106.2z"/>
	
		<linearGradient id="SVGID_13_" gradientUnits="userSpaceOnUse" x1="509.8358" y1="191.8235" x2="506.7048" y2="34.0119" gradientTransform="matrix(1 0 0 -1 0 932)">
		<stop  offset="0" style="stop-color:#3BB18A"/>
		<stop  offset="1" style="stop-color:#269C75"/>
	</linearGradient>
	<path class="st39" d="M459.9,874.6h94.5c-4.9-2.5-18.7-9.9-25.7-19.8c-7-9.8-13.4-30.5-13.4-30.5l18.5,3.7c0,0-17.7-22.3-24.9-40.8
		c-6.6-16.9-10.8-47.2-10.8-47.2s-5.5,54.2-20,80.2c-5.7,10.2-16.7,23.2-16.7,23.2s5.7,0.6,9.3,0.2c4.6-0.5,11.7-3.1,11.7-3.1
		s-11.4,23.1-21.5,33.2C460.6,873.9,460.3,874.2,459.9,874.6z"/>
	
		<linearGradient id="SVGID_14_" gradientUnits="userSpaceOnUse" x1="527.0826" y1="198.9357" x2="306.2177" y2="48.9737" gradientTransform="matrix(1 0 0 -1 0 932)">
		<stop  offset="0" style="stop-color:#3BB18A"/>
		<stop  offset="1" style="stop-color:#269C75"/>
	</linearGradient>
	<path class="st40" d="M376.4,835c-7.7,3.4-12.8,2.8-21,4.5c0,0,4.6,7.6,9.1,10.1c6.4,3.6,18.6,0.4,18.6,0.4s-9.7,15.8-19,22
		c-1.5,1-3.2,1.8-4.9,2.6h139.3c15.3-7.6,26.3-14.3,26.3-14.3s-22-3.8-32.3-13.1c-8.5-7.6-11.2-22.6-11.2-22.6s10.6,4,20.8,5.4
		c11.7,1.6,30.3-1.9,30.3-1.9s-26.6-13.4-41.4-25.6c-10.7-8.8-25.1-25.3-25.1-25.3s5.7,1,9.3,0.2c4-0.9,9.4-4.8,9.4-4.8
		s-19.5-19.3-27.3-35.3c-12.1-25.1-15-72.3-15-72.3s-16.7,63.8-34.1,91.2c-11.6,18.2-30.7,29.2-30.7,29.2s8.4,2.2,13.9,2.8
		c5.4,0.6,13.9,0.3,13.9,0.3s-9.2,10.2-16.5,14.6c-6.8,4-18.7,7.1-18.7,7.1s9.6,4.3,16.2,5.3c5.4,0.8,13.9,0.3,13.9,0.3
		S387.2,830.3,376.4,835z"/>
	
		<linearGradient id="SVGID_15_" gradientUnits="userSpaceOnUse" x1="56.7318" y1="224.1086" x2="201.8063" y2="254.7546" gradientTransform="matrix(1 0 0 -1 0 932)">
		<stop  offset="0" style="stop-color:#3BB18A"/>
		<stop  offset="1" style="stop-color:#269C75"/>
	</linearGradient>
	<path class="st41" d="M5.8,853.4c0,0,15.3,11.3,32,21.2h212.1c28.7-7.3,53.3-15.3,53.3-15.3s-36.1-5.9-53.1-21.5
		c-12.9-11.9-24.9-38.9-24.9-38.9s15.7,2.1,25.6,0.5c19.3-3.1,44.6-24.7,44.6-24.7s-37.4-9.9-57.7-24.2
		c-21.1-14.8-45.6-49.6-45.6-49.6s15.3,5.4,25.5,5.6c10.1,0.2,25.7-4.6,25.7-4.6s-27.7-12.4-41.4-26.4c-9.4-9.7-20.4-28.6-20.4-28.6
		s12.7,0.6,20.9,0.4c10-0.3,25.6-2.1,25.6-2.1s-22.6-13.9-34.4-26.3c-10.3-10.8-22.7-31.2-22.7-31.2s8.5,0.9,13.9,0.3
		c6.6-0.8,16.4-4.8,16.4-4.8s-23.2-21.7-34.2-39.1c-13.7-21.6-24.5-61.9-24.5-61.9s-10.9,47.7-22.3,76.4
		C112,579.2,96,609.4,96,609.4s8.8,2.4,13.9,0.3c6.6-2.7,11.9-15.1,11.9-15.1s-11.2,30.7-21.8,48.2c-13.6,22.4-42.7,50.4-42.7,50.4
		s22.2-1,35-7c7.9-3.7,18.8-12.4,18.8-12.4s-10.5,25.5-19.3,40.6c-11.9,20.4-35.7,47.9-35.7,47.9s15.7,5.1,25.5,3.1
		c6.8-1.4,16.4-7.4,16.4-7.4s-12.2,35.5-26.5,53.2C51.8,835.7,5.8,853.4,5.8,853.4z"/>
	
		<linearGradient id="SVGID_16_" gradientUnits="userSpaceOnUse" x1="893.8918" y1="151.2415" x2="896.0677" y2="41.5841" gradientTransform="matrix(1 0 0 -1 0 932)">
		<stop  offset="0" style="stop-color:#428A5D"/>
		<stop  offset="0.958" style="stop-color:#43B96F"/>
	</linearGradient>
	<path class="st42" d="M878.4,851.5c-4.9,3.8-14,6.4-14,6.4s6.2,5.7,10.9,6.6c2.4,0.4,6.2-0.1,6.2-0.1s-2.9,7.1-6,10.2h51.4
		c-2.9-1.9-6-4.2-8-6.9c-3.5-4.7-6.5-14.1-6.5-14.1s2.3,1.6,4,2c2.4,0.5,6.2-0.8,6.2-0.8s-5.8-7.3-8.7-12.7
		c-2.1-4-4.7-10.7-4.7-10.7s2.7,2.3,4.6,3.3c3.1,1.6,8.5,1.9,8.5,1.9s-7.1-7.4-10.4-13.3c-2.6-4.6-5.3-12.8-5.3-12.8s1.3,3.3,2.9,4
		c1.2,0.6,3.4-0.1,3.4-0.1s-3.9-8-5.9-13.4c-2.8-7.6-5.4-20.2-5.4-20.2s-2.6,10.7-5.9,16.4c-2.7,4.6-8.3,10.3-8.3,10.3
		s2.4,1.1,4,1.3c1.3,0.2,3.4-0.1,3.4-0.1s-3,5.4-5.5,8.2c-2.9,3.3-8.4,6.9-8.4,6.9s3.8,0.5,6.2,0.6c2,0.1,5.1-0.1,5.1-0.1
		s-2.7,5-5,7.6c-3.3,3.7-10.1,7-10.1,7s3.8,1.3,6.2,1.2c2.5,0,6.2-1.5,6.2-1.5S883.5,847.6,878.4,851.5z"/>
	
		<linearGradient id="SVGID_17_" gradientUnits="userSpaceOnUse" x1="908.1352" y1="102.0937" x2="951.3712" y2="111.2277" gradientTransform="matrix(1 0 0 -1 0 932)">
		<stop  offset="0" style="stop-color:#42B891"/>
		<stop  offset="1" style="stop-color:#158B64"/>
	</linearGradient>
	<path class="st43" d="M908.8,850.2c0,0,4.7,1.5,7.6,0.9c2-0.4,4.9-2.2,4.9-2.2s-3.6,10.6-7.9,15.9c-3.3,4.1-9,7.5-13.5,9.8h69.2
		c-0.9-0.6-1.8-1.2-2.5-1.9c-3.9-3.6-7.4-11.6-7.4-11.6s4.7,0.6,7.6,0.2c5.7-0.9,13.3-7.4,13.3-7.4s-11.1-3-17.2-7.2
		c-6.3-4.4-13.6-14.8-13.6-14.8s4.6,1.6,7.6,1.7c3,0.1,7.6-1.4,7.6-1.4s-8.3-3.7-12.3-7.9c-2.8-2.9-6.1-8.5-6.1-8.5s3.8,0.2,6.2,0.1
		c3-0.1,7.6-0.6,7.6-0.6s-6.7-4.1-10.3-7.8c-3.1-3.2-6.8-9.3-6.8-9.3s2.5,0.3,4.2,0.1c2-0.2,4.9-1.4,4.9-1.4s-6.9-6.5-10.2-11.6
		c-4.1-6.5-7.3-18.5-7.3-18.5s-3.2,14.2-6.6,22.8c-2.4,6.1-7.2,15.1-7.2,15.1s2.6,0.7,4.2,0.1c2-0.8,3.5-4.5,3.5-4.5
		s-3.3,9.2-6.5,14.4c-4,6.7-12.7,15-12.7,15s6.6-0.3,10.4-2.1c2.3-1.1,5.6-3.7,5.6-3.7s-3.1,7.6-5.8,12.1
		C915.9,842,908.8,850.2,908.8,850.2z"/>
	
		<linearGradient id="SVGID_18_" gradientUnits="userSpaceOnUse" x1="77.4332" y1="288.0668" x2="63.7927" y2="159.5748" gradientTransform="matrix(1 0 0 -1 0 932)">
		<stop  offset="0" style="stop-color:#3BB18A"/>
		<stop  offset="1" style="stop-color:#269C75"/>
	</linearGradient>
	<path class="st44" d="M1.8,781.4c0,0,10.4-1.9,16.4-5.5c7.6-4.6,16.6-17.2,16.6-17.2S24.3,788.8,17.6,808
		c-4.8,13.6-12.2,34.8-12.2,34.8s10.1-1.5,16.4-8.4c4.6-5.1,11.9-14.4,11.9-14.4s-8.9,33.9-20,54.6h96.9
		c-6.8-7.4-14.2-16.1-19.3-24.2c-10.7-16.7-22.4-47.2-22.4-47.2s11.4-0.3,18.6,0.4c11.9,1.1,35-8.1,35-8.1s-25.3-4.5-34.5-21.1
		c-9.3-16.8-17.7-50-17.7-50l13.8,6.1l-13.4-29.5l11.6,3.2c0,0-15.6-23.5-22.5-44.3c-14.1-42.7-14.1-123-14.1-123
		s-1.7,56.1-8.5,87.5c-4.2,19.5-17,43.5-17,43.5c5.5-2.2,11-9.2,16.5-11.4c0,0-7.2,27.7-12.3,40.7c-5.3,13.3-16.8,31.8-16.8,31.8
		s7.3,1.9,11.6,0.2c4.3-1.7,9.4-8.6,9.4-8.6s-8.6,21.4-14.6,34.8C9.3,765.6,1.8,781.4,1.8,781.4z"/>
	
		<linearGradient id="SVGID_19_" gradientUnits="userSpaceOnUse" x1="221.8559" y1="385.7004" x2="307.4999" y2="34.4914" gradientTransform="matrix(1 0 0 -1 0 932)">
		<stop  offset="0" style="stop-color:#3BB18A"/>
		<stop  offset="1" style="stop-color:#269C75"/>
	</linearGradient>
	<path class="st45" d="M201.8,851.2c-15.4,12-44.5,21.5-44.5,21.5l2.3,1.9h222.3l-24.2-25.3c0,0,21,5.5,34.8,5.7
		c18.5,0.2,46.7-9,46.7-9s-43.1-14.4-66.9-31.1c-18.8-13.2-43.5-40.6-43.5-40.6s15.7,2,25.6,0.5c12.5-1.9,30.4-11.8,30.4-11.8
		s-24.9-7.3-39.2-15.7c-15.9-9.3-36.7-30.5-36.7-30.5s16.4,8.5,27.7,10.5c9,1.5,23.2,0.5,23.2,0.5s-19.6-15.4-29.7-27.9
		c-9.4-11.6-29.6-32.9-29.6-32.9s8,2.6,13.9,2.8s16.3-2.2,16.3-2.2s-24.1-20.4-34.2-37.9c-13-22.4-17.5-64.9-17.5-64.9
		s-8.6,51.8-22.3,81.5c-8.5,18.3-26.3,44.2-26.3,44.2l14-4.7c5.5-1.8,11.8-9.7,11.8-9.7s-11.9,29-24,44.2
		c-9.6,12-28.4,26.7-28.4,26.7s15.9,3.1,25.6,0.5c9.1-2.4,21.1-12,21.1-12s-11.8,27.7-24,41.7c-11,12.7-33,26.6-33,26.6
		s12.2,7,20.8,7.9c9.2,0.9,23.3-4.5,23.3-4.5S219.1,837.8,201.8,851.2z"/>
	<path class="st46" d="M876,573.9l19.7,1.2c0,0,2.2-3.9,5.3-6.6l8-7c0,0-7.4,8.3-8.8,11.6c-2.2,5-1.2,9.3-1.2,9.3s-3.7-3.9-7.8-5.4
		C886.2,575.3,876,573.9,876,573.9z"/>
	<path class="st46" d="M805.7,555.7l23.4,4.9c0,0,3.4-5.4,7.7-8.9l11-9c0,0-10.5,11.1-12.8,15.7c-3.6,7-3.2,13.5-3.2,13.5
		s-3.6-6.3-8.3-9.1C817.7,559.4,805.7,555.7,805.7,555.7z"/>
	<path class="st46" d="M868,528.3l19.7,1.6c0,0,2.2-5.1,5.3-8.6l8-9c0,0-7.4,10.8-8.8,15c-2.2,6.5-1.2,12-1.2,12s-3.7-5-7.8-6.9
		C878.3,530.2,868,528.3,868,528.3z"/>
	<path class="st46" d="M687,643.9l23.3,1.9c0,0,2.6-6,6.3-10.1L726,625c0,0-8.7,12.7-10.4,17.7c-2.6,7.6-1.4,14.2-1.4,14.2
		s-4.3-5.9-9.2-8.2C699.1,646.1,687,643.9,687,643.9z"/>
	<path class="st46" d="M816,380.4l23.3,1.6c0,0,2.6-5,6.3-8.6l9.5-9c0,0-8.7,10.7-10.4,14.9c-2.6,6.4-1.4,12-1.4,12s-4.3-5-9.2-6.9
		C828.1,382.2,816,380.4,816,380.4z"/>
	<path class="st46" d="M666,323.9l23.3,1.6c0,0,2.6-5,6.3-8.6l9.5-9c0,0-8.7,10.7-10.4,14.9c-2.6,6.4-1.4,12-1.4,12s-4.3-5-9.2-6.9
		C678.1,325.8,666,323.9,666,323.9z"/>
	<path class="st46" d="M474,296.4l13.7,0.9c0,0,1.5-3,3.7-5l5.6-5.3c0,0-5.1,6.3-6.1,8.8c-1.5,3.8-0.8,7.1-0.8,7.1s-2.5-2.9-5.4-4.1
		C481.1,297.5,474,296.4,474,296.4z"/>
	<path class="st46" d="M947,720.4l23.3,1.9c0,0,2.6-6,6.3-10.1l9.5-10.6c0,0-8.7,12.7-10.4,17.7c-2.6,7.6-1.4,14.2-1.4,14.2
		s-4.3-5.9-9.2-8.2C959.1,722.5,947,720.4,947,720.4z"/>
	<path class="st46" d="M1072,631.4l23.3,1.6c0,0,2.6-5,6.3-8.6l9.4-9c0,0-8.7,10.7-10.4,15c-2.6,6.4-1.4,12-1.4,12s-4.3-5-9.2-6.9
		C1084.1,633.2,1072,631.4,1072,631.4z"/>
	<path class="st46" d="M871,599.4l23.3,1.6c0,0,2.6-5,6.3-8.6l9.5-9c0,0-8.7,10.7-10.4,15c-2.6,6.4-1.4,12-1.4,12s-4.3-5-9.2-6.9
		C883.1,601.2,871,599.4,871,599.4z"/>
	<path class="st46" d="M775,547.4l13.7,0.9c0,0,1.5-3,3.7-5l5.6-5.3c0,0-5.1,6.3-6.1,8.8c-1.5,3.8-0.8,7.1-0.8,7.1s-2.6-2.9-5.4-4.1
		C782.1,548.5,775,547.4,775,547.4z"/>
	<path class="st46" d="M345,611.9l19.7,1.2c0,0,2.2-3.9,5.3-6.6l8-7c0,0-7.4,8.3-8.8,11.6c-2.2,5-1.2,9.3-1.2,9.3s-3.7-3.9-7.8-5.4
		C355.2,613.3,345,611.9,345,611.9z"/>
	<path class="st46" d="M274.7,593.7l23.4,4.9c0,0,3.4-5.4,7.7-8.9l11-9c0,0-10.5,11.1-12.8,15.7c-3.6,7-3.2,13.5-3.2,13.5
		s-3.6-6.3-8.3-9.1C286.7,597.4,274.7,593.7,274.7,593.7z"/>
	<path class="st46" d="M337,566.3l19.7,1.6c0,0,2.2-5.1,5.3-8.6l8-9c0,0-7.4,10.8-8.8,15c-2.2,6.5-1.2,12-1.2,12s-3.7-5-7.8-6.9
		C347.3,568.2,337,566.3,337,566.3z"/>
	<path class="st46" d="M96,507.4l23.3,1.9c0,0,2.6-6,6.3-10.1l9.5-10.6c0,0-8.7,12.7-10.4,17.7c-2.6,7.6-1.4,14.2-1.4,14.2
		s-4.3-5.9-9.2-8.2C108.1,509.5,96,507.4,96,507.4z"/>
	<path class="st46" d="M285,418.4l23.3,1.6c0,0,2.6-5,6.3-8.6l9.5-9c0,0-8.7,10.7-10.4,14.9c-2.6,6.4-1.4,12-1.4,12s-4.3-5-9.2-6.9
		C297.1,420.2,285,418.4,285,418.4z"/>
	<path class="st46" d="M151,408.9l23.3,1.6c0,0,2.6-5,6.3-8.6l9.5-9c0,0-8.7,10.7-10.4,14.9c-2.6,6.4-1.4,12-1.4,12s-4.3-5-9.2-6.9
		C163.1,410.8,151,408.9,151,408.9z"/>
	<path class="st46" d="M73,309.4l13.7,0.9c0,0,1.5-3,3.7-5L96,300c0,0-5.1,6.3-6.1,8.8c-1.5,3.8-0.8,7.1-0.8,7.1s-2.6-2.9-5.4-4.1
		C80.1,310.5,73,309.4,73,309.4z"/>
</g>
</svg>
