<svg width="199" height="199" viewBox="0 0 199 199" fill="none" xmlns="http://www.w3.org/2000/svg">
<circle opacity="0.3" cx="99.5" cy="99.5" r="99" stroke="#225556"/>
<mask id="mask0" mask-type="alpha" maskUnits="userSpaceOnUse" x="0" y="0" width="199" height="199">
<circle cx="99.5" cy="99.5" r="99.5" fill="#C4C4C4"/>
</mask>
<g mask="url(#mask0)">
<path d="M57.4676 161.187C61.1217 157.564 67.1769 157.75 67.1769 157.75H118.498C118.498 157.75 110.538 163.312 108.788 168.75C106.786 174.974 107.295 180.272 111.562 185.25C114.39 188.549 117.059 189.609 121.272 190.75C125.713 191.952 133.061 190.75 133.061 190.75V199H54V167.375C54 167.375 54 164.626 57.4676 161.187Z" fill="url(#paint0_linear)"/>
<path d="M117.804 133C117.804 148.947 106.936 161.875 93.5307 161.875C80.125 161.875 69.2575 148.947 69.2575 133C69.2575 117.053 93.5307 124.062 93.5307 124.062C93.5307 124.062 117.804 117.053 117.804 133Z" fill="url(#paint1_linear)"/>
<path d="M120.578 117.875C93.5307 117.875 93.5307 117.875 93.5307 117.875C93.5307 117.875 92.8372 117.875 66.4834 117.875C66.4834 111.239 69.2575 101.375 75.2692 97.9375C81.7409 106.875 81.7409 106.875 81.7409 106.875C81.7409 106.875 81.7409 106.875 81.7409 91.4977C84.84 90.2461 90.7134 89 93.5307 89C96.3481 89 102.221 90.2461 105.321 91.4977C105.321 106.875 105.321 106.875 105.321 106.875C105.321 106.875 104.397 106.188 110.869 97.25C118.498 102.063 120.578 111.239 120.578 117.875Z" fill="url(#paint2_linear)"/>
<path d="M62.3223 117.875C62.3223 117.116 62.9433 116.5 63.7093 116.5H123.352C124.118 116.5 124.739 117.116 124.739 117.875V126.125C124.739 126.885 124.118 127.5 123.352 127.5H63.7093C62.9433 127.5 62.3223 126.885 62.3223 126.125V117.875Z" fill="url(#paint3_linear)"/>
<path d="M113.837 168.734C114.391 168.195 115.283 168.212 115.817 168.771L122.389 175.664C122.925 176.227 123.825 176.24 124.378 175.692L141.114 159.102C141.656 158.565 142.535 158.565 143.076 159.103L144.594 160.61C145.13 161.141 145.136 162 144.609 162.539L124.36 183.241C123.817 183.797 122.919 183.799 122.373 183.246L111.854 172.586C111.318 172.044 111.327 171.174 111.874 170.643L113.837 168.734Z" fill="url(#paint4_linear)"/>
<path d="M109.474 61H87.501V58.29C87.501 57.1833 87.6556 56.1497 87.9648 55.1895C88.2741 54.2129 88.6891 53.3014 89.21 52.4551C89.7308 51.5924 90.3411 50.7868 91.041 50.0381C91.7409 49.2731 92.4896 48.5407 93.2871 47.8408C94.0846 47.1247 94.8984 46.4411 95.7285 45.79C96.5586 45.1227 97.3724 44.4554 98.1699 43.7881C98.9186 43.1533 99.6022 42.5348 100.221 41.9326C100.839 41.3141 101.368 40.6794 101.808 40.0283C102.247 39.3773 102.589 38.6937 102.833 37.9775C103.077 37.2451 103.199 36.4557 103.199 35.6094C103.199 34.6816 103.053 33.876 102.76 33.1924C102.483 32.4925 102.084 31.9147 101.563 31.459C101.059 30.987 100.457 30.637 99.7568 30.4092C99.057 30.165 98.292 30.043 97.4619 30.043C96.0296 30.043 94.5729 30.3766 93.0918 31.0439C91.6107 31.7113 90.1865 32.7122 88.8193 34.0469V28.6025C89.5355 28.0654 90.2598 27.6016 90.9922 27.2109C91.7246 26.804 92.4814 26.4704 93.2627 26.21C94.0439 25.9333 94.8659 25.7298 95.7285 25.5996C96.5911 25.4694 97.5107 25.4043 98.4873 25.4043C100.066 25.4043 101.498 25.6159 102.784 26.0391C104.07 26.446 105.169 27.0563 106.08 27.8701C106.992 28.6676 107.691 29.6686 108.18 30.873C108.684 32.0775 108.937 33.4609 108.937 35.0234C108.937 36.4395 108.757 37.7171 108.399 38.8564C108.058 39.9795 107.561 41.0293 106.91 42.0059C106.275 42.9824 105.502 43.9102 104.591 44.7891C103.679 45.668 102.662 46.5713 101.539 47.499C100.595 48.264 99.651 49.0127 98.707 49.7451C97.7793 50.4613 96.9411 51.1693 96.1924 51.8691C95.4437 52.5527 94.8333 53.2445 94.3613 53.9443C93.9056 54.6279 93.6777 55.3197 93.6777 56.0195V56.1416H109.474V61Z" fill="#005647"/>
</g>
<defs>
<linearGradient id="paint0_linear" x1="145" y1="89" x2="54.903" y2="199.735" gradientUnits="userSpaceOnUse">
<stop stop-color="#8FD5F2"/>
<stop offset="1" stop-color="#00C6A2"/>
</linearGradient>
<linearGradient id="paint1_linear" x1="145" y1="89" x2="54.903" y2="199.735" gradientUnits="userSpaceOnUse">
<stop stop-color="#8FD5F2"/>
<stop offset="1" stop-color="#00C6A2"/>
</linearGradient>
<linearGradient id="paint2_linear" x1="145" y1="89" x2="54.903" y2="199.735" gradientUnits="userSpaceOnUse">
<stop stop-color="#8FD5F2"/>
<stop offset="1" stop-color="#00C6A2"/>
</linearGradient>
<linearGradient id="paint3_linear" x1="145" y1="89" x2="54.903" y2="199.735" gradientUnits="userSpaceOnUse">
<stop stop-color="#8FD5F2"/>
<stop offset="1" stop-color="#00C6A2"/>
</linearGradient>
<linearGradient id="paint4_linear" x1="145" y1="89" x2="54.903" y2="199.735" gradientUnits="userSpaceOnUse">
<stop stop-color="#8FD5F2"/>
<stop offset="1" stop-color="#00C6A2"/>
</linearGradient>
</defs>
</svg>
