<svg width="199" height="199" viewBox="0 0 199 199" fill="none" xmlns="http://www.w3.org/2000/svg">
<circle opacity="0.3" cx="99.5" cy="99.5" r="99" stroke="#225556"/>
<mask id="mask0" mask-type="alpha" maskUnits="userSpaceOnUse" x="0" y="0" width="199" height="199">
<circle cx="99.5" cy="99.5" r="99.5" fill="#C4C4C4"/>
</mask>
<g mask="url(#mask0)">
<g opacity="0.5">
<path d="M124.615 116.252C124.675 115.748 125.102 115.369 125.608 115.369H137.27C137.822 115.369 138.27 115.817 138.27 116.369V122.015C138.27 122.568 137.822 123.015 137.27 123.015H124.941C124.343 123.015 123.878 122.493 123.948 121.898L124.615 116.252Z" fill="url(#paint0_linear)"/>
<path d="M139.382 116.369C139.382 115.817 139.829 115.369 140.382 115.369H148.388C148.94 115.369 149.388 115.817 149.388 116.369V122.015C149.388 122.568 148.94 123.015 148.388 123.015H140.382C139.829 123.015 139.382 122.568 139.382 122.015V116.369Z" fill="url(#paint1_linear)"/>
<path d="M151.612 116.369C151.612 115.817 152.059 115.369 152.612 115.369H160.618C161.17 115.369 161.618 115.817 161.618 116.369V122.015C161.618 122.568 161.17 123.015 160.618 123.015H152.612C152.059 123.015 151.612 122.568 151.612 122.015V116.369Z" fill="url(#paint2_linear)"/>
<path d="M162.73 116.369C162.73 115.817 163.177 115.369 163.73 115.369H175.391C175.898 115.369 176.325 115.748 176.384 116.252L177.051 121.898C177.122 122.493 176.657 123.015 176.058 123.015H163.73C163.177 123.015 162.73 122.568 162.73 122.015V116.369Z" fill="url(#paint3_linear)"/>
<path d="M122.517 126.065C122.585 125.569 123.008 125.2 123.508 125.2H137.27C137.822 125.2 138.27 125.648 138.27 126.2V131.846C138.27 132.398 137.822 132.846 137.27 132.846H122.738C122.132 132.846 121.666 132.311 121.747 131.711L122.517 126.065Z" fill="url(#paint4_linear)"/>
<path d="M139.382 126.2C139.382 125.648 139.829 125.2 140.382 125.2H148.388C148.94 125.2 149.388 125.648 149.388 126.2V131.846C149.388 132.398 148.94 132.846 148.388 132.846H140.382C139.829 132.846 139.382 132.398 139.382 131.846V126.2Z" fill="url(#paint5_linear)"/>
<path d="M151.612 126.2C151.612 125.648 152.059 125.2 152.612 125.2H160.618C161.17 125.2 161.618 125.648 161.618 126.2V131.846C161.618 132.398 161.17 132.846 160.618 132.846H152.612C152.059 132.846 151.612 132.398 151.612 131.846V126.2Z" fill="url(#paint6_linear)"/>
<path d="M162.73 126.2C162.73 125.648 163.177 125.2 163.73 125.2H177.492C177.992 125.2 178.415 125.569 178.483 126.065L179.252 131.711C179.334 132.311 178.867 132.846 178.261 132.846H163.73C163.177 132.846 162.73 132.398 162.73 131.846V126.2Z" fill="url(#paint7_linear)"/>
<path d="M120.419 135.878C120.495 135.39 120.914 135.031 121.408 135.031H137.27C137.822 135.031 138.27 135.478 138.27 136.031V141.677C138.27 142.229 137.822 142.677 137.27 142.677H120.535C119.922 142.677 119.453 142.13 119.547 141.524L120.419 135.878Z" fill="url(#paint8_linear)"/>
<path d="M139.382 136.031C139.382 135.478 139.829 135.031 140.382 135.031H148.388C148.94 135.031 149.388 135.478 149.388 136.031V141.677C149.388 142.229 148.94 142.677 148.388 142.677H140.382C139.829 142.677 139.382 142.229 139.382 141.677V136.031Z" fill="url(#paint9_linear)"/>
<path d="M151.612 136.031C151.612 135.478 152.059 135.031 152.612 135.031H160.618C161.17 135.031 161.618 135.478 161.618 136.031V141.677C161.618 142.229 161.17 142.677 160.618 142.677H152.612C152.059 142.677 151.612 142.229 151.612 141.677V136.031Z" fill="url(#paint10_linear)"/>
<path d="M162.73 136.031C162.73 135.478 163.177 135.031 163.73 135.031H179.592C180.085 135.031 180.505 135.39 180.58 135.878L181.452 141.524C181.546 142.13 181.077 142.677 180.464 142.677H163.73C163.177 142.677 162.73 142.229 162.73 141.677V136.031Z" fill="url(#paint11_linear)"/>
</g>
<path d="M151.5 145.954C151.5 145.402 151.052 144.954 150.5 144.954C149.948 144.954 149.5 145.402 149.5 145.954H151.5ZM149.5 159.062C149.5 159.614 149.948 160.062 150.5 160.062C151.052 160.062 151.5 159.614 151.5 159.062H149.5ZM163.062 160.062C163.614 160.062 164.062 159.614 164.062 159.062C164.062 158.509 163.614 158.062 163.062 158.062V160.062ZM137.938 158.062C137.386 158.062 136.938 158.509 136.938 159.062C136.938 159.614 137.386 160.062 137.938 160.062V158.062ZM115.222 144.77L114.239 144.585L115.222 144.77ZM185.778 144.77L184.795 144.954L185.778 144.77ZM179.599 111.816L178.616 112L179.599 111.816ZM122.384 112H178.616V110H122.384V112ZM178.616 112L184.795 144.954L186.761 144.585L180.582 111.631L178.616 112ZM184.795 144.954H116.205V146.954H184.795V144.954ZM116.205 144.954L122.384 112L120.418 111.631L114.239 144.585L116.205 144.954ZM149.5 145.954V159.062H151.5V145.954H149.5ZM163.062 158.062H137.938V160.062H163.062V158.062ZM116.205 144.954H116.205L114.239 144.585C114.008 145.816 114.953 146.954 116.205 146.954V144.954ZM184.795 144.954V144.954V146.954C186.047 146.954 186.992 145.816 186.761 144.585L184.795 144.954ZM178.616 112L180.582 111.631C180.405 110.685 179.579 110 178.616 110V112ZM122.384 110C121.421 110 120.595 110.685 120.418 111.631L122.384 112L122.384 112V110Z" fill="url(#paint12_linear)"/>
<path d="M68.1815 91.3439C68.4759 90.4906 69.6029 90.4906 69.8973 91.3439C71.0455 94.6724 72.9394 100.917 72.9394 105.9C72.9394 110.855 71.0662 117.684 69.9162 121.409C69.638 122.31 68.4409 122.31 68.1626 121.409C67.0126 117.684 65.1394 110.855 65.1394 105.9C65.1394 100.917 67.0333 94.6724 68.1815 91.3439Z" fill="url(#paint13_linear)"/>
<path d="M107.229 138.237C107.994 138.716 107.741 139.814 106.843 139.909C103.341 140.279 96.8304 140.72 91.9755 139.599C87.1473 138.484 80.9152 135.123 77.5442 133.165C76.7285 132.691 76.9978 131.524 77.9387 131.456C81.8271 131.173 88.9019 130.884 93.7302 131.999C98.585 133.12 104.244 136.37 107.229 138.237Z" fill="url(#paint14_linear)"/>
<path d="M31.7076 138.333C30.9423 138.811 31.1959 139.91 32.0936 140.004C35.595 140.375 42.1061 140.815 46.9609 139.694C51.7891 138.579 58.0212 135.218 61.3922 133.26C62.2079 132.786 61.9386 131.619 60.9978 131.551C57.1094 131.269 50.0345 130.979 45.2063 132.094C40.3515 133.215 34.6924 136.465 31.7076 138.333Z" fill="url(#paint15_linear)"/>
<path d="M76.8394 130.6C76.8394 134.908 73.3472 138.4 69.0394 138.4C64.7316 138.4 61.2394 134.908 61.2394 130.6C61.2394 126.292 64.7316 122.8 69.0394 122.8C73.3472 122.8 76.8394 126.292 76.8394 130.6ZM65.9194 130.6C65.9194 132.323 67.3163 133.72 69.0394 133.72C70.7625 133.72 72.1594 132.323 72.1594 130.6C72.1594 128.877 70.7625 127.48 69.0394 127.48C67.3163 127.48 65.9194 128.877 65.9194 130.6Z" fill="url(#paint16_linear)"/>
<path d="M66.3386 136.687C66.396 136.182 66.8236 135.8 67.3322 135.8H70.7466C71.2552 135.8 71.6828 136.182 71.7402 136.687L78.0129 191.887C78.0804 192.48 77.6163 193 77.0193 193H61.0595C60.4625 193 59.9985 192.48 60.0659 191.887L66.3386 136.687Z" fill="url(#paint17_linear)"/>
<path d="M34.2011 130.358C34.4759 129.498 35.586 129.498 35.8609 130.358C36.5183 132.414 37.3268 135.451 37.3268 137.948C37.3268 140.422 36.5341 143.688 35.8802 145.961C35.6195 146.867 34.4425 146.867 34.1817 145.961C33.5279 143.688 32.7352 140.422 32.7352 137.948C32.7352 135.451 33.5437 132.414 34.2011 130.358Z" fill="url(#paint18_linear)"/>
<path d="M56.571 156.946C57.3469 157.407 57.0972 158.489 56.1976 158.563C54.046 158.741 50.9053 158.846 48.4717 158.284C46.0618 157.727 43.0579 156.22 40.9901 155.072C40.1654 154.614 40.4302 153.467 41.3722 153.417C43.7341 153.291 47.0947 153.253 49.5046 153.81C51.9382 154.372 54.7152 155.843 56.571 156.946Z" fill="url(#paint19_linear)"/>
<path d="M13.1106 156.946C12.3346 157.407 12.5843 158.489 13.484 158.563C15.6356 158.741 18.7762 158.846 21.2099 158.284C23.6198 157.727 26.6237 156.22 28.6914 155.072C29.5161 154.614 29.2514 153.467 28.3094 153.417C25.9475 153.291 22.5869 153.253 20.177 153.81C17.7433 154.372 14.9664 155.843 13.1106 156.946Z" fill="url(#paint20_linear)"/>
<path d="M39.6211 152.488C39.6211 155.024 37.5653 157.08 35.0295 157.08C32.4936 157.08 30.4379 155.024 30.4379 152.488C30.4379 149.953 32.4936 147.897 35.0295 147.897C37.5653 147.897 39.6211 149.953 39.6211 152.488ZM33.1928 152.488C33.1928 153.503 34.0151 154.325 35.0295 154.325C36.0438 154.325 36.8661 153.503 36.8661 152.488C36.8661 151.474 36.0438 150.652 35.0295 150.652C34.0151 150.652 33.1928 151.474 33.1928 152.488Z" fill="url(#paint21_linear)"/>
<path d="M33.3976 156.436C33.4551 155.931 33.8826 155.549 34.3912 155.549H35.6667C36.1753 155.549 36.6029 155.931 36.6603 156.436L40.2593 188.108C40.3267 188.701 39.8627 189.221 39.2657 189.221H30.7922C30.1952 189.221 29.7312 188.701 29.7986 188.108L33.3976 156.436Z" fill="url(#paint22_linear)"/>
<path d="M99.2011 130.358C99.4759 129.498 100.586 129.498 100.861 130.358C101.518 132.414 102.327 135.451 102.327 137.948C102.327 140.422 101.534 143.688 100.88 145.961C100.619 146.867 99.4425 146.867 99.1817 145.961C98.5279 143.688 97.7352 140.422 97.7352 137.948C97.7352 135.451 98.5437 132.414 99.2011 130.358Z" fill="url(#paint23_linear)"/>
<path d="M121.566 156.946C122.342 157.407 122.092 158.489 121.193 158.563C119.041 158.741 115.9 158.846 113.467 158.284C111.057 157.727 108.053 156.22 105.985 155.072C105.16 154.614 105.425 153.467 106.367 153.417C108.729 153.291 112.09 153.253 114.499 153.81C116.933 154.372 119.71 155.843 121.566 156.946Z" fill="url(#paint24_linear)"/>
<path d="M78.1106 156.946C77.3346 157.407 77.5843 158.489 78.484 158.563C80.6356 158.741 83.7762 158.846 86.2099 158.284C88.6198 157.727 91.6237 156.22 93.6914 155.072C94.5161 154.614 94.2514 153.467 93.3094 153.417C90.9475 153.291 87.5869 153.253 85.177 153.81C82.7433 154.372 79.9664 155.843 78.1106 156.946Z" fill="url(#paint25_linear)"/>
<path d="M104.621 152.488C104.621 155.024 102.565 157.08 100.029 157.08C97.4936 157.08 95.4379 155.024 95.4379 152.488C95.4379 149.953 97.4936 147.897 100.029 147.897C102.565 147.897 104.621 149.953 104.621 152.488ZM98.1928 152.488C98.1928 153.503 99.0151 154.325 100.029 154.325C101.044 154.325 101.866 153.503 101.866 152.488C101.866 151.474 101.044 150.652 100.029 150.652C99.0151 150.652 98.1928 151.474 98.1928 152.488Z" fill="url(#paint26_linear)"/>
<path d="M98.3976 156.436C98.4551 155.931 98.8826 155.549 99.3912 155.549H100.667C101.175 155.549 101.603 155.931 101.66 156.436L105.259 188.108C105.327 188.701 104.863 189.221 104.266 189.221H95.7922C95.1952 189.221 94.7312 188.701 94.7986 188.108L98.3976 156.436Z" fill="url(#paint27_linear)"/>
<path d="M100.456 25.209V61H94.792V32.1426C93.7666 32.875 92.6598 33.5016 91.4717 34.0225C90.2998 34.527 88.957 34.9746 87.4434 35.3652V30.5312C88.3874 30.222 89.2988 29.8965 90.1777 29.5547C91.0566 29.2129 91.9193 28.8304 92.7656 28.4072C93.6283 27.984 94.4909 27.512 95.3535 26.9912C96.2324 26.4704 97.1357 25.8763 98.0635 25.209H100.456Z" fill="#005647"/>
</g>
<defs>
<linearGradient id="paint0_linear" x1="119.321" y1="142.677" x2="175.631" y2="114.581" gradientUnits="userSpaceOnUse">
<stop stop-color="#00C6A2"/>
<stop offset="1" stop-color="#8FD5F2"/>
</linearGradient>
<linearGradient id="paint1_linear" x1="119.321" y1="142.677" x2="175.631" y2="114.581" gradientUnits="userSpaceOnUse">
<stop stop-color="#00C6A2"/>
<stop offset="1" stop-color="#8FD5F2"/>
</linearGradient>
<linearGradient id="paint2_linear" x1="119.321" y1="142.677" x2="175.631" y2="114.581" gradientUnits="userSpaceOnUse">
<stop stop-color="#00C6A2"/>
<stop offset="1" stop-color="#8FD5F2"/>
</linearGradient>
<linearGradient id="paint3_linear" x1="119.321" y1="142.677" x2="175.631" y2="114.581" gradientUnits="userSpaceOnUse">
<stop stop-color="#00C6A2"/>
<stop offset="1" stop-color="#8FD5F2"/>
</linearGradient>
<linearGradient id="paint4_linear" x1="119.321" y1="142.677" x2="175.631" y2="114.581" gradientUnits="userSpaceOnUse">
<stop stop-color="#00C6A2"/>
<stop offset="1" stop-color="#8FD5F2"/>
</linearGradient>
<linearGradient id="paint5_linear" x1="119.321" y1="142.677" x2="175.631" y2="114.581" gradientUnits="userSpaceOnUse">
<stop stop-color="#00C6A2"/>
<stop offset="1" stop-color="#8FD5F2"/>
</linearGradient>
<linearGradient id="paint6_linear" x1="119.321" y1="142.677" x2="175.631" y2="114.581" gradientUnits="userSpaceOnUse">
<stop stop-color="#00C6A2"/>
<stop offset="1" stop-color="#8FD5F2"/>
</linearGradient>
<linearGradient id="paint7_linear" x1="119.321" y1="142.677" x2="175.631" y2="114.581" gradientUnits="userSpaceOnUse">
<stop stop-color="#00C6A2"/>
<stop offset="1" stop-color="#8FD5F2"/>
</linearGradient>
<linearGradient id="paint8_linear" x1="119.321" y1="142.677" x2="175.631" y2="114.581" gradientUnits="userSpaceOnUse">
<stop stop-color="#00C6A2"/>
<stop offset="1" stop-color="#8FD5F2"/>
</linearGradient>
<linearGradient id="paint9_linear" x1="119.321" y1="142.677" x2="175.631" y2="114.581" gradientUnits="userSpaceOnUse">
<stop stop-color="#00C6A2"/>
<stop offset="1" stop-color="#8FD5F2"/>
</linearGradient>
<linearGradient id="paint10_linear" x1="119.321" y1="142.677" x2="175.631" y2="114.581" gradientUnits="userSpaceOnUse">
<stop stop-color="#00C6A2"/>
<stop offset="1" stop-color="#8FD5F2"/>
</linearGradient>
<linearGradient id="paint11_linear" x1="119.321" y1="142.677" x2="175.631" y2="114.581" gradientUnits="userSpaceOnUse">
<stop stop-color="#00C6A2"/>
<stop offset="1" stop-color="#8FD5F2"/>
</linearGradient>
<linearGradient id="paint12_linear" x1="123" y1="159" x2="180.346" y2="102.262" gradientUnits="userSpaceOnUse">
<stop stop-color="#00C6A2"/>
<stop offset="1" stop-color="#8FD5F2"/>
</linearGradient>
<linearGradient id="paint13_linear" x1="124" y1="89" x2="11" y2="193" gradientUnits="userSpaceOnUse">
<stop stop-color="#8FD5F2"/>
<stop offset="1" stop-color="#00C6A2"/>
</linearGradient>
<linearGradient id="paint14_linear" x1="124" y1="89" x2="11" y2="193" gradientUnits="userSpaceOnUse">
<stop stop-color="#8FD5F2"/>
<stop offset="1" stop-color="#00C6A2"/>
</linearGradient>
<linearGradient id="paint15_linear" x1="124" y1="89" x2="11" y2="193" gradientUnits="userSpaceOnUse">
<stop stop-color="#8FD5F2"/>
<stop offset="1" stop-color="#00C6A2"/>
</linearGradient>
<linearGradient id="paint16_linear" x1="124" y1="89" x2="11" y2="193" gradientUnits="userSpaceOnUse">
<stop stop-color="#8FD5F2"/>
<stop offset="1" stop-color="#00C6A2"/>
</linearGradient>
<linearGradient id="paint17_linear" x1="124" y1="89" x2="11" y2="193" gradientUnits="userSpaceOnUse">
<stop stop-color="#8FD5F2"/>
<stop offset="1" stop-color="#00C6A2"/>
</linearGradient>
<linearGradient id="paint18_linear" x1="124" y1="89" x2="11" y2="193" gradientUnits="userSpaceOnUse">
<stop stop-color="#8FD5F2"/>
<stop offset="1" stop-color="#00C6A2"/>
</linearGradient>
<linearGradient id="paint19_linear" x1="124" y1="89" x2="11" y2="193" gradientUnits="userSpaceOnUse">
<stop stop-color="#8FD5F2"/>
<stop offset="1" stop-color="#00C6A2"/>
</linearGradient>
<linearGradient id="paint20_linear" x1="124" y1="89" x2="11" y2="193" gradientUnits="userSpaceOnUse">
<stop stop-color="#8FD5F2"/>
<stop offset="1" stop-color="#00C6A2"/>
</linearGradient>
<linearGradient id="paint21_linear" x1="124" y1="89" x2="11" y2="193" gradientUnits="userSpaceOnUse">
<stop stop-color="#8FD5F2"/>
<stop offset="1" stop-color="#00C6A2"/>
</linearGradient>
<linearGradient id="paint22_linear" x1="124" y1="89" x2="11" y2="193" gradientUnits="userSpaceOnUse">
<stop stop-color="#8FD5F2"/>
<stop offset="1" stop-color="#00C6A2"/>
</linearGradient>
<linearGradient id="paint23_linear" x1="124" y1="89" x2="11" y2="193" gradientUnits="userSpaceOnUse">
<stop stop-color="#8FD5F2"/>
<stop offset="1" stop-color="#00C6A2"/>
</linearGradient>
<linearGradient id="paint24_linear" x1="124" y1="89" x2="11" y2="193" gradientUnits="userSpaceOnUse">
<stop stop-color="#8FD5F2"/>
<stop offset="1" stop-color="#00C6A2"/>
</linearGradient>
<linearGradient id="paint25_linear" x1="124" y1="89" x2="11" y2="193" gradientUnits="userSpaceOnUse">
<stop stop-color="#8FD5F2"/>
<stop offset="1" stop-color="#00C6A2"/>
</linearGradient>
<linearGradient id="paint26_linear" x1="124" y1="89" x2="11" y2="193" gradientUnits="userSpaceOnUse">
<stop stop-color="#8FD5F2"/>
<stop offset="1" stop-color="#00C6A2"/>
</linearGradient>
<linearGradient id="paint27_linear" x1="124" y1="89" x2="11" y2="193" gradientUnits="userSpaceOnUse">
<stop stop-color="#8FD5F2"/>
<stop offset="1" stop-color="#00C6A2"/>
</linearGradient>
</defs>
</svg>
