<?xml version="1.0" encoding="utf-8"?>
<!-- Generated by IcoMoon.io -->
<svg version="1.1" xmlns="http://www.w3.org/2000/svg" xmlns:xlink="http://www.w3.org/1999/xlink" width="880" height="40" viewBox="0 0 880 40">
<svg id="icon-icon-fb" width="40" height="40" viewBox="0 0 40 40" x="0" y="0">
<path fill="#4e71a8" d="M40 20c0 11.046-8.954 20-20 20s-20-8.954-20-20c0-11.046 8.954-20 20-20s20 8.954 20 20z"></path>
<path fill="#fff" d="M21.028 11.642c-0.55 0-1.078 0.066-1.694 0.308-1.254 0.506-1.892 1.694-1.892 3.542v1.804h-1.76v3.014h1.76v8.69h3.586v-8.69h2.442l0.33-3.014h-2.772v-1.364c0-0.418 0.044-0.726 0.154-0.902 0.154-0.264 0.462-0.396 0.946-0.396h1.628v-2.992h-2.728z"></path>
</svg>
<svg id="icon-icon-in" width="40" height="40" viewBox="0 0 40 40" x="56" y="0">
<path fill="#2797cf" d="M40 20c0 11.046-8.954 20-20 20s-20-8.954-20-20c0-11.046 8.954-20 20-20s20 8.954 20 20z"></path>
<path fill="#fff" d="M15.3 28.5v-13.2h-4.1v13.2h4.1zM13.3 9.6c-1.3 0-2.2 0.9-2.2 2.1 0 1.1 0.8 2.1 2.1 2.1 1.4 0 2.2-0.9 2.2-2.1s-0.8-2.1-2.1-2.1zM18.6 28.5h4.1v-7.6c0-0.4 0-0.8 0.1-1 0.3-0.8 1-1.5 2.1-1.5 1.5 0 2.1 1.2 2.1 2.9v7.3h4.1v-7.8c0-3.9-2-5.7-4.7-5.7-2.2 0-3.5 1.3-4.1 2.1h-0.1l-0.2-1.8h-3.6c0.1 1.2 0.1 2.6 0.1 4.2v8.9z"></path>
</svg>
<svg id="icon-icon-google" width="40" height="40" viewBox="0 0 40 40" x="112" y="0">
<path fill="#fff" stroke="#ededed" stroke-linejoin="miter" stroke-linecap="butt" stroke-miterlimit="4" stroke-width="1" d="M39.5 20c0 10.77-8.73 19.5-19.5 19.5s-19.5-8.73-19.5-19.5c0-10.77 8.73-19.5 19.5-19.5s19.5 8.73 19.5 19.5z"></path>
<path fill="#4285f4" d="M29.9 20.5c0-0.7-0.1-1.4-0.2-2.1h-9.7v4h5.6c-0.2 1.3-1 2.4-2.1 3.1v2.6h3.3c2-1.8 3.1-4.4 3.1-7.6z"></path>
<path fill="#34a853" d="M20 30.6c2.8 0 5.1-0.9 6.9-2.5l-3.3-2.6c-0.9 0.6-2.1 1-3.5 1-2.7 0-5-1.8-5.8-4.3h-3.4v2.7c1.6 3.5 5.2 5.7 9.1 5.7z"></path>
<path fill="#fbbc04" d="M14.2 22.3c-0.4-1.3-0.4-2.7 0-4v-2.7h-3.4c-1.5 2.9-1.5 6.4 0 9.3l3.4-2.6z"></path>
<path fill="#ea4335" d="M20 14c1.5 0 2.9 0.5 4 1.6v0l3-3c-1.9-1.8-4.4-2.7-6.9-2.7-3.9 0-7.5 2.2-9.2 5.7l3.4 2.7c0.7-2.4 3-4.3 5.7-4.3z"></path>
</svg>
<svg id="icon-icon-gp" width="40" height="40" viewBox="0 0 40 40" x="168" y="0">
<path fill="#fff" stroke="#ededed" stroke-linejoin="miter" stroke-linecap="butt" stroke-miterlimit="4" stroke-width="1" d="M39.5 20c0 10.77-8.73 19.5-19.5 19.5s-19.5-8.73-19.5-19.5c0-10.77 8.73-19.5 19.5-19.5s19.5 8.73 19.5 19.5z"></path>
<path fill="#f34a38" d="M16.4 21.3h3.7c-0.7 1.8-2.4 3.2-4.5 3.2-2.5 0-4.6-2-4.7-4.5-0.1-2.8 2.1-5 4.7-5 1.2 0 2.3 0.5 3.2 1.2 0.2 0.2 0.5 0.2 0.7 0l1.4-1.3c0.2-0.2 0.2-0.5 0-0.7-1.3-1.3-3.1-2-5.1-2.1-4.2-0.1-7.7 3.3-7.8 7.5 0 4.2 3.4 7.7 7.6 7.7 4.1 0 7.4-3.2 7.6-7.2 0-0.1 0-1.7 0-1.7h-6.9c-0.3 0-0.5 0.2-0.5 0.5v1.9c0.1 0.2 0.3 0.5 0.6 0.5z"></path>
<path fill="#f34a38" d="M29.6 18.5v-1.8c0-0.2-0.2-0.4-0.4-0.4h-1.5c-0.2 0-0.4 0.2-0.4 0.4v1.8h-1.8c-0.2 0-0.4 0.2-0.4 0.4v1.5c0 0.2 0.2 0.4 0.4 0.4h1.8v1.8c0 0.2 0.2 0.4 0.4 0.4h1.5c0.2 0 0.4-0.2 0.4-0.4v-1.6h1.8c0.2 0 0.4-0.2 0.4-0.4v-1.6c0-0.2-0.2-0.4-0.4-0.4l-1.8-0.1z"></path>
</svg>
</svg>
