<svg width="1180" height="456" viewBox="0 0 1180 456" fill="none" xmlns="http://www.w3.org/2000/svg">
<path d="M0 0H1125C1155.38 0 1180 24.6243 1180 55V401C1180 431.376 1155.38 456 1125 456H55C24.6243 456 0 431.376 0 401V0Z" fill="url(#paint0_linear)"/>
<mask id="mask0" mask-type="alpha" maskUnits="userSpaceOnUse" x="0" y="0" width="1180" height="456">
<path d="M0 0H1125C1155.38 0 1180 24.6243 1180 55V401C1180 431.376 1155.38 456 1125 456H55C24.6243 456 0 431.376 0 401V0Z" fill="url(#paint1_linear)"/>
</mask>
<g mask="url(#mask0)">
<path d="M158.259 430.59C162.894 436.622 172.847 438.987 172.847 438.987C172.847 438.987 150.412 458.661 134.549 462.552C114.066 467.575 82.1142 451.782 82.1142 451.782C82.1142 451.782 94.0151 453.064 100.084 447.273C104.318 443.234 108.755 432.851 108.755 432.851C108.755 432.851 103.239 435.007 100.338 432.684C98.2872 431.041 96.2427 426.116 96.2427 426.116C99.9624 424.923 102.252 425.314 105.768 423.062C110.652 419.934 116.514 410.302 116.514 410.302C116.514 410.302 112.639 410.701 110.202 410.177C107.244 409.54 102.894 406.789 102.894 406.789C102.894 406.789 108.313 404.752 111.395 402.092C114.72 399.222 118.929 392.512 118.929 392.512C118.929 392.512 115.068 392.747 112.616 392.387C110.131 392.022 106.332 390.641 106.332 390.641C106.332 390.641 115.048 383.378 120.348 371.459C128.336 353.492 136.121 311.772 136.121 311.772C136.121 311.772 137.266 342.594 142.667 358.929C146.117 369.364 154.897 381.875 154.897 381.875C154.897 381.875 152.436 384.455 150.632 385.033C149.018 385.551 146.424 384.95 146.424 384.95C146.424 384.95 152.918 395.664 157.715 401.39C164.359 409.321 176.37 417.976 176.37 417.976C176.37 417.976 167.976 420.308 162.665 419.326C158.02 418.467 153.252 415.896 153.252 415.896C153.252 415.896 154.453 425.637 158.259 430.59Z" fill="url(#paint2_linear)"/>
<path d="M36.6793 400.663C42.4637 407.764 54.8719 410.559 54.8719 410.559C54.8719 410.559 26.933 433.665 7.16648 438.218C-18.357 444.097 -58.2007 425.479 -58.2007 425.479C-58.2007 425.479 -43.366 427.004 -35.8086 420.202C-30.537 415.457 -25.0194 403.253 -25.0194 403.253C-25.0194 403.253 -31.892 405.781 -35.51 403.045C-38.0683 401.11 -40.6226 395.315 -40.6226 395.315C-35.9877 393.918 -33.1338 394.38 -28.7543 391.736C-22.6709 388.065 -15.3756 376.746 -15.3756 376.746C-15.3756 376.746 -20.2049 377.21 -23.2435 376.59C-26.9305 375.837 -32.3564 372.595 -32.3564 372.595C-32.3564 372.595 -25.6038 370.208 -21.7663 367.084C-17.6254 363.713 -12.3879 355.828 -12.3879 355.828C-12.3879 355.828 -17.1999 356.098 -20.2559 355.672C-23.354 355.239 -28.0906 353.609 -28.0906 353.609C-28.0906 353.609 -17.2357 345.081 -10.6452 331.071C-0.710484 309.952 8.94103 260.9 8.94103 260.9C8.94103 260.9 10.4063 297.148 17.158 316.366C21.4708 328.642 32.4294 343.368 32.4294 343.368C32.4294 343.368 29.366 346.399 27.1177 347.077C25.1069 347.683 21.8724 346.972 21.8724 346.972C21.8724 346.972 29.9794 359.581 35.9652 366.322C44.2563 375.659 59.2372 385.854 59.2372 385.854C59.2372 385.854 48.7782 388.585 42.1568 387.423C36.3666 386.406 30.4213 383.376 30.4213 383.376C30.4213 383.376 31.9296 394.833 36.6793 400.663Z" fill="url(#paint3_linear)"/>
<path d="M185.954 440.914C190.621 445.123 200.586 446.823 200.586 446.823C200.586 446.823 178.258 460.322 162.418 462.922C141.964 466.278 109.931 455.138 109.931 455.138C109.931 455.138 121.838 456.099 127.875 452.123C132.087 449.349 136.468 442.18 136.468 442.18C136.468 442.18 130.964 443.641 128.051 442.013C125.992 440.862 123.921 437.436 123.921 437.436C127.634 436.632 129.925 436.916 133.429 435.377C138.295 433.239 144.106 426.599 144.106 426.599C144.106 426.599 140.233 426.852 137.793 426.474C134.833 426.015 130.468 424.081 130.468 424.081C130.468 424.081 135.876 422.703 138.943 420.878C142.253 418.909 146.425 414.284 146.425 414.284C146.425 414.284 142.566 414.423 140.113 414.159C137.626 413.891 133.82 412.91 133.82 412.91C133.82 412.91 142.496 407.93 147.731 399.702C155.623 387.298 163.184 358.431 163.184 358.431C163.184 358.431 164.494 379.799 169.981 391.153C173.487 398.406 182.333 407.131 182.333 407.131C182.333 407.131 179.886 408.904 178.085 409.294C176.474 409.643 173.877 409.21 173.877 409.21C173.877 409.21 180.427 416.675 185.254 420.673C191.94 426.211 203.996 432.282 203.996 432.282C203.996 432.282 195.616 433.847 190.3 433.134C185.651 432.511 180.87 430.7 180.87 430.7C180.87 430.7 182.122 437.458 185.954 440.914Z" fill="url(#paint4_linear)"/>
<path d="M124.917 441.853L142.49 460.181C142.49 460.181 135.451 462.99 130.839 464.445C99.7037 474.27 47.7052 463.919 47.7052 463.919L34.2238 452.414C34.2238 452.414 47.4018 448.126 54.3892 442.701C62.1766 436.655 70.5223 422.794 70.5223 422.794C70.5223 422.794 64.136 425.236 59.9624 424.832C56.0798 424.456 50.5524 421.274 50.5524 421.274C50.5524 421.274 60.5281 414.944 65.4965 409.21C71.0003 402.857 76.3497 390.322 76.3497 390.322C76.3497 390.322 70.8892 394.661 66.7832 395.751C62.3963 396.914 55.2104 395.521 55.2104 395.521C55.2104 395.521 63.7126 388.852 68.0504 383.415C73.5372 376.537 78.9231 363.403 78.9231 363.403C78.9231 363.403 76.0649 366.964 73.5845 367.792L67.2329 369.914C67.2329 369.914 75.3119 358.218 79.1577 349.923C85.3935 336.473 89.2716 313.041 89.2716 313.041C89.2716 313.041 91.2981 332.265 97.1798 342.415C101.767 350.33 112.668 359.578 112.668 359.578C112.668 359.578 107.954 360.608 105.284 360.555C102.613 360.502 98.9907 359.307 98.9907 359.307C98.9907 359.307 108.161 368.936 112.414 374.182C116.994 379.831 125.875 386.81 125.875 386.81C125.875 386.81 119.411 387.302 115.355 386.601C110.224 385.714 102.808 381.857 102.808 381.857C102.808 381.857 112.202 391.448 119.407 395.671C125.901 399.477 137.175 402.766 137.175 402.766C137.175 402.766 129.065 407.239 123.4 408.111C118.926 408.8 111.827 407.882 111.827 407.882C111.827 407.882 122.981 420.254 131.504 426.252C142.272 433.83 161.779 440.337 161.779 440.337C161.779 440.337 149.04 444.51 140.659 444.413C134.441 444.341 124.917 441.853 124.917 441.853Z" fill="url(#paint5_linear)"/>
<path d="M69.8376 423.722C75.6543 428.969 88.0743 431.087 88.0743 431.087C88.0743 431.087 60.2447 447.913 40.5011 451.153C15.0071 455.337 -24.919 441.451 -24.919 441.451C-24.919 441.451 -10.0786 442.649 -2.55335 437.693C2.6959 434.235 8.15659 425.3 8.15659 425.3C8.15659 425.3 1.29626 427.12 -2.33401 425.091C-4.901 423.657 -7.48183 419.387 -7.48183 419.387C-2.85385 418.385 0.00187231 418.739 4.36883 416.821C10.4347 414.156 17.6771 405.88 17.6771 405.88C17.6771 405.88 12.8503 406.195 9.8091 405.724C6.119 405.151 0.678566 402.741 0.678566 402.741C0.678566 402.741 7.41957 401.023 11.2423 398.749C15.3672 396.295 20.5678 390.53 20.5678 390.53C20.5678 390.53 15.7574 390.704 12.6998 390.374C9.60003 390.04 4.85624 388.818 4.85624 388.818C4.85624 388.818 15.6708 382.61 22.1959 372.354C32.0322 356.894 41.4562 320.913 41.4562 320.913C41.4562 320.913 43.0888 347.547 49.9287 361.7C54.2978 370.74 65.3234 381.614 65.3234 381.614C65.3234 381.614 62.2743 383.824 60.0294 384.31C58.0215 384.745 54.7841 384.206 54.7841 384.206C54.7841 384.206 62.9485 393.511 68.965 398.494C77.2984 405.396 92.3251 412.964 92.3251 412.964C92.3251 412.964 81.8796 414.914 75.2535 414.025C69.4591 413.249 63.5003 410.991 63.5003 410.991C63.5003 410.991 65.0615 419.415 69.8376 423.722Z" fill="url(#paint6_linear)"/>
<path d="M965.109 96.4068C944.372 85.3407 942.93 64.3664 942.93 64.3664C942.93 64.3664 907.411 61.6131 895.84 36.851C884.27 12.089 886.001 -2.95075 893.184 -18.1052C900.367 -33.2597 914.717 -40.5633 932.086 -46.9301C949.455 -53.297 973.63 -45.3039 973.63 -45.3039C973.63 -45.3039 993.173 -67.2199 1020.68 -67.2987C1048.18 -67.3774 1066.11 -47.2502 1066.11 -47.2502C1066.11 -47.2502 1096.15 -60.4354 1115.42 -56.7898C1135.43 -53.0047 1148.67 -45.7327 1159.03 -28.2011C1170.55 -8.70147 1170.96 9.82762 1160.25 29.7861C1149.56 49.7038 1111.39 60.821 1111.39 60.821C1111.39 60.821 1111.75 77.8171 1102.67 98.0127C1093.6 118.208 1071.81 128.669 1045.3 128.227C1018.78 127.784 1005.2 100.064 1005.2 100.064C1005.2 100.064 985.847 107.473 965.109 96.4068Z" fill="white" fill-opacity="0.3"/>
<path d="M1151.6 296.395C1130.01 305.245 1110.22 339.518 1110.22 339.518C1110.22 339.518 1088.04 325.855 1057.32 339.518C1026.6 353.18 1022.34 384.775 1022.34 384.775C1022.34 384.775 997.368 382.101 984.368 389.471C971.463 396.787 964.465 404.949 960.904 419.358C955.552 441.018 960.904 456.929 984.368 471.446C1007.83 485.962 1035.14 475.715 1035.14 475.715C1035.14 475.715 1065.85 493.22 1088.04 493.647C1110.22 494.074 1135.39 481.693 1135.39 481.693C1135.39 481.693 1162.7 502.613 1188.72 497.063C1214.74 491.513 1227.97 471.446 1227.97 471.446C1227.97 471.446 1272.77 482.12 1288.55 455.649C1304.34 429.178 1306.97 416.506 1297.51 394.167C1288.56 373.043 1251.01 358.303 1251.01 358.303C1251.01 358.303 1244.61 325.549 1230.53 311.339C1208.44 289.046 1180.63 284.497 1151.6 296.395Z" fill="white" fill-opacity="0.5"/>
<path d="M-77.7993 -3.46085C-93.1615 3.75528 -101.115 21.4188 -101.115 21.4188C-101.115 21.4188 -142.479 3.32438 -159.027 43.2828C-175.574 83.2413 -117.661 93.0422 -117.661 93.0422C-117.661 93.0422 -110.892 122.446 -62.7572 134.508C-14.6225 146.571 6.43649 126.969 6.43649 126.969C6.43649 126.969 15.4268 139.355 36.5207 139.032C57.6146 138.709 68.1091 126.969 68.1091 126.969C68.1091 126.969 89.9202 146.154 120.004 142.048C150.089 137.941 166.635 112.644 166.635 112.644C166.635 112.644 192.959 120.507 214.77 108.121C236.581 95.7348 240.693 75.8416 236.581 60.6232C226.803 24.4347 173.404 25.9424 173.404 25.9424C173.404 25.9424 166.635 8.89341 150.089 -3.46085C133.542 -15.8151 111.731 -17.7855 111.731 -17.7855C111.731 -17.7855 85.4076 -78.1001 26.7433 -68.2989C-31.9209 -58.4977 -38.6898 -3.46085 -38.6898 -3.46085C-38.6898 -3.46085 -58.9617 -12.3095 -77.7993 -3.46085Z" fill="#41CDC6" fill-opacity="0.5"/>
<path d="M-12.3325 9.80207C-34.8947 22.5678 -26.7954 38.2348 -26.7954 38.2348C-26.7954 38.2348 -49.3585 38.2348 -53.9857 59.1241C-58.6129 80.0134 -47.0438 92.1989 -26.7954 98.0015C-6.54709 103.804 10.2296 83.495 10.2296 83.495C10.2296 83.495 21.801 100.323 40.3125 100.323C58.824 100.323 73.8664 88.7173 73.8664 88.7173C73.8664 88.7173 88.9079 109.395 111.47 100.323C123.65 95.425 139.817 83.495 135.189 59.1241C130.561 34.7532 105.685 31.2717 105.685 31.2717C105.685 31.2717 109.156 -14.5688 73.8664 -16.3096C38.5769 -18.0504 29.8992 15.0244 29.8992 15.0244C29.8992 15.0244 10.2296 -2.96364 -12.3325 9.80207Z" fill="#00C6A2" fill-opacity="0.5"/>
</g>
<defs>
<linearGradient id="paint0_linear" x1="1180" y1="34.7743" x2="103.369" y2="639.898" gradientUnits="userSpaceOnUse">
<stop stop-color="#8FD5F2"/>
<stop offset="1" stop-color="#00C6A2"/>
</linearGradient>
<linearGradient id="paint1_linear" x1="1180" y1="34.7743" x2="103.369" y2="639.898" gradientUnits="userSpaceOnUse">
<stop stop-color="#8FD5F2"/>
<stop offset="1" stop-color="#00C6A2"/>
</linearGradient>
<linearGradient id="paint2_linear" x1="131.386" y1="311.678" x2="128.372" y2="463.604" gradientUnits="userSpaceOnUse">
<stop stop-color="#67DD93"/>
<stop offset="0.536458" stop-color="#55CB81"/>
</linearGradient>
<linearGradient id="paint3_linear" x1="11.5455" y1="252.006" x2="-0.526555" y2="439.426" gradientUnits="userSpaceOnUse">
<stop stop-color="#80F6AC"/>
<stop offset="0.743716" stop-color="#55CB81"/>
</linearGradient>
<linearGradient id="paint4_linear" x1="171.643" y1="387.891" x2="148.936" y2="443.98" gradientUnits="userSpaceOnUse">
<stop stop-color="#3BB18A"/>
<stop offset="1" stop-color="#118760"/>
</linearGradient>
<linearGradient id="paint5_linear" x1="100.318" y1="313.26" x2="97.2334" y2="468.73" gradientUnits="userSpaceOnUse">
<stop stop-color="#3BB18A"/>
<stop offset="1" stop-color="#1B916A"/>
</linearGradient>
<linearGradient id="paint6_linear" x1="73.5261" y1="335.955" x2="-51.1015" y2="420.573" gradientUnits="userSpaceOnUse">
<stop stop-color="#3BB18A"/>
<stop offset="1" stop-color="#269C75"/>
</linearGradient>
</defs>
</svg>
