<?xml version="1.0" encoding="utf-8"?>
<!-- Generator: Adobe Illustrator 21.0.0, SVG Export Plug-In . SVG Version: 6.00 Build 0)  -->
<svg version="1.1" id="Слой_1" xmlns="http://www.w3.org/2000/svg" xmlns:xlink="http://www.w3.org/1999/xlink" x="0px" y="0px"
	 width="344px" height="208px" viewBox="0 0 344 208" style="enable-background:new 0 0 344 208;" xml:space="preserve">
<style type="text/css">
	.st0{fill:#FFFFFF;fill-opacity:0.5;}
</style>
<path class="st0" d="M192.6,6.4c-21.6,8.9-41.4,43.1-41.4,43.1s-22.2-13.7-52.9,0c-30.7,13.7-35,45.3-35,45.3s-25-2.7-38,4.7
	c-12.9,7.3-19.9,15.5-23.5,29.9c-5.4,21.7,0,37.6,23.5,52.1c23.5,14.5,50.8,4.3,50.8,4.3s30.7,17.5,52.9,17.9
	c22.2,0.4,47.3-12,47.3-12s27.3,20.9,53.3,15.4c26-5.5,39.2-25.6,39.2-25.6s44.8,10.7,60.6-15.8c15.8-26.5,18.4-39.1,9-61.5
	C329.6,83,292,68.3,292,68.3s-6.4-32.8-20.5-47C249.4-1,221.6-5.5,192.6,6.4z"/>
</svg>
