<svg width="408" height="289" viewBox="0 0 408 289" fill="none" xmlns="http://www.w3.org/2000/svg">
<path d="M149.887 8.88587C178.821 21.1811 205.344 68.8008 205.344 68.8008C205.344 68.8008 235.074 49.8179 276.238 68.8008C317.402 87.7838 323.12 131.682 323.12 131.682C323.12 131.682 356.582 127.967 374.003 138.207C391.297 148.372 400.676 159.712 405.448 179.733C412.621 209.828 405.448 231.936 374.003 252.105C342.558 272.274 305.968 258.037 305.968 258.037C305.968 258.037 264.804 282.359 235.074 282.952C205.344 283.546 171.613 266.342 171.613 266.342C171.613 266.342 135.022 295.41 100.147 287.698C65.272 279.986 47.5485 252.105 47.5485 252.105C47.5485 252.105 -12.483 266.935 -33.6364 230.156C-54.7897 193.377 -58.3268 175.77 -45.6425 144.733C-33.6479 115.382 16.6754 94.9024 16.6754 94.9024C16.6754 94.9024 25.251 49.3922 44.1182 29.6485C73.7169 -1.32532 110.985 -7.64546 149.887 8.88587Z" fill="white"/>
</svg>
