<svg width="80" height="80" viewBox="0 0 80 80" fill="none" xmlns="http://www.w3.org/2000/svg">
<path d="M6.04309 63L17.0431 51V80H6.04309V63Z" fill="white"/>
<path d="M34.0431 65C34.0431 65 36.5431 67 38.5431 67.5C40.5431 68 46.0431 62 46.0431 62V80H34.0431V65Z" fill="white"/>
<path d="M32.0431 62.5L20.0431 48.5V80H32.0431V62.5Z" fill="white"/>
<path d="M48.0431 59.5L60.0431 45V80H48.0431V59.5Z" fill="white"/>
<path d="M63.0431 41.5L72.5431 30.5L75.0431 33.5V80H63.0431V41.5Z" fill="white"/>
<path d="M18.9376 31.9997C16.4514 32.4997 0.540076 52.4996 0.0428176 54.4996C-0.454441 56.4996 3.52339 59.4996 4.51789 59.4996C5.51238 59.4996 17.9431 41.9996 19.4348 42.4996C20.9265 42.9996 35.3461 63.9996 38.3295 63.4996C41.313 62.9996 72.1412 24.9997 72.1412 24.9997C72.1412 24.9997 76.6163 30.9992 78.108 30.4996C79.5997 30 80.5942 11.9997 79.5997 11C78.6052 10.0002 64.1856 11.0004 62.1966 11.9995C60.2077 12.9987 67.1689 19.4996 67.1689 19.4996C67.1689 19.4996 39.8213 52.9996 38.3295 53.4996C36.8378 53.9996 21.4237 31.4997 18.9376 31.9997Z" fill="white"/>
<path d="M26.8696 11.4773H24.2431C24.1326 11.4773 24.0431 11.5668 24.0431 11.6773V16.2773C24.0431 16.3877 24.1326 16.4773 24.2431 16.4773H25.8431C25.9535 16.4773 26.0431 16.5668 26.0431 16.6773V19.7773C26.0431 19.8877 25.9535 19.9773 25.8431 19.9773H24.2431C24.1326 19.9773 24.0431 20.0668 24.0431 20.1773V24.2773C24.0431 24.3877 24.1326 24.4773 24.2431 24.4773H26.8641C26.966 24.4773 27.0518 24.5517 27.0661 24.6526C27.1876 25.51 27.8358 29.3268 30.0431 31.9756C32.5431 34.9756 35.3233 36.1587 40.0431 36.4773C44.3181 36.7658 47.4121 34.8908 47.9572 34.5349C48.0116 34.4994 48.0431 34.4386 48.0431 34.3737V28.8106C48.0431 28.6596 47.8835 28.5603 47.7482 28.6272C46.6531 29.1692 42.7437 30.9691 40.0431 30.4773C35.272 29.6083 34.2635 26.1082 34.0799 25.1957C34.0564 25.0788 34.1473 24.9773 34.2666 24.9773H44.3431C44.4535 24.9773 44.5431 24.8877 44.5431 24.7773V20.1773C44.5431 20.0668 44.4535 19.9773 44.3431 19.9773H33.7431C33.6326 19.9773 33.5431 19.8877 33.5431 19.7773V16.6773C33.5431 16.5668 33.6326 16.4773 33.7431 16.4773H44.3431C44.4535 16.4773 44.5431 16.3877 44.5431 16.2773V11.6773C44.5431 11.5668 44.4535 11.4773 44.3431 11.4773H34.3286C34.1898 11.4773 34.0945 11.3422 34.1486 11.2144C34.614 10.1136 36.6365 5.91118 40.5431 5.47725C44.1509 5.07652 46.7945 6.60387 47.701 7.2253C47.8408 7.32117 48.0431 7.21983 48.0431 7.05026V1.12427C48.0431 1.0368 47.9914 0.961205 47.9073 0.936982C46.8318 0.626979 39.5845 -1.29489 34.0431 1.47725C28.5969 4.20177 27.2703 10.2193 27.0718 11.307C27.0539 11.4049 26.9692 11.4773 26.8696 11.4773Z" fill="white"/>
</svg>
