<svg width="92" height="88" viewBox="0 0 92 88" fill="none" xmlns="http://www.w3.org/2000/svg">
<path d="M36.1986 68.2206C30.919 71.63 32.4576 83.2457 32.6837 84.7645C32.6981 84.8613 32.7809 84.9288 32.8787 84.9288H59.9618C60.0572 84.9288 60.1387 84.8638 60.1558 84.77C60.4287 83.2757 62.3589 71.6646 57.135 68.2206C55.2861 67.0016 51.8968 66.381 51.2583 66.2723C51.1922 66.261 51.1259 66.2847 51.0807 66.3343L46.8234 70.9975C46.7409 71.0878 46.5975 71.0836 46.5204 70.9887L42.7489 66.3411C42.7053 66.2875 42.6376 66.2601 42.5692 66.2696C41.8882 66.3645 38.2034 66.9259 36.1986 68.2206Z" fill="white"/>
<ellipse cx="46.5154" cy="55.4433" rx="7.10643" ry="6.87986" fill="white"/>
<path d="M64.3102 67.8847C63.5953 67.9659 59.5105 68.4637 59.892 69.2026C60.3101 70.012 61.1544 71.5942 61.5641 73.2496C61.9465 74.7941 61.9049 75.7099 61.9822 77.2965C62.0513 78.7173 62.0632 79.5185 61.9822 80.9388C61.9165 82.0896 61.6855 83.7493 61.598 84.3517C61.5804 84.4728 61.6744 84.581 61.7969 84.581H81.8863C81.9803 84.581 82.0605 84.5203 82.0786 84.428C82.3431 83.0844 84.0721 73.2669 78.8722 69.8387C77.0233 68.6198 73.6339 67.9991 72.9955 67.8905C72.9294 67.8792 72.8631 67.9029 72.8179 67.9524L68.5606 72.6157C68.4781 72.706 68.3346 72.7018 68.2576 72.6069L64.4844 67.9573C64.4418 67.9047 64.3775 67.8771 64.3102 67.8847Z" fill="white"/>
<ellipse cx="68.2524" cy="57.0615" rx="7.10643" ry="6.87986" fill="white"/>
<path d="M28.8201 68C29.5351 68.0811 33.6199 68.5789 33.2383 69.3178C32.8203 70.1273 31.976 71.7095 31.5662 73.3648C31.1839 74.9094 31.2254 75.8252 31.1482 77.4117C31.079 78.8325 31.0672 79.6338 31.1482 81.054C31.2138 82.2049 31.4449 83.8645 31.5324 84.4669C31.5499 84.5881 31.456 84.6963 31.3335 84.6963H11.2441C11.15 84.6963 11.0699 84.6355 11.0517 84.5432C10.7873 83.1996 9.05831 73.3821 14.2582 69.954C16.1071 68.735 19.4964 68.1144 20.1349 68.0057C20.201 67.9944 20.2673 68.0181 20.3125 68.0677L24.5698 72.7309C24.6523 72.8212 24.7957 72.817 24.8728 72.7221L28.646 68.0725C28.6886 68.02 28.7529 67.9924 28.8201 68Z" fill="white"/>
<ellipse cx="24.7781" cy="57.0615" rx="7.10643" ry="6.87986" fill="white"/>
<line x1="19.6547" y1="14.3678" x2="81.6417" y2="66.2331" stroke="white" stroke-width="2"/>
<line x1="2.63121" y1="37.0705" x2="68.7786" y2="10.8263" stroke="white" stroke-width="2"/>
<line x1="3.66127" y1="37.2499" x2="41.354" y2="70.4766" stroke="white" stroke-width="2"/>
<line x1="86.7286" y1="36.6849" x2="53.6162" y2="71.9117" stroke="white" stroke-width="2"/>
<line y1="-1" x2="61.6536" y2="-1" transform="matrix(-0.263729 0.964597 -0.96493 -0.262507 69.1475 11.7559)" stroke="white" stroke-width="2"/>
<line x1="19.9433" y1="14.7681" x2="43.9304" y2="75.6333" stroke="white" stroke-width="2"/>
<path d="M82.5302 65.9878C86.2183 59.3927 88.1034 51.9422 87.9956 44.3867C87.8878 36.8311 85.791 29.4374 81.9162 22.9502C78.0415 16.463 72.5256 11.1114 65.9243 7.43442C59.323 3.75744 51.8693 1.88492 44.314 2.00547C36.7586 2.12603 29.3685 4.23539 22.8878 8.12111C16.4072 12.0068 11.0649 17.5317 7.3991 24.1392C3.73328 30.7467 1.87337 38.2036 2.00669 45.7587C2.14002 53.3138 4.26188 60.7004 8.15855 67.1745L9.70117 66.246C5.96767 60.043 3.93466 52.9657 3.80691 45.7269C3.67917 38.4882 5.46121 31.3435 8.97353 25.0127C12.4859 18.6818 17.6044 13.3883 23.8137 9.66531C30.023 5.94229 37.1037 3.92125 44.3427 3.80574C51.5817 3.69024 58.7233 5.48435 65.0482 9.00737C71.3731 12.5304 76.6579 17.6579 80.3705 23.8735C84.083 30.0891 86.092 37.1732 86.1953 44.4123C86.2986 51.6515 84.4924 58.7901 80.9587 65.109L82.5302 65.9878Z" fill="white"/>
<ellipse cx="9.04872" cy="66.0411" rx="3.04872" ry="3.04112" fill="white"/>
<ellipse cx="42.71" cy="2.70322" rx="2.70997" ry="2.70322" fill="white"/>
<ellipse cx="3.38747" cy="37.379" rx="3.38747" ry="3.37903" fill="white"/>
<ellipse cx="70.3875" cy="10.379" rx="3.38747" ry="3.37903" fill="white"/>
<ellipse cx="86.0847" cy="36.0852" rx="5.41995" ry="5.40644" fill="white"/>
<ellipse cx="81.3875" cy="66.379" rx="3.38747" ry="3.37903" fill="white"/>
<ellipse cx="18.065" cy="12.0548" rx="4.06496" ry="4.05483" fill="white"/>
</svg>
