<svg version="1.1" xmlns="http://www.w3.org/2000/svg" xmlns:xlink="http://www.w3.org/1999/xlink" x="0px" y="0px"
	 width="400px" height="212px" viewBox="0 0 400 212" style="enable-background:new 0 0 400 212;" xml:space="preserve">
<style type="text/css">
	.st0{fill:#41CDC6;fill-opacity:0.5;}
	.st1{fill:#00C6A2;fill-opacity:0.5;}
</style>
<path class="st0" d="M84.2,65.9c-15.4,7.2-23.3,24.9-23.3,24.9S19.5,72.7,3,112.7c-16.5,40,41.4,49.8,41.4,49.8s6.8,29.4,54.9,41.5
	c48.1,12.1,69.2-7.5,69.2-7.5s9,12.4,30.1,12.1c21.1-0.3,31.6-12.1,31.6-12.1s21.8,19.2,51.9,15.1c30.1-4.1,46.6-29.4,46.6-29.4
	s26.3,7.9,48.1-4.5c21.8-12.4,25.9-32.3,21.8-47.5c-9.8-36.2-63.2-34.7-63.2-34.7s-6.8-17-23.3-29.4c-16.5-12.4-38.4-14.3-38.4-14.3
	s-26.3-60.3-85-50.5c-58.7,9.8-65.4,64.8-65.4,64.8S103,57.1,84.2,65.9z"/>
<path class="st1" d="M149.7,79.2c-22.6,12.8-14.5,28.4-14.5,28.4s-22.6,0-27.2,20.9s6.9,33.1,27.2,38.9c20.2,5.8,37-14.5,37-14.5
	s11.6,16.8,30.1,16.8s33.6-11.6,33.6-11.6s15,20.7,37.6,11.6c12.2-4.9,28.3-16.8,23.7-41.2c-4.6-24.4-29.5-27.9-29.5-27.9
	s3.5-45.8-31.8-47.6c-35.3-1.7-44,31.3-44,31.3S172.2,66.4,149.7,79.2z"/>
</svg>
