<svg width="325" height="275" viewBox="0 0 325 275" fill="none" xmlns="http://www.w3.org/2000/svg">
<path d="M200.247 8.45541C228.804 20.1551 254.982 65.4679 254.982 65.4679C254.982 65.4679 284.325 47.4046 324.953 65.4679C365.582 83.5313 371.224 125.303 371.224 125.303C371.224 125.303 404.251 121.768 421.446 131.512C438.515 141.185 447.772 151.975 452.481 171.026C459.561 199.664 452.481 220.7 421.446 239.892C390.41 259.085 354.296 245.537 354.296 245.537C354.296 245.537 313.668 268.681 284.325 269.245C254.982 269.81 221.689 253.44 221.689 253.44C221.689 253.44 185.575 281.099 151.154 273.761C116.733 266.423 99.2399 239.892 99.2399 239.892C99.2399 239.892 39.9897 254.004 19.1116 219.007C-1.76639 184.009 -5.25745 167.256 7.26169 137.721C19.1002 109.793 68.7686 90.3051 68.7686 90.3051C68.7686 90.3051 77.2326 46.9995 95.8542 28.2122C125.068 -1.26111 161.851 -7.27509 200.247 8.45541Z" fill="white"/>
</svg>
