<svg width="167" height="104" viewBox="0 0 167 104" fill="none" xmlns="http://www.w3.org/2000/svg">
<path opacity="0.3" d="M129.694 22.8783C149.421 34.0349 142.339 47.727 142.339 47.727C142.339 47.727 162.067 47.727 166.113 65.9833C170.159 84.2395 160.043 94.8889 142.339 99.9601C124.635 105.031 109.967 87.2822 109.967 87.2822C109.967 87.2822 99.8492 101.989 83.6637 101.989C67.4783 101.989 54.326 91.8463 54.326 91.8463C54.326 91.8463 41.1746 109.917 21.4475 101.989C10.7983 97.7084 -3.33784 87.2822 0.70874 65.9833C4.75533 44.6843 26.5057 41.6416 26.5057 41.6416C26.5057 41.6416 23.4708 1.57936 54.326 0.0580128C85.1812 -1.46333 92.7686 27.4423 92.7686 27.4423C92.7686 27.4423 109.967 11.7217 129.694 22.8783Z" fill="url(#paint0_linear)"/>
<defs>
<linearGradient id="paint0_linear" x1="22.7727" y1="30.875" x2="142.014" y2="87.8426" gradientUnits="userSpaceOnUse">
<stop stop-color="#BDF1E6"/>
<stop offset="1" stop-color="#BDF1E6" stop-opacity="0.32"/>
</linearGradient>
</defs>
</svg>
