<svg width="113" height="81" viewBox="0 0 113 81" fill="none" xmlns="http://www.w3.org/2000/svg">
<path d="M103.691 80.5952H9.30882C8.75654 80.5952 8.30882 80.1475 8.30882 79.5952V48.3599C8.30882 47.8077 7.86111 47.3599 7.30882 47.3599H1C0.447715 47.3599 0 46.9122 0 46.36V41.7129C0 41.1606 0.447716 40.7129 1 40.7129H112C112.552 40.7129 113 41.1606 113 41.7129V46.3599C113 46.9122 112.552 47.3599 112 47.3599H105.691C105.139 47.3599 104.691 47.8077 104.691 48.3599V79.5952C104.691 80.1475 104.243 80.5952 103.691 80.5952Z" fill="white"/>
<path d="M18.9754 23.2643C14.6803 26.1294 15.8988 35.8491 16.0953 37.2265C16.1092 37.3237 16.1918 37.3893 16.29 37.3893H38.3934C38.4893 37.3893 38.5705 37.3265 38.587 37.2321C38.8245 35.8779 40.3612 26.1589 36.1106 23.2643C34.6163 22.2467 31.8923 21.7223 31.3215 21.6209C31.2539 21.6089 31.1873 21.6337 31.1419 21.6851L27.7019 25.5772C27.6192 25.6707 27.4719 25.6665 27.3948 25.5683L24.3494 21.6919C24.3059 21.6365 24.2384 21.6079 24.1686 21.618C23.561 21.7065 20.5969 22.1827 18.9754 23.2643Z" fill="white"/>
<circle cx="27.4191" cy="12.4627" r="5.81618" fill="white"/>
<path d="M77.1372 23.2643C72.842 26.1294 74.0605 35.8491 74.2571 37.2265C74.271 37.3237 74.3536 37.3893 74.4518 37.3893H96.5551C96.651 37.3893 96.7322 37.3265 96.7488 37.2321C96.9862 35.8779 98.5229 26.1589 94.2724 23.2643C92.778 22.2467 90.0541 21.7223 89.4832 21.6209C89.4157 21.6089 89.349 21.6337 89.3036 21.6851L85.8637 25.5772C85.781 25.6707 85.6337 25.6665 85.5565 25.5683L82.5112 21.6919C82.4676 21.6365 82.4001 21.6079 82.3304 21.618C81.7228 21.7065 78.7586 22.1827 77.1372 23.2643Z" fill="white"/>
<circle cx="85.5808" cy="12.4627" r="5.81618" fill="white"/>
<path d="M46.247 20.179C40.9967 23.6812 42.5311 35.618 42.7543 37.1651C42.7683 37.2623 42.8514 37.3308 42.9496 37.3308H69.8613C69.9572 37.3308 70.039 37.2647 70.0557 37.1703C70.3252 35.6473 72.2485 23.7164 67.054 20.179C65.2194 18.9296 61.8585 18.2925 61.2166 18.1795C61.149 18.1676 61.0816 18.1923 61.0361 18.2437L56.8094 23.026C56.7267 23.1196 56.5794 23.1153 56.5023 23.0171L52.7575 18.2505C52.7139 18.1951 52.6451 18.1666 52.5754 18.1767C51.8913 18.2752 48.2366 18.8518 46.247 20.179Z" fill="white"/>
<circle cx="56.5" cy="7.0625" r="7.0625" fill="white"/>
</svg>
