<svg width="210" height="210" viewBox="0 0 210 210" fill="none" xmlns="http://www.w3.org/2000/svg">
<mask id="mask0" mask-type="alpha" maskUnits="userSpaceOnUse" x="0" y="0" width="210" height="210">
<circle cx="105" cy="105" r="105" fill="#C4C4C4"/>
</mask>
<g mask="url(#mask0)">
<path d="M9 7C9 5.89543 9.89543 5 11 5H126.706C127.81 5 128.706 5.89543 128.706 7V43.0162C128.706 44.1304 129.616 45.0298 130.73 45.016L163.514 44.611C164.628 44.5973 165.538 45.4966 165.538 46.6109V214.125C165.538 215.23 164.643 216.125 163.538 216.125H11C9.89542 216.125 9 215.23 9 214.125V7Z" fill="#F8F8F8"/>
<path d="M25.7429 37.1923C25.7429 34.9934 26.2847 33.2109 26.953 33.2109H146.75C147.418 33.2109 147.96 34.9934 147.96 37.1923V61.0804C147.96 63.2792 147.418 65.0617 146.75 65.0617H26.953C26.2847 65.0617 25.7429 63.2792 25.7429 61.0804V37.1923Z" fill="#D4F9F4"/>
<path d="M25.7432 94.7879C25.7432 92.9451 26.7395 91.4512 27.9686 91.4512H114.762C115.991 91.4512 116.987 92.9451 116.987 94.7879V98.1247C116.987 99.9675 115.991 101.461 114.762 101.461H27.9686C26.7395 101.461 25.7432 99.9675 25.7432 98.1247V94.7879Z" fill="#65ABBD"/>
<path d="M25.7429 118.45C25.7429 116.607 27.0775 115.113 28.7238 115.113H144.979C146.625 115.113 147.96 116.607 147.96 118.45V121.787C147.96 123.63 146.625 125.124 144.979 125.124H28.7238C27.0775 125.124 25.7429 123.63 25.7429 121.787V118.45Z" fill="#65ABBD"/>
<path d="M25.7429 142.112C25.7429 140.269 27.0775 138.775 28.7238 138.775H144.979C146.625 138.775 147.96 140.269 147.96 142.112V145.449C147.96 147.292 146.625 148.786 144.979 148.786H28.7238C27.0775 148.786 25.7429 147.292 25.7429 145.449V142.112Z" fill="#65ABBD"/>
<path d="M25.7429 165.768C25.7429 163.926 27.0775 162.432 28.7238 162.432H144.979C146.625 162.432 147.96 163.926 147.96 165.768V169.105C147.96 170.948 146.625 172.442 144.979 172.442H28.7238C27.0775 172.442 25.7429 170.948 25.7429 169.105V165.768Z" fill="#65ABBD"/>
<path d="M25.7429 189.431C25.7429 187.588 27.0775 186.094 28.7238 186.094H144.979C146.625 186.094 147.96 187.588 147.96 189.431V192.767C147.96 194.61 146.625 196.104 144.979 196.104H28.7238C27.0775 196.104 25.7429 194.61 25.7429 192.767V189.431Z" fill="#65ABBD"/>
<path d="M127.87 5.45508L165.54 45.9511H129.87C128.766 45.9511 127.87 45.0557 127.87 43.9511V5.45508Z" fill="#616161"/>
<path d="M123.557 139.611C123.557 139.059 124.004 138.611 124.557 138.611H160.705C161.257 138.611 161.705 139.059 161.705 139.611V202.285C161.705 203.053 160.875 203.534 160.209 203.153L143.127 193.392C142.819 193.217 142.442 193.217 142.135 193.392L125.053 203.153C124.386 203.534 123.557 203.053 123.557 202.285V139.611Z" fill="#338475"/>
<path d="M123.557 139.611C123.557 139.059 124.004 138.611 124.557 138.611H141.631C142.183 138.611 142.631 139.059 142.631 139.611V192.528C142.631 192.887 142.438 193.219 142.127 193.397L125.053 203.153C124.386 203.534 123.557 203.053 123.557 202.285V139.611Z" fill="#5EAFA0"/>
<path d="M147.696 179.432C145.715 182.376 141.382 182.376 139.4 179.432L132.824 169.661C131.702 167.993 129.69 167.159 127.717 167.545L116.158 169.805C112.675 170.485 109.611 167.421 110.292 163.938L112.551 152.379C112.937 150.406 112.104 148.394 110.436 147.272L100.665 140.696C97.7199 138.715 97.72 134.382 100.665 132.4L110.436 125.824C112.104 124.702 112.937 122.69 112.551 120.717L110.292 109.158C109.611 105.675 112.675 102.611 116.158 103.292L127.717 105.551C129.69 105.937 131.702 105.104 132.824 103.436L139.4 93.6646C141.382 90.7199 145.715 90.72 147.696 93.6646L154.272 103.436C155.394 105.104 157.406 105.937 159.379 105.551L170.938 103.292C174.422 102.611 177.485 105.675 176.805 109.158L174.545 120.717C174.159 122.69 174.993 124.702 176.661 125.824L186.432 132.4C189.376 134.382 189.376 138.715 186.432 140.696L176.661 147.272C174.993 148.394 174.159 150.406 174.545 152.379L176.805 163.938C177.485 167.421 174.421 170.485 170.938 169.805L159.379 167.545C157.406 167.159 155.394 167.993 154.272 169.661L147.696 179.432Z" fill="#E8960C"/>
<path d="M147.892 169.729C147.099 173.059 143.27 174.626 140.37 172.806L132.652 167.961C131.576 167.286 130.282 167.045 129.035 167.289L116.162 169.805C112.679 170.486 109.615 167.422 110.296 163.939L112.555 152.38C112.941 150.407 112.107 148.395 110.44 147.273L100.669 140.697C97.7239 138.716 97.7239 134.382 100.669 132.401L110.44 125.825C112.107 124.703 112.941 122.691 112.555 120.718L110.296 109.159C109.615 105.676 112.679 102.612 116.162 103.293L127.721 105.552C129.694 105.938 131.706 105.104 132.828 103.437L139.404 93.6654C141.385 90.7208 145.719 90.7208 147.7 93.6654L154.276 103.437C155.398 105.104 157.41 105.938 159.383 105.552L170.942 103.293C174.425 102.612 177.489 105.676 176.808 109.159L174.37 121.635C174.08 123.114 174.474 124.645 175.441 125.801L180.743 132.145C182.689 134.473 182.13 137.983 179.557 139.591L172.923 143.738C171.11 144.871 170.218 147.03 170.703 149.112L172.083 155.037C172.925 158.65 169.676 161.89 166.065 161.038L155.675 158.586C152.991 157.952 150.301 159.611 149.663 162.294L147.892 169.729Z" fill="#F3AC36"/>
<path d="M145.886 157.192C144.904 161.12 139.904 162.313 137.255 159.251L134.258 155.787C132.447 153.695 129.281 153.471 127.194 155.288L123.402 158.588C119.512 161.974 113.665 157.967 115.417 153.117L116.455 150.245C117.38 147.685 116.088 144.856 113.548 143.879L103.474 140.004C99.6969 138.552 99.1199 133.448 102.477 131.189L110.44 125.831C112.107 124.708 112.941 122.696 112.555 120.723L110.296 109.164C109.615 105.681 112.679 102.617 116.162 103.298L127.721 105.558C129.694 105.943 131.706 105.11 132.828 103.442L139.404 93.6709C141.385 90.7263 145.719 90.7263 147.7 93.6709L154.276 103.442C155.398 105.11 157.41 105.943 159.383 105.558L167.828 103.907C171.977 103.096 175.197 107.479 173.184 111.195L168.394 120.038C167.179 122.28 167.847 125.078 169.945 126.53L174.741 129.85C178.369 132.362 177.202 137.999 172.876 138.864L168.455 139.748C165.128 140.414 163.416 144.131 165.072 147.092L165.229 147.372C167.695 151.78 162.814 156.648 158.413 154.171L153.807 151.578C150.931 149.959 147.304 151.521 146.503 154.723L145.886 157.192Z" fill="#FFC751"/>
<circle cx="142.629" cy="137.444" r="26.3404" fill="#F8A61C"/>
<ellipse cx="135.259" cy="122.659" rx="4.79504" ry="2.39752" transform="rotate(-31.3207 135.259 122.659)" fill="#FFED95"/>
</g>
<circle cx="105" cy="105" r="104" stroke="url(#paint0_linear)" stroke-width="2"/>
<defs>
<linearGradient id="paint0_linear" x1="35.5" y1="27.5" x2="179.5" y2="194.5" gradientUnits="userSpaceOnUse">
<stop stop-color="#00C6A2"/>
<stop offset="1" stop-color="#2B6B6A"/>
</linearGradient>
</defs>
</svg>
