<svg width="240" height="240" viewBox="0 0 240 240" fill="none" xmlns="http://www.w3.org/2000/svg">
<mask id="mask0" mask-type="alpha" maskUnits="userSpaceOnUse" x="0" y="0" width="240" height="240">
<circle cx="120" cy="120" r="120" fill="#C4C4C4"/>
</mask>
<g mask="url(#mask0)">
<path d="M31.7832 66.3038C31.7832 66.0012 32.0285 65.7559 32.3311 65.7559H208.222C208.524 65.7559 208.77 66.0012 208.77 66.3038V150.139C208.77 150.442 208.524 150.687 208.222 150.687H32.3311C32.0285 150.687 31.7832 150.442 31.7832 150.139V66.3038Z" fill="#3D525E"/>
<path d="M50.7999 41.8915C50.9013 41.7379 51.0731 41.6455 51.2571 41.6455H189.841C190.028 41.6455 190.201 41.7405 190.302 41.8976L208.229 69.8428C208.463 70.2075 208.201 70.6866 207.768 70.6866H32.8028C32.3662 70.6866 32.105 70.201 32.3455 69.8367L50.7999 41.8915Z" fill="#CACACA"/>
<path d="M24.6602 55.8921C24.6602 55.5895 24.9055 55.3441 25.2081 55.3441H90.9615C91.2641 55.3441 91.5095 55.0988 91.5095 54.7962V35.6603C91.5095 35.4646 91.6138 35.2838 91.7831 35.1859L120.139 18.7904C120.309 18.6923 120.518 18.6923 120.688 18.7904L149.044 35.1859C149.213 35.2838 149.318 35.4646 149.318 35.6603V54.7962C149.318 55.0988 149.563 55.3441 149.866 55.3441H215.345C215.648 55.3441 215.893 55.5895 215.893 55.8921V70.1386C215.893 70.4413 215.648 70.6866 215.345 70.6866H25.2081C24.9055 70.6866 24.6602 70.4413 24.6602 70.1386V55.8921Z" fill="#414C56"/>
<path d="M44.3867 82.1935C44.3867 81.8908 44.632 81.6455 44.9347 81.6455H60.2771C60.5798 81.6455 60.8251 81.8908 60.8251 82.1935V99.1798C60.8251 99.4824 60.5798 99.7277 60.2771 99.7277H44.9347C44.632 99.7277 44.3867 99.4824 44.3867 99.1798V82.1935Z" fill="white"/>
<path d="M71.7832 82.1935C71.7832 81.8908 72.0285 81.6455 72.3311 81.6455H87.6736C87.9762 81.6455 88.2216 81.8908 88.2216 82.1935V99.1798C88.2216 99.4824 87.9762 99.7277 87.6736 99.7277H72.3311C72.0285 99.7277 71.7832 99.4824 71.7832 99.1798V82.1935Z" fill="white"/>
<path d="M98.6328 82.1935C98.6328 81.8908 98.8781 81.6455 99.1808 81.6455H114.523C114.826 81.6455 115.071 81.8908 115.071 82.1935V99.1798C115.071 99.4824 114.826 99.7277 114.523 99.7277H99.1808C98.8781 99.7277 98.6328 99.4824 98.6328 99.1798V82.1935Z" fill="white"/>
<path d="M126.031 82.1935C126.031 81.8908 126.277 81.6455 126.579 81.6455H141.922C142.224 81.6455 142.47 81.8908 142.47 82.1935V99.1798C142.47 99.4824 142.224 99.7277 141.922 99.7277H126.579C126.277 99.7277 126.031 99.4824 126.031 99.1798V82.1935Z" fill="white"/>
<path d="M152.879 82.1935C152.879 81.8908 153.124 81.6455 153.427 81.6455H168.769C169.072 81.6455 169.317 81.8908 169.317 82.1935V99.1798C169.317 99.4824 169.072 99.7277 168.769 99.7277H153.427C153.124 99.7277 152.879 99.4824 152.879 99.1798V82.1935Z" fill="white"/>
<path d="M179.729 82.1935C179.729 81.8908 179.974 81.6455 180.276 81.6455H195.619C195.922 81.6455 196.167 81.8908 196.167 82.1935V99.1798C196.167 99.4824 195.922 99.7277 195.619 99.7277H180.276C179.974 99.7277 179.729 99.4824 179.729 99.1798V82.1935Z" fill="white"/>
<path d="M44.3867 107.947C44.3867 107.645 44.632 107.399 44.9347 107.399H60.2771C60.5798 107.399 60.8251 107.645 60.8251 107.947V124.934C60.8251 125.236 60.5798 125.482 60.2771 125.482H44.9347C44.632 125.482 44.3867 125.236 44.3867 124.934V107.947Z" fill="white"/>
<path d="M71.7832 107.947C71.7832 107.645 72.0285 107.399 72.3311 107.399H87.6736C87.9762 107.399 88.2216 107.645 88.2216 107.947V124.934C88.2216 125.236 87.9762 125.482 87.6736 125.482H72.3311C72.0285 125.482 71.7832 125.236 71.7832 124.934V107.947Z" fill="white"/>
<path d="M152.879 107.947C152.879 107.645 153.124 107.399 153.427 107.399H168.769C169.072 107.399 169.317 107.645 169.317 107.947V124.934C169.317 125.236 169.072 125.482 168.769 125.482H153.427C153.124 125.482 152.879 125.236 152.879 124.934V107.947Z" fill="white"/>
<path d="M179.729 107.947C179.729 107.645 179.974 107.399 180.276 107.399H195.619C195.922 107.399 196.167 107.645 196.167 107.947V124.934C196.167 125.236 195.922 125.482 195.619 125.482H180.276C179.974 125.482 179.729 125.236 179.729 124.934V107.947Z" fill="white"/>
<path d="M89.3203 141.92C89.3203 141.617 89.5656 141.372 89.8683 141.372H150.69C150.993 141.372 151.238 141.617 151.238 141.92V150.139C151.238 150.442 150.993 150.687 150.69 150.687H89.8683C89.5656 150.687 89.3203 150.442 89.3203 150.139V141.92Z" fill="#36414B"/>
<path d="M97.5371 133.7C97.5371 133.398 97.7824 133.152 98.0851 133.152H142.469C142.771 133.152 143.017 133.398 143.017 133.7V141.372C143.017 141.674 142.771 141.919 142.469 141.919H98.0851C97.7824 141.919 97.5371 141.674 97.5371 141.372V133.7Z" fill="#36414B"/>
<path d="M103.564 109.043C103.564 108.74 103.81 108.495 104.112 108.495H136.441C136.744 108.495 136.989 108.74 136.989 109.043V133.153C136.989 133.455 136.744 133.701 136.441 133.701H104.112C103.81 133.701 103.564 133.455 103.564 133.153V109.043Z" fill="#0E1213"/>
<path d="M104.293 53.1523V44.9717H107.158C108.151 44.9717 108.904 45.1627 109.417 45.5448C109.93 45.9231 110.187 46.4793 110.187 47.2135C110.187 47.6143 110.084 47.9683 109.878 48.2754C109.672 48.5788 109.385 48.8017 109.018 48.944C109.438 49.0489 109.767 49.2605 110.007 49.5789C110.251 49.8973 110.372 50.2869 110.372 50.7476C110.372 51.5342 110.121 52.1297 109.619 52.5343C109.117 52.9388 108.402 53.1448 107.473 53.1523H104.293ZM105.979 49.5902V51.7983H107.423C107.82 51.7983 108.129 51.7046 108.35 51.5173C108.574 51.3263 108.687 51.0641 108.687 50.7307C108.687 49.9816 108.299 49.6014 107.524 49.5902H105.979ZM105.979 48.399H107.226C108.076 48.384 108.501 48.045 108.501 47.382C108.501 47.0112 108.393 46.7453 108.175 46.5842C107.962 46.4194 107.623 46.337 107.158 46.337H105.979V48.399Z" fill="white"/>
<path d="M117.066 51.4668H114.111L113.549 53.1523H111.756L114.802 44.9717H116.364L119.426 53.1523H117.633L117.066 51.4668ZM114.566 50.1014H116.611L115.583 47.0393L114.566 50.1014Z" fill="white"/>
<path d="M127.648 53.1523H125.962L122.681 47.7697V53.1523H120.995V44.9717H122.681L125.968 50.3655V44.9717H127.648V53.1523Z" fill="white"/>
<path d="M132.487 49.8711L131.611 50.815V53.1523H129.925V44.9717H131.611V48.6799L132.353 47.663L134.437 44.9717H136.51L133.606 48.6069L136.595 53.1523H134.589L132.487 49.8711Z" fill="white"/>
<path d="M176.123 170.253L314.621 109.51L326.339 136.227L187.841 196.97L176.123 170.253Z" fill="#338475"/>
<path d="M164.387 143.483L302.885 82.7405L314.627 109.513L176.129 170.256L164.387 143.483Z" fill="#3E8F80"/>
<path d="M168.43 173.485L176.081 170.13L186.204 193.212L178.553 196.568L168.43 173.485Z" fill="#F9F9F9"/>
<path d="M158.477 150.788L166.129 147.432L176.109 170.187L168.457 173.543L158.477 150.788Z" fill="white"/>
<path fill-rule="evenodd" clip-rule="evenodd" d="M179.729 145.481C179.729 147.75 177.888 149.59 175.619 149.59C173.351 149.59 171.51 147.75 171.51 145.481C171.51 143.212 173.351 141.371 175.619 141.371C177.888 141.371 179.729 143.212 179.729 145.481ZM176.062 144.351C175.979 144.584 175.799 144.755 175.585 144.839C175.407 144.907 175.204 144.916 175.011 144.845C174.583 144.691 174.363 144.22 174.517 143.792C174.536 143.736 174.562 143.685 174.594 143.636C174.639 143.567 174.693 143.505 174.752 143.454C174.83 143.385 174.919 143.332 175.018 143.297C175.189 143.235 175.382 143.231 175.568 143.297C175.996 143.452 176.217 143.922 176.062 144.351ZM177.154 145.613C177.58 145.767 178.051 145.545 178.205 145.119C178.293 144.875 178.258 144.616 178.134 144.41C178.04 144.256 177.895 144.132 177.711 144.066C177.55 144.008 177.383 144.004 177.229 144.042C177.169 144.057 177.109 144.081 177.053 144.111C176.876 144.203 176.732 144.359 176.66 144.56C176.572 144.802 176.604 145.057 176.726 145.26C176.786 145.361 176.867 145.449 176.968 145.519C177.023 145.558 177.086 145.59 177.154 145.613ZM177.383 147.441C177.229 147.867 176.758 148.09 176.332 147.936C175.904 147.782 175.684 147.311 175.838 146.883C175.992 146.457 176.463 146.234 176.889 146.388C177.317 146.542 177.537 147.013 177.383 147.441ZM174.19 147.167C174.616 147.321 175.086 147.099 175.241 146.673C175.395 146.245 175.174 145.774 174.746 145.62C174.32 145.466 173.849 145.688 173.695 146.114C173.541 146.542 173.761 147.013 174.19 147.167Z" fill="#545454"/>
<path d="M150.137 158.396L160.22 153.974L176.895 191.993L166.811 196.415L150.137 158.396Z" fill="#D59C79"/>
<path d="M88.6777 154.013L78.5942 149.59L61.9198 187.609L72.0034 192.031L88.6777 154.013Z" fill="#EBBF96"/>
<path d="M104.933 186.295C102.929 181.888 104.878 176.69 109.286 174.686L143.24 159.247C147.648 157.243 152.846 159.192 154.85 163.599L169.105 194.951C171.109 199.359 169.16 204.556 164.753 206.56L130.798 221.999C126.39 224.003 121.192 222.054 119.188 217.647L104.933 186.295Z" fill="#DFA880"/>
<path d="M109.477 225.178C108.14 222.238 109.44 218.772 112.379 217.436L125.053 211.673C127.992 210.337 131.458 211.636 132.795 214.575C134.131 217.515 132.832 220.981 129.893 222.318L117.219 228.08C114.279 229.417 110.813 228.117 109.477 225.178Z" fill="#DFA880"/>
<path d="M95.2549 219.173C94.0462 216.514 95.2214 213.38 97.8798 212.171L111.571 205.946C114.23 204.737 117.365 205.912 118.573 208.57C119.782 211.229 118.607 214.364 115.948 215.572L102.257 221.798C99.5985 223.006 96.4636 221.831 95.2549 219.173Z" fill="#DFA880"/>
<path d="M84.0816 209.386C82.754 206.466 84.0448 203.022 86.9646 201.695L99.7092 195.9C102.629 194.573 106.072 195.863 107.4 198.783C108.727 201.703 107.437 205.146 104.517 206.474L91.7723 212.269C88.8524 213.596 85.4092 212.305 84.0816 209.386Z" fill="#DFA880"/>
<path d="M121.831 168.401C124.14 163.135 121.743 156.994 116.478 154.685L102.904 148.732C97.084 146.179 90.2968 148.828 87.7443 154.648L71.0288 192.76C69.3271 196.64 71.0929 201.165 74.9729 202.867L92.0595 210.361C97.3251 212.67 103.466 210.273 105.775 205.008L121.831 168.401Z" fill="#F4C9A3"/>
<path d="M157.251 196.809C159.829 198.009 162.891 196.892 164.091 194.314C165.417 191.464 164.182 188.08 161.332 186.754L114.719 165.063C112.417 163.992 109.682 164.99 108.61 167.292C107.156 170.417 107.014 174.985 110.139 176.439L129.043 185.222C128.991 184.589 129.123 184.369 129.865 184.384L157.251 196.809Z" fill="#F4C9A3"/>
<path d="M150.586 222.865C153.394 224.172 156.73 222.955 158.037 220.146C159.481 217.042 158.136 213.355 155.032 211.911L109.253 190.608C106.745 189.441 97.3335 195.141 96.1662 197.65C94.5822 201.054 114.791 207.668 118.195 209.252C117.842 208.528 117.964 208.215 118.906 207.946L150.586 222.865Z" fill="#F4C9A3"/>
<path d="M130.374 226.95C132.968 228.157 136.05 227.033 137.257 224.438C138.591 221.571 137.349 218.165 134.481 216.831L87.9272 195.167C85.6102 194.089 82.8579 195.094 81.7797 197.411C80.3164 200.555 81.6794 204.29 84.8239 205.754L130.374 226.95Z" fill="#F4C9A3"/>
<path d="M158.876 211.93C161.642 213.216 164.927 212.018 166.214 209.252C167.636 206.196 166.311 202.565 163.254 201.142L116.995 179.616C114.525 178.467 105.809 183.284 104.659 185.754C103.1 189.107 121.033 196.09 124.385 197.65C124.329 197.019 124.467 196.726 125.207 196.439L158.876 211.93Z" fill="#F4C9A3"/>
<path d="M129.749 170.884C131.395 170.659 132.777 169.564 133.554 168.095C134.967 165.427 133.815 162.121 131.05 160.908L111.778 152.456C109.313 151.375 106.439 152.497 105.358 154.962C103.907 158.269 105.377 162.128 108.66 163.631L122.977 170.19C124.09 170.699 125.284 171.03 126.507 171.059C127.701 171.086 128.702 171.027 129.749 170.884Z" fill="#F4C9A3"/>
<path d="M154.322 190.038C155.014 188.389 156.913 187.614 158.561 188.307L160.588 189.159C162.236 189.852 163.011 191.75 162.318 193.399C161.625 195.047 159.727 195.822 158.079 195.129L156.052 194.277C154.403 193.584 153.629 191.686 154.322 190.038Z" fill="#F7D9BF"/>
<path d="M156.872 205.177C157.565 203.529 159.463 202.754 161.112 203.447L162.963 204.225C164.611 204.918 165.386 206.816 164.693 208.464C164 210.113 162.102 210.888 160.454 210.195L158.603 209.417C156.954 208.724 156.18 206.826 156.872 205.177Z" fill="#F7D9BF"/>
<path d="M127.167 220.239C127.86 218.59 129.758 217.816 131.407 218.508L133.924 219.566C135.572 220.259 136.347 222.157 135.654 223.806C134.961 225.454 133.063 226.229 131.414 225.536L128.898 224.478C127.249 223.785 126.474 221.887 127.167 220.239Z" fill="#F7D9BF"/>
<path d="M147.925 215.282C148.618 213.633 150.516 212.859 152.165 213.551L154.746 214.636C156.395 215.329 157.169 217.227 156.476 218.876C155.784 220.524 153.886 221.299 152.237 220.606L149.655 219.521C148.007 218.828 147.232 216.93 147.925 215.282Z" fill="#F7D9BF"/>
<path d="M64.1895 166.418L-74.3085 105.675L-86.0263 132.393L52.4717 193.135L64.1895 166.418Z" fill="#C4C4C4"/>
<path d="M75.9277 139.648L-62.5702 78.9056L-74.3124 105.678L64.1856 166.421L75.9277 139.648Z" fill="#D4D4D4"/>
<path fill-rule="evenodd" clip-rule="evenodd" d="M60.5855 141.646C60.5855 143.915 62.4254 145.755 64.6951 145.755C66.9648 145.755 68.8047 143.915 68.8047 141.646C68.8047 139.376 66.9648 137.536 64.6951 137.536C62.4254 137.536 60.5855 139.376 60.5855 141.646ZM64.2518 140.515C64.4059 140.942 64.8769 141.164 65.3039 141.009C65.7309 140.855 65.9521 140.384 65.7981 139.957C65.644 139.53 65.173 139.309 64.746 139.463C64.319 139.617 64.0978 140.088 64.2518 140.515ZM63.1613 141.778C62.7343 141.932 62.2633 141.711 62.1093 141.284C61.9552 140.857 62.1765 140.386 62.6035 140.232C63.0305 140.078 63.5015 140.299 63.6555 140.726C63.8096 141.153 63.5883 141.624 63.1613 141.778ZM62.9312 143.606C63.0852 144.033 63.5562 144.254 63.9832 144.1C64.4102 143.946 64.6315 143.475 64.4775 143.048C64.3234 142.621 63.8524 142.4 63.4254 142.554C62.9984 142.708 62.7771 143.179 62.9312 143.606ZM66.1258 143.332C65.6988 143.486 65.2278 143.265 65.0737 142.838C64.9197 142.411 65.1409 141.94 65.5679 141.786C65.9949 141.631 66.466 141.853 66.62 142.28C66.7741 142.707 66.5528 143.178 66.1258 143.332Z" fill="#F7F7F7"/>
<path d="M71.8848 169.649L64.2335 166.294L54.11 189.376L61.7612 192.732L71.8848 169.649Z" fill="#F9F9F9"/>
<path d="M81.8379 146.953L74.1854 143.597L64.2054 166.352L71.8579 169.708L81.8379 146.953Z" fill="white"/>
<path d="M103.554 166.849C106.841 164.383 118.218 159.919 123.484 157.61L137.058 151.656C142.878 149.104 149.665 151.753 152.218 157.573L161.912 179.452C163.614 183.332 155.961 183.144 150.686 182.465C146.602 181.94 141.92 180.648 138.632 178.356C135.344 176.063 132.438 173.758 130.129 168.493C130.129 168.493 117.82 173.698 114.797 173.698C111.773 173.698 109.687 173.869 107.663 172.328C105.535 170.708 103.554 166.849 103.554 166.849Z" fill="#EBB48B"/>
<path d="M103.552 166.849C103.552 166.849 106.241 165.049 111.507 162.739C112.822 164.415 113.118 165.233 113.15 166.301C109.381 168.643 107.282 168.504 103.552 166.849Z" fill="#F2CCAF"/>
<path d="M110.736 227.398C108.451 225.445 108.182 222.01 110.135 219.726L115.127 213.885C117.08 211.601 120.514 211.331 122.799 213.284C125.083 215.236 125.352 218.671 123.4 220.955L118.407 226.797C116.455 229.081 113.02 229.35 110.736 227.398Z" fill="#DFA880"/>
<path d="M96.4911 220.645C94.042 218.551 93.7536 214.869 95.8468 212.42L101.75 205.513C103.843 203.064 107.525 202.776 109.974 204.869C112.424 206.962 112.712 210.645 110.619 213.094L104.716 220C102.623 222.449 98.9403 222.738 96.4911 220.645Z" fill="#DFA880"/>
<path d="M85.2269 211.736C82.9464 209.787 82.6778 206.358 84.627 204.078L91.4523 196.092C93.4015 193.812 96.8304 193.543 99.1109 195.492C101.391 197.441 101.66 200.87 99.7109 203.151L92.8855 211.136C90.9364 213.417 87.5075 213.686 85.2269 211.736Z" fill="#DFA880"/>
<path d="M75.055 204.637C72.6418 202.574 72.3576 198.946 74.4202 196.533L79.979 190.029C82.0416 187.616 85.6699 187.332 88.0831 189.394C90.4963 191.457 90.7806 195.085 88.718 197.498L83.1592 204.002C81.0966 206.415 77.4683 206.7 75.055 204.637Z" fill="#DFA880"/>
<path d="M103.18 213.399C101.629 212.073 101.446 209.74 102.772 208.189L103.824 206.958C105.15 205.406 107.483 205.223 109.035 206.55C110.586 207.876 110.769 210.208 109.443 211.76L108.391 212.991C107.065 214.543 104.732 214.725 103.18 213.399Z" fill="#E4B999"/>
<path d="M115.956 221.615C114.558 220.421 114.394 218.32 115.588 216.923L117.118 215.133C118.312 213.736 120.413 213.572 121.81 214.766C123.207 215.96 123.372 218.061 122.178 219.458L120.648 221.248C119.454 222.645 117.353 222.81 115.956 221.615Z" fill="#E4B999"/>
<path d="M91.3733 204.344C89.9061 203.09 89.7333 200.884 90.9873 199.417L92.8999 197.179C94.1538 195.712 96.3597 195.539 97.8269 196.793C99.294 198.047 99.4668 200.253 98.2129 201.72L96.3003 203.958C95.0463 205.425 92.8404 205.598 91.3733 204.344Z" fill="#E4B999"/>
<path d="M80.4651 198.864C78.9979 197.61 78.8251 195.404 80.0791 193.937L81.9917 191.7C83.2456 190.232 85.4515 190.06 86.9187 191.314C88.3858 192.568 88.5586 194.773 87.3047 196.241L85.3921 198.478C84.1381 199.945 81.9322 200.118 80.4651 198.864Z" fill="#E4B999"/>
</g>
<circle cx="120" cy="120" r="119" stroke="url(#paint0_linear)" stroke-width="2"/>
<defs>
<linearGradient id="paint0_linear" x1="40.5714" y1="31.4286" x2="205.143" y2="222.286" gradientUnits="userSpaceOnUse">
<stop stop-color="#00C6A2"/>
<stop offset="1" stop-color="#2B6B6A"/>
</linearGradient>
</defs>
</svg>
