<svg width="344" height="208" viewBox="0 0 344 208" fill="none" xmlns="http://www.w3.org/2000/svg">
<path d="M192.605 6.39536C171.014 15.2446 151.222 49.5176 151.222 49.5176C151.222 49.5176 129.038 35.8551 98.3211 49.5176C67.6043 63.18 63.338 94.7745 63.338 94.7745C63.338 94.7745 38.3684 92.1011 25.3686 99.471C12.4636 106.787 5.46491 114.949 1.90431 129.358C-3.44821 151.018 1.90431 166.929 25.3686 181.446C48.8328 195.962 76.1367 185.715 76.1367 185.715C76.1367 185.715 106.854 203.22 129.038 203.647C151.222 204.074 176.393 191.693 176.393 191.693C176.393 191.693 203.697 212.613 229.721 207.063C255.745 201.513 268.97 181.446 268.97 181.446C268.97 181.446 313.766 192.12 329.551 165.649C345.335 139.178 347.975 126.506 338.51 104.167C329.559 83.0434 292.008 68.3035 292.008 68.3035C292.008 68.3035 285.609 35.5487 271.53 21.3387C249.443 -0.953861 221.634 -5.50261 192.605 6.39536Z" fill="white"/>
</svg>
