<svg width="46" height="46" viewBox="0 0 46 46" fill="none" xmlns="http://www.w3.org/2000/svg">
<g opacity="0.7">
<path fill-rule="evenodd" clip-rule="evenodd" d="M14.5481 22.5L25.3113 32.725C25.7117 33.1054 26.3446 33.0892 26.725 32.6888C27.1054 32.2883 27.0892 31.6554 26.6888 31.275L17.4519 22.5L26.6888 13.725C27.0892 13.3446 27.1054 12.7117 26.725 12.3113C26.3446 11.9108 25.7117 11.8946 25.3113 12.275L14.5481 22.5Z" fill="#545454"/>
<path fill-rule="evenodd" clip-rule="evenodd" d="M23 44C11.402 44 2 34.598 2 23C2 11.402 11.402 2 23 2C34.598 2 44 11.402 44 23C44 34.598 34.598 44 23 44ZM23 46C10.2975 46 0 35.7025 0 23C0 10.2975 10.2975 0 23 0C35.7025 0 46 10.2975 46 23C46 35.7025 35.7025 46 23 46Z" fill="#545454"/>
</g>
</svg>
