<svg width="46" height="46" viewBox="0 0 46 46" fill="none" xmlns="http://www.w3.org/2000/svg">
<g opacity="0.7">
<path fill-rule="evenodd" clip-rule="evenodd" d="M31.4519 22.5L20.6887 32.725C20.2883 33.1054 19.6554 33.0892 19.275 32.6888C18.8946 32.2883 18.9108 31.6554 19.3112 31.275L28.5481 22.5L19.3112 13.725C18.9108 13.3446 18.8946 12.7117 19.275 12.3113C19.6554 11.9108 20.2883 11.8946 20.6887 12.275L31.4519 22.5Z" fill="#545454"/>
<path fill-rule="evenodd" clip-rule="evenodd" d="M23 44C34.598 44 44 34.598 44 23C44 11.402 34.598 2 23 2C11.402 2 2 11.402 2 23C2 34.598 11.402 44 23 44ZM23 46C35.7025 46 46 35.7025 46 23C46 10.2975 35.7025 0 23 0C10.2975 0 0 10.2975 0 23C0 35.7025 10.2975 46 23 46Z" fill="#545454"/>
</g>
</svg>
