<svg width="191" height="170" viewBox="0 0 191 170" fill="none" xmlns="http://www.w3.org/2000/svg">
<path d="M255.008 52.8565C267.413 58.643 273.835 72.8072 273.835 72.8072C273.835 72.8072 307.237 58.2975 320.599 90.3396C333.961 122.382 287.196 130.241 287.196 130.241C287.196 130.241 281.73 153.819 242.861 163.492C203.992 173.165 186.987 157.447 186.987 157.447C186.987 157.447 179.728 167.379 162.694 167.12C145.661 166.86 137.187 157.447 137.187 157.447C137.187 157.447 119.574 172.831 95.2812 169.538C70.9883 166.245 57.6271 145.96 57.6271 145.96C57.6271 145.96 36.3708 152.264 18.7583 142.332C1.14575 132.4 -2.17441 116.448 1.14575 104.245C9.04099 75.2255 52.1611 76.4346 52.1611 76.4346C52.1611 76.4346 57.6271 62.7632 70.9882 52.8565C84.3494 42.9497 101.962 41.3697 101.962 41.3697C101.962 41.3697 123.218 -6.99576 170.59 0.863713C217.961 8.72318 223.427 52.8565 223.427 52.8565C223.427 52.8565 239.796 45.7608 255.008 52.8565Z" fill="url(#paint0_linear)"/>
<defs>
<linearGradient id="paint0_linear" x1="44.0455" y1="50.4688" x2="258.716" y2="171.82" gradientUnits="userSpaceOnUse">
<stop stop-color="#ECFEFE"/>
<stop offset="1" stop-color="#F4FDFF" stop-opacity="0.47"/>
</linearGradient>
</defs>
</svg>
