<svg width="40" height="49" viewBox="0 0 40 49" fill="none" xmlns="http://www.w3.org/2000/svg">
<path d="M39.4922 6.75862C29.9254 8.12245 19.9288 0 19.9288 0C19.9288 0 10.2548 9.32475 -0.000350952 6.75862C4.09369 32.8964 8.3577 42.4057 19.9288 49C31.3729 39.9718 36.3044 31.9981 39.4922 6.75862Z" fill="#FFBB4B"/>
<path fill-rule="evenodd" clip-rule="evenodd" d="M19.7461 48.8954C8.31282 42.3049 4.07223 32.7584 -0.000175476 6.75878C9.43052 9.11861 18.3698 1.42256 19.7461 0.169922V48.8954Z" fill="#FECA5B"/>
<path d="M10.1848 37.2921C10.0419 36.9892 10.137 36.6282 10.4069 36.4298C10.7737 36.1602 11.2949 36.3021 11.4887 36.714C12.2866 38.4102 13.0168 39.4537 14.3053 40.5967C14.65 40.9025 14.6398 41.4521 14.2685 41.725C14.0085 41.9162 13.65 41.9058 13.4075 41.6929C11.9247 40.3907 11.1259 39.2877 10.1848 37.2921Z" fill="#FFF6E3"/>
</svg>
