<svg width="56" height="56" viewBox="0 0 56 56" fill="none" xmlns="http://www.w3.org/2000/svg">
<path d="M26.268 3C27.0378 1.66667 28.9622 1.66667 29.732 3L50.5167 39C51.2865 40.3333 50.3242 42 48.7846 42H7.21539C5.67579 42 4.71354 40.3333 5.48334 39L26.268 3Z" fill="url(#paint0_linear)"/>
<path d="M29.8442 15.2939L29.5566 30.6123H26.6807L26.2871 15.2939H29.8442ZM28.1641 37.3027C27.5586 37.3027 27.0439 37.111 26.6201 36.7275C26.1963 36.334 25.9844 35.8597 25.9844 35.3047C25.9844 34.7295 26.1963 34.2401 26.6201 33.8364C27.0439 33.4328 27.5586 33.231 28.1641 33.231C28.7493 33.231 29.2539 33.4328 29.6777 33.8364C30.1117 34.2401 30.3286 34.7295 30.3286 35.3047C30.3286 35.8597 30.1117 36.334 29.6777 36.7275C29.2539 37.111 28.7493 37.3027 28.1641 37.3027Z" fill="white"/>
<defs>
<linearGradient id="paint0_linear" x1="28" y1="0" x2="28" y2="56" gradientUnits="userSpaceOnUse">
<stop stop-color="#00C6A2"/>
<stop offset="1" stop-color="#00C6A2" stop-opacity="0.72"/>
</linearGradient>
</defs>
</svg>
