<svg width="200" height="199" viewBox="0 0 200 199" fill="none" xmlns="http://www.w3.org/2000/svg">
<circle opacity="0.3" cx="100.5" cy="99.5" r="99" stroke="#225556"/>
<mask id="mask0" mask-type="alpha" maskUnits="userSpaceOnUse" x="0" y="0" width="199" height="199">
<circle cx="99.5" cy="99.5" r="99.5" fill="#C4C4C4"/>
</mask>
<g mask="url(#mask0)">
<path d="M45 186.596C45 180.641 48.5912 175.271 54.1043 172.98L80.5069 162.012L94.5616 187.825H104.918L116.753 162.012L143.796 173.017C149.362 175.282 153 180.68 153 186.673V207H45V186.596Z" fill="url(#paint0_linear)"/>
<path d="M90.5224 162.12C89.9546 160.228 91.3761 158.325 93.3572 158.325H104.643C106.624 158.325 108.045 160.228 107.478 162.12L103.562 175.169C103.48 175.443 103.438 175.728 103.438 176.014V193.725C103.438 195.354 102.114 196.675 100.479 196.675H98.1586C96.5647 196.675 95.2572 195.416 95.2015 193.828L94.5749 175.962C94.5661 175.71 94.525 175.46 94.4526 175.219L90.5224 162.12Z" fill="url(#paint1_linear)"/>
<path d="M121.931 119.975C121.931 122.516 124.89 121.45 123.411 127.35C123.411 131.775 120.241 131.9 119.456 133.987C115.67 144.053 107.931 151.688 98.9999 151.688C90.0687 151.688 82.33 144.053 78.5435 133.987C77.7583 131.9 75.051 133.987 73.8508 127.35C72.6498 120.712 76.0684 122.516 76.0684 119.975C76.0684 111.462 74.4299 103.751 78.545 98.1523C82.6994 92.5 92.6375 89 98.9999 89C105.362 89 116.299 92.5 120.454 98.1523C124.569 103.751 121.931 111.462 121.931 119.975Z" fill="url(#paint2_linear)"/>
<path d="M88.1113 59.7061V54.3838C90.39 56.1904 92.9616 57.0938 95.8262 57.0938C98.1536 57.0938 100.009 56.5648 101.393 55.5068C102.792 54.4489 103.492 53.0166 103.492 51.21C103.492 47.2386 100.457 45.2529 94.3857 45.2529H91.6758V40.7119H94.2637C99.651 40.7119 102.345 38.8402 102.345 35.0967C102.345 31.6462 100.245 29.9209 96.0459 29.9209C93.7021 29.9209 91.4967 30.7591 89.4297 32.4355V27.4062C91.806 26.0716 94.6136 25.4043 97.8525 25.4043C100.961 25.4043 103.451 26.1855 105.323 27.748C107.195 29.3105 108.131 31.3125 108.131 33.7539C108.131 38.36 105.787 41.3223 101.1 42.6406V42.7383C103.622 42.9824 105.616 43.8695 107.081 45.3994C108.546 46.9131 109.278 48.8092 109.278 51.0879C109.278 54.2292 108.098 56.7682 105.738 58.7051C103.378 60.6257 100.27 61.5859 96.4121 61.5859C92.9453 61.5859 90.1784 60.9593 88.1113 59.7061Z" fill="#005647"/>
</g>
<defs>
<linearGradient id="paint0_linear" x1="153" y1="89" x2="45.3362" y2="207.306" gradientUnits="userSpaceOnUse">
<stop stop-color="#8FD5F2"/>
<stop offset="1" stop-color="#00C6A2"/>
</linearGradient>
<linearGradient id="paint1_linear" x1="153" y1="89" x2="45.3362" y2="207.306" gradientUnits="userSpaceOnUse">
<stop stop-color="#8FD5F2"/>
<stop offset="1" stop-color="#00C6A2"/>
</linearGradient>
<linearGradient id="paint2_linear" x1="153" y1="89" x2="45.3362" y2="207.306" gradientUnits="userSpaceOnUse">
<stop stop-color="#8FD5F2"/>
<stop offset="1" stop-color="#00C6A2"/>
</linearGradient>
</defs>
</svg>
