<svg width="27" height="26" viewBox="0 0 27 26" fill="none" xmlns="http://www.w3.org/2000/svg">
<path d="M5.67338 26V7.86305H0.145471V26H5.67338ZM2.9458 0C1.16377 0 0 1.22397 0 2.81883C0 4.37661 1.1274 5.63766 2.87306 5.63766C4.72782 5.63766 5.85522 4.37661 5.85522 2.81883C5.81885 1.22397 4.72782 0 2.9458 0Z" fill="#454B5F"/>
<path d="M10.1253 26H15.6532V15.5407C15.6532 15.0214 15.6896 14.5021 15.8351 14.1312C16.2351 13.0927 17.1443 12.0171 18.6718 12.0171C20.672 12.0171 21.4721 13.612 21.4721 15.9486V26H27V15.281C27 9.94009 24.2724 7.45507 20.6356 7.45507C17.6535 7.45507 15.8714 9.19829 15.1441 10.3852H15.035L14.7804 7.86305H9.97985C10.0526 9.49501 10.1253 11.3866 10.1253 13.6491V26Z" fill="#454B5F"/>
</svg>
