<?xml version="1.0" encoding="utf-8"?>
<!-- Generator: Adobe Illustrator 21.0.0, SVG Export Plug-In . SVG Version: 6.00 Build 0)  -->
<svg version="1.1" id="Слой_1" xmlns="http://www.w3.org/2000/svg" xmlns:xlink="http://www.w3.org/1999/xlink" x="0px" y="0px"
	 width="280.5px" height="195.5px" viewBox="0 0 280.5 195.5" style="enable-background:new 0 0 280.5 195.5;" xml:space="preserve"
	>
<style type="text/css">
	.st0{fill:#FFFFFF;fill-opacity:0.3;}
</style>
<path class="st0" d="M77.6,163.7c-20.7-11.1-22.2-32-22.2-32s-35.5-2.8-47.1-27.5c-11.6-24.8-9.8-39.8-2.7-55
	C12.9,34,27.2,26.7,44.6,20.4S86.2,22,86.2,22s19.5-21.9,47-22c27.5-0.1,45.4,20,45.4,20s30-13.2,49.3-9.5
	c20,3.8,33.3,11.1,43.6,28.6c11.5,19.5,11.9,38,1.2,58c-10.7,19.9-48.9,31-48.9,31s0.4,17-8.7,37.2c-9.1,20.2-30.9,30.7-57.4,30.2
	c-26.5-0.4-40.1-28.2-40.1-28.2S98.4,174.8,77.6,163.7z"/>
</svg>
