<svg version="1.1" xmlns="http://www.w3.org/2000/svg" xmlns:xlink="http://www.w3.org/1999/xlink" x="0px" y="0px"
	 width="162.8px" height="138.9px" viewBox="0 0 162.8 138.9" style="enable-background:new 0 0 162.8 138.9;" xml:space="preserve"
	>
<style type="text/css">
	.st0{fill:url(#SVGID_1_);filter:url(#Adobe_OpacityMaskFilter);}
	.st1{mask:url(#mask0);}
	.st2{fill:url(#SVGID_2_);}
	.st3{fill:url(#SVGID_3_);}
	.st4{fill:url(#SVGID_4_);}
	.st5{fill:url(#SVGID_5_);}
	.st6{fill:url(#SVGID_6_);}
</style>
<defs>
	<filter id="Adobe_OpacityMaskFilter" filterUnits="userSpaceOnUse" x="0" y="0" width="162.8" height="138.9">
		<feColorMatrix  type="matrix" values="1 0 0 0 0  0 1 0 0 0  0 0 1 0 0  0 0 0 1 0"/>
	</filter>
</defs>
<g class="st1">
	
		<linearGradient id="SVGID_2_" gradientUnits="userSpaceOnUse" x1="117.9952" y1="-170.8769" x2="115.9801" y2="-272.4554" gradientTransform="matrix(1 0 0 -1 0 -136.9115)">
		<stop  offset="0" style="stop-color:#67DD93"/>
		<stop  offset="0.5365" style="stop-color:#55CB81"/>
	</linearGradient>
	<path class="st2" d="M134.4,113.5c2.9,4,9.1,5.6,9.1,5.6s-13.9,13.2-23.8,15.8c-12.7,3.4-32.6-7.2-32.6-7.2s7.4,0.9,11.2-3
		c2.6-2.7,5.4-9.6,5.4-9.6s-3.4,1.4-5.2-0.1c-1.3-1.1-2.5-4.4-2.5-4.4c2.3-0.8,3.7-0.5,5.9-2c3-2.1,6.7-8.5,6.7-8.5
		s-2.4,0.3-3.9-0.1c-1.8-0.4-4.5-2.3-4.5-2.3s3.4-1.4,5.3-3.1c2.1-1.9,4.7-6.4,4.7-6.4s-2.4,0.2-3.9-0.1c-1.5-0.2-3.9-1.2-3.9-1.2
		s5.4-4.9,8.7-12.8c5-12,9.8-39.9,9.8-39.9s0.7,20.6,4.1,31.5c2.1,7,7.6,15.3,7.6,15.3s-1.5,1.7-2.6,2.1c-1,0.3-2.6-0.1-2.6-0.1
		s4,7.2,7,11c4.1,5.3,11.6,11.1,11.6,11.1s-5.2,1.6-8.5,0.9c-2.9-0.6-5.8-2.3-5.8-2.3S132,110.2,134.4,113.5z"/>
	
		<linearGradient id="SVGID_3_" gradientUnits="userSpaceOnUse" x1="43.0712" y1="-130.9444" x2="35.0025" y2="-256.2123" gradientTransform="matrix(1 0 0 -1 0 -136.9115)">
		<stop  offset="0" style="stop-color:#80F6AC"/>
		<stop  offset="0.7437" style="stop-color:#55CB81"/>
	</linearGradient>
	<path class="st3" d="M58.9,93.5c3.6,4.7,11.3,6.6,11.3,6.6s-17.3,15.5-29.6,18.5C24.7,122.5,0,110.1,0,110.1s9.2,1,13.9-3.5
		c3.3-3.2,6.7-11.3,6.7-11.3s-4.3,1.7-6.5-0.1c-1.6-1.3-3.2-5.2-3.2-5.2c2.9-0.9,4.6-0.6,7.4-2.4c3.8-2.5,8.3-10,8.3-10
		s-3,0.3-4.9-0.1c-2.3-0.5-5.7-2.7-5.7-2.7s4.2-1.6,6.6-3.7c2.6-2.3,5.8-7.5,5.8-7.5s-3,0.2-4.9-0.1c-1.9-0.3-4.9-1.4-4.9-1.4
		s6.7-5.7,10.8-15.1C35.7,32.8,41.7,0,41.7,0s0.9,24.2,5.1,37.1c2.7,8.2,9.5,18.1,9.5,18.1s-1.9,2-3.3,2.5c-1.2,0.4-3.3-0.1-3.3-0.1
		s5,8.4,8.7,12.9c5.1,6.2,14.4,13.1,14.4,13.1s-6.5,1.8-10.6,1c-3.6-0.7-7.3-2.7-7.3-2.7S56,89.6,58.9,93.5z"/>
	
		<linearGradient id="SVGID_4_" gradientUnits="userSpaceOnUse" x1="148.7538" y1="-223.8947" x2="133.7684" y2="-260.9105" gradientTransform="matrix(1 0 0 -1 0 -136.9115)">
		<stop  offset="0" style="stop-color:#3BB18A"/>
		<stop  offset="1" style="stop-color:#118760"/>
	</linearGradient>
	<path class="st4" d="M151.6,120.4c2.9,2.8,9.1,4,9.1,4s-13.9,9-23.7,10.8c-12.7,2.2-32.6-5.2-32.6-5.2s7.4,0.6,11.1-2
		c2.6-1.9,5.3-6.6,5.3-6.6s-3.4,1-5.2-0.1c-1.3-0.8-2.6-3.1-2.6-3.1c2.3-0.5,3.7-0.3,5.9-1.4c3-1.4,6.6-5.9,6.6-5.9
		s-2.4,0.2-3.9-0.1c-1.8-0.3-4.5-1.6-4.5-1.6s3.4-0.9,5.3-2.1c2.1-1.3,4.6-4.4,4.6-4.4s-2.4,0.1-3.9-0.1c-1.5-0.2-3.9-0.8-3.9-0.8
		s5.4-3.3,8.6-8.8c4.9-8.3,9.6-27.6,9.6-27.6s0.8,14.3,4.2,21.9c2.2,4.8,7.7,10.7,7.7,10.7s-1.5,1.2-2.6,1.4c-1,0.2-2.6-0.1-2.6-0.1
		s4.1,5,7.1,7.7c4.2,3.7,11.6,7.8,11.6,7.8s-5.2,1-8.5,0.6c-2.9-0.4-5.9-1.6-5.9-1.6S149.2,118.1,151.6,120.4z"/>
	
		<linearGradient id="SVGID_5_" gradientUnits="userSpaceOnUse" x1="98.7336" y1="-171.9203" x2="96.6709" y2="-275.8828" gradientTransform="matrix(1 0 0 -1 0 -136.9115)">
		<stop  offset="0" style="stop-color:#3BB18A"/>
		<stop  offset="1" style="stop-color:#1B916A"/>
	</linearGradient>
	<path class="st5" d="M113.7,121l10.9,12.3c0,0-4.4,1.9-7.2,2.9c-19.3,6.6-51.6-0.4-51.6-0.4l-8.4-7.7c0,0,8.2-2.9,12.5-6.5
		c4.8-4,10-13.3,10-13.3s-4,1.6-6.6,1.4c-2.4-0.3-5.8-2.4-5.8-2.4s6.2-4.2,9.3-8.1c3.4-4.2,6.7-12.6,6.7-12.6s-3.4,2.9-5.9,3.6
		C74.9,91,70.4,90,70.4,90s5.3-4.5,8-8.1c3.4-4.6,6.7-13.4,6.7-13.4s-1.8,2.4-3.3,2.9l-3.9,1.4c0,0,5-7.8,7.4-13.4
		c3.9-9,6.3-24.7,6.3-24.7s1.3,12.9,4.9,19.6c2.8,5.3,9.6,11.5,9.6,11.5s-2.9,0.7-4.6,0.7c-1.7,0-3.9-0.8-3.9-0.8s5.7,6.4,8.3,9.9
		c2.8,3.8,8.4,8.4,8.4,8.4s-4,0.3-6.5-0.1c-3.2-0.6-7.8-3.2-7.8-3.2s5.8,6.4,10.3,9.2c4,2.5,11,4.7,11,4.7s-5,3-8.6,3.6
		c-2.8,0.5-7.2-0.2-7.2-0.2s6.9,8.3,12.2,12.3c6.7,5.1,18.8,9.4,18.8,9.4s-7.9,2.8-13.1,2.7C119.6,122.7,113.7,121,113.7,121z"/>
	
		<linearGradient id="SVGID_6_" gradientUnits="userSpaceOnUse" x1="93.2322" y1="-202.4038" x2="12.5696" y2="-257.171" gradientTransform="matrix(1 0 0 -1 0 -136.9115)">
		<stop  offset="0" style="stop-color:#3BB18A"/>
		<stop  offset="1" style="stop-color:#269C75"/>
	</linearGradient>
	<path class="st6" d="M79.5,108.9c3.6,3.5,11.3,4.9,11.3,4.9s-17.3,11.3-29.5,13.4c-15.8,2.8-40.6-6.5-40.6-6.5s9.2,0.8,13.9-2.5
		c3.3-2.3,6.6-8.3,6.6-8.3s-4.3,1.2-6.5-0.1c-1.6-1-3.2-3.8-3.2-3.8c2.9-0.7,4.6-0.4,7.4-1.7c3.8-1.8,8.3-7.3,8.3-7.3
		s-3,0.2-4.9-0.1c-2.3-0.4-5.7-2-5.7-2s4.2-1.1,6.6-2.7c2.6-1.6,5.8-5.5,5.8-5.5s-3,0.1-4.9-0.1c-1.9-0.2-4.9-1-4.9-1
		s6.7-4.2,10.8-11c6.1-10.3,12-34.4,12-34.4s1,17.8,5.3,27.3c2.7,6,9.6,13.3,9.6,13.3s-1.9,1.5-3.3,1.8c-1.2,0.3-3.3-0.1-3.3-0.1
		s5.1,6.2,8.8,9.6c5.2,4.6,14.5,9.7,14.5,9.7s-6.5,1.3-10.6,0.7c-3.6-0.5-7.3-2-7.3-2S76.5,106,79.5,108.9z"/>
</g>
</svg>
