<svg width="350" height="208" viewBox="0 0 350 208" fill="none" xmlns="http://www.w3.org/2000/svg">
<path d="M311.062 64.6714C326.194 71.7514 334.028 89.0817 334.028 89.0817C334.028 89.0817 374.772 71.3287 391.071 110.533C407.37 149.738 350.326 159.354 350.326 159.354C350.326 159.354 343.658 188.202 296.246 200.038C248.833 211.873 228.09 192.64 228.09 192.64C228.09 192.64 219.234 204.793 198.457 204.476C177.679 204.159 167.342 192.64 167.342 192.64C167.342 192.64 145.858 211.464 116.225 207.435C86.5925 203.406 70.2943 178.586 70.2943 178.586C70.2943 178.586 44.3655 186.3 22.8816 174.148C1.39758 161.995 -2.6524 142.478 1.39758 127.546C11.0283 92.0407 63.6269 93.5199 63.6269 93.5199C63.6269 93.5199 70.2943 76.7926 86.5924 64.6714C102.891 52.5503 124.374 50.617 124.374 50.617C124.374 50.617 150.303 -8.55952 208.088 1.05678C265.872 10.6731 272.539 64.6714 272.539 64.6714C272.539 64.6714 292.507 55.9897 311.062 64.6714Z" fill="url(#paint0_linear)"/>
<defs>
<linearGradient id="paint0_linear" x1="-0.118385" y1="-55.4779" x2="331.384" y2="207.605" gradientUnits="userSpaceOnUse">
<stop stop-color="white"/>
<stop offset="1" stop-color="#EAFBF7"/>
</linearGradient>
</defs>
</svg>
