<svg width="375" height="849" viewBox="0 0 375 849" fill="none" xmlns="http://www.w3.org/2000/svg">
    <path d="M0 0H320C350.376 0 375 24.6243 375 55V794C375 824.376 350.376 849 320 849H55C24.6243 849 0 824.376 0 794V0Z"
          fill="url(#paint0_linear)"/>
    <mask id="mask0" mask-type="alpha" maskUnits="userSpaceOnUse" x="0" y="0" width="375" height="849">
        <path d="M0 0H320C350.376 0 375 24.6243 375 55V794C375 824.376 350.376 849 320 849H55C24.6243 849 0 824.376 0 794V0Z"
              fill="url(#paint1_linear)"/>
    </mask>
    <g mask="url(#mask0)">
        <path d="M125.052 832.288C128.274 836.481 135.191 838.124 135.191 838.124C135.191 838.124 119.599 851.798 108.574 854.501C94.3387 857.992 72.1325 847.016 72.1325 847.016C72.1325 847.016 80.4035 847.908 84.6215 843.883C87.5637 841.075 90.6475 833.859 90.6475 833.859C90.6475 833.859 86.8138 835.358 84.798 833.743C83.3726 832.602 81.9517 829.179 81.9517 829.179C84.5369 828.35 86.128 828.621 88.5716 827.056C91.9658 824.882 96.0403 818.188 96.0403 818.188C96.0403 818.188 93.3472 818.466 91.6532 818.101C89.5978 817.659 86.5741 815.746 86.5741 815.746C86.5741 815.746 90.3408 814.331 92.4824 812.482C94.7934 810.488 97.7184 805.824 97.7184 805.824C97.7184 805.824 95.035 805.987 93.3313 805.737C91.604 805.484 88.9638 804.524 88.9638 804.524C88.9638 804.524 95.0215 799.476 98.7045 791.193C104.256 778.705 109.667 749.711 109.667 749.711C109.667 749.711 110.463 771.131 114.216 782.484C116.614 789.736 122.716 798.431 122.716 798.431C122.716 798.431 121.006 800.224 119.752 800.626C118.63 800.986 116.827 800.568 116.827 800.568C116.827 800.568 121.34 808.015 124.674 811.994C129.292 817.507 137.639 823.522 137.639 823.522C137.639 823.522 131.806 825.142 128.114 824.46C124.886 823.863 121.573 822.076 121.573 822.076C121.573 822.076 122.407 828.845 125.052 832.288Z"
              fill="url(#paint2_linear)"/>
        <path d="M36.6798 808.039C42.4642 815.14 54.8724 817.935 54.8724 817.935C54.8724 817.935 26.9335 841.041 7.16697 845.594C-18.3565 851.473 -58.2002 832.855 -58.2002 832.855C-58.2002 832.855 -43.3655 834.38 -35.8081 827.578C-30.5365 822.833 -25.0189 810.629 -25.0189 810.629C-25.0189 810.629 -31.8915 813.157 -35.5095 810.421C-38.0678 808.486 -40.6221 802.691 -40.6221 802.691C-35.9872 801.294 -33.1334 801.756 -28.7538 799.112C-22.6704 795.441 -15.3751 784.122 -15.3751 784.122C-15.3751 784.122 -20.2044 784.586 -23.243 783.966C-26.93 783.213 -32.3559 779.971 -32.3559 779.971C-32.3559 779.971 -25.6033 777.584 -21.7658 774.46C-17.6249 771.089 -12.3874 763.204 -12.3874 763.204C-12.3874 763.204 -17.1995 763.474 -20.2554 763.048C-23.3535 762.615 -28.0902 760.985 -28.0902 760.985C-28.0902 760.985 -17.2352 752.457 -10.6447 738.447C-0.709996 717.328 8.94152 668.276 8.94152 668.276C8.94152 668.276 10.4068 704.524 17.1585 723.742C21.4713 736.018 32.4299 750.744 32.4299 750.744C32.4299 750.744 29.3665 753.775 27.1182 754.452C25.1074 755.059 21.8729 754.348 21.8729 754.348C21.8729 754.348 29.9799 766.957 35.9657 773.698C44.2568 783.035 59.2377 793.23 59.2377 793.23C59.2377 793.23 48.7787 795.961 42.1573 794.799C36.3671 793.782 30.4218 790.752 30.4218 790.752C30.4218 790.752 31.9301 802.208 36.6798 808.039Z"
              fill="url(#paint3_linear)"/>
        <path d="M149.47 844.551C152.239 847.049 158.152 848.058 158.152 848.058C158.152 848.058 144.903 856.068 135.504 857.61C123.367 859.602 104.359 852.991 104.359 852.991C104.359 852.991 111.424 853.562 115.007 851.202C117.506 849.556 120.105 845.302 120.105 845.302C120.105 845.302 116.839 846.169 115.111 845.203C113.889 844.52 112.66 842.487 112.66 842.487C114.864 842.01 116.223 842.179 118.302 841.266C121.19 839.997 124.638 836.057 124.638 836.057C124.638 836.057 122.34 836.207 120.892 835.983C119.135 835.71 116.545 834.563 116.545 834.563C116.545 834.563 119.755 833.745 121.574 832.662C123.538 831.494 126.014 828.75 126.014 828.75C126.014 828.75 123.724 828.832 122.268 828.675C120.793 828.516 118.534 827.934 118.534 827.934C118.534 827.934 123.683 824.979 126.789 820.097C131.472 812.736 135.958 795.607 135.958 795.607C135.958 795.607 136.736 808.287 139.992 815.024C142.072 819.328 147.321 824.505 147.321 824.505C147.321 824.505 145.869 825.557 144.801 825.788C143.845 825.995 142.303 825.739 142.303 825.739C142.303 825.739 146.19 830.168 149.054 832.541C153.022 835.827 160.176 839.429 160.176 839.429C160.176 839.429 155.203 840.358 152.048 839.935C149.29 839.565 146.453 838.49 146.453 838.49C146.453 838.49 147.196 842.5 149.47 844.551Z"
              fill="url(#paint4_linear)"/>
        <path d="M113.956 869.103L131.529 887.431C131.529 887.431 124.49 890.24 119.878 891.695C88.7425 901.52 36.744 891.169 36.744 891.169L23.2626 879.664C23.2626 879.664 36.4406 875.376 43.428 869.951C51.2154 863.905 59.5611 850.044 59.5611 850.044C59.5611 850.044 53.1748 852.486 49.0012 852.082C45.1187 851.706 39.5912 848.524 39.5912 848.524C39.5912 848.524 49.5669 842.194 54.5353 836.46C60.0392 830.107 65.3885 817.572 65.3885 817.572C65.3885 817.572 59.928 821.911 55.822 823.001C51.4352 824.164 44.2492 822.771 44.2492 822.771C44.2492 822.771 52.7514 816.102 57.0892 810.665C62.576 803.787 67.9619 790.653 67.9619 790.653C67.9619 790.653 65.1037 794.214 62.6233 795.042L56.2717 797.164C56.2717 797.164 64.3508 785.468 68.1965 777.173C74.4323 763.723 78.3104 740.291 78.3104 740.291C78.3104 740.291 80.3369 759.515 86.2187 769.665C90.8053 777.58 101.707 786.828 101.707 786.828C101.707 786.828 96.993 787.858 94.3224 787.805C91.6518 787.752 88.0295 786.557 88.0295 786.557C88.0295 786.557 97.1996 796.186 101.452 801.432C106.033 807.081 114.914 814.06 114.914 814.06C114.914 814.06 108.45 814.552 104.393 813.851C99.2624 812.964 91.8468 809.107 91.8468 809.107C91.8468 809.107 101.241 818.698 108.445 822.921C114.939 826.727 126.213 830.016 126.213 830.016C126.213 830.016 118.104 834.489 112.439 835.361C107.965 836.05 100.866 835.132 100.866 835.132C100.866 835.132 112.02 847.504 120.542 853.502C131.311 861.08 150.818 867.587 150.818 867.587C150.818 867.587 138.079 871.76 129.698 871.663C123.48 871.591 113.956 869.103 113.956 869.103Z"
              fill="url(#paint5_linear)"/>
        <path d="M69.8386 831.098C75.6553 836.345 88.0753 838.463 88.0753 838.463C88.0753 838.463 60.2457 855.289 40.502 858.529C15.008 862.713 -24.918 848.827 -24.918 848.827C-24.918 848.827 -10.0776 850.025 -2.55237 845.069C2.69688 841.611 8.15757 832.676 8.15757 832.676C8.15757 832.676 1.29724 834.496 -2.33304 832.467C-4.90002 831.033 -7.48085 826.763 -7.48085 826.763C-2.85288 825.761 0.00284888 826.115 4.36981 824.197C10.4357 821.532 17.678 813.256 17.678 813.256C17.678 813.256 12.8513 813.571 9.81008 813.1C6.11997 812.527 0.679542 810.117 0.679542 810.117C0.679542 810.117 7.42054 808.399 11.2433 806.125C15.3682 803.671 20.5688 797.906 20.5688 797.906C20.5688 797.906 15.7584 798.08 12.7008 797.75C9.601 797.416 4.85722 796.194 4.85722 796.194C4.85722 796.194 15.6718 789.986 22.1969 779.73C32.0332 764.27 41.4571 728.289 41.4571 728.289C41.4571 728.289 43.0898 754.923 49.9297 769.076C54.2988 778.116 65.3244 788.99 65.3244 788.99C65.3244 788.99 62.2753 791.2 60.0304 791.686C58.0225 792.121 54.7851 791.582 54.7851 791.582C54.7851 791.582 62.9495 800.887 68.9659 805.87C77.2994 812.772 92.3261 820.34 92.3261 820.34C92.3261 820.34 81.8806 822.29 75.2545 821.401C69.4601 820.624 63.5013 818.367 63.5013 818.367C63.5013 818.367 65.0625 826.791 69.8386 831.098Z"
              fill="url(#paint6_linear)"/>
        <path d="M45.1146 338.14C27.212 346.41 26.3387 361.511 26.3387 361.511C26.3387 361.511 -4.62275 364.028 -14.27 382.006C-23.9172 399.983 -22.1294 410.77 -15.5795 421.556C-9.02954 432.343 3.63378 437.377 18.9157 441.691C34.1977 446.006 55.1575 439.894 55.1575 439.894C55.1575 439.894 72.6233 455.354 96.6391 454.995C120.655 454.635 135.937 439.894 135.937 439.894C135.937 439.894 162.406 448.919 179.166 446.006C196.566 442.982 207.993 437.553 216.717 424.792C226.421 410.599 226.435 397.271 216.717 383.084C207.02 368.926 173.489 361.511 173.489 361.511C173.489 361.511 173.489 349.286 165.193 334.904C156.896 320.522 137.684 313.331 114.542 314.05C91.3993 314.769 80.0465 334.904 80.0465 334.904C80.0465 334.904 63.0172 329.87 45.1146 338.14Z"
              fill="white" fill-opacity="0.1"/>
        <path d="M305.605 526.396C284.014 535.246 264.222 569.519 264.222 569.519C264.222 569.519 242.038 555.856 211.321 569.519C180.604 583.181 176.338 614.775 176.338 614.775C176.338 614.775 151.368 612.102 138.369 619.472C125.464 626.788 118.465 634.95 114.904 649.359C109.552 671.019 114.904 686.93 138.369 701.447C161.833 715.963 189.137 705.716 189.137 705.716C189.137 705.716 219.854 723.221 242.038 723.648C264.222 724.075 289.393 711.694 289.393 711.694C289.393 711.694 316.697 732.614 342.721 727.064C368.745 721.514 381.97 701.447 381.97 701.447C381.97 701.447 426.766 712.121 442.551 685.65C458.335 659.179 460.975 646.507 451.51 624.168C442.559 603.044 405.008 588.304 405.008 588.304C405.008 588.304 398.609 555.55 384.53 541.34C362.443 519.047 334.634 514.498 305.605 526.396Z"
              fill="white" fill-opacity="0.1"/>
        <path d="M272.201 128.916C256.839 136.132 248.886 153.796 248.886 153.796C248.886 153.796 207.521 135.701 190.974 175.66C174.426 215.618 232.339 225.419 232.339 225.419C232.339 225.419 239.108 254.823 287.243 266.885C335.378 278.948 356.437 259.346 356.437 259.346C356.437 259.346 365.427 271.732 386.521 271.409C407.615 271.086 418.109 259.346 418.109 259.346C418.109 259.346 439.92 278.531 470.005 274.425C500.089 270.318 516.635 245.021 516.635 245.021C516.635 245.021 542.959 252.884 564.77 240.498C586.581 228.112 590.693 208.219 586.581 193C576.804 156.812 523.404 158.319 523.404 158.319C523.404 158.319 516.635 141.27 500.089 128.916C483.543 116.562 461.732 114.591 461.732 114.591C461.732 114.591 435.408 54.2769 376.744 64.0781C318.079 73.8793 311.31 128.916 311.31 128.916C311.31 128.916 291.039 120.067 272.201 128.916Z"
              fill="#41CDC6" fill-opacity="0.5"/>
        <path d="M-31.3323 26.179C-53.8944 38.9447 -45.7952 54.6117 -45.7952 54.6117C-45.7952 54.6117 -68.3583 54.6117 -72.9854 75.5011C-77.6126 96.3904 -66.0435 108.576 -45.7952 114.378C-25.5468 120.181 -8.77013 99.872 -8.77013 99.872C-8.77013 99.872 2.80122 116.699 21.3127 116.699C39.8242 116.699 54.8667 105.094 54.8667 105.094C54.8667 105.094 69.9081 125.772 92.4702 116.699C104.65 111.802 120.818 99.872 116.189 75.5011C111.561 51.1301 86.6851 47.6486 86.6851 47.6486C86.6851 47.6486 90.1562 1.80812 54.8667 0.0673566C19.5772 -1.67341 10.8994 31.4014 10.8994 31.4014C10.8994 31.4014 -8.77013 13.4133 -31.3323 26.179Z"
              fill="#00C6A2" fill-opacity="0.5"/>
    </g>
    <defs>
        <linearGradient id="paint0_linear" x1="375" y1="64.7443" x2="-71.1299" y2="107.544"
                        gradientUnits="userSpaceOnUse">
            <stop stop-color="#8FD5F2"/>
            <stop offset="1" stop-color="#00C6A2"/>
        </linearGradient>
        <linearGradient id="paint1_linear" x1="375" y1="64.7443" x2="-71.1299" y2="107.544"
                        gradientUnits="userSpaceOnUse">
            <stop stop-color="#8FD5F2"/>
            <stop offset="1" stop-color="#00C6A2"/>
        </linearGradient>
        <linearGradient id="paint2_linear" x1="106.376" y1="749.645" x2="104.281" y2="855.232"
                        gradientUnits="userSpaceOnUse">
            <stop stop-color="#67DD93"/>
            <stop offset="0.536458" stop-color="#55CB81"/>
        </linearGradient>
        <linearGradient id="paint3_linear" x1="11.546" y1="659.382" x2="-0.526066" y2="846.802"
                        gradientUnits="userSpaceOnUse">
            <stop stop-color="#80F6AC"/>
            <stop offset="0.743716" stop-color="#55CB81"/>
        </linearGradient>
        <linearGradient id="paint4_linear" x1="140.978" y1="813.088" x2="127.504" y2="846.37"
                        gradientUnits="userSpaceOnUse">
            <stop stop-color="#3BB18A"/>
            <stop offset="1" stop-color="#118760"/>
        </linearGradient>
        <linearGradient id="paint5_linear" x1="89.3572" y1="740.51" x2="86.2722" y2="895.98"
                        gradientUnits="userSpaceOnUse">
            <stop stop-color="#3BB18A"/>
            <stop offset="1" stop-color="#1B916A"/>
        </linearGradient>
        <linearGradient id="paint6_linear" x1="73.527" y1="743.331" x2="-51.1005" y2="827.949"
                        gradientUnits="userSpaceOnUse">
            <stop stop-color="#3BB18A"/>
            <stop offset="1" stop-color="#269C75"/>
        </linearGradient>
    </defs>
</svg>
