<svg width="1920" height="860" viewBox="0 0 1920 860" fill="none" xmlns="http://www.w3.org/2000/svg">
<mask id="mask0" mask-type="alpha" maskUnits="userSpaceOnUse" x="0" y="-72" width="1921" height="932">
<path d="M0.000244141 -72H1920V804.03C1920 834.406 1895.38 859.03 1865 859.03H0.000244141V-72Z" fill="url(#paint0_linear)"/>
</mask>
<g mask="url(#mask0)">
<path d="M0.000244141 -72H1920V804.03C1920 834.406 1895.38 859.03 1865 859.03H55.0002C24.6245 859.03 0.000244141 834.406 0.000244141 804.03V-72Z" fill="url(#paint1_linear)"/>
<path d="M1424.4 188.118C1406.21 198.417 1412.74 211.056 1412.74 211.056C1412.74 211.056 1394.55 211.056 1390.82 227.908C1387.09 244.76 1396.42 254.59 1412.74 259.271C1429.07 263.952 1442.59 247.568 1442.59 247.568C1442.59 247.568 1451.92 261.143 1466.85 261.143C1481.77 261.143 1493.9 251.781 1493.9 251.781C1493.9 251.781 1506.03 268.462 1524.22 261.143C1534.04 257.192 1547.08 247.568 1543.35 227.908C1539.61 208.247 1519.56 205.438 1519.56 205.438C1519.56 205.438 1522.36 168.458 1493.9 167.054C1465.45 165.649 1458.45 192.331 1458.45 192.331C1458.45 192.331 1442.59 177.82 1424.4 188.118Z" fill="white"/>
<path d="M-56.1552 86.1039C-73.9847 96.0745 -74.8545 114.282 -74.8545 114.282C-74.8545 114.282 -105.69 117.316 -115.297 138.991C-124.905 160.667 -123.125 173.672 -116.602 186.677C-110.078 199.682 -97.4668 205.751 -82.2472 210.953C-67.0276 216.155 -46.1533 208.785 -46.1533 208.785C-46.1533 208.785 -28.7588 227.426 -4.84111 226.993C19.0766 226.559 34.2968 208.785 34.2968 208.785C34.2968 208.785 60.6574 219.667 77.3485 216.155C94.6783 212.509 106.058 205.964 114.747 190.578C124.411 173.465 124.425 157.397 114.747 140.292C105.089 123.222 71.6953 114.282 71.6953 114.282C71.6953 114.282 71.6953 99.5426 63.4328 82.2024C55.1704 64.8622 36.0363 56.1922 12.9884 57.0592C-10.0595 57.9262 -21.366 82.2024 -21.366 82.2024C-21.366 82.2024 -38.3257 76.1334 -56.1552 86.1039Z" fill="white"/>
<path d="M1798.6 203.395C1777.01 212.245 1757.22 246.518 1757.22 246.518C1757.22 246.518 1735.04 232.855 1704.32 246.518C1673.6 260.18 1669.34 291.775 1669.34 291.775C1669.34 291.775 1644.37 289.101 1631.37 296.471C1618.46 303.787 1611.46 311.949 1607.9 326.358C1602.55 348.018 1607.9 363.929 1631.37 378.446C1654.83 392.962 1682.14 382.715 1682.14 382.715C1682.14 382.715 1712.85 400.22 1735.04 400.647C1757.22 401.074 1782.39 388.693 1782.39 388.693C1782.39 388.693 1809.7 409.613 1835.72 404.063C1861.74 398.513 1874.97 378.446 1874.97 378.446C1874.97 378.446 1919.77 389.12 1935.55 362.649C1951.34 336.178 1953.97 323.506 1944.51 301.167C1935.56 280.043 1898.01 265.303 1898.01 265.303C1898.01 265.303 1891.61 232.549 1877.53 218.339C1855.44 196.046 1827.63 191.497 1798.6 203.395Z" fill="white"/>
<mask id="mask1" mask-type="alpha" maskUnits="userSpaceOnUse" x="1606" y="197" width="344" height="208">
<path d="M1798.6 203.395C1777.01 212.245 1757.22 246.518 1757.22 246.518C1757.22 246.518 1735.04 232.855 1704.32 246.518C1673.6 260.18 1669.34 291.775 1669.34 291.775C1669.34 291.775 1644.37 289.101 1631.37 296.471C1618.46 303.787 1611.46 311.949 1607.9 326.358C1602.55 348.018 1607.9 363.929 1631.37 378.446C1654.83 392.962 1682.14 382.715 1682.14 382.715C1682.14 382.715 1712.85 400.22 1735.04 400.647C1757.22 401.074 1782.39 388.693 1782.39 388.693C1782.39 388.693 1809.7 409.613 1835.72 404.063C1861.74 398.513 1874.97 378.446 1874.97 378.446C1874.97 378.446 1919.77 389.12 1935.55 362.649C1951.34 336.178 1953.97 323.506 1944.51 301.167C1935.56 280.043 1898.01 265.303 1898.01 265.303C1898.01 265.303 1891.61 232.549 1877.53 218.339C1855.44 196.046 1827.63 191.497 1798.6 203.395Z" fill="url(#paint2_linear)"/>
</mask>
<g mask="url(#mask1)">
<path d="M1838.72 259.026C1813.87 267.365 1791.08 299.661 1791.08 299.661C1791.08 299.661 1765.54 286.787 1730.18 299.661C1694.82 312.535 1689.91 342.307 1689.91 342.307C1689.91 342.307 1661.17 339.788 1646.2 346.732C1631.35 353.626 1623.29 361.317 1619.19 374.895C1613.03 395.306 1619.19 410.299 1646.2 423.978C1673.21 437.657 1704.65 428.001 1704.65 428.001C1704.65 428.001 1740.01 444.496 1765.54 444.898C1791.08 445.301 1820.06 433.634 1820.06 433.634C1820.06 433.634 1851.49 453.347 1881.45 448.117C1911.4 442.887 1926.63 423.978 1926.63 423.978C1926.63 423.978 1978.2 434.036 1996.37 409.092C2014.54 384.148 2017.58 372.208 2006.68 351.158C1996.38 331.252 1953.15 317.363 1953.15 317.363C1953.15 317.363 1945.78 286.498 1929.58 273.108C1904.15 252.101 1872.14 247.815 1838.72 259.026Z" fill="url(#paint3_linear)"/>
</g>
<path d="M1002 415.871L1021.67 417.095C1021.67 417.095 1023.85 413.172 1026.97 410.45L1034.97 403.48C1034.97 403.48 1027.59 411.827 1026.17 415.096C1024 420.103 1024.98 424.389 1024.98 424.389C1024.98 424.389 1021.32 420.511 1017.17 419.033C1012.25 417.279 1002 415.871 1002 415.871Z" fill="white" fill-opacity="0.3"/>
<path d="M931.659 397.691L955.083 402.626C955.083 402.626 958.471 397.208 962.755 393.705L973.726 384.735C973.726 384.735 963.225 395.828 960.885 400.406C957.301 407.42 957.636 413.874 957.636 413.874C957.636 413.874 953.995 407.591 949.292 404.758C943.71 401.394 931.659 397.691 931.659 397.691Z" fill="white" fill-opacity="0.1"/>
<path d="M994 370.344L1013.69 371.925C1013.69 371.925 1015.88 366.858 1019 363.344L1027 354.344C1027 354.344 1019.61 365.123 1018.2 369.344C1016.03 375.809 1017 381.344 1017 381.344C1017 381.344 1013.34 376.336 1009.19 374.427C1004.26 372.162 994 370.344 994 370.344Z" fill="white" fill-opacity="0.3"/>
<path d="M817 311.389L840.273 313.257C840.273 313.257 842.853 307.27 846.545 303.116L856 292.48C856 292.48 847.272 305.219 845.597 310.207C843.031 317.848 844.182 324.389 844.182 324.389C844.182 324.389 839.858 318.47 834.949 316.215C829.123 313.538 817 311.389 817 311.389Z" fill="white" fill-opacity="0.2"/>
<path d="M942 222.426L965.273 224.002C965.273 224.002 967.853 218.953 971.545 215.45L981 206.48C981 206.48 972.272 217.223 970.597 221.429C968.031 227.873 969.182 233.389 969.182 233.389C969.182 233.389 964.858 228.398 959.949 226.496C954.123 224.238 942 222.426 942 222.426Z" fill="white" fill-opacity="0.2"/>
<path d="M741 190.426L764.273 192.002C764.273 192.002 766.853 186.953 770.545 183.45L780 174.48C780 174.48 771.272 185.223 769.597 189.429C767.031 195.873 768.182 201.389 768.182 201.389C768.182 201.389 763.858 196.398 758.949 194.496C753.123 192.238 741 190.426 741 190.426Z" fill="white" fill-opacity="0.2"/>
<path d="M645 138.404L658.725 139.333C658.725 139.333 660.247 136.356 662.424 134.29L668 129C668 129 662.852 135.335 661.865 137.816C660.351 141.616 661.03 144.869 661.03 144.869C661.03 144.869 658.48 141.926 655.585 140.804C652.149 139.473 645 138.404 645 138.404Z" fill="white" fill-opacity="0.2"/>
<g filter="url(#filter0_d)">
<circle cx="1641.5" cy="162.5" r="46.5" fill="#FFBB4B"/>
</g>
<path d="M746.222 730.164C778.597 698.688 782.492 666.18 820.145 641.257C854.093 618.786 878.675 613.569 919.042 608.291C986.03 599.532 1021.46 636.708 1088.86 641.257C1125.45 643.725 1146.2 638.535 1182.77 641.257C1243.88 645.805 1276.09 681.867 1336.61 672.224C1414.44 659.822 1433.48 595.938 1500.44 554.347C1532.95 534.15 1549.45 518.671 1585.35 505.398C1620.01 492.584 1641.43 484.321 1678.25 487.417C1727.63 491.568 1755.72 509.751 1792.13 543.359C1834.07 582.069 1838.21 619.926 1861.06 672.224C1891.69 742.322 1920 859.03 1920 859.03H531.446C531.446 859.03 676.09 798.349 746.222 730.164Z" fill="url(#paint4_linear)"/>
<path d="M617.977 516.714C607.764 521.5 602.477 533.214 602.477 533.214C602.477 533.214 574.978 521.214 563.977 547.714C552.976 574.214 591.477 580.714 591.477 580.714C591.477 580.714 595.977 600.214 627.977 608.214C659.977 616.214 673.977 603.214 673.977 603.214C673.977 603.214 679.954 611.429 693.977 611.214C708 611 714.977 603.214 714.977 603.214C714.977 603.214 729.477 615.938 749.477 613.214C769.477 610.491 780.477 593.714 780.477 593.714C780.477 593.714 797.977 598.928 812.477 590.714C826.977 582.5 829.71 569.307 826.977 559.214C820.477 535.214 784.977 536.214 784.977 536.214C784.977 536.214 780.477 524.908 769.477 516.714C758.477 508.521 743.977 507.214 743.977 507.214C743.977 507.214 726.477 467.214 687.477 473.714C648.477 480.214 643.977 516.714 643.977 516.714C643.977 516.714 630.5 510.846 617.977 516.714Z" fill="white"/>
<mask id="mask2" mask-type="alpha" maskUnits="userSpaceOnUse" x="562" y="473" width="266" height="141">
<path d="M617.977 516.714C607.764 521.5 602.477 533.214 602.477 533.214C602.477 533.214 574.978 521.214 563.977 547.714C552.976 574.214 591.477 580.714 591.477 580.714C591.477 580.714 595.977 600.214 627.977 608.214C659.977 616.214 673.977 603.214 673.977 603.214C673.977 603.214 679.954 611.429 693.977 611.214C708 611 714.977 603.214 714.977 603.214C714.977 603.214 729.477 615.938 749.477 613.214C769.477 610.491 780.477 593.714 780.477 593.714C780.477 593.714 797.977 598.928 812.477 590.714C826.977 582.5 829.71 569.307 826.977 559.214C820.477 535.214 784.977 536.214 784.977 536.214C784.977 536.214 780.477 524.908 769.477 516.714C758.477 508.521 743.977 507.214 743.977 507.214C743.977 507.214 726.477 467.214 687.477 473.714C648.477 480.214 643.977 516.714 643.977 516.714C643.977 516.714 630.5 510.846 617.977 516.714Z" fill="url(#paint5_linear)"/>
</mask>
<g mask="url(#mask2)">
<path d="M644.938 559.167C630.536 564.988 623.08 579.235 623.08 579.235C623.08 579.235 584.301 564.64 568.788 596.871C553.274 629.102 607.568 637.007 607.568 637.007C607.568 637.007 613.914 660.724 659.04 670.454C704.167 680.184 723.909 664.373 723.909 664.373C723.909 664.373 732.338 674.363 752.113 674.103C771.889 673.842 781.728 664.373 781.728 664.373C781.728 664.373 802.175 679.847 830.379 676.535C858.583 673.223 874.096 652.818 874.096 652.818C874.096 652.818 898.774 659.16 919.222 649.169C939.67 639.179 943.524 623.133 939.67 610.858C930.504 581.668 880.441 582.884 880.441 582.884C880.441 582.884 874.096 569.132 858.583 559.167C843.071 549.202 822.623 547.613 822.623 547.613C822.623 547.613 797.945 498.963 742.947 506.869C687.949 514.774 681.603 559.167 681.603 559.167C681.603 559.167 662.599 552.03 644.938 559.167Z" fill="url(#paint6_linear)"/>
</g>
<path d="M410.376 785.109L419.966 824.495L412.175 833.583L421.165 828.13L429.556 859.032H393.594L398.389 837.219L404.383 856.003L401.386 828.13L410.376 785.109Z" fill="#269C75"/>
<path d="M457.777 839.055L461.523 859.034H453.531L457.777 839.055Z" fill="#55CB81"/>
<path d="M1467.13 736.802L1467.56 860.282L1462.98 860.023L1462.71 739.981L1467.13 736.802Z" fill="#FFFEF5"/>
<path d="M1459 744.918L1456.28 859.647L1463.25 860.042L1462.71 739.984L1459 744.918Z" fill="#94967E"/>
<path d="M1442.89 750.866C1451.34 741.057 1461.2 736.471 1461.2 736.471L1424.6 771.092C1424.6 771.092 1434.45 760.676 1442.89 750.866Z" fill="#B8B8AD"/>
<path d="M1482.13 736.286C1478.51 734.448 1472.39 732.648 1472.39 732.648C1472.39 732.648 1471.88 731.071 1471.16 730.177C1470.38 729.219 1468.54 727.971 1468.54 727.971C1468.54 727.971 1466.22 709.41 1464.43 697.56C1460.5 671.555 1452.06 631.359 1452.06 631.359C1452.06 631.359 1457.79 671.634 1461.7 697.406C1463.62 710.111 1466.71 729.925 1466.71 729.925C1466.71 729.925 1465.79 734.044 1468.8 735.53C1469.99 736.124 1472.19 736.066 1472.19 736.066C1472.19 736.066 1479.86 741.443 1488.78 745.922C1496.08 749.586 1506.13 753.472 1513.54 756.926C1523.23 761.446 1556.89 778.586 1556.89 778.586L1556.3 776.839C1556.3 776.839 1511.8 751.341 1482.13 736.286Z" fill="#FFFDF7"/>
<path d="M1511.94 754.776C1529.63 763.821 1556.89 778.584 1556.89 778.584C1556.89 778.584 1514.83 758.369 1496.03 751.132C1482.97 745.591 1470.82 738.159 1469.69 737.979C1468.57 737.803 1467.86 737.684 1466.97 737.483C1463.13 738.637 1461.69 739.927 1461.69 739.927C1461.69 739.927 1459.89 740.291 1456.2 739.959C1454.26 739.785 1450.77 738.933 1450.85 737.598L1450.98 735.205C1451.06 733.87 1451 734.16 1451.08 733.496C1451.29 731.725 1451.25 730.419 1451.25 730.419C1451.25 730.419 1452.14 729.534 1452.62 730.497C1452.84 730.947 1452.36 733.225 1452.79 733.593C1453.43 734.148 1454.8 734.393 1454.8 734.393L1462.89 730.736L1463.15 726.292C1463.15 726.292 1457.82 711.244 1457.59 703.344C1457.36 695.443 1452.84 635.859 1452.84 635.859L1463.88 701.299L1467.58 732.716C1467.58 732.716 1470.83 734.366 1472.92 735.419C1488.1 743.093 1496.8 747.03 1511.94 754.776Z" fill="#64655D"/>
<path d="M1438.76 757.146C1424.84 770.54 1403.86 792.205 1403.86 792.205C1403.86 792.205 1429.64 773.716 1444.44 759.868C1453.23 751.642 1465.92 737.765 1465.92 737.765C1465.92 737.765 1465.64 736.235 1464.65 735.978C1463.66 735.721 1460.86 736.449 1460.86 736.449C1460.86 736.449 1447.28 748.95 1438.76 757.146Z" fill="#FFFEF5"/>
<path d="M1296 375.056L1313.85 368.217L1325.17 858.004L1296.45 857.503L1296 375.056Z" fill="white"/>
<path d="M1296 375.056L1308.89 368.131L1314.65 857.821L1293.96 857.46L1296 375.056Z" fill="#777C69"/>
<path d="M1317.95 367.158C1319.74 370.192 1317.79 376.18 1317.79 376.18C1317.79 376.18 1316.6 369.778 1313.42 368.207C1311.05 367.038 1306.65 368.089 1306.65 368.089C1306.65 368.089 1279.71 388.421 1262.82 401.918C1236.32 423.094 1196.41 457.916 1196.41 457.916C1196.41 457.916 1235.27 422.017 1261.34 400.389C1279.33 385.469 1308.24 363.228 1308.24 363.228C1308.24 363.228 1315.87 363.636 1317.95 367.158Z" fill="#5A6364"/>
<path d="M1145.25 502.144C1145.25 502.144 1213.97 440.651 1259.78 403.368C1278.96 387.763 1309.35 363.998 1309.35 363.998C1309.35 363.998 1315.67 364.288 1317.57 367.149C1319.44 369.96 1317.42 375.795 1317.42 375.795C1317.42 375.795 1294.76 402.85 1272.66 419.386C1250.57 435.921 1150.04 507.492 1150.04 507.492L1145.25 502.144Z" fill="#FFFFFD"/>
<path d="M1148.85 503.771C1150.18 505.265 1150.73 506.941 1150.08 507.514C1149.44 508.088 1147.84 507.341 1146.51 505.847C1145.18 504.354 1144.63 502.678 1145.27 502.104C1145.92 501.531 1147.52 502.277 1148.85 503.771Z" fill="#657576"/>
<path d="M1274.96 373.929L1309.48 356.858L1312.04 361.039L1273.16 391.195L1266.45 387.694L1265.08 379.773L1266.59 379.423L1266.81 367.018L1264.93 366.986L1264.96 365.482L1268.72 365.547L1274.96 373.929Z" fill="#5A6364"/>
<path d="M1319.88 363.811C1318.69 360.497 1316.84 366.014 1316.84 366.014C1316.84 366.014 1320.2 367.201 1317.8 375.431C1317.36 376.928 1324.89 378.563 1324.89 378.563C1324.89 378.563 1330.84 382.431 1334.99 385.136C1348.5 393.926 1518.42 493.25 1518.42 493.25C1518.42 493.25 1415.75 429.789 1385.97 411.972C1377.85 407.112 1329.9 371.51 1329.9 371.51C1329.9 371.51 1322.75 371.761 1319.88 363.811Z" fill="#5A6364"/>
<path d="M1557.56 513.124C1557.56 513.124 1467.54 449.021 1407.38 409.986C1382.2 393.648 1332.28 364.265 1332.28 364.265C1332.28 364.265 1334.93 368.527 1331.08 368.756C1326.18 369.047 1328.03 371.102 1328.03 371.102C1328.03 371.102 1364.38 399.562 1392.66 416.601C1420.94 433.64 1555.24 516.83 1555.24 516.83L1557.56 513.124Z" fill="#FEFFFD"/>
<path d="M1294.36 167.454C1294.36 167.454 1294.17 209.988 1295.17 229.137C1296.01 245.321 1299.25 296.518 1299.25 296.518L1302.64 275.143C1302.64 275.143 1301.17 186.984 1301.33 177.728C1301.49 168.473 1289.28 71.1016 1289.28 71.1016L1294.36 167.454Z" fill="#FEFFFD"/>
<path d="M1289.27 71.0991C1289.27 71.0991 1298.73 156.697 1304.58 228.17C1307.03 258.086 1319.6 358.539 1319.6 358.539C1319.6 358.539 1318.83 355.739 1322.31 354.074C1323.83 353.348 1324.96 353.366 1324.96 353.366C1324.96 353.366 1317.89 275.801 1314.1 243.002C1310.31 210.203 1295.23 74.5871 1295.23 74.5871L1289.27 71.0991Z" fill="#FEFFFD"/>
<path d="M1298.98 182.948C1298.98 182.948 1300.14 205.595 1299.94 235.609C1299.83 251.024 1297.85 289.344 1298.84 298.386C1299.84 307.428 1298.24 311.536 1307.14 340.27C1308.18 343.636 1309.11 356.474 1309.11 356.474L1308.98 363.616L1317.58 366.774L1319.53 362.672L1319.64 356.657C1319.64 356.657 1311.1 277.185 1307.31 244.386C1303.52 211.587 1289.27 71.0975 1289.27 71.0975L1298.98 182.948Z" fill="#5A6364"/>
<path d="M1332.49 359.698C1334.61 364.625 1333.57 369.801 1330.18 371.259C1326.79 372.717 1322.32 369.904 1320.2 364.977C1318.09 360.05 1319.12 354.874 1322.52 353.417C1325.91 351.959 1330.38 354.771 1332.49 359.698Z" fill="#FFFFFD"/>
<path d="M1224.26 585.592C1224.26 585.592 1155.36 589.433 1103.77 595.268C1101.06 595.575 1096.05 597.559 1092.55 599.012C1089.23 600.385 1084.69 601.785 1084.69 601.785L1085.78 607.066C1085.78 607.066 1115.28 605.366 1134.04 602.962C1145.31 601.518 1151.55 600.171 1162.79 598.526C1186.86 595.005 1224.56 590.539 1224.56 590.539L1224.26 585.592Z" fill="#FEFCFC"/>
<path d="M1083.26 609.512L1085.78 607.065L1148.81 600.91C1148.81 600.91 1122.23 606.534 1104.95 608.182C1096.5 608.987 1083.26 609.512 1083.26 609.512Z" fill="#7C744D"/>
<path d="M1067.07 862.588L1072.7 861.097C1072.7 861.097 1074.4 841.924 1074.26 830.445C1074.1 817.331 1074.28 810.338 1074.14 797.224C1074.14 797.224 1074.7 758.94 1074.47 734.182L1073.45 673.897L1073.46 611.639L1070.93 614.086C1070.93 614.086 1068.25 688.73 1067.34 736.147C1066.4 785.022 1067.07 862.588 1067.07 862.588Z" fill="#989B79"/>
<path d="M1072.71 861.097L1081.84 860.537C1081.84 860.537 1081.71 842.622 1081.57 831.144C1081.4 818.03 1081.17 810.679 1081.03 797.565C1081.03 797.565 1081.19 758.924 1080.97 734.166L1077.88 609.076L1073.46 611.639C1073.46 611.639 1072.8 688.072 1073.09 736.558C1073.39 785.441 1072.71 861.097 1072.71 861.097Z" fill="#FFFEFE"/>
<path d="M1079.67 600.946L1077.5 602.988C1077.5 602.988 1073.22 599.261 1069.71 594.299C1063.71 583.591 1053.77 571.596 1048.8 564.643C1027.08 534.273 991.141 477.656 991.141 477.656C991.141 477.656 1034.06 535.132 1061.11 572.292C1068.79 582.844 1079.67 600.946 1079.67 600.946Z" fill="#FEFFFE"/>
<path d="M1039.4 554.528C1044.26 562.716 1054.35 580.347 1054.35 580.347L1056.41 582.894L1055.48 586.389C1055.48 586.389 1031.46 545.229 1015.54 520.469C1007.17 507.453 996.597 491.839 994.391 487.008C992.185 482.178 990.406 478.086 990.406 478.086C990.406 478.086 999.47 489.983 1004.98 497.818C1020.97 520.528 1025.23 530.645 1039.4 554.528Z" fill="#FDFDF1"/>
<path d="M1071.85 604.1L1077.51 602.989L1012.6 509.953C1012.6 509.953 1034.12 545.523 1047.51 568.543C1050.36 573.434 1053.67 578.86 1054.77 581.084C1055.88 583.308 1054.53 585.3 1055.48 586.388C1056.44 587.475 1062.86 592.771 1066.86 597.531C1068.93 599.996 1071.85 604.1 1071.85 604.1Z" fill="#635F42"/>
<path d="M1034.53 749.237L1031.82 748.639C1031.82 748.639 1047.07 691.713 1059.37 656.047C1065.63 637.898 1075.65 609.98 1075.65 609.98L1079.79 608.962L1083.26 609.513C1083.26 609.513 1079.33 617.898 1077.91 622.063C1073.94 633.743 1073.49 640.057 1070.2 651.946C1066.93 663.757 1059.67 682.085 1054.9 695.28C1043.92 725.654 1034.53 749.237 1034.53 749.237Z" fill="#FEFFFE"/>
<path d="M1071.15 611.402L1075.65 609.981L1041.56 714.432C1041.56 714.432 1052.31 673.702 1060.41 647.964C1063.91 636.808 1067.33 630.202 1069.69 618.749C1070.34 615.601 1071.15 611.402 1071.15 611.402Z" fill="#8A8164"/>
<path d="M1085.99 604.375C1086.19 607.527 1084.13 610.218 1081.4 610.386C1078.66 610.553 1076.29 608.134 1076.1 604.981C1075.91 601.829 1077.96 599.138 1080.7 598.97C1083.43 598.803 1085.8 601.222 1085.99 604.375Z" fill="#FFFDFD"/>
<path d="M1060.47 611.671L1071.85 604.099L1077.51 602.988C1077.51 602.988 1076.95 604.691 1077.32 606.055C1077.67 607.381 1079.03 609.006 1079.03 609.006L1072.08 614.015L1065.13 619.025C1065.13 619.025 1061.54 618.91 1060.44 617.402C1059.22 615.718 1060.47 611.671 1060.47 611.671Z" fill="#70714F"/>
<path d="M267.496 582.4C256.67 561.439 247.574 524.914 247.574 524.914C247.574 524.914 231.8 573.814 209.181 593.654C196.306 604.948 171.61 615.248 171.61 615.248C171.61 615.248 178.565 617.678 183.186 617.96C192.647 618.537 206.555 610.977 206.555 610.977C206.555 610.977 191.871 627.426 180.56 635.283C167.965 644.032 145.398 651.961 145.398 651.961C145.398 651.961 157.643 658.65 166.184 659.82C177.137 661.321 194.158 655.411 194.158 655.411C194.158 655.411 173.243 671.185 158.867 679.533C148.169 685.745 130.721 693.867 130.721 693.867C130.721 693.867 142.604 702.927 151.463 704.208C160.637 705.533 174.789 699.706 174.789 699.706C174.789 699.706 166.264 716.21 158.09 724.197C146.111 735.901 120.561 743.31 120.561 743.31C120.561 743.31 143.162 751.173 157.658 749.01C166.186 747.738 178.703 741.981 178.703 741.981C178.703 741.981 171.99 763.335 161.917 771.435C147.342 783.153 115.352 775.475 115.352 775.475C115.352 775.475 141.131 801.161 161.226 811.136C216.984 838.816 266.258 825.926 317.361 789.412C337.632 774.929 362.337 743.143 362.337 743.143C362.337 743.143 322.507 751.654 304.325 737.027C295.041 729.559 286.165 711.845 286.165 711.845C286.165 711.845 312.46 723.635 327.91 717.638C337.636 713.862 349.127 700.683 349.127 700.683C349.127 700.683 325.457 703.343 311.988 697.464C300.559 692.476 286.77 677.106 286.77 677.106C286.77 677.106 298.014 680.438 305.318 679.957C313.913 679.39 326.363 672.928 326.363 672.928C326.363 672.928 298.621 663.954 287.245 649.811C279.835 640.599 271.496 619.713 271.496 619.713C271.496 619.713 281.822 629.42 287.634 627.479C291.309 626.252 299.383 620.266 299.383 620.266C299.383 620.266 276.262 599.374 267.496 582.4Z" fill="url(#paint7_linear)"/>
<path d="M642.28 843.874C650.494 854.565 668.133 858.756 668.133 858.756C668.133 858.756 628.373 893.623 600.261 900.517C563.961 909.419 507.336 881.43 507.336 881.43C507.336 881.43 528.427 883.703 539.183 873.44C546.685 866.282 554.549 847.881 554.549 847.881C554.549 847.881 544.773 851.702 539.633 847.585C535.998 844.674 532.375 835.945 532.375 835.945C538.967 833.832 543.024 834.523 549.255 830.533C557.91 824.99 568.3 807.92 568.3 807.92C568.3 807.92 561.433 808.628 557.113 807.698C551.872 806.57 544.162 801.693 544.162 801.693C544.162 801.693 553.767 798.085 559.228 793.371C565.121 788.284 572.579 776.393 572.579 776.393C572.579 776.393 565.737 776.808 561.392 776.171C556.988 775.524 550.255 773.076 550.255 773.076C550.255 773.076 565.702 760.206 575.094 739.083C589.251 707.241 603.047 633.305 603.047 633.305C603.047 633.305 605.076 687.927 614.648 716.877C620.762 735.369 636.322 757.541 636.322 757.541C636.322 757.541 631.962 762.113 628.764 763.138C625.904 764.055 621.306 762.99 621.306 762.99C621.306 762.99 632.814 781.978 641.315 792.126C653.09 806.182 674.376 821.52 674.376 821.52C674.376 821.52 659.501 825.652 650.088 823.912C641.856 822.391 633.407 817.833 633.407 817.833C633.407 817.833 635.535 835.096 642.28 843.874Z" fill="url(#paint8_linear)"/>
<path d="M4.12019 811.416C-9.70361 825.25 -39.2247 830.462 -39.2247 830.462C-39.2247 830.462 12.5392 848.595 46.6347 853.764C90.8013 860.46 118.825 871.992 160.573 853.776C178.621 845.902 203.76 825.64 203.76 825.64C203.76 825.64 166.134 809.809 149.935 788.063C138.211 772.326 128.223 740.756 128.223 740.756C128.223 740.756 136.076 746.053 141.629 747.309C149.683 749.132 162.471 744.623 162.471 744.623C162.471 744.623 142.952 720.133 133.245 702.011C126.072 688.619 117.426 665.953 117.426 665.953C117.426 665.953 126.368 673.717 132.81 677.014C143.255 682.359 161.403 683.266 161.403 683.266C161.403 683.266 137.551 658.389 126.443 638.495C117.763 622.95 108.606 595.657 108.606 595.657C108.606 595.657 112.907 606.66 118.335 609.103C122.505 610.98 129.725 608.877 129.725 608.877C129.725 608.877 116.602 582.018 109.951 563.805C100.634 538.293 91.6793 495.969 91.6793 495.969C91.6793 495.969 82.9026 531.724 71.7471 550.923C62.7836 566.349 43.8657 585.575 43.8657 585.575C43.8657 585.575 51.8644 589.153 57.233 589.856C61.6576 590.436 68.6229 589.63 68.6229 589.63C68.6229 589.63 58.484 607.735 50.1144 617.277C40.4549 628.288 22.0351 640.566 22.0351 640.566C22.0351 640.566 34.7677 642.188 42.9562 642.425C49.6284 642.617 60.041 642.085 60.041 642.085C60.041 642.085 51.0883 658.844 43.3913 667.422C32.2399 679.849 9.61711 690.824 9.61711 690.824C9.61711 690.824 22.2893 695.119 30.5777 694.955C38.8661 694.79 51.3801 689.996 51.3801 689.996C51.3801 689.996 31.3914 720.81 14.1653 733.926C-2.42675 746.559 -32.9367 755.32 -32.9367 755.32C-32.9367 755.32 -12.2338 774.554 3.52688 777.329C11.6014 778.751 24.4084 776.914 24.4084 776.914C24.4084 776.914 14.6796 800.848 4.12019 811.416Z" fill="url(#paint9_linear)"/>
<path d="M444.543 802.654C454.794 815.238 476.784 820.192 476.784 820.192C476.784 820.192 427.27 861.14 392.24 869.209C347.007 879.627 276.396 846.632 276.396 846.632C276.396 846.632 302.686 849.335 316.079 837.281C325.422 828.872 335.2 807.243 335.2 807.243C335.2 807.243 323.02 811.724 316.609 806.874C312.075 803.446 307.548 793.176 307.548 793.176C315.762 790.699 320.82 791.519 328.581 786.834C339.362 780.327 352.291 760.268 352.291 760.268C352.291 760.268 343.732 761.09 338.347 759.991C331.813 758.657 322.197 752.911 322.197 752.911C322.197 752.911 334.164 748.681 340.965 743.145C348.304 737.17 357.586 723.197 357.586 723.197C357.586 723.197 349.058 723.676 343.642 722.92C338.152 722.153 329.757 719.265 329.757 719.265C329.757 719.265 348.994 704.151 360.674 679.322C378.28 641.896 395.385 554.964 395.385 554.964C395.385 554.964 397.982 619.205 409.947 653.263C417.59 675.018 437.011 701.115 437.011 701.115C437.011 701.115 431.582 706.486 427.598 707.688C424.034 708.762 418.302 707.503 418.302 707.503C418.302 707.503 432.669 729.849 443.277 741.795C457.971 758.342 484.52 776.41 484.52 776.41C484.52 776.41 465.984 781.248 454.25 779.189C443.989 777.388 433.452 772.017 433.452 772.017C433.452 772.017 436.125 792.321 444.543 802.654Z" fill="url(#paint10_linear)"/>
<path d="M290.191 832.593C277.131 847.243 250.757 865.007 250.757 865.007C250.757 865.007 317.748 871.913 360.87 871.86C373.558 871.844 393.357 871.215 393.357 871.215C393.357 871.215 381.731 860.991 375.549 853.493C362.795 838.025 352.272 808.767 352.272 808.767C352.272 808.767 360.05 815.929 364.964 819.813C371.716 825.151 382.575 826.241 382.575 826.241C382.575 826.241 374.651 809.882 369.608 799.386C362.475 784.543 351.447 761.337 351.447 761.337C351.447 761.337 361.081 771.034 369.175 774.541C375.567 777.311 386.747 778.711 386.747 778.711C386.747 778.711 378.751 766.558 373.898 758.632C367.575 748.302 358.433 731.826 358.433 731.826C358.433 731.826 363.893 737.1 368.546 738.403C373.2 739.706 381.041 738.155 381.041 738.155C381.041 738.155 368.744 723.943 363.116 713.658C357.656 703.679 350.071 682.285 350.071 682.285C355.957 683.933 361.835 689.324 367.721 690.972C367.721 690.972 354.082 672.524 349.638 657.44C342.506 633.229 340.962 589.83 340.962 589.83C340.962 589.83 340.532 651.947 325.12 685.039C317.634 701.113 300.72 719.415 300.72 719.415L313.176 716.908L298.575 739.792L313.49 734.977C313.49 734.977 304.268 760.691 294.167 773.77C284.19 786.688 256.957 790.324 256.957 790.324C256.957 790.324 281.757 797.28 294.56 796.356C302.347 795.795 314.552 795.96 314.552 795.96C314.552 795.96 301.781 819.592 290.191 832.593Z" fill="url(#paint11_linear)"/>
<path d="M691.362 862.173C699.633 869.632 717.292 872.645 717.292 872.645C717.292 872.645 677.723 896.567 649.651 901.174C613.402 907.123 556.634 887.38 556.634 887.38C556.634 887.38 577.735 889.084 588.434 882.036C595.898 877.121 603.662 864.415 603.662 864.415C603.662 864.415 593.908 867.004 588.746 864.119C585.096 862.079 581.427 856.008 581.427 856.008C588.007 854.583 592.067 855.088 598.276 852.36C606.901 848.571 617.199 836.803 617.199 836.803C617.199 836.803 610.336 837.252 606.012 836.581C600.765 835.768 593.029 832.341 593.029 832.341C593.029 832.341 602.614 829.898 608.049 826.664C613.914 823.175 621.309 814.979 621.309 814.979C621.309 814.979 614.469 815.225 610.122 814.757C605.714 814.282 598.969 812.544 598.969 812.544C598.969 812.544 614.346 803.718 623.624 789.136C637.609 767.153 651.009 715.995 651.009 715.995C651.009 715.995 653.33 753.864 663.055 773.986C669.267 786.84 684.944 802.301 684.944 802.301C684.944 802.301 680.609 805.444 677.417 806.135C674.562 806.753 669.959 805.987 669.959 805.987C669.959 805.987 681.567 819.217 690.122 826.302C701.971 836.115 723.336 846.875 723.336 846.875C723.336 846.875 708.484 849.648 699.063 848.385C690.824 847.281 682.352 844.071 682.352 844.071C682.352 844.071 684.572 856.048 691.362 862.173Z" fill="url(#paint12_linear)"/>
<path d="M1638.59 851.885C1633.51 857.836 1622.62 860.187 1622.62 860.187C1622.62 860.187 1647.12 879.514 1664.46 883.311C1686.85 888.214 1721.82 872.591 1721.82 872.591C1721.82 872.591 1708.81 873.88 1702.18 868.19C1697.56 864.221 1692.72 854.005 1692.72 854.005C1692.72 854.005 1698.75 856.116 1701.93 853.822C1704.17 852.2 1706.42 847.345 1706.42 847.345C1702.35 846.178 1699.85 846.568 1696.01 844.358C1690.67 841.288 1684.28 831.815 1684.28 831.815C1684.28 831.815 1688.52 832.2 1691.18 831.678C1694.42 831.045 1699.18 828.325 1699.18 828.325C1699.18 828.325 1693.26 826.332 1689.89 823.719C1686.26 820.899 1681.67 814.3 1681.67 814.3C1681.67 814.3 1685.9 814.523 1688.58 814.163C1691.3 813.798 1695.45 812.43 1695.45 812.43C1695.45 812.43 1685.93 805.297 1680.16 793.57C1671.46 775.892 1663.03 734.823 1663.03 734.823C1663.03 734.823 1661.71 765.179 1655.78 781.278C1651.98 791.561 1642.36 803.902 1642.36 803.902C1642.36 803.902 1645.04 806.437 1647.02 807.003C1648.78 807.509 1651.62 806.912 1651.62 806.912C1651.62 806.912 1644.5 817.477 1639.24 823.127C1631.96 830.952 1618.81 839.502 1618.81 839.502C1618.81 839.502 1627.98 841.78 1633.79 840.802C1638.87 839.946 1644.09 837.403 1644.09 837.403C1644.09 837.403 1642.76 846.999 1638.59 851.885Z" fill="url(#paint13_linear)"/>
<path d="M583.192 863.834L614.334 896.316C614.334 896.316 601.861 901.292 593.686 903.872C538.509 921.283 446.357 902.94 446.357 902.94L422.465 882.551C422.465 882.551 445.819 874.951 458.202 865.337C472.003 854.622 486.793 830.058 486.793 830.058C486.793 830.058 475.475 834.385 468.079 833.669C461.198 833.004 451.403 827.364 451.403 827.364C451.403 827.364 469.081 816.146 477.887 805.984C487.64 794.726 497.121 772.51 497.121 772.51C497.121 772.51 487.443 780.201 480.167 782.131C472.392 784.194 459.657 781.724 459.657 781.724C459.657 781.724 474.725 769.906 482.413 760.27C492.136 748.081 501.681 724.805 501.681 724.805C501.681 724.805 496.616 731.115 492.22 732.584L480.964 736.343C480.964 736.343 495.282 715.617 502.097 700.916C513.148 677.079 520.021 635.553 520.021 635.553C520.021 635.553 523.612 669.622 534.036 687.61C542.164 701.637 561.484 718.026 561.484 718.026C561.484 718.026 553.13 719.852 548.397 719.758C543.665 719.664 537.245 717.545 537.245 717.545C537.245 717.545 553.496 734.611 561.033 743.906C569.15 753.918 584.89 766.286 584.89 766.286C584.89 766.286 573.434 767.159 566.245 765.916C557.152 764.344 544.01 757.509 544.01 757.509C544.01 757.509 560.658 774.507 573.426 781.99C584.935 788.736 604.915 794.564 604.915 794.564C604.915 794.564 590.543 802.491 580.503 804.037C572.574 805.257 559.994 803.63 559.994 803.63C559.994 803.63 579.761 825.556 594.865 836.185C613.948 849.615 648.519 861.148 648.519 861.148C648.519 861.148 625.943 868.542 611.091 868.371C600.071 868.244 583.192 863.834 583.192 863.834Z" fill="url(#paint14_linear)"/>
<path d="M1860.28 824.085C1868.49 834.776 1886.13 838.968 1886.13 838.968C1886.13 838.968 1846.37 873.834 1818.26 880.728C1781.96 889.631 1725.34 861.641 1725.34 861.641C1725.34 861.641 1746.43 863.915 1757.18 853.652C1764.69 846.493 1772.55 828.092 1772.55 828.092C1772.55 828.092 1762.77 831.914 1757.63 827.796C1754 824.885 1750.37 816.157 1750.37 816.157C1756.97 814.043 1761.02 814.735 1767.26 810.744C1775.91 805.201 1786.3 788.131 1786.3 788.131C1786.3 788.131 1779.43 788.839 1775.11 787.909C1769.87 786.781 1762.16 781.905 1762.16 781.905C1762.16 781.905 1771.77 778.296 1777.23 773.582C1783.12 768.495 1790.58 756.604 1790.58 756.604C1790.58 756.604 1783.74 757.02 1779.39 756.382C1774.99 755.735 1768.26 753.287 1768.26 753.287C1768.26 753.287 1783.7 740.417 1793.09 719.294C1807.25 687.452 1821.05 613.517 1821.05 613.517C1821.05 613.517 1823.08 668.139 1832.65 697.088C1838.76 715.58 1854.32 737.752 1854.32 737.752C1854.32 737.752 1849.96 742.324 1846.76 743.35C1843.9 744.267 1839.31 743.202 1839.31 743.202C1839.31 743.202 1850.81 762.189 1859.32 772.337C1871.09 786.393 1892.38 801.732 1892.38 801.732C1892.38 801.732 1877.5 805.863 1868.09 804.124C1859.86 802.602 1851.41 798.045 1851.41 798.045C1851.41 798.045 1853.54 815.307 1860.28 824.085Z" fill="url(#paint15_linear)"/>
<path d="M1801.19 844.046L1832.33 876.527C1832.33 876.527 1819.86 881.504 1811.69 884.083C1756.51 901.494 1664.36 883.151 1664.36 883.151L1640.46 862.762C1640.46 862.762 1663.82 855.162 1676.2 845.548C1690 834.834 1704.79 810.269 1704.79 810.269C1704.79 810.269 1693.48 814.596 1686.08 813.881C1679.2 813.215 1669.4 807.576 1669.4 807.576C1669.4 807.576 1687.08 796.358 1695.89 786.195C1705.64 774.937 1715.12 752.722 1715.12 752.722C1715.12 752.722 1705.44 760.412 1698.17 762.343C1690.39 764.405 1677.66 761.936 1677.66 761.936C1677.66 761.936 1692.73 750.117 1700.41 740.481C1710.14 728.292 1719.68 705.017 1719.68 705.017C1719.68 705.017 1714.62 711.327 1710.22 712.795L1698.96 716.555C1698.96 716.555 1713.28 695.828 1720.1 681.128C1731.15 657.291 1738.02 615.765 1738.02 615.765C1738.02 615.765 1741.61 649.833 1752.04 667.821C1760.16 681.848 1779.48 698.238 1779.48 698.238C1779.48 698.238 1771.13 700.063 1766.4 699.97C1761.66 699.876 1755.25 697.757 1755.25 697.757C1755.25 697.757 1771.5 714.823 1779.03 724.118C1787.15 734.129 1802.89 746.497 1802.89 746.497C1802.89 746.497 1791.43 747.37 1784.25 746.127C1775.15 744.556 1762.01 737.72 1762.01 737.72C1762.01 737.72 1778.66 754.718 1791.43 762.202C1802.94 768.947 1822.91 774.775 1822.91 774.775C1822.91 774.775 1808.54 782.703 1798.5 784.248C1790.57 785.469 1777.99 783.841 1777.99 783.841C1777.99 783.841 1797.76 805.768 1812.86 816.397C1831.95 829.827 1866.52 841.359 1866.52 841.359C1866.52 841.359 1843.94 848.754 1829.09 848.582C1818.07 848.455 1801.19 844.046 1801.19 844.046Z" fill="url(#paint16_linear)"/>
<path d="M82.9159 779.271L113.584 839C113.584 839 101.032 848.444 92.817 853.368C37.3638 886.604 -54.5423 854.139 -54.5423 854.139L-78.1378 816.721C-78.1378 816.721 -54.6636 802.225 -42.1338 784.18C-28.1694 764.068 -13.0091 718.247 -13.0091 718.247C-13.0091 718.247 -24.3946 726.466 -31.7826 725.264C-38.6554 724.146 -48.3702 713.85 -48.3702 713.85C-48.3702 713.85 -30.519 692.739 -21.5601 673.737C-11.6357 652.686 -1.82215 611.313 -1.82215 611.313C-1.82215 611.313 -11.6166 625.744 -18.924 629.448C-26.7315 633.407 -39.4335 629.041 -39.4335 629.041C-39.4335 629.041 -24.1854 606.861 -16.3523 588.854C-6.44423 566.077 3.44985 522.736 3.44985 522.736C3.44985 522.736 -1.71079 534.528 -6.12979 537.326L-17.4453 544.492C-17.4453 544.492 -2.81493 505.798 4.22136 478.411C15.6306 434.003 23.1234 356.85 23.1234 356.85C23.1234 356.85 26.2087 419.991 36.3678 453.184C44.2899 479.068 63.3708 509.145 63.3708 509.145C63.3708 509.145 54.9879 512.674 50.2551 512.58C45.5222 512.486 39.1324 508.664 39.1324 508.664C39.1324 508.664 55.1344 540.048 62.535 557.164C70.5056 575.599 86.0662 598.276 86.0662 598.276C86.0662 598.276 74.5939 600.09 67.4213 597.906C58.3485 595.145 45.3045 582.687 45.3045 582.687C45.3045 582.687 61.7046 613.938 74.3649 627.605C85.7767 639.923 105.676 650.396 105.676 650.396C105.676 650.396 91.1812 665.346 81.1157 668.384C73.1663 670.783 60.6062 667.977 60.6062 667.977C60.6062 667.977 80.0527 708.318 95.0029 727.78C113.893 752.371 148.302 773.178 148.302 773.178C148.302 773.178 125.609 787.28 110.755 787.213C99.7335 787.164 82.9159 779.271 82.9159 779.271Z" fill="url(#paint17_linear)"/>
<path d="M449.916 870.978C456.331 871.238 508.73 866.773 515.103 865.553C547.996 859.257 550.254 849.456 550.254 849.456C550.254 849.456 531.404 840.946 522.718 828.756C515.715 818.927 509.3 798.259 509.3 798.259L527.833 801.985C527.833 801.985 510.162 779.715 502.971 761.184C496.405 744.261 492.17 713.944 492.17 713.944C492.17 713.944 486.646 768.163 472.176 794.163C466.513 804.337 455.499 817.345 455.499 817.345C455.499 817.345 461.17 817.912 464.795 817.529C469.415 817.041 476.473 814.402 476.473 814.402C476.473 814.402 465.081 837.496 454.973 847.565C445.895 856.609 429.118 863.847 429.118 863.847C429.118 863.847 441.553 870.638 449.916 870.978Z" fill="url(#paint18_linear)"/>
<path d="M486.464 821.246C496.772 830.544 518.783 834.299 518.783 834.299C518.783 834.299 469.463 864.116 434.473 869.859C389.293 877.273 318.536 852.665 318.536 852.665C318.536 852.665 344.836 854.788 358.172 846.005C367.475 839.878 377.152 824.041 377.152 824.041C377.152 824.041 364.995 827.268 358.561 823.673C354.012 821.13 349.438 813.563 349.438 813.563C357.64 811.787 362.701 812.415 370.44 809.015C381.19 804.292 394.025 789.625 394.025 789.625C394.025 789.625 385.471 790.185 380.081 789.349C373.541 788.335 363.9 784.063 363.9 784.063C363.9 784.063 375.846 781.019 382.621 776.988C389.931 772.639 399.148 762.423 399.148 762.423C399.148 762.423 390.623 762.73 385.204 762.146C379.711 761.554 371.304 759.388 371.304 759.388C371.304 759.388 390.469 748.388 402.033 730.212C419.465 702.812 436.166 639.048 436.166 639.048C436.166 639.048 439.059 686.249 451.181 711.329C458.924 727.35 478.464 746.621 478.464 746.621C478.464 746.621 473.06 750.538 469.082 751.4C465.523 752.17 459.786 751.215 459.786 751.215C459.786 751.215 474.255 767.705 484.917 776.536C499.686 788.768 526.316 802.179 526.316 802.179C526.316 802.179 507.805 805.636 496.062 804.061C485.793 802.684 475.233 798.684 475.233 798.684C475.233 798.684 478 813.612 486.464 821.246Z" fill="url(#paint19_linear)"/>
<path d="M244.134 811.779C261.081 827.389 297.229 833.316 297.229 833.316C297.229 833.316 233.891 853.641 192.161 859.396C138.105 866.852 103.819 879.787 52.6807 859.189C30.5733 850.284 -0.235206 827.414 -0.235206 827.414C-0.235206 827.414 45.7983 809.655 65.5923 785.193C79.9176 767.489 92.0912 731.95 92.0912 731.95C92.0912 731.95 82.4858 737.901 75.69 739.306C65.8339 741.343 50.1713 736.239 50.1713 736.239C50.1713 736.239 74.0242 708.692 85.8768 688.299C94.6354 673.229 105.181 647.715 105.181 647.715C105.181 647.715 94.2472 656.443 86.3668 660.144C73.5888 666.145 51.3741 667.131 51.3741 667.131C51.3741 667.131 80.5314 639.158 94.096 616.77C104.695 599.278 115.858 568.554 115.858 568.554C115.858 568.554 110.612 580.94 103.971 583.681C98.869 585.787 90.0272 583.404 90.0272 583.404C90.0272 583.404 106.046 553.177 114.158 532.674C125.52 503.957 136.41 456.303 136.41 456.303C136.41 456.303 147.215 496.593 160.904 518.24C171.903 535.632 195.094 557.324 195.094 557.324C195.094 557.324 185.309 561.339 178.738 562.121C173.322 562.765 164.794 561.844 164.794 561.844C164.794 561.844 177.237 582.256 187.499 593.02C199.342 605.441 221.912 619.307 221.912 619.307C221.912 619.307 206.328 621.108 196.305 621.359C188.137 621.563 175.389 620.944 175.389 620.944C175.389 620.944 186.377 639.838 195.815 649.514C209.487 663.533 237.2 675.939 237.2 675.939C237.2 675.939 221.694 680.753 211.547 680.551C201.401 680.35 186.073 674.925 186.073 674.925C186.073 674.925 210.595 709.672 231.706 724.478C252.039 738.74 289.403 748.667 289.403 748.667C289.403 748.667 264.092 770.291 244.803 773.386C234.92 774.972 219.239 772.879 219.239 772.879C219.239 772.879 231.19 799.856 244.134 811.779Z" fill="url(#paint20_linear)"/>
<path d="M869.382 848.618C865.262 852.741 856.464 854.294 856.464 854.294C856.464 854.294 871.891 859.699 882.053 861.239C895.215 863.234 903.567 866.671 916.009 861.243C921.388 858.896 928.88 852.857 928.88 852.857C928.88 852.857 917.667 848.139 912.839 841.659C909.345 836.968 906.368 827.56 906.368 827.56C906.368 827.56 908.709 829.138 910.364 829.513C912.764 830.056 916.575 828.712 916.575 828.712C916.575 828.712 910.758 821.414 907.865 816.013C905.727 812.022 903.15 805.266 903.15 805.266C903.15 805.266 905.815 807.58 907.735 808.563C910.848 810.156 916.257 810.426 916.257 810.426C916.257 810.426 909.148 803.012 905.837 797.083C903.251 792.451 900.522 784.317 900.522 784.317C900.522 784.317 901.803 787.596 903.421 788.324C904.664 788.883 906.816 788.257 906.816 788.257C906.816 788.257 902.905 780.252 900.923 774.824C898.146 767.221 895.477 754.607 895.477 754.607C895.477 754.607 892.861 765.263 889.537 770.985C886.865 775.582 881.227 781.312 881.227 781.312C881.227 781.312 883.611 782.378 885.211 782.588C886.53 782.761 888.606 782.521 888.606 782.521C888.606 782.521 885.584 787.916 883.09 790.76C880.211 794.042 874.721 797.701 874.721 797.701C874.721 797.701 878.516 798.184 880.956 798.255C882.945 798.312 886.048 798.153 886.048 798.153C886.048 798.153 883.38 803.148 881.086 805.704C877.763 809.408 871.021 812.679 871.021 812.679C871.021 812.679 874.797 813.959 877.267 813.91C879.737 813.861 883.467 812.432 883.467 812.432C883.467 812.432 877.51 821.615 872.376 825.524C867.431 829.289 858.338 831.9 858.338 831.9C858.338 831.9 864.508 837.632 869.206 838.459C871.612 838.883 875.429 838.336 875.429 838.336C875.429 838.336 872.529 845.469 869.382 848.618Z" fill="url(#paint21_linear)"/>
<path d="M960.64 846.711C965.69 851.363 976.463 853.129 976.463 853.129C976.463 853.129 957.587 859.186 945.151 860.902C929.041 863.124 918.822 866.979 903.582 860.84C896.993 858.186 887.812 851.37 887.812 851.37C887.812 851.37 901.531 846.077 907.43 838.787C911.699 833.511 915.327 822.919 915.327 822.919C915.327 822.919 912.465 824.693 910.439 825.112C907.502 825.719 902.834 824.198 902.834 824.198C902.834 824.198 909.943 815.988 913.475 809.91C916.086 805.419 919.228 797.815 919.228 797.815C919.228 797.815 915.97 800.417 913.621 801.52C909.813 803.308 903.193 803.602 903.193 803.602C903.193 803.602 911.882 795.265 915.925 788.593C919.083 783.38 922.41 774.223 922.41 774.223C922.41 774.223 920.847 777.915 918.868 778.731C917.347 779.359 914.712 778.649 914.712 778.649C914.712 778.649 919.486 769.64 921.904 763.53C925.29 754.972 928.535 740.77 928.535 740.77C928.535 740.77 931.755 752.777 935.835 759.228C939.113 764.412 946.025 770.877 946.025 770.877C946.025 770.877 943.108 772.073 941.15 772.306C939.536 772.498 936.995 772.224 936.995 772.224C936.995 772.224 940.703 778.307 943.761 781.515C947.291 785.217 954.017 789.349 954.017 789.349C954.017 789.349 949.373 789.886 946.386 789.961C943.951 790.021 940.152 789.837 940.152 789.837C940.152 789.837 943.427 795.468 946.239 798.351C950.314 802.529 958.573 806.227 958.573 806.227C958.573 806.227 953.952 807.661 950.928 807.601C947.904 807.541 943.336 805.925 943.336 805.925C943.336 805.925 950.645 816.28 956.936 820.693C962.996 824.943 974.131 827.902 974.131 827.902C974.131 827.902 966.588 834.346 960.839 835.269C957.894 835.741 953.221 835.117 953.221 835.117C953.221 835.117 956.782 843.157 960.64 846.711Z" fill="url(#paint22_linear)"/>
<path d="M85.2417 824.384C97.2958 843.237 121.713 866.023 121.713 866.023C121.713 866.023 59.3628 875.438 19.2562 875.68C7.4552 875.752 -10.955 875.081 -10.955 875.081C-10.955 875.081 -0.0774982 861.773 5.7194 852.031C17.6793 831.933 27.6518 794.016 27.6518 794.016C27.6518 794.016 20.3723 803.334 15.7779 808.393C9.4635 815.346 -0.642198 816.835 -0.642198 816.835C-0.642198 816.835 6.83034 795.618 11.5877 782.007C18.3156 762.758 28.7197 732.664 28.7197 732.664C28.7197 732.664 19.698 745.276 12.1471 749.87C6.18457 753.499 -4.2222 755.391 -4.2222 755.391C-4.2222 755.391 3.2917 739.615 7.85514 729.328C13.8018 715.922 22.409 694.546 22.409 694.546C22.409 694.546 17.297 701.407 12.9607 703.126C8.62436 704.845 1.34099 702.895 1.34099 702.895C1.34099 702.895 12.8683 684.425 18.1679 671.082C23.3092 658.137 30.4995 630.411 30.4995 630.411C25.0144 632.585 19.5136 639.6 14.0285 641.774C14.0285 641.774 26.8308 617.815 31.0588 598.274C37.8454 566.908 39.5562 510.767 39.5562 510.767C39.5562 510.767 39.5627 591.103 53.688 633.793C60.5486 654.528 76.1646 678.077 76.1646 678.077L64.5958 674.925L78.0309 704.417L64.1889 698.298C64.1889 698.298 72.6034 731.488 81.916 748.332C91.1132 764.968 116.419 769.475 116.419 769.475C116.419 769.475 93.3095 778.649 81.4075 777.548C74.1683 776.877 62.816 777.179 62.816 777.179C62.816 777.179 74.544 807.653 85.2417 824.384Z" fill="url(#paint23_linear)"/>
<path d="M351.64 823.318L390.455 863.803C390.455 863.803 374.908 870.006 364.719 873.221C295.945 894.923 181.085 872.06 181.085 872.06L151.306 846.647C151.306 846.647 180.415 837.174 195.849 825.191C213.051 811.836 231.486 781.218 231.486 781.218C231.486 781.218 217.379 786.612 208.16 785.72C199.584 784.89 187.374 777.861 187.374 777.861C187.374 777.861 209.41 763.879 220.385 751.212C232.542 737.18 244.358 709.49 244.358 709.49C244.358 709.49 232.296 719.075 223.227 721.482C213.537 724.052 197.663 720.974 197.663 720.974C197.663 720.974 216.444 706.244 226.026 694.233C238.146 679.04 250.043 650.03 250.043 650.03C250.043 650.03 243.729 657.895 238.25 659.725L224.22 664.411C224.22 664.411 242.066 638.577 250.561 620.254C264.335 590.543 272.901 538.784 272.901 538.784C272.901 538.784 277.378 581.248 290.37 603.668C300.502 621.152 324.581 641.58 324.581 641.58C324.581 641.58 314.17 643.856 308.27 643.739C302.371 643.622 294.37 640.981 294.37 640.981C294.37 640.981 314.626 662.252 324.02 673.838C334.137 686.316 353.756 701.732 353.756 701.732C353.756 701.732 339.477 702.819 330.516 701.271C319.182 699.312 302.802 690.792 302.802 690.792C302.802 690.792 323.553 711.978 339.467 721.306C353.811 729.714 378.714 736.978 378.714 736.978C378.714 736.978 360.801 746.859 348.287 748.785C338.405 750.307 322.724 748.278 322.724 748.278C322.724 748.278 347.362 775.607 366.188 788.856C389.974 805.595 433.064 819.969 433.064 819.969C433.064 819.969 404.925 829.186 386.412 828.972C372.677 828.813 351.64 823.318 351.64 823.318Z" fill="url(#paint24_linear)"/>
</g>
<defs>
<filter id="filter0_d" x="1535" y="56" width="213" height="213" filterUnits="userSpaceOnUse" color-interpolation-filters="sRGB">
<feFlood flood-opacity="0" result="BackgroundImageFix"/>
<feColorMatrix in="SourceAlpha" type="matrix" values="0 0 0 0 0 0 0 0 0 0 0 0 0 0 0 0 0 0 127 0"/>
<feOffset/>
<feGaussianBlur stdDeviation="30"/>
<feColorMatrix type="matrix" values="0 0 0 0 1 0 0 0 0 0.733333 0 0 0 0 0.294118 0 0 0 0.5 0"/>
<feBlend mode="normal" in2="BackgroundImageFix" result="effect1_dropShadow"/>
<feBlend mode="normal" in="SourceGraphic" in2="effect1_dropShadow" result="shape"/>
</filter>
<linearGradient id="paint0_linear" x1="1920" y1="-72.0002" x2="257.732" y2="734.16" gradientUnits="userSpaceOnUse">
<stop stop-color="#8FD3F4"/>
<stop offset="1" stop-color="#84FAB0"/>
</linearGradient>
<linearGradient id="paint1_linear" x1="1920" y1="-1.00013" x2="693" y2="1491.5" gradientUnits="userSpaceOnUse">
<stop stop-color="#8FD5F2"/>
<stop offset="1" stop-color="#00C6A2"/>
</linearGradient>
<linearGradient id="paint2_linear" x1="1778" y1="197" x2="1739.9" y2="421.567" gradientUnits="userSpaceOnUse">
<stop stop-color="white"/>
<stop offset="1" stop-color="#F3F3F3"/>
</linearGradient>
<linearGradient id="paint3_linear" x1="2022.51" y1="157.579" x2="1776.9" y2="385.102" gradientUnits="userSpaceOnUse">
<stop stop-color="white"/>
<stop offset="1" stop-color="#F3F3F3"/>
</linearGradient>
<linearGradient id="paint4_linear" x1="1813" y1="507" x2="652.5" y2="851" gradientUnits="userSpaceOnUse">
<stop stop-color="#00C6A2" stop-opacity="0.46"/>
<stop offset="1" stop-color="#8FD5F2"/>
</linearGradient>
<linearGradient id="paint5_linear" x1="734" y1="482" x2="604" y2="613" gradientUnits="userSpaceOnUse">
<stop stop-color="white"/>
<stop offset="1" stop-color="#F3F3F3"/>
</linearGradient>
<linearGradient id="paint6_linear" x1="808.554" y1="516.946" x2="642.912" y2="624.097" gradientUnits="userSpaceOnUse">
<stop stop-color="white"/>
<stop offset="1" stop-color="#F3F3F3"/>
</linearGradient>
<linearGradient id="paint7_linear" x1="242.926" y1="524.822" x2="236.941" y2="826.4" gradientUnits="userSpaceOnUse">
<stop stop-color="#7EF4AA"/>
<stop offset="0.262927" stop-color="#66DC92"/>
</linearGradient>
<linearGradient id="paint8_linear" x1="594.657" y1="633.139" x2="589.314" y2="902.381" gradientUnits="userSpaceOnUse">
<stop stop-color="#67DD93"/>
<stop offset="0.536458" stop-color="#55CB81"/>
</linearGradient>
<linearGradient id="paint9_linear" x1="76.4928" y1="496.271" x2="83.7941" y2="864.218" gradientUnits="userSpaceOnUse">
<stop stop-color="#4BC177"/>
<stop offset="0.536458" stop-color="#55CB81"/>
</linearGradient>
<linearGradient id="paint10_linear" x1="400" y1="539.204" x2="378.606" y2="871.35" gradientUnits="userSpaceOnUse">
<stop stop-color="#80F6AC"/>
<stop offset="0.743716" stop-color="#55CB81"/>
</linearGradient>
<linearGradient id="paint11_linear" x1="317.222" y1="590.302" x2="322.826" y2="872.72" gradientUnits="userSpaceOnUse">
<stop stop-color="#67DD93"/>
<stop offset="0.536458" stop-color="#4CC278"/>
</linearGradient>
<linearGradient id="paint12_linear" x1="666" y1="768.204" x2="625.758" y2="867.606" gradientUnits="userSpaceOnUse">
<stop stop-color="#3BB18A"/>
<stop offset="1" stop-color="#118760"/>
</linearGradient>
<linearGradient id="paint13_linear" x1="1653.94" y1="776.631" x2="1692.04" y2="849.738" gradientUnits="userSpaceOnUse">
<stop stop-color="#3BB18A"/>
<stop offset="1" stop-color="#118760"/>
</linearGradient>
<linearGradient id="paint14_linear" x1="539.598" y1="635.942" x2="534.131" y2="911.465" gradientUnits="userSpaceOnUse">
<stop stop-color="#3BB18A"/>
<stop offset="1" stop-color="#1B916A"/>
</linearGradient>
<linearGradient id="paint15_linear" x1="1812.66" y1="613.35" x2="1807.31" y2="882.593" gradientUnits="userSpaceOnUse">
<stop stop-color="#67DD93"/>
<stop offset="0.536458" stop-color="#55CB81"/>
</linearGradient>
<linearGradient id="paint16_linear" x1="1757.6" y1="616.153" x2="1752.13" y2="891.676" gradientUnits="userSpaceOnUse">
<stop stop-color="#3BB18A"/>
<stop offset="1" stop-color="#1B916A"/>
</linearGradient>
<linearGradient id="paint17_linear" x1="71.0005" y1="334.204" x2="-66.3061" y2="870.369" gradientUnits="userSpaceOnUse">
<stop stop-color="#3BB18A"/>
<stop offset="1" stop-color="#269C75"/>
</linearGradient>
<linearGradient id="paint18_linear" x1="492.17" y1="713.944" x2="489.038" y2="871.756" gradientUnits="userSpaceOnUse">
<stop stop-color="#3BB18A"/>
<stop offset="1" stop-color="#269C75"/>
</linearGradient>
<linearGradient id="paint19_linear" x1="493" y1="665.704" x2="272.135" y2="815.666" gradientUnits="userSpaceOnUse">
<stop stop-color="#3BB18A"/>
<stop offset="1" stop-color="#269C75"/>
</linearGradient>
<linearGradient id="paint20_linear" x1="64.0005" y1="744.704" x2="209.075" y2="714.057" gradientUnits="userSpaceOnUse">
<stop stop-color="#3BB18A"/>
<stop offset="1" stop-color="#269C75"/>
</linearGradient>
<linearGradient id="paint21_linear" x1="890.951" y1="754.697" x2="893.127" y2="864.355" gradientUnits="userSpaceOnUse">
<stop stop-color="#428A5D"/>
<stop offset="0.957974" stop-color="#43B96F"/>
</linearGradient>
<linearGradient id="paint22_linear" x1="906.956" y1="826.72" x2="950.191" y2="817.587" gradientUnits="userSpaceOnUse">
<stop stop-color="#42B891"/>
<stop offset="1" stop-color="#158B64"/>
</linearGradient>
<linearGradient id="paint23_linear" x1="58.7241" y1="616.584" x2="45.0836" y2="745.075" gradientUnits="userSpaceOnUse">
<stop stop-color="#3BB18A"/>
<stop offset="1" stop-color="#269C75"/>
</linearGradient>
<linearGradient id="paint24_linear" x1="226.5" y1="517.704" x2="312.145" y2="868.913" gradientUnits="userSpaceOnUse">
<stop stop-color="#3BB18A"/>
<stop offset="1" stop-color="#269C75"/>
</linearGradient>
</defs>
</svg>
