<svg width="210" height="210" viewBox="0 0 210 210" fill="none" xmlns="http://www.w3.org/2000/svg">
<mask id="mask0" mask-type="alpha" maskUnits="userSpaceOnUse" x="0" y="0" width="210" height="210">
<circle cx="105" cy="105" r="105" fill="#C4C4C4"/>
</mask>
<g mask="url(#mask0)">
<path fill-rule="evenodd" clip-rule="evenodd" d="M56.7677 72.7177H39.8284C32.8119 72.7177 27.1239 78.4057 27.1239 85.4222C27.1239 92.4386 32.8119 98.1266 39.8284 98.1266H56.7677C63.7842 98.1266 69.4721 92.4386 69.4721 85.4222C69.4721 78.4057 63.7842 72.7177 56.7677 72.7177ZM39.8284 64.248C28.1343 64.248 18.6543 73.728 18.6543 85.4222C18.6543 97.1163 28.1343 106.596 39.8284 106.596H56.7677C68.4618 106.596 77.9418 97.1163 77.9418 85.4222C77.9418 73.728 68.4618 64.248 56.7677 64.248H39.8284Z" fill="#E8960C"/>
<path d="M-12.3993 95.3037C-12.3993 93.7445 -11.1353 92.4805 -9.57608 92.4805H106.176C107.735 92.4805 108.999 93.7445 108.999 95.3037V177.177C108.999 178.736 107.735 180 106.176 180H-9.57608C-11.1353 180 -12.3993 178.736 -12.3993 177.177V95.3037Z" fill="#562415"/>
<path d="M-20.8716 86.833C-20.8716 85.2738 -19.6076 84.0098 -18.0484 84.0098H114.643C116.202 84.0098 117.466 85.2738 117.466 86.833V126.358C117.466 127.917 116.202 129.181 114.643 129.181H-18.0484C-19.6076 129.181 -20.8716 127.917 -20.8716 126.358V86.833Z" fill="#532B17"/>
<path d="M38.4146 81.1865C38.4146 79.6273 39.6785 78.3633 41.2378 78.3633H55.3538C56.9131 78.3633 58.177 79.6273 58.177 81.1865V147.491C58.177 148.403 57.7367 149.258 56.9948 149.788L49.9368 154.83C48.9551 155.531 47.6365 155.531 46.6548 154.83L39.5968 149.788C38.8549 149.258 38.4146 148.403 38.4146 147.491V81.1865Z" fill="#F3AC36"/>
<path d="M29.9489 132C29.9489 128.882 32.4768 126.354 35.5953 126.354H61.0042C64.1226 126.354 66.6506 128.882 66.6506 132V134.823C66.6506 137.942 64.1226 140.47 61.0042 140.47H35.5953C32.4768 140.47 29.9489 137.942 29.9489 134.823V132Z" fill="#DC6A4F"/>
<path d="M148.671 123.018L158.528 113.722L176.299 132.568L166.442 141.863L148.671 123.018Z" fill="#5DA3B5"/>
<path d="M162.651 147.143C159.166 143.447 159.337 137.626 163.033 134.141L170.61 126.996C174.306 123.51 180.127 123.681 183.612 127.377L223.556 169.737C227.041 173.433 226.87 179.254 223.174 182.739L215.597 189.884C211.901 193.369 206.08 193.199 202.595 189.503L162.651 147.143Z" fill="#BA2338"/>
<path d="M165.122 149.767C164.25 148.843 164.293 147.387 165.217 146.516L182.832 129.905C183.756 129.034 185.212 129.077 186.083 130.001L191.891 136.16C192.762 137.084 192.72 138.539 191.796 139.411L174.18 156.021C173.256 156.893 171.801 156.85 170.93 155.926L165.122 149.767Z" fill="#D95F40"/>
<path d="M178.748 164.23C177.877 163.306 177.92 161.85 178.844 160.979L196.455 144.372C197.379 143.501 198.835 143.544 199.706 144.468L205.514 150.627C206.385 151.551 206.342 153.006 205.418 153.877L187.807 170.484C186.883 171.356 185.428 171.313 184.556 170.389L178.748 164.23Z" fill="#D95F40"/>
<mask id="mask1" mask-type="alpha" maskUnits="userSpaceOnUse" x="62" y="28" width="111" height="111">
<path d="M172.375 83.1877C172.375 113.667 147.667 138.375 117.188 138.375C86.7084 138.375 62 113.667 62 83.1877C62 52.7084 86.7084 28 117.188 28C147.667 28 172.375 52.7084 172.375 83.1877Z" fill="#C4C4C4"/>
</mask>
<g mask="url(#mask1)">
<path fill-rule="evenodd" clip-rule="evenodd" d="M90.729 56.1704H75.1967C68.7631 56.1704 63.5476 61.3859 63.5476 67.8196C63.5476 74.2532 68.7631 79.4687 75.1967 79.4687H90.729C97.1626 79.4687 102.378 74.2532 102.378 67.8196C102.378 61.3859 97.1626 56.1704 90.729 56.1704ZM75.1967 48.4043C64.474 48.4043 55.7815 57.0968 55.7815 67.8196C55.7815 78.5423 64.474 87.2348 75.1967 87.2348H90.729C101.452 87.2348 110.144 78.5423 110.144 67.8196C110.144 57.0968 101.452 48.4043 90.729 48.4043H75.1967Z" fill="#FFD174"/>
<path d="M27.3063 76.8817C27.3063 75.452 28.4653 74.293 29.895 74.293H136.032C137.461 74.293 138.62 75.452 138.62 76.8817V151.954C138.62 153.384 137.461 154.543 136.032 154.543H29.895C28.4653 154.543 27.3063 153.384 27.3063 151.954V76.8817Z" fill="#562415"/>
<path d="M19.5386 69.1141C19.5386 67.6844 20.6976 66.5254 22.1273 66.5254H143.796C145.226 66.5254 146.385 67.6844 146.385 69.1141V105.356C146.385 106.786 145.226 107.945 143.796 107.945H22.1273C20.6976 107.945 19.5386 106.786 19.5386 105.356V69.1141Z" fill="#532B17"/>
<path d="M73.8995 63.9364C73.8995 62.5067 75.0585 61.3477 76.4882 61.3477H89.4317C90.8614 61.3477 92.0204 62.5067 92.0204 63.9364V124.733C92.0204 125.569 91.6167 126.354 90.9364 126.84L84.4646 131.462C83.5646 132.105 82.3554 132.105 81.4553 131.462L74.9836 126.84C74.3033 126.354 73.8995 125.569 73.8995 124.733V63.9364Z" fill="#FFDF63"/>
<path d="M66.1361 110.531C66.1361 107.672 68.4541 105.354 71.3135 105.354H94.6118C97.4712 105.354 99.7892 107.672 99.7892 110.531V113.12C99.7892 115.979 97.4712 118.297 94.6118 118.297H71.3135C68.4541 118.297 66.1361 115.979 66.1361 113.12V110.531Z" fill="#DC6A4F"/>
<path d="M172.375 83.1877C172.375 113.667 147.667 138.375 117.188 138.375C86.7084 138.375 62 113.667 62 83.1877C62 52.7084 86.7084 28 117.188 28C147.667 28 172.375 52.7084 172.375 83.1877Z" fill="white" fill-opacity="0.1"/>
<path d="M135.196 34.252L146.865 47.0876L77.2622 110.363L65.5934 97.5272L135.196 34.252Z" fill="white" fill-opacity="0.06"/>
</g>
<path fill-rule="evenodd" clip-rule="evenodd" d="M117.188 124.579C140.047 124.579 158.579 106.047 158.579 83.1877C158.579 60.3282 140.047 41.7969 117.188 41.7969C94.3282 41.7969 75.7969 60.3282 75.7969 83.1877C75.7969 106.047 94.3282 124.579 117.188 124.579ZM117.188 138.375C147.667 138.375 172.375 113.667 172.375 83.1877C172.375 52.7084 147.667 28 117.188 28C86.7084 28 62 52.7084 62 83.1877C62 113.667 86.7084 138.375 117.188 138.375Z" fill="#65ABBD"/>
</g>
<circle cx="105" cy="105" r="104" stroke="url(#paint0_linear)" stroke-width="2"/>
<defs>
<linearGradient id="paint0_linear" x1="35.5" y1="27.5" x2="179.5" y2="194.5" gradientUnits="userSpaceOnUse">
<stop stop-color="#00C6A2"/>
<stop offset="1" stop-color="#2B6B6A"/>
</linearGradient>
</defs>
</svg>
