<svg width="210" height="210" viewBox="0 0 210 210" fill="none" xmlns="http://www.w3.org/2000/svg">
<mask id="mask0" mask-type="alpha" maskUnits="userSpaceOnUse" x="0" y="0" width="210" height="210">
<circle cx="105" cy="105" r="105" fill="#C4C4C4"/>
</mask>
<g mask="url(#mask0)">
<path d="M27.8082 58.0146C27.8082 57.7498 28.0229 57.5352 28.2877 57.5352H182.192C182.457 57.5352 182.671 57.7498 182.671 58.0146V131.371C182.671 131.636 182.457 131.85 182.192 131.85H28.2877C28.0229 131.85 27.8082 131.636 27.8082 131.371V58.0146Z" fill="#3D525E"/>
<path d="M44.4469 36.6547C44.5356 36.5203 44.6859 36.4395 44.8469 36.4395H166.108C166.271 36.4395 166.423 36.5226 166.511 36.66L182.198 61.1121C182.402 61.4312 182.173 61.8504 181.794 61.8504H28.6994C28.3174 61.8504 28.0888 61.4255 28.2993 61.1068L44.4469 36.6547Z" fill="#CACACA"/>
<path d="M21.5753 48.9053C21.5753 48.6405 21.79 48.4259 22.0548 48.4259H79.589C79.8538 48.4259 80.0685 48.2112 80.0685 47.9464V31.2025C80.0685 31.0313 80.1597 30.8731 80.3079 30.7874L105.12 16.4413C105.268 16.3555 105.451 16.3555 105.6 16.4413L130.411 30.7874C130.559 30.8731 130.651 31.0313 130.651 31.2025V47.9464C130.651 48.2112 130.865 48.4259 131.13 48.4259H188.425C188.689 48.4259 188.904 48.6405 188.904 48.9053V61.3711C188.904 61.6359 188.689 61.8505 188.425 61.8505H22.0548C21.79 61.8505 21.5753 61.6359 21.5753 61.3711V48.9053Z" fill="#414C56"/>
<path d="M38.8356 71.9189C38.8356 71.6541 39.0502 71.4395 39.315 71.4395H52.7397C53.0045 71.4395 53.2191 71.6541 53.2191 71.9189V86.7819C53.2191 87.0467 53.0045 87.2614 52.7397 87.2614H39.315C39.0502 87.2614 38.8356 87.0467 38.8356 86.7819V71.9189Z" fill="white"/>
<path d="M62.8082 71.9189C62.8082 71.6541 63.0229 71.4395 63.2877 71.4395H76.7123C76.9771 71.4395 77.1918 71.6541 77.1918 71.9189V86.7819C77.1918 87.0467 76.9771 87.2614 76.7123 87.2614H63.2877C63.0229 87.2614 62.8082 87.0467 62.8082 86.7819V71.9189Z" fill="white"/>
<path d="M86.3014 71.9189C86.3014 71.6541 86.516 71.4395 86.7808 71.4395H100.206C100.47 71.4395 100.685 71.6541 100.685 71.9189V86.7819C100.685 87.0467 100.47 87.2614 100.206 87.2614H86.7808C86.5161 87.2614 86.3014 87.0467 86.3014 86.7819V71.9189Z" fill="white"/>
<path d="M110.274 71.9189C110.274 71.6541 110.489 71.4395 110.753 71.4395H124.178C124.443 71.4395 124.657 71.6541 124.657 71.9189V86.7819C124.657 87.0467 124.443 87.2614 124.178 87.2614H110.753C110.489 87.2614 110.274 87.0467 110.274 86.7819V71.9189Z" fill="white"/>
<path d="M133.767 71.9189C133.767 71.6541 133.982 71.4395 134.247 71.4395H147.671C147.936 71.4395 148.151 71.6541 148.151 71.9189V86.7819C148.151 87.0467 147.936 87.2614 147.671 87.2614H134.247C133.982 87.2614 133.767 87.0467 133.767 86.7819V71.9189Z" fill="white"/>
<path d="M157.26 71.9189C157.26 71.6541 157.475 71.4395 157.74 71.4395H171.164C171.429 71.4395 171.644 71.6541 171.644 71.9189V86.7819C171.644 87.0467 171.429 87.2614 171.164 87.2614H157.74C157.475 87.2614 157.26 87.0467 157.26 86.7819V71.9189Z" fill="white"/>
<path d="M38.8356 94.4541C38.8356 94.1893 39.0502 93.9746 39.315 93.9746H52.7397C53.0045 93.9746 53.2191 94.1893 53.2191 94.4541V109.317C53.2191 109.582 53.0045 109.797 52.7397 109.797H39.315C39.0502 109.797 38.8356 109.582 38.8356 109.317V94.4541Z" fill="white"/>
<path d="M62.8082 94.4541C62.8082 94.1893 63.0229 93.9746 63.2877 93.9746H76.7123C76.9771 93.9746 77.1918 94.1893 77.1918 94.4541V109.317C77.1918 109.582 76.9771 109.797 76.7123 109.797H63.2877C63.0229 109.797 62.8082 109.582 62.8082 109.317V94.4541Z" fill="white"/>
<path d="M133.767 94.4541C133.767 94.1893 133.982 93.9746 134.247 93.9746H147.671C147.936 93.9746 148.151 94.1893 148.151 94.4541V109.317C148.151 109.582 147.936 109.797 147.671 109.797H134.247C133.982 109.797 133.767 109.582 133.767 109.317V94.4541Z" fill="white"/>
<path d="M157.26 94.4541C157.26 94.1893 157.475 93.9746 157.74 93.9746H171.164C171.429 93.9746 171.644 94.1893 171.644 94.4541V109.317C171.644 109.582 171.429 109.797 171.164 109.797H157.74C157.475 109.797 157.26 109.582 157.26 109.317V94.4541Z" fill="white"/>
<path d="M78.1506 124.179C78.1506 123.914 78.3653 123.699 78.6301 123.699H131.849C132.114 123.699 132.329 123.914 132.329 124.179V131.37C132.329 131.635 132.114 131.85 131.849 131.85H78.6301C78.3653 131.85 78.1506 131.635 78.1506 131.37V124.179Z" fill="#36414B"/>
<path d="M85.3424 116.987C85.3424 116.722 85.5571 116.508 85.8219 116.508H124.657C124.922 116.508 125.137 116.722 125.137 116.987V123.7C125.137 123.964 124.922 124.179 124.657 124.179H85.8219C85.5571 124.179 85.3424 123.964 85.3424 123.7V116.987Z" fill="#36414B"/>
<path d="M90.6165 95.413C90.6165 95.1483 90.8311 94.9336 91.0959 94.9336H119.384C119.648 94.9336 119.863 95.1483 119.863 95.413V116.509C119.863 116.774 119.648 116.988 119.384 116.988H91.0959C90.8311 116.988 90.6165 116.774 90.6165 116.509V95.413Z" fill="#0E1213"/>
<path d="M91.2551 46.5077V39.3496H93.7624C94.631 39.3496 95.2897 39.5168 95.7388 39.8511C96.1878 40.1821 96.4123 40.6688 96.4123 41.3112C96.4123 41.6619 96.3221 41.9716 96.1419 42.2404C95.9616 42.5058 95.7109 42.7009 95.3897 42.8254C95.7568 42.9172 96.0452 43.1024 96.255 43.3809C96.468 43.6595 96.5745 44.0004 96.5745 44.4035C96.5745 45.0918 96.3549 45.6129 95.9157 45.9669C95.4766 46.3209 94.8505 46.5011 94.0377 46.5077H91.2551ZM92.73 43.3908V45.3229H93.9935C94.3409 45.3229 94.6113 45.2409 94.8047 45.077C95.0013 44.9099 95.0996 44.6805 95.0996 44.3888C95.0996 43.7333 94.7604 43.4006 94.082 43.3908H92.73ZM92.73 42.3485H93.8214C94.5654 42.3354 94.9374 42.0388 94.9374 41.4587C94.9374 41.1342 94.8424 40.9015 94.6523 40.7606C94.4654 40.6164 94.1688 40.5443 93.7624 40.5443H92.73V42.3485Z" fill="white"/>
<path d="M102.432 45.0328H99.8456L99.354 46.5077H97.7857L100.45 39.3496H101.817L104.496 46.5077H102.928L102.432 45.0328ZM100.244 43.8382H102.033L101.134 41.1588L100.244 43.8382Z" fill="white"/>
<path d="M111.691 46.5077H110.216L107.345 41.7979V46.5077H105.87V39.3496H107.345L110.221 44.0692V39.3496H111.691V46.5077Z" fill="white"/>
<path d="M115.925 43.6366L115.158 44.4625V46.5077H113.683V39.3496H115.158V42.5943L115.807 41.7045L117.631 39.3496H119.445L116.904 42.5304L119.519 46.5077H117.764L115.925 43.6366Z" fill="white"/>
<path d="M154.106 148.971L275.292 95.8207L285.545 119.198L164.359 172.348L154.106 148.971Z" fill="#338475"/>
<path d="M143.836 125.547L265.021 72.3969L275.296 95.8231L154.11 148.973L143.836 125.547Z" fill="#3E8F80"/>
<path d="M147.373 151.799L154.068 148.863L162.926 169.06L156.231 171.996L147.373 151.799Z" fill="#F9F9F9"/>
<path d="M138.665 131.939L145.361 129.003L154.093 148.913L147.397 151.85L138.665 131.939Z" fill="white"/>
<path fill-rule="evenodd" clip-rule="evenodd" d="M157.26 127.293C157.26 129.278 155.649 130.889 153.664 130.889C151.679 130.889 150.068 129.278 150.068 127.293C150.068 125.308 151.679 123.697 153.664 123.697C155.649 123.697 157.26 125.308 157.26 127.293ZM154.052 126.304C153.979 126.508 153.822 126.658 153.634 126.731C153.479 126.791 153.301 126.799 153.132 126.737C152.758 126.602 152.565 126.19 152.7 125.815C152.717 125.767 152.739 125.722 152.767 125.679C152.806 125.619 152.853 125.565 152.906 125.52C152.973 125.46 153.052 125.413 153.138 125.383C153.288 125.329 153.456 125.325 153.619 125.383C153.994 125.518 154.187 125.93 154.052 126.304ZM155.007 127.409C155.38 127.544 155.792 127.349 155.927 126.977C156.003 126.763 155.973 126.537 155.865 126.357C155.782 126.222 155.655 126.113 155.494 126.055C155.354 126.005 155.207 126.001 155.073 126.035C155.02 126.048 154.968 126.068 154.919 126.095C154.764 126.175 154.638 126.312 154.574 126.488C154.498 126.699 154.526 126.922 154.633 127.1C154.685 127.188 154.756 127.265 154.844 127.327C154.893 127.361 154.947 127.389 155.007 127.409ZM155.207 129.009C155.073 129.381 154.661 129.576 154.288 129.441C153.913 129.306 153.72 128.894 153.855 128.52C153.99 128.147 154.402 127.952 154.775 128.087C155.149 128.222 155.342 128.634 155.207 129.009ZM152.413 128.769C152.786 128.904 153.198 128.709 153.333 128.336C153.468 127.962 153.275 127.55 152.9 127.415C152.527 127.28 152.115 127.475 151.981 127.848C151.846 128.222 152.039 128.634 152.413 128.769Z" fill="#545454"/>
<path d="M131.37 138.596L140.193 134.726L154.783 167.992L145.96 171.862L131.37 138.596Z" fill="#D59C79"/>
<path d="M77.5912 134.76L68.7681 130.89L54.178 164.156L63.0011 168.026L77.5912 134.76Z" fill="#EBBF96"/>
<path d="M91.8156 163.009C90.0621 159.152 91.767 154.604 95.6238 152.85L125.334 139.342C129.191 137.588 133.739 139.293 135.493 143.15L147.966 170.582C149.719 174.439 148.014 178.987 144.157 180.741L114.447 194.249C110.59 196.003 106.042 194.298 104.289 190.441L91.8156 163.009Z" fill="#DFA880"/>
<path d="M95.7921 197.03C94.6227 194.458 95.7597 191.425 98.3317 190.256L109.421 185.213C111.993 184.044 115.026 185.181 116.196 187.753C117.365 190.325 116.228 193.358 113.656 194.527L102.566 199.57C99.9945 200.739 96.9615 199.602 95.7921 197.03Z" fill="#DFA880"/>
<path d="M83.3467 191.776C82.2891 189.45 83.3174 186.707 85.6435 185.649L97.6236 180.202C99.9496 179.145 102.693 180.173 103.75 182.499C104.808 184.825 103.78 187.568 101.454 188.626L89.4734 194.073C87.1474 195.131 84.4043 194.102 83.3467 191.776Z" fill="#DFA880"/>
<path d="M73.5697 183.212C72.408 180.657 73.5375 177.644 76.0923 176.483L87.2438 171.412C89.7987 170.251 92.8115 171.38 93.9732 173.935C95.1348 176.49 94.0054 179.503 91.4505 180.664L80.299 185.735C77.7442 186.896 74.7313 185.767 73.5697 183.212Z" fill="#DFA880"/>
<path d="M106.6 147.35C108.621 142.743 106.524 137.369 101.917 135.349L90.0396 130.139C84.9471 127.906 79.0083 130.224 76.7749 135.316L62.1488 168.664C60.6599 172.059 62.205 176.019 65.5999 177.508L80.5507 184.065C85.1581 186.086 90.5313 183.989 92.5521 179.381L106.6 147.35Z" fill="#F4C9A3"/>
<path d="M137.593 172.208C139.849 173.257 142.528 172.279 143.578 170.024C144.738 167.531 143.658 164.569 141.164 163.409L100.378 144.43C98.3633 143.492 95.9701 144.365 95.0326 146.38C93.7603 149.114 93.636 153.111 96.3702 154.384L112.911 162.069C112.866 161.515 112.981 161.322 113.63 161.336L137.593 172.208Z" fill="#F4C9A3"/>
<path d="M131.761 195.006C134.218 196.15 137.138 195.085 138.281 192.627C139.545 189.911 138.368 186.685 135.652 185.421L95.5951 166.781C93.4003 165.76 85.1654 170.748 84.1441 172.943C82.758 175.921 100.441 181.709 103.419 183.095C103.11 182.462 103.217 182.187 104.041 181.952L131.761 195.006Z" fill="#F4C9A3"/>
<path d="M114.076 198.58C116.346 199.637 119.042 198.653 120.099 196.383C121.266 193.874 120.179 190.894 117.67 189.726L76.935 170.771C74.9076 169.827 72.4993 170.706 71.5559 172.733C70.2755 175.485 71.4681 178.753 74.2195 180.034L114.076 198.58Z" fill="#F4C9A3"/>
<path d="M139.015 185.438C141.435 186.564 144.31 185.515 145.436 183.095C146.68 180.42 145.521 177.243 142.846 175.999L102.37 157.163C100.208 156.158 92.5814 160.373 91.5756 162.534C90.2107 165.467 105.903 171.578 108.836 172.943C108.786 172.39 108.907 172.134 109.555 171.884L139.015 185.438Z" fill="#F4C9A3"/>
<path d="M113.529 149.523C114.97 149.326 116.178 148.368 116.859 147.083C118.095 144.748 117.087 141.855 114.667 140.794L97.8042 133.399C95.6475 132.453 93.1324 133.434 92.1865 135.591C90.9176 138.485 92.2038 141.861 95.0763 143.177L107.604 148.915C108.577 149.361 109.622 149.651 110.692 149.675C111.737 149.7 112.613 149.648 113.529 149.523Z" fill="#F4C9A3"/>
<path d="M135.03 166.284C135.636 164.841 137.297 164.163 138.739 164.77L140.513 165.515C141.955 166.121 142.633 167.782 142.027 169.225C141.42 170.667 139.76 171.345 138.317 170.739L136.544 169.993C135.101 169.387 134.423 167.726 135.03 166.284Z" fill="#F7D9BF"/>
<path d="M137.262 179.53C137.868 178.087 139.529 177.409 140.972 178.016L142.591 178.696C144.034 179.303 144.712 180.964 144.105 182.406C143.499 183.848 141.838 184.526 140.396 183.92L138.776 183.239C137.334 182.633 136.656 180.972 137.262 179.53Z" fill="#F7D9BF"/>
<path d="M111.269 192.709C111.875 191.267 113.536 190.589 114.978 191.195L117.18 192.121C118.623 192.727 119.301 194.388 118.694 195.831C118.088 197.273 116.427 197.951 114.985 197.345L112.783 196.419C111.34 195.813 110.662 194.152 111.269 192.709Z" fill="#F7D9BF"/>
<path d="M129.432 188.372C130.038 186.929 131.699 186.251 133.141 186.858L135.4 187.807C136.843 188.413 137.52 190.074 136.914 191.516C136.308 192.959 134.647 193.637 133.205 193.031L130.946 192.081C129.503 191.475 128.825 189.814 129.432 188.372Z" fill="#F7D9BF"/>
<path d="M56.1647 145.615L-65.0211 92.4652L-75.2741 115.843L45.9116 168.993L56.1647 145.615Z" fill="#C4C4C4"/>
<path d="M66.4354 122.191L-54.7503 69.0414L-65.0247 92.4677L56.1611 145.618L66.4354 122.191Z" fill="#D4D4D4"/>
<path fill-rule="evenodd" clip-rule="evenodd" d="M53.0109 123.938C53.0109 125.924 54.6208 127.534 56.6067 127.534C58.5927 127.534 60.2026 125.924 60.2026 123.938C60.2026 121.952 58.5927 120.342 56.6067 120.342C54.6208 120.342 53.0109 121.952 53.0109 123.938ZM56.2189 122.949C56.3537 123.322 56.7658 123.516 57.1394 123.381C57.513 123.246 57.7067 122.834 57.5719 122.46C57.4371 122.087 57.0249 121.893 56.6513 122.028C56.2777 122.163 56.0841 122.575 56.2189 122.949ZM55.2647 124.053C54.8911 124.188 54.4789 123.995 54.3441 123.621C54.2093 123.247 54.4029 122.835 54.7766 122.7C55.1502 122.566 55.5623 122.759 55.6971 123.133C55.8319 123.506 55.6383 123.919 55.2647 124.053ZM55.0633 125.653C55.1981 126.027 55.6103 126.22 55.9839 126.085C56.3575 125.951 56.5511 125.538 56.4163 125.165C56.2815 124.791 55.8694 124.598 55.4957 124.732C55.1221 124.867 54.9285 125.279 55.0633 125.653ZM57.8586 125.413C57.485 125.548 57.0728 125.354 56.938 124.981C56.8032 124.607 56.9969 124.195 57.3705 124.06C57.7441 123.925 58.1562 124.119 58.291 124.492C58.4258 124.866 58.2322 125.278 57.8586 125.413Z" fill="#F7F7F7"/>
<path d="M62.8977 148.443L56.2029 145.507L47.3448 165.704L54.0396 168.64L62.8977 148.443Z" fill="#F9F9F9"/>
<path d="M71.6064 128.584L64.9105 125.647L56.178 145.558L62.8739 148.495L71.6064 128.584Z" fill="white"/>
<path d="M90.6088 145.993C93.4855 143.836 103.44 139.93 108.048 137.909L119.925 132.7C125.017 130.467 130.956 132.784 133.19 137.877L141.673 157.021C143.162 160.416 136.465 160.252 131.849 159.658C128.276 159.198 124.179 158.068 121.302 156.062C118.426 154.056 115.883 152.039 113.862 147.432C113.862 147.432 103.092 151.987 100.446 151.987C97.8005 151.987 95.975 152.136 94.2046 150.788C92.3426 149.37 90.6088 145.993 90.6088 145.993Z" fill="#EBB48B"/>
<path d="M90.607 145.994C90.607 145.994 92.9595 144.419 97.5669 142.398C98.7182 143.865 98.9765 144.58 99.0052 145.515C95.707 147.564 93.8704 147.442 90.607 145.994Z" fill="#F2CCAF"/>
<path d="M96.893 198.972C94.8942 197.264 94.6587 194.259 96.3672 192.26L100.735 187.149C102.444 185.15 105.449 184.914 107.448 186.623C109.447 188.331 109.682 191.337 107.974 193.335L103.606 198.446C101.897 200.445 98.8919 200.681 96.893 198.972Z" fill="#DFA880"/>
<path d="M84.4279 193.064C82.285 191.233 82.0325 188.011 83.8641 185.868L89.0292 179.825C90.8608 177.682 94.0828 177.429 96.2258 179.261C98.3688 181.092 98.6212 184.315 96.7896 186.457L91.6245 192.501C89.7929 194.644 86.5709 194.896 84.4279 193.064Z" fill="#DFA880"/>
<path d="M74.5719 185.27C72.5764 183.564 72.3413 180.564 74.0469 178.569L80.0191 171.581C81.7246 169.586 84.7249 169.351 86.7203 171.056C88.7158 172.762 88.9509 175.762 87.2453 177.757L81.2731 184.745C79.5676 186.74 76.5673 186.975 74.5719 185.27Z" fill="#DFA880"/>
<path d="M65.6724 179.057C63.5609 177.252 63.3122 174.077 65.1169 171.966L69.9809 166.275C71.7856 164.163 74.9604 163.915 77.072 165.719C79.1835 167.524 79.4323 170.699 77.6275 172.81L72.7635 178.501C70.9588 180.613 67.784 180.862 65.6724 179.057Z" fill="#DFA880"/>
<path d="M90.2821 186.724C88.9244 185.564 88.7645 183.522 89.9249 182.165L90.8455 181.088C92.0058 179.73 94.0471 179.57 95.4047 180.731C96.7623 181.891 96.9222 183.932 95.7619 185.29L94.8413 186.367C93.6809 187.725 91.6397 187.884 90.2821 186.724Z" fill="#E4B999"/>
<path d="M101.46 193.914C100.237 192.869 100.093 191.03 101.138 189.808L102.477 188.242C103.522 187.019 105.36 186.875 106.583 187.92C107.805 188.965 107.949 190.803 106.904 192.026L105.566 193.592C104.521 194.814 102.683 194.958 101.46 193.914Z" fill="#E4B999"/>
<path d="M79.9505 178.799C78.6668 177.702 78.5156 175.772 79.6128 174.488L81.2863 172.53C82.3835 171.246 84.3137 171.095 85.5974 172.192C86.8812 173.29 87.0324 175.22 85.9352 176.503L84.2616 178.461C83.1644 179.745 81.2343 179.896 79.9505 178.799Z" fill="#E4B999"/>
<path d="M70.4065 174.006C69.1227 172.909 68.9715 170.979 70.0687 169.695L71.7422 167.737C72.8394 166.453 74.7696 166.302 76.0533 167.399C77.3371 168.497 77.4883 170.427 76.3911 171.71L74.7176 173.668C73.6204 174.952 71.6902 175.103 70.4065 174.006Z" fill="#E4B999"/>
</g>
<circle cx="105" cy="105" r="104" stroke="url(#paint0_linear)" stroke-width="2"/>
<defs>
<linearGradient id="paint0_linear" x1="35.5" y1="27.5" x2="179.5" y2="194.5" gradientUnits="userSpaceOnUse">
<stop stop-color="#00C6A2"/>
<stop offset="1" stop-color="#2B6B6A"/>
</linearGradient>
</defs>
</svg>
