<svg width="210" height="210" viewBox="0 0 210 210" fill="none" xmlns="http://www.w3.org/2000/svg">
<mask id="mask0" mask-type="alpha" maskUnits="userSpaceOnUse" x="0" y="0" width="210" height="210">
<circle cx="105" cy="105" r="105" fill="#C4C4C4"/>
</mask>
<g mask="url(#mask0)">
<path d="M3.83545 3.49673C3.83545 2.88045 4.33504 2.38086 4.95132 2.38086H148.898C149.514 2.38086 150.014 2.88045 150.014 3.49673V193.194C150.014 193.81 149.514 194.31 148.898 194.31H4.95131C4.33504 194.31 3.83545 193.81 3.83545 193.194V3.49673Z" fill="#152935"/>
<path d="M12.7629 12.4225C12.7629 11.8062 13.2625 11.3066 13.8788 11.3066H139.972C140.588 11.3066 141.088 11.8062 141.088 12.4225V184.266C141.088 184.882 140.588 185.382 139.972 185.382H26.5085C26.2774 185.382 26.0521 185.31 25.8635 185.177L13.2338 176.231C12.9385 176.021 12.7629 175.682 12.7629 175.32V12.4225Z" fill="white"/>
<path d="M20.574 26.9284C20.574 26.3121 21.0736 25.8125 21.6898 25.8125H132.161C132.777 25.8125 133.277 26.3121 133.277 26.9284V33.6236C133.277 34.2398 132.777 34.7394 132.161 34.7394H21.6898C21.0736 34.7394 20.574 34.2398 20.574 33.6236V26.9284Z" fill="#65ABBD"/>
<path d="M51.8184 42.5514C51.8184 41.9351 52.318 41.4355 52.9342 41.4355H100.917C101.533 41.4355 102.032 41.9351 102.032 42.5514V48.1307C102.032 48.747 101.533 49.2466 100.917 49.2466H52.9342C52.3179 49.2466 51.8184 48.747 51.8184 48.1307V42.5514Z" fill="#3E8F80"/>
<path d="M20.574 54.8268C20.574 54.2105 21.0736 53.7109 21.6898 53.7109H57.3976C58.0139 53.7109 58.5134 54.2105 58.5134 54.8268V55.9427C58.5134 56.5589 58.0139 57.0585 57.3976 57.0585H21.6898C21.0736 57.0585 20.574 56.5589 20.574 55.9427V54.8268Z" fill="#D4F9F4"/>
<path d="M60.7437 54.8268C60.7437 54.2105 61.2432 53.7109 61.8595 53.7109H105.378C105.995 53.7109 106.494 54.2105 106.494 54.8268V55.9427C106.494 56.5589 105.995 57.0585 105.378 57.0585H61.8595C61.2432 57.0585 60.7437 56.5589 60.7437 55.9427V54.8268Z" fill="#D4F9F4"/>
<path d="M108.727 54.8268C108.727 54.2105 109.226 53.7109 109.842 53.7109H132.16C132.776 53.7109 133.276 54.2105 133.276 54.8268V55.9427C133.276 56.5589 132.776 57.0585 132.16 57.0585H109.842C109.226 57.0585 108.727 56.5589 108.727 55.9427V54.8268Z" fill="#D4F9F4"/>
<path d="M105.379 65.985C105.379 65.3687 105.879 64.8691 106.495 64.8691H132.16C132.776 64.8691 133.276 65.3687 133.276 65.985V67.1009C133.276 67.7172 132.776 68.2167 132.16 68.2167H106.495C105.879 68.2167 105.379 67.7172 105.379 67.1009V65.985Z" fill="#D4F9F4"/>
<path d="M20.574 65.985C20.574 65.3687 21.0736 64.8691 21.6898 64.8691H102.032C102.649 64.8691 103.148 65.3687 103.148 65.985V67.1009C103.148 67.7172 102.649 68.2167 102.032 68.2167H21.6898C21.0736 68.2167 20.574 67.7172 20.574 67.1009V65.985Z" fill="#D4F9F4"/>
<path d="M20.574 71.5651C20.574 70.9488 21.0736 70.4492 21.6898 70.4492H132.161C132.777 70.4492 133.277 70.9488 133.277 71.5651V72.681C133.277 73.2972 132.777 73.7968 132.161 73.7968H21.6898C21.0736 73.7968 20.574 73.2972 20.574 72.681V71.5651Z" fill="#D4F9F4"/>
<path d="M20.574 86.0709C20.574 85.4547 21.0736 84.9551 21.6898 84.9551H132.161C132.777 84.9551 133.277 85.4547 133.277 86.0709V87.1868C133.277 87.8031 132.777 88.3027 132.161 88.3027H21.6898C21.0736 88.3027 20.574 87.8031 20.574 87.1868V86.0709Z" fill="#D4F9F4"/>
<path d="M109.843 92.7643C109.843 92.148 110.343 91.6484 110.959 91.6484H132.16C132.777 91.6484 133.276 92.148 133.276 92.7643V93.8802C133.276 94.4964 132.777 94.996 132.16 94.996H110.959C110.343 94.996 109.843 94.4964 109.843 93.8802V92.7643Z" fill="#D4F9F4"/>
<path d="M81.946 92.7643C81.946 92.148 82.4456 91.6484 83.0619 91.6484H106.495C107.111 91.6484 107.611 92.148 107.611 92.7643V93.8802C107.611 94.4964 107.111 94.996 106.495 94.996H83.0619C82.4456 94.996 81.946 94.4964 81.946 93.8802V92.7643Z" fill="#D4F9F4"/>
<path d="M20.574 92.7643C20.574 92.148 21.0736 91.6484 21.6898 91.6484H78.5991C79.2153 91.6484 79.7149 92.148 79.7149 92.7643V93.8802C79.7149 94.4964 79.2153 94.996 78.5991 94.996H21.6898C21.0736 94.996 20.574 94.4964 20.574 93.8802V92.7643Z" fill="#D4F9F4"/>
<path d="M20.574 98.3463C20.574 97.7301 21.0736 97.2305 21.6898 97.2305H132.161C132.777 97.2305 133.277 97.7301 133.277 98.3463V99.4622C133.277 100.078 132.777 100.578 132.161 100.578H21.6898C21.0736 100.578 20.574 100.078 20.574 99.4622V98.3463Z" fill="#D4F9F4"/>
<path d="M40.6599 113.967C40.6599 113.351 41.1595 112.852 41.7758 112.852H132.161C132.777 112.852 133.277 113.351 133.277 113.967V115.083C133.277 115.7 132.777 116.199 132.161 116.199H41.7758C41.1595 116.199 40.6599 115.7 40.6599 115.083V113.967Z" fill="#D4F9F4"/>
<path d="M20.574 113.967C20.574 113.351 21.0736 112.852 21.6898 112.852H37.312C37.9283 112.852 38.4278 113.351 38.4278 113.967V115.083C38.4278 115.7 37.9283 116.199 37.312 116.199H21.6898C21.0736 116.199 20.574 115.7 20.574 115.083V113.967Z" fill="#D4F9F4"/>
<path d="M106.496 102.809C106.496 102.193 106.995 101.693 107.612 101.693H132.161C132.777 101.693 133.277 102.193 133.277 102.809V103.925C133.277 104.541 132.777 105.041 132.161 105.041H107.612C106.995 105.041 106.496 104.541 106.496 103.925V102.809Z" fill="#D4F9F4"/>
<path d="M118.771 108.387C118.771 107.771 119.27 107.271 119.886 107.271H132.161C132.777 107.271 133.277 107.771 133.277 108.387V109.503C133.277 110.119 132.777 110.619 132.161 110.619H119.886C119.27 110.619 118.771 110.119 118.771 109.503V108.387Z" fill="#D4F9F4"/>
<path d="M113.19 118.43C113.19 117.814 113.69 117.314 114.306 117.314H132.16C132.776 117.314 133.276 117.814 133.276 118.43V119.546C133.276 120.162 132.776 120.662 132.16 120.662H114.306C113.69 120.662 113.19 120.162 113.19 119.546V118.43Z" fill="#D4F9F4"/>
<path d="M74.135 118.43C74.135 117.814 74.6346 117.314 75.2509 117.314H109.843C110.459 117.314 110.959 117.814 110.959 118.43V119.546C110.959 120.162 110.459 120.662 109.843 120.662H75.2509C74.6346 120.662 74.135 120.162 74.135 119.546V118.43Z" fill="#D4F9F4"/>
<path d="M20.574 118.43C20.574 117.814 21.0736 117.314 21.6898 117.314H70.788C71.4043 117.314 71.9039 117.814 71.9039 118.43V119.546C71.9039 120.162 71.4043 120.662 70.788 120.662H21.6898C21.0736 120.662 20.574 120.162 20.574 119.546V118.43Z" fill="#D4F9F4"/>
<path d="M81.946 142.981C81.946 142.365 82.4456 141.865 83.0619 141.865H132.16C132.776 141.865 133.276 142.365 133.276 142.981V144.097C133.276 144.713 132.776 145.213 132.16 145.213H83.0619C82.4456 145.213 81.946 144.713 81.946 144.097V142.981Z" fill="#D4F9F4"/>
<path d="M81.946 148.559C81.946 147.943 82.4456 147.443 83.0619 147.443H132.16C132.776 147.443 133.276 147.943 133.276 148.559V149.675C133.276 150.291 132.776 150.791 132.16 150.791H83.0619C82.4456 150.791 81.946 150.291 81.946 149.675V148.559Z" fill="#D4F9F4"/>
<path d="M56.282 142.981C56.282 142.365 56.7816 141.865 57.3978 141.865H78.5993C79.2156 141.865 79.7152 142.365 79.7152 142.981V144.097C79.7152 144.713 79.2156 145.213 78.5993 145.213H57.3978C56.7816 145.213 56.282 144.713 56.282 144.097V142.981Z" fill="#D4F9F4"/>
<path d="M56.282 148.559C56.282 147.943 56.7816 147.443 57.3978 147.443H78.5993C79.2156 147.443 79.7152 147.943 79.7152 148.559V149.675C79.7152 150.291 79.2156 150.791 78.5993 150.791H57.3978C56.7816 150.791 56.282 150.291 56.282 149.675V148.559Z" fill="#D4F9F4"/>
<path d="M80.8296 108.387C80.8296 107.771 81.3292 107.271 81.9455 107.271H115.421C116.038 107.271 116.537 107.771 116.537 108.387V109.503C116.537 110.119 116.038 110.619 115.421 110.619H81.9455C81.3292 110.619 80.8296 110.119 80.8296 109.503V108.387Z" fill="#D4F9F4"/>
<path d="M20.574 108.387C20.574 107.771 21.0736 107.271 21.6898 107.271H77.4832C78.0995 107.271 78.599 107.771 78.599 108.387V109.503C78.599 110.119 78.0995 110.619 77.4832 110.619H21.6898C21.0736 110.619 20.574 110.119 20.574 109.503V108.387Z" fill="#D4F9F4"/>
<path d="M59.6294 102.809C59.6294 102.193 60.129 101.693 60.7453 101.693H103.148C103.764 101.693 104.264 102.193 104.264 102.809V103.925C104.264 104.541 103.764 105.041 103.148 105.041H60.7453C60.129 105.041 59.6294 104.541 59.6294 103.925V102.809Z" fill="#D4F9F4"/>
<path d="M20.574 102.809C20.574 102.193 21.0736 101.693 21.6898 101.693H55.1658C55.7821 101.693 56.2817 102.193 56.2817 102.809V103.925C56.2817 104.541 55.7821 105.041 55.1658 105.041H21.6898C21.0736 105.041 20.574 104.541 20.574 103.925V102.809Z" fill="#D4F9F4"/>
<path d="M89.7573 76.028C89.7573 75.4117 90.2569 74.9121 90.8732 74.9121H132.16C132.777 74.9121 133.276 75.4117 133.276 76.028V77.1438C133.276 77.7601 132.777 78.2597 132.16 78.2597H90.8732C90.2569 78.2597 89.7573 77.7601 89.7573 77.1438V76.028Z" fill="#D4F9F4"/>
<path d="M67.4404 80.4928C67.4404 79.8765 67.94 79.377 68.5563 79.377H132.161C132.777 79.377 133.277 79.8765 133.277 80.4928V81.6087C133.277 82.225 132.777 82.7246 132.161 82.7246H68.5563C67.94 82.7246 67.4404 82.225 67.4404 81.6087V80.4928Z" fill="#D4F9F4"/>
<path d="M20.574 80.4928C20.574 79.8765 21.0736 79.377 21.6898 79.377H64.0928C64.7091 79.377 65.2086 79.8765 65.2086 80.4928V81.6087C65.2086 82.225 64.7091 82.7246 64.0928 82.7246H21.6898C21.0736 82.7246 20.574 82.225 20.574 81.6087V80.4928Z" fill="#D4F9F4"/>
<path d="M39.5435 76.028C39.5435 75.4117 40.043 74.9121 40.6593 74.9121H86.4099C87.0261 74.9121 87.5257 75.4117 87.5257 76.028V77.1438C87.5257 77.7601 87.0261 78.2597 86.4099 78.2597H40.6593C40.043 78.2597 39.5435 77.7601 39.5435 77.1438V76.028Z" fill="#D4F9F4"/>
<path d="M20.574 76.028C20.574 75.4117 21.0736 74.9121 21.6898 74.9121H36.1961C36.8124 74.9121 37.312 75.4117 37.312 76.028V77.1438C37.312 77.7601 36.8124 78.2597 36.1961 78.2597H21.6898C21.0736 78.2597 20.574 77.7601 20.574 77.1438V76.028Z" fill="#D4F9F4"/>
<path d="M20.574 59.2897C20.574 58.6734 21.0736 58.1738 21.6898 58.1738H57.3976C58.0139 58.1738 58.5134 58.6734 58.5134 59.2897V60.4056C58.5134 61.0218 58.0139 61.5214 57.3976 61.5214H21.6898C21.0736 61.5214 20.574 61.0218 20.574 60.4056V59.2897Z" fill="#D4F9F4"/>
<path d="M60.7437 59.2897C60.7437 58.6734 61.2432 58.1738 61.8595 58.1738H132.159C132.775 58.1738 133.275 58.6734 133.275 59.2897V60.4056C133.275 61.0218 132.775 61.5214 132.159 61.5214H61.8595C61.2432 61.5214 60.7437 61.0218 60.7437 60.4056V59.2897Z" fill="#D4F9F4"/>
<path d="M47.3547 3.49673C47.3547 2.88045 47.8543 2.38086 48.4706 2.38086H105.38C105.996 2.38086 106.496 2.88045 106.496 3.49673V21.3506C106.496 21.9669 105.996 22.4665 105.38 22.4665H48.4706C47.8543 22.4665 47.3547 21.9669 47.3547 21.3506V3.49673Z" fill="#A2A8AD"/>
<path d="M47.3547 3.49673C47.3547 2.88045 47.8543 2.38086 48.4706 2.38086H105.38C105.996 2.38086 106.496 2.88045 106.496 3.49673V15.7713C106.496 16.3875 105.996 16.8871 105.38 16.8871H48.4706C47.8543 16.8871 47.3547 16.3875 47.3547 15.7713V3.49673Z" fill="#E5E4E7"/>
<path d="M47.3547 3.49673C47.3547 2.88045 47.8543 2.38086 48.4706 2.38086H105.38C105.996 2.38086 106.496 2.88045 106.496 3.49673V10.1919C106.496 10.8082 105.996 11.3078 105.38 11.3078H48.4706C47.8543 11.3078 47.3547 10.8082 47.3547 10.1919V3.49673Z" fill="#EEEAE7"/>
<path d="M91.988 3.49673C91.988 2.88045 92.4876 2.38086 93.1039 2.38086H98.6832C99.2995 2.38086 99.7991 2.88045 99.7991 3.49673V5.72846C99.7991 6.34474 99.2995 6.84433 98.6832 6.84433H93.1039C92.4876 6.84433 91.988 6.34474 91.988 5.72846V3.49673Z" fill="#D6D4D2"/>
<path d="M54.0491 3.49673C54.0491 2.88045 54.5487 2.38086 55.1649 2.38086H60.7443C61.3605 2.38086 61.8601 2.88045 61.8601 3.49673V5.72846C61.8601 6.34474 61.3605 6.84433 60.7443 6.84433H55.1649C54.5487 6.84433 54.0491 6.34474 54.0491 5.72846V3.49673Z" fill="#D6D4D2"/>
<path d="M91.9888 4.05455C91.9888 8.67662 85.2443 12.4235 76.9246 12.4235C68.6048 12.4235 61.8604 8.67662 61.8604 4.05455C61.8604 -0.567523 68.6048 -4.31445 76.9246 -4.31445C85.2443 -4.31445 91.9888 -0.567523 91.9888 4.05455Z" fill="#BEBCBA"/>
<path fill-rule="evenodd" clip-rule="evenodd" d="M42.8917 156.929C52.444 156.929 60.1876 149.185 60.1876 139.633C60.1876 130.081 52.444 122.337 42.8917 122.337C33.3394 122.337 25.5958 130.081 25.5958 139.633C25.5958 149.185 33.3394 156.929 42.8917 156.929ZM42.8917 157.487C52.7521 157.487 60.7456 149.494 60.7456 139.633C60.7456 129.773 52.7521 121.779 42.8917 121.779C33.0313 121.779 25.0378 129.773 25.0378 139.633C25.0378 149.494 33.0313 157.487 42.8917 157.487Z" fill="#B9C6CE"/>
<path fill-rule="evenodd" clip-rule="evenodd" d="M57.0328 128.734C57.1465 128.882 57.2577 129.031 57.3664 129.182C59.4506 132.069 60.6239 135.514 60.7351 139.073C60.7409 139.259 60.7438 139.445 60.7438 139.631H54.6515C54.6515 137.036 53.793 134.513 52.21 132.457C52.2089 132.456 52.2079 132.454 52.2068 132.453L57.0328 128.734ZM56.9242 129.522L52.9793 132.562C54.3216 134.478 55.0909 136.736 55.1968 139.073H60.1769C60.0661 135.637 58.9335 132.312 56.9242 129.522Z" fill="#B9C6CE"/>
<path fill-rule="evenodd" clip-rule="evenodd" d="M39.0596 122.195C39.2415 122.155 39.4238 122.118 39.6064 122.084C43.1065 121.429 46.7232 121.835 49.9905 123.251C50.1596 123.325 50.3279 123.401 50.4951 123.479C50.4964 123.48 50.4977 123.481 50.499 123.481L47.9031 128.993C45.5544 127.887 42.9058 127.589 40.3701 128.145C40.3691 128.145 40.3681 128.146 40.3672 128.146L39.0596 122.195ZM39.7262 122.629L40.7951 127.493C43.1002 127.095 45.4714 127.362 47.6307 128.262L49.7526 123.756C46.597 122.393 43.1059 122 39.7262 122.629Z" fill="#B9C6CE"/>
<path fill-rule="evenodd" clip-rule="evenodd" d="M25.7532 134.628C25.8054 134.45 25.8603 134.272 25.918 134.095C27.0226 130.71 29.1148 127.732 31.9249 125.545C32.0715 125.431 32.22 125.319 32.3705 125.209L35.9604 130.131C33.8621 131.662 32.3293 133.843 31.6012 136.336L25.7532 134.628ZM26.4538 134.252L31.2342 135.648C31.991 133.435 33.3627 131.482 35.1883 130.019L32.2538 125.996C29.543 128.11 27.5235 130.985 26.4538 134.252Z" fill="#B9C6CE"/>
<path fill-rule="evenodd" clip-rule="evenodd" d="M33.8953 155.054C33.7345 154.96 33.5753 154.864 33.4178 154.765C30.3997 152.875 28.0154 150.126 26.572 146.87C26.4966 146.701 26.4239 146.529 26.3538 146.357L31.9976 144.062C32.9756 146.468 34.7225 148.483 36.9657 149.792L33.8953 155.054ZM33.6991 154.283L36.209 149.982C34.244 148.712 32.6807 146.91 31.7025 144.785L27.0891 146.66C28.4857 149.801 30.7873 152.456 33.6991 154.283Z" fill="#B9C6CE"/>
<path fill-rule="evenodd" clip-rule="evenodd" d="M57.0501 150.508C56.9366 150.656 56.821 150.801 56.7033 150.945C54.447 153.7 51.418 155.718 48.0063 156.738C47.8293 156.791 47.6513 156.841 47.4723 156.888C47.4713 156.889 47.4703 156.889 47.4693 156.889L45.907 151.001C48.4172 150.335 50.6365 148.857 52.2185 146.797L57.0501 150.508ZM56.2606 150.605L52.3111 147.572C50.8036 149.36 48.8176 150.683 46.5861 151.385L47.8632 156.198C51.1558 155.21 54.0797 153.263 56.2606 150.605Z" fill="#B9C6CE"/>
<path fill-rule="evenodd" clip-rule="evenodd" d="M61.3017 173.667C69.9295 173.667 76.9238 166.673 76.9238 158.045C76.9238 149.417 69.9295 142.423 61.3017 142.423C52.6738 142.423 45.6795 149.417 45.6795 158.045C45.6795 166.673 52.6738 173.667 61.3017 173.667ZM61.3017 174.225C70.2377 174.225 77.4817 166.981 77.4817 158.045C77.4817 149.109 70.2377 141.865 61.3017 141.865C52.3656 141.865 45.1216 149.109 45.1216 158.045C45.1216 166.981 52.3656 174.225 61.3017 174.225Z" fill="#6B7880"/>
<path fill-rule="evenodd" clip-rule="evenodd" d="M89.0243 151.65C89.5233 151.869 89.8686 152.308 90.0275 152.956C90.1938 153.633 90.1912 154.505 90.152 155.188C90.1321 155.533 90.1024 155.838 90.0776 156.057C90.0652 156.166 90.054 156.254 90.0459 156.315C90.0418 156.345 90.0385 156.369 90.0362 156.385L90.0335 156.404L90.0327 156.409L90.0325 156.411L89.4807 156.328L89.4814 156.323L89.4838 156.307C89.4859 156.292 89.489 156.27 89.4928 156.241C89.5005 156.183 89.5113 156.099 89.5232 155.994C89.5471 155.783 89.5758 155.489 89.5949 155.156C89.6336 154.482 89.631 153.681 89.4856 153.089C89.3597 152.576 89.1106 152.297 88.8004 152.161C88.4756 152.019 88.0341 152.011 87.4928 152.15C86.4098 152.428 85.0639 153.259 83.8317 154.362C82.6025 155.462 81.5202 156.804 80.9455 158.07C80.3662 159.346 80.3372 160.452 81.0339 161.201C83.1349 163.461 86.1938 163.17 89.0718 161.701C89.4392 161.513 89.6744 161.246 89.9361 160.949C89.9789 160.901 90.0223 160.852 90.0671 160.802C90.3804 160.454 90.751 160.097 91.388 160C91.8295 159.932 92.2275 159.951 92.5975 160.044C93.9026 159.19 95.1908 158.4 96.2716 157.757C97.1015 157.263 97.81 156.855 98.3111 156.571C98.5617 156.429 98.7605 156.318 98.8968 156.242C98.965 156.204 99.0175 156.175 99.053 156.155L99.0934 156.133L99.1064 156.126C99.1066 156.126 99.1074 156.125 99.2414 156.37C99.3754 156.614 99.3754 156.614 99.3753 156.615L99.3623 156.622L99.3227 156.643C99.2877 156.663 99.2358 156.692 99.1682 156.729C99.0332 156.804 98.8357 156.915 98.5864 157.056C98.088 157.339 97.3829 157.745 96.5569 158.236C95.5734 158.821 94.4198 159.527 93.2402 160.291C93.6592 160.51 94.0396 160.824 94.4153 161.192C95.5473 162.301 95.4561 163.827 94.7994 165.162C94.1429 166.497 92.8928 167.722 91.5468 168.34C89.9801 169.06 88.7668 168.783 87.2514 168.437C87.138 168.411 87.0229 168.385 86.9058 168.359C86.0684 168.171 85.514 167.813 85.3674 167.235C85.2281 166.685 85.5003 166.073 85.9312 165.48C86.8089 164.272 88.5807 162.83 90.5181 161.457C90.9652 161.14 91.4228 160.825 91.8827 160.517C91.7523 160.518 91.616 160.529 91.4727 160.551C91.0329 160.619 90.7728 160.852 90.482 161.175C90.4435 161.218 90.4043 161.262 90.3638 161.309C90.1045 161.605 89.795 161.958 89.3255 162.198C86.3688 163.707 82.985 164.119 80.6253 161.581C79.6951 160.581 79.8261 159.186 80.4375 157.839C81.0536 156.482 82.1927 155.08 83.4595 153.946C84.7234 152.815 86.1481 151.919 87.3541 151.61C87.9573 151.455 88.5399 151.438 89.0243 151.65ZM92.685 160.654C92.0642 161.063 91.4426 161.485 90.8407 161.912C88.9011 163.287 87.2002 164.683 86.3826 165.808C85.9659 166.381 85.8348 166.808 85.9082 167.098C85.9744 167.359 86.2488 167.639 87.0279 167.814C87.137 167.839 87.2435 167.863 87.3476 167.886C88.8869 168.236 89.924 168.471 91.3139 167.833C92.5419 167.269 93.6981 166.137 94.2987 164.916C94.8991 163.695 94.9158 162.464 94.0248 161.59C93.6159 161.19 93.2363 160.892 92.8327 160.713C92.7841 160.692 92.7348 160.672 92.685 160.654Z" fill="#334048"/>
<path fill-rule="evenodd" clip-rule="evenodd" d="M41.4431 146.859C42.9846 146.926 44.3871 147.495 45.3557 148.962C46.2754 150.354 46.2344 151.725 45.7747 153.071C45.4166 154.12 44.7938 155.18 44.172 156.239C44.0102 156.514 43.8484 156.79 43.6914 157.065C42.7185 158.769 41.6844 160.094 40.406 161.116C40.2563 161.236 40.1034 161.351 39.9472 161.462C40.4151 161.346 40.9078 161.198 41.4062 161.039C41.6731 160.954 41.9437 160.865 42.2123 160.777C42.6144 160.645 43.0119 160.515 43.3857 160.401C44.0109 160.21 44.602 160.054 45.0923 160C45.2494 159.982 45.4038 159.964 45.5561 159.946C47.0642 159.768 48.3528 159.617 49.7479 160.607L49.7669 160.621L50.8176 161.669H54.3672C56.4003 158.544 58.3458 155.463 59.8123 153.141C60.1706 152.574 60.5002 152.052 60.7956 151.585C61.5954 150.323 62.1551 149.45 62.3428 149.208C62.3628 149.182 62.3968 149.139 62.4346 149.108C62.445 149.1 62.4688 149.081 62.5024 149.066C62.5257 149.055 62.6237 149.013 62.7377 149.065C62.866 149.123 62.8945 149.241 62.9005 149.281C62.9072 149.325 62.9018 149.361 62.8995 149.375C62.891 149.427 62.8677 149.481 62.855 149.51C62.8375 149.55 62.8138 149.6 62.7849 149.659C62.6696 149.892 62.4469 150.307 62.1052 150.927C60.8443 153.214 59.0251 156.011 57.5246 158.233C56.7737 159.344 56.1013 160.313 55.6167 161.005C55.3743 161.351 55.1789 161.627 55.044 161.817C54.9765 161.912 54.9242 161.985 54.8887 162.035L54.8353 162.109L54.8346 162.11C54.8346 162.11 54.8344 162.111 54.7738 162.067L54.8346 162.11L54.7509 162.227H54.6697C54.6208 162.302 54.5718 162.377 54.5227 162.452C55.5967 162.288 56.7045 162.08 57.8653 161.684C58.7013 161.399 59.471 161.193 60.1579 161.009C60.2836 160.976 60.4065 160.943 60.5266 160.911C61.2985 160.702 61.9424 160.511 62.4737 160.246C62.5044 160.184 62.5352 160.121 62.5662 160.059C63.1115 158.963 63.696 157.877 64.3051 156.835C64.3473 156.576 64.5159 156.336 64.7315 156.12C66.1073 153.857 67.5874 151.851 69.0121 150.47C70.1138 149.403 71.2209 148.671 72.2515 148.528C72.776 148.456 73.2807 148.536 73.7434 148.8C74.2025 149.063 74.6007 149.495 74.9368 150.095C75.1388 150.456 74.9721 150.816 74.7372 151.09C74.4973 151.371 74.1157 151.655 73.6623 151.938C72.7498 152.507 71.4527 153.127 70.1434 153.744C70.0565 153.785 69.9695 153.826 69.8826 153.867C68.6508 154.447 67.4248 155.025 66.4779 155.567C65.9705 155.858 65.5561 156.132 65.2679 156.383C65.2333 156.413 65.2013 156.442 65.1718 156.47C65.0634 156.649 64.9556 156.83 64.8484 157.012C64.7699 158.035 64.5592 158.807 64.2088 159.404C63.8771 159.969 63.4312 160.359 62.8944 160.655C62.7921 160.864 62.6913 161.074 62.5921 161.283C63.4718 160.961 64.4292 160.675 65.3843 160.456C66.5712 160.184 67.77 160.013 68.8295 160.01C69.88 160.007 70.8344 160.169 71.4981 160.601C72.1219 161.007 72.3806 161.535 72.412 162.127C72.442 162.691 72.2645 163.302 72.0679 163.895C72.0271 164.018 71.9853 164.141 71.9436 164.264C71.7784 164.749 71.6145 165.23 71.5178 165.715C71.3979 166.316 71.3896 166.888 71.6048 167.426C71.7145 167.701 71.8181 167.869 71.9051 167.962C71.9887 168.051 72.0326 168.048 72.0423 168.048C72.0645 168.046 72.1256 168.027 72.2223 167.921C72.3162 167.818 72.419 167.659 72.5248 167.441C72.9513 166.563 73.3227 164.958 73.4948 163.24C73.6668 161.523 73.6342 159.748 73.2874 158.53C73.113 157.917 72.8711 157.488 72.5779 157.261C72.3073 157.052 71.9533 156.984 71.4494 157.186L71.2422 156.667C71.8938 156.407 72.4642 156.468 72.9194 156.82C73.352 157.155 73.6373 157.721 73.824 158.377C74.1994 159.696 74.2246 161.553 74.0499 163.296C73.8754 165.038 73.4958 166.719 73.0267 167.685C72.9086 167.928 72.7785 168.14 72.6345 168.297C72.4933 168.452 72.3116 168.584 72.09 168.603C71.856 168.624 71.6553 168.512 71.4974 168.343C71.3429 168.177 71.2082 167.937 71.0868 167.634C70.8165 166.958 70.8392 166.265 70.9706 165.606C71.0753 165.081 71.2545 164.555 71.4209 164.067C71.4612 163.949 71.5008 163.833 71.5384 163.719C71.737 163.12 71.8786 162.602 71.8549 162.156C71.8327 161.739 71.6651 161.376 71.1935 161.068C70.667 160.726 69.8457 160.565 68.8311 160.568C67.8254 160.571 66.6697 160.734 65.5089 161C64.3693 161.261 63.2394 161.617 62.2547 162.009C61.3659 163.959 60.6251 165.888 60.1135 167.609C60.4559 167.946 60.8288 168.28 61.2041 168.614C61.2379 168.644 61.2717 168.674 61.3056 168.704C61.7705 169.118 62.2358 169.531 62.6294 169.937C63.0491 170.37 63.4097 170.816 63.6026 171.269C63.8012 171.735 63.8265 172.224 63.5508 172.698C63.2865 173.153 62.7679 173.554 61.9784 173.92C61.3652 174.205 60.8285 174.338 60.3703 174.307C59.8988 174.274 59.525 174.068 59.2622 173.715C59.0077 173.373 58.8708 172.913 58.8164 172.385C58.7616 171.854 58.7878 171.231 58.8798 170.542C58.9904 169.714 59.1981 168.777 59.4859 167.768C59.447 167.728 59.4087 167.688 59.3708 167.648C58.9259 167.174 58.5368 166.675 58.3006 166.154C58.0618 165.627 57.975 165.066 58.1534 164.49C58.3301 163.919 58.755 163.372 59.4616 162.841C60.0254 162.417 60.8621 161.978 61.8399 161.575C61.9266 161.387 62.0146 161.199 62.1038 161.011C61.6658 161.174 61.1852 161.311 60.6722 161.449C60.5497 161.482 60.4251 161.516 60.2984 161.549C59.6116 161.733 58.8621 161.933 58.0455 162.212C56.6815 162.677 55.3566 162.897 54.1138 163.078C51.441 167.155 48.6896 171.177 46.7362 173.54C46.2367 174.145 45.7845 174.646 45.3956 175.015C45.2011 175.199 45.0186 175.353 44.8505 175.471C44.6854 175.588 44.5193 175.679 44.3591 175.722C44.1949 175.765 44.0035 175.764 43.8402 175.643C43.6865 175.528 43.6163 175.348 43.5849 175.173C43.5226 174.824 43.5795 174.3 43.7348 173.606C43.8775 172.969 43.9908 172.366 44.0994 171.789C44.52 169.551 44.8696 167.691 46.5842 165.675C48.1375 163.85 49.9051 163.226 51.8078 162.868C52.4044 162.756 53.0066 162.671 53.6184 162.584C53.6741 162.576 53.7299 162.568 53.7857 162.56C53.7983 162.541 53.8109 162.522 53.8235 162.502C53.8836 162.41 53.9436 162.319 54.0036 162.227H50.5869L49.4061 161.049C48.2006 160.202 47.1283 160.326 45.6037 160.503C45.458 160.52 45.3081 160.537 45.1535 160.554C44.7188 160.602 44.1702 160.744 43.5487 160.934C43.1778 161.048 42.7925 161.174 42.3966 161.304C42.1273 161.392 41.8532 161.482 41.5755 161.571C40.8972 161.787 40.2096 161.99 39.5727 162.119C39.2542 162.184 38.9422 162.232 38.6457 162.252C37.7775 162.698 36.8087 163.053 35.7071 163.334C33.9451 163.784 32.5352 163.606 31.1395 163.266C30.7161 163.164 30.2991 163.048 29.876 162.93C28.8947 162.657 27.8805 162.375 26.6765 162.225L26.7457 161.671C27.9921 161.827 29.0706 162.126 30.0674 162.403C30.4807 162.518 30.88 162.629 31.2713 162.724C32.6165 163.051 33.927 163.213 35.569 162.793C36.285 162.611 36.9388 162.397 37.5411 162.148C37.1948 162.018 36.9421 161.769 36.7756 161.44C36.5743 161.041 36.5011 160.531 36.5049 159.976C36.5112 159.036 36.7399 157.884 37.0583 156.725C36.3075 157.507 35.4821 158.179 34.6881 158.602C33.8055 159.072 32.8782 159.275 32.1477 158.84C30.3967 157.797 30.2857 155.981 30.3378 154.129C30.3879 152.347 31.1604 151.008 32.3309 149.987C33.4923 148.973 35.0439 148.272 36.6663 147.735C38.2382 147.214 39.9163 146.792 41.4431 146.859ZM37.9441 155.707C37.8866 155.886 37.8305 156.067 37.7761 156.248C37.3689 157.604 37.0697 158.95 37.0628 159.979C37.0593 160.495 37.1299 160.903 37.2737 161.188C37.4101 161.458 37.6123 161.622 37.9162 161.673C38.0886 161.702 38.2823 161.711 38.4946 161.702C39.0598 161.403 39.5769 161.065 40.0576 160.68C41.2642 159.716 42.2564 158.453 43.2069 156.788C43.3732 156.497 43.5413 156.21 43.707 155.928C44.3245 154.876 44.9087 153.881 45.2467 152.891C45.6671 151.66 45.6896 150.48 44.8901 149.269C44.0417 147.984 42.8248 147.478 41.4187 147.416C39.9978 147.354 38.3999 147.749 36.8416 148.264C35.246 148.792 33.7767 149.465 32.6977 150.407C31.6278 151.341 30.9406 152.539 30.8955 154.145C30.843 156.014 30.9856 157.498 32.4332 158.361C32.9012 158.639 33.5883 158.555 34.4259 158.109C35.2484 157.672 36.1366 156.924 36.9339 156.039C37.1096 155.845 37.2802 155.644 37.4441 155.439C37.8134 154.296 38.2307 153.203 38.5743 152.355C38.7786 151.85 38.9572 151.431 39.0849 151.138C39.1487 150.991 39.1998 150.876 39.2351 150.797L39.2756 150.707L39.2862 150.684L39.289 150.678L39.2897 150.676C39.2898 150.676 39.29 150.676 39.5436 150.792L39.2897 150.676L39.5872 150.028L39.8087 150.705C40.06 151.474 39.8249 152.467 39.3659 153.45C39.016 154.199 38.5195 154.978 37.9441 155.707ZM39.2312 152.222C39.1483 152.531 39.0239 152.864 38.8604 153.214C38.8197 153.301 38.7767 153.389 38.7317 153.477C38.8566 153.151 38.978 152.844 39.0915 152.564C39.1396 152.445 39.1863 152.331 39.2312 152.222ZM53.3772 163.183C52.8714 163.255 52.3816 163.328 51.9108 163.417C50.0745 163.761 48.4477 164.346 47.0092 166.037C45.3982 167.931 45.0783 169.624 44.6606 171.835C44.5492 172.425 44.4309 173.051 44.2793 173.728C44.1249 174.417 44.0932 174.846 44.1341 175.075C44.1468 175.145 44.1631 175.178 44.171 175.19C44.1793 175.19 44.1935 175.188 44.2159 175.183C44.2845 175.164 44.3881 175.115 44.5296 175.015C44.6682 174.918 44.8293 174.783 45.012 174.61C45.3773 174.264 45.8131 173.781 46.3062 173.185C48.1726 170.927 50.7903 167.118 53.3772 163.183ZM61.499 162.33C60.8004 162.647 60.2117 162.975 59.7968 163.287C59.1471 163.775 58.8168 164.234 58.6864 164.655C58.5577 165.071 58.6118 165.488 58.8088 165.923C58.9912 166.326 59.2926 166.734 59.6697 167.149C60.1347 165.64 60.7621 163.995 61.499 162.33ZM59.9399 168.217C59.7017 169.089 59.5288 169.897 59.4328 170.616C59.3443 171.278 59.3225 171.855 59.3713 172.328C59.4205 172.804 59.5387 173.152 59.7097 173.382C59.8724 173.6 60.0947 173.728 60.4085 173.75C60.7356 173.772 61.1737 173.679 61.7434 173.414C62.4927 173.066 62.8888 172.727 63.0685 172.418C63.2367 172.129 63.2352 171.83 63.0892 171.487C62.9376 171.131 62.6359 170.745 62.2289 170.325C61.8503 169.935 61.4 169.535 60.9305 169.117C60.8982 169.089 60.8658 169.06 60.8333 169.031C60.535 168.766 60.2311 168.494 59.9399 168.217ZM63.5015 159.45C63.583 159.349 63.6583 159.24 63.7276 159.122C63.8351 158.939 63.9296 158.731 64.0099 158.494C63.8378 158.81 63.6682 159.129 63.5015 159.45ZM65.9516 155.229C66.0326 155.18 66.1156 155.132 66.2005 155.083C67.1678 154.529 68.4135 153.942 69.638 153.365C69.7273 153.323 69.8165 153.281 69.9055 153.239C71.2232 152.618 72.4879 152.013 73.367 151.465C73.8092 151.189 74.1307 150.941 74.3132 150.728C74.5005 150.509 74.4754 150.413 74.45 150.368C74.1487 149.83 73.815 149.484 73.4666 149.285C73.1217 149.088 72.7433 149.024 72.328 149.081C71.4792 149.199 70.4801 149.825 69.4003 150.871C68.2674 151.969 67.0879 153.487 65.9516 155.229Z" fill="#334048"/>
<path fill-rule="evenodd" clip-rule="evenodd" d="M159.965 105.619V88.1709C159.965 77.6513 151.515 69.1234 141.091 69.1234C130.668 69.1234 122.218 77.6513 122.218 88.1709V105.619C122.218 116.139 130.668 124.667 141.091 124.667C151.515 124.667 159.965 116.139 159.965 105.619ZM141.091 53.7109C122.233 53.7109 106.946 69.1392 106.946 88.1709V105.619C106.946 124.651 122.233 140.079 141.091 140.079C159.949 140.079 175.237 124.651 175.237 105.619V88.1709C175.237 69.1392 159.949 53.7109 141.091 53.7109Z" fill="#DCDCDC"/>
<path fill-rule="evenodd" clip-rule="evenodd" d="M141.091 53.7112C141.044 53.711 140.996 53.7109 140.948 53.7109C122.169 53.7109 106.946 69.1392 106.946 88.1709V105.619C106.946 124.651 122.169 140.079 140.948 140.079C140.996 140.079 141.044 140.079 141.091 140.079V124.666C141.044 124.666 140.996 124.667 140.948 124.667C130.568 124.667 122.153 116.139 122.153 105.619V88.1709C122.153 77.6513 130.568 69.1234 140.948 69.1234C140.996 69.1234 141.044 69.1236 141.091 69.124V53.7112Z" fill="#F0F0F0"/>
<path d="M90.8738 106.885C90.8738 104.14 93.1153 101.914 95.8805 101.914H186.295C189.06 101.914 191.302 104.14 191.302 106.885V173.268C191.302 176.014 189.06 178.239 186.295 178.239H95.8805C93.1153 178.239 90.8738 176.014 90.8738 173.268V106.885Z" fill="#F3AC36"/>
<path d="M141.087 101.914H186.28C189.053 101.914 191.301 104.14 191.301 106.885V173.268C191.301 176.014 189.053 178.239 186.28 178.239H141.087V101.914Z" fill="#E8960C"/>
<path d="M153.138 131.039C153.138 137.14 147.743 142.086 141.087 142.086C134.431 142.086 129.035 137.14 129.035 131.039C129.035 124.938 134.431 119.992 141.087 119.992C147.743 119.992 153.138 124.938 153.138 131.039Z" fill="#BD7E0C"/>
<path d="M137.067 135.202C137.067 132.347 139.315 130.033 142.089 130.033C144.862 130.033 147.11 132.347 147.11 135.202V154.993C147.11 157.847 144.862 160.162 142.089 160.162C139.315 160.162 137.067 157.847 137.067 154.993V135.202Z" fill="#BD7E0C"/>
</g>
<circle cx="105" cy="105" r="104" stroke="url(#paint0_linear)" stroke-width="2"/>
<defs>
<linearGradient id="paint0_linear" x1="35.5" y1="27.5" x2="179.5" y2="194.5" gradientUnits="userSpaceOnUse">
<stop stop-color="#00C6A2"/>
<stop offset="1" stop-color="#2B6B6A"/>
</linearGradient>
</defs>
</svg>
