<svg width="1920" height="2968" viewBox="0 0 1920 2968" fill="none" xmlns="http://www.w3.org/2000/svg">
<path d="M0 571.783C0 571.783 233.63 680.105 389.5 705.261C788.771 769.699 993.594 361.698 1394.5 404.097C1604.79 426.338 1920 571.783 1920 571.783V2968C1920 2968 1304.49 2470.1 771 2570.6C175.5 2682.78 0 2275.43 0 2275.43V571.783Z" fill="#F2FFFF"/>
<path d="M1689.4 1933.12C1671.21 1943.42 1677.74 1956.06 1677.74 1956.06C1677.74 1956.06 1659.55 1956.06 1655.82 1972.91C1652.09 1989.76 1661.42 1999.59 1677.74 2004.27C1694.07 2008.95 1707.59 1992.57 1707.59 1992.57C1707.59 1992.57 1716.92 2006.14 1731.85 2006.14C1746.77 2006.14 1758.9 1996.78 1758.9 1996.78C1758.9 1996.78 1771.03 2013.46 1789.22 2006.14C1799.04 2002.19 1812.08 1992.57 1808.35 1972.91C1804.61 1953.25 1784.56 1950.44 1784.56 1950.44C1784.56 1950.44 1787.36 1913.46 1758.9 1912.05C1730.45 1910.65 1723.45 1937.33 1723.45 1937.33C1723.45 1937.33 1707.59 1922.82 1689.4 1933.12Z" fill="white"/>
<path d="M44.8447 1077.1C27.0153 1087.07 26.1455 1105.28 26.1455 1105.28C26.1455 1105.28 -4.6896 1108.32 -14.2975 1129.99C-23.9053 1151.67 -22.1248 1164.67 -15.6016 1177.68C-9.0784 1190.68 3.53323 1196.75 18.7528 1201.95C33.9724 1207.15 54.8467 1199.79 54.8467 1199.79C54.8467 1199.79 72.2412 1218.43 96.1589 1217.99C120.077 1217.56 135.297 1199.79 135.297 1199.79C135.297 1199.79 161.657 1210.67 178.349 1207.15C195.678 1203.51 207.058 1196.96 215.747 1181.58C225.411 1164.47 225.425 1148.4 215.747 1131.29C206.089 1114.22 172.695 1105.28 172.695 1105.28C172.695 1105.28 172.695 1090.54 164.433 1073.2C156.17 1055.86 137.036 1047.19 113.988 1048.06C90.9405 1048.93 79.634 1073.2 79.634 1073.2C79.634 1073.2 62.6742 1067.13 44.8447 1077.1Z" fill="white"/>
<path d="M1790.6 992.395C1769.01 1001.24 1749.22 1035.52 1749.22 1035.52C1749.22 1035.52 1727.04 1021.86 1696.32 1035.52C1665.6 1049.18 1661.34 1080.77 1661.34 1080.77C1661.34 1080.77 1636.37 1078.1 1623.37 1085.47C1610.46 1092.79 1603.46 1100.95 1599.9 1115.36C1594.55 1137.02 1599.9 1152.93 1623.37 1167.45C1646.83 1181.96 1674.14 1171.72 1674.14 1171.72C1674.14 1171.72 1704.85 1189.22 1727.04 1189.65C1749.22 1190.07 1774.39 1177.69 1774.39 1177.69C1774.39 1177.69 1801.7 1198.61 1827.72 1193.06C1853.74 1187.51 1866.97 1167.45 1866.97 1167.45C1866.97 1167.45 1911.77 1178.12 1927.55 1151.65C1943.34 1125.18 1945.97 1112.51 1936.51 1090.17C1927.56 1069.04 1890.01 1054.3 1890.01 1054.3C1890.01 1054.3 1883.61 1021.55 1869.53 1007.34C1847.44 985.046 1819.63 980.497 1790.6 992.395Z" fill="white"/>
<path d="M277.89 1940.04C308.392 1952.55 336.354 2000.99 336.354 2000.99C336.354 2000.99 367.696 1981.68 411.093 2000.99C454.489 2020.3 460.517 2064.96 460.517 2064.96C460.517 2064.96 495.793 2061.18 514.16 2071.6C532.392 2081.94 542.279 2093.48 547.31 2113.84C554.872 2144.46 547.31 2166.95 514.16 2187.47C481.009 2207.99 442.435 2193.5 442.435 2193.5C442.435 2193.5 399.038 2218.24 367.696 2218.85C336.354 2219.45 300.793 2201.95 300.793 2201.95C300.793 2201.95 262.219 2231.52 225.452 2223.68C188.686 2215.83 170.001 2187.47 170.001 2187.47C170.001 2187.47 106.714 2202.55 84.4138 2165.14C62.1133 2127.72 58.3844 2109.81 71.7565 2078.24C84.4016 2048.38 137.454 2027.54 137.454 2027.54C137.454 2027.54 146.495 1981.25 166.385 1961.16C197.589 1929.65 236.878 1923.22 277.89 1940.04Z" fill="white"/>
<path d="M1748.6 6.39536C1727.01 15.2446 1707.22 49.5176 1707.22 49.5176C1707.22 49.5176 1685.04 35.8551 1654.32 49.5176C1623.6 63.18 1619.34 94.7745 1619.34 94.7745C1619.34 94.7745 1594.37 92.1011 1581.37 99.471C1568.46 106.787 1561.46 114.949 1557.9 129.358C1552.55 151.018 1557.9 166.929 1581.37 181.446C1604.83 195.962 1632.14 185.715 1632.14 185.715C1632.14 185.715 1662.85 203.22 1685.04 203.647C1707.22 204.074 1732.39 191.693 1732.39 191.693C1732.39 191.693 1759.7 212.613 1785.72 207.063C1811.74 201.513 1824.97 181.446 1824.97 181.446C1824.97 181.446 1869.77 192.12 1885.55 165.649C1901.34 139.178 1903.97 126.506 1894.51 104.167C1885.56 83.0434 1848.01 68.3035 1848.01 68.3035C1848.01 68.3035 1841.61 35.5487 1827.53 21.3387C1805.44 -0.953861 1777.63 -5.50261 1748.6 6.39536Z" fill="#F4FDFF"/>
<path d="M-10.1553 29.1039C-27.9847 39.0745 -28.8545 57.2816 -28.8545 57.2816C-28.8545 57.2816 -59.6896 60.3162 -69.2975 81.9914C-78.9053 103.667 -77.1248 116.672 -70.6016 129.677C-64.0784 142.682 -51.4668 148.751 -36.2472 153.953C-21.0276 159.155 -0.153336 151.785 -0.153336 151.785C-0.153336 151.785 17.2412 170.426 41.1589 169.993C65.0766 169.559 80.2968 151.785 80.2968 151.785C80.2968 151.785 106.657 162.667 123.349 159.155C140.678 155.509 152.058 148.964 160.747 133.578C170.411 116.465 170.425 100.397 160.747 83.2918C151.089 66.2219 117.695 57.2816 117.695 57.2816C117.695 57.2816 117.695 42.5426 109.433 25.2024C101.17 7.86221 82.0363 -0.807789 58.9884 0.0591929C35.9405 0.926174 24.634 25.2024 24.634 25.2024C24.634 25.2024 7.67425 19.1334 -10.1553 29.1039Z" fill="#8EE3FF" fill-opacity="0.1"/>
<path d="M1374.4 39.1184C1356.21 49.4168 1362.74 62.0557 1362.74 62.0557C1362.74 62.0557 1344.55 62.0557 1340.82 78.9076C1337.09 95.7595 1346.42 105.59 1362.74 110.271C1379.07 114.952 1392.59 98.5682 1392.59 98.5682C1392.59 98.5682 1401.92 112.143 1416.85 112.143C1431.77 112.143 1443.9 102.781 1443.9 102.781C1443.9 102.781 1456.03 119.462 1474.22 112.143C1484.04 108.192 1497.08 98.5682 1493.35 78.9076C1489.61 59.247 1469.56 56.4384 1469.56 56.4384C1469.56 56.4384 1472.36 19.4579 1443.9 18.0536C1415.45 16.6492 1408.45 43.3314 1408.45 43.3314C1408.45 43.3314 1392.59 28.82 1374.4 39.1184Z" fill="#8EE3FF" fill-opacity="0.07"/>
</svg>
