<svg width="240" height="240" viewBox="0 0 240 240" fill="none" xmlns="http://www.w3.org/2000/svg">
<mask id="mask0" mask-type="alpha" maskUnits="userSpaceOnUse" x="0" y="0" width="240" height="240">
<circle cx="120" cy="120" r="120" fill="#C4C4C4"/>
</mask>
<g mask="url(#mask0)">
<path d="M4.38281 3.995C4.38281 3.29069 4.95377 2.71973 5.65809 2.71973H170.169C170.873 2.71973 171.444 3.29069 171.444 3.995V220.792C171.444 221.496 170.873 222.067 170.169 222.067H5.65809C4.95377 222.067 4.38281 221.496 4.38281 220.792V3.995Z" fill="#152935"/>
<path d="M14.5859 14.1981C14.5859 13.4938 15.1569 12.9229 15.8612 12.9229H159.967C160.672 12.9229 161.243 13.4938 161.243 14.1981V210.591C161.243 211.295 160.672 211.866 159.967 211.866H30.2952C30.0311 211.866 29.7735 211.784 29.558 211.631L15.1241 201.407C14.7865 201.168 14.5859 200.78 14.5859 200.367V14.1981Z" fill="white"/>
<path d="M23.5117 30.7763C23.5117 30.0719 24.0827 29.501 24.787 29.501H151.039C151.744 29.501 152.315 30.0719 152.315 30.7763V38.4279C152.315 39.1322 151.744 39.7032 151.039 39.7032H24.787C24.0827 39.7032 23.5117 39.1322 23.5117 38.4279V30.7763Z" fill="#65ABBD"/>
<path d="M59.2207 48.6307C59.2207 47.9264 59.7917 47.3555 60.496 47.3555H115.333C116.037 47.3555 116.608 47.9264 116.608 48.6307V55.0071C116.608 55.7114 116.037 56.2824 115.333 56.2824H60.496C59.7917 56.2824 59.2207 55.7114 59.2207 55.0071V48.6307Z" fill="#3E8F80"/>
<path d="M23.5117 62.6591C23.5117 61.9547 24.0827 61.3838 24.787 61.3838H65.5958C66.3002 61.3838 66.8711 61.9547 66.8711 62.6591V63.9343C66.8711 64.6387 66.3002 65.2096 65.5958 65.2096H24.787C24.0827 65.2096 23.5117 64.6387 23.5117 63.9343V62.6591Z" fill="#D4F9F4"/>
<path d="M69.4199 62.6591C69.4199 61.9547 69.9909 61.3838 70.6952 61.3838H120.431C121.135 61.3838 121.706 61.9547 121.706 62.6591V63.9343C121.706 64.6387 121.135 65.2096 120.431 65.2096H70.6952C69.9909 65.2096 69.4199 64.6387 69.4199 63.9343V62.6591Z" fill="#D4F9F4"/>
<path d="M124.258 62.6591C124.258 61.9547 124.829 61.3838 125.533 61.3838H151.039C151.743 61.3838 152.314 61.9547 152.314 62.6591V63.9343C152.314 64.6387 151.743 65.2096 151.039 65.2096H125.533C124.829 65.2096 124.258 64.6387 124.258 63.9343V62.6591Z" fill="#D4F9F4"/>
<path d="M120.432 75.41C120.432 74.7057 121.003 74.1348 121.707 74.1348H151.038C151.743 74.1348 152.314 74.7057 152.314 75.41V76.6853C152.314 77.3896 151.743 77.9606 151.038 77.9606H121.707C121.003 77.9606 120.432 77.3896 120.432 76.6853V75.41Z" fill="#D4F9F4"/>
<path d="M23.5117 75.41C23.5117 74.7057 24.0827 74.1348 24.787 74.1348H116.607C117.311 74.1348 117.882 74.7057 117.882 75.41V76.6853C117.882 77.3896 117.311 77.9606 116.607 77.9606H24.787C24.0827 77.9606 23.5117 77.3896 23.5117 76.6853V75.41Z" fill="#D4F9F4"/>
<path d="M23.5117 81.7889C23.5117 81.0846 24.0827 80.5137 24.787 80.5137H151.039C151.744 80.5137 152.315 81.0846 152.315 81.7889V83.0642C152.315 83.7685 151.744 84.3395 151.039 84.3395H24.787C24.0827 84.3395 23.5117 83.7685 23.5117 83.0642V81.7889Z" fill="#D4F9F4"/>
<path d="M23.5117 98.3661C23.5117 97.6618 24.0827 97.0908 24.787 97.0908H151.039C151.744 97.0908 152.315 97.6618 152.315 98.3661V99.6414C152.315 100.346 151.744 100.917 151.039 100.917H24.787C24.0827 100.917 23.5117 100.346 23.5117 99.6414V98.3661Z" fill="#D4F9F4"/>
<path d="M125.535 106.017C125.535 105.313 126.106 104.742 126.81 104.742H151.041C151.745 104.742 152.316 105.313 152.316 106.017V107.293C152.316 107.997 151.745 108.568 151.041 108.568H126.81C126.106 108.568 125.535 107.997 125.535 107.293V106.017Z" fill="#D4F9F4"/>
<path d="M93.6523 106.017C93.6523 105.313 94.2233 104.742 94.9276 104.742H121.708C122.413 104.742 122.984 105.313 122.984 106.017V107.293C122.984 107.997 122.413 108.568 121.708 108.568H94.9276C94.2233 108.568 93.6523 107.997 93.6523 107.293V106.017Z" fill="#D4F9F4"/>
<path d="M23.5117 106.017C23.5117 105.313 24.0827 104.742 24.787 104.742H89.8261C90.5304 104.742 91.1014 105.313 91.1014 106.017V107.293C91.1014 107.997 90.5304 108.568 89.8261 108.568H24.787C24.0827 108.568 23.5117 107.997 23.5117 107.293V106.017Z" fill="#D4F9F4"/>
<path d="M23.5117 112.394C23.5117 111.69 24.0827 111.119 24.787 111.119H151.039C151.744 111.119 152.315 111.69 152.315 112.394V113.67C152.315 114.374 151.744 114.945 151.039 114.945H24.787C24.0827 114.945 23.5117 114.374 23.5117 113.67V112.394Z" fill="#D4F9F4"/>
<path d="M46.4668 130.249C46.4668 129.545 47.0378 128.974 47.7421 128.974H151.039C151.744 128.974 152.315 129.545 152.315 130.249V131.524C152.315 132.229 151.744 132.799 151.039 132.799H47.7421C47.0378 132.799 46.4668 132.229 46.4668 131.524V130.249Z" fill="#D4F9F4"/>
<path d="M23.5117 130.249C23.5117 129.545 24.0827 128.974 24.787 128.974H42.6409C43.3452 128.974 43.9161 129.545 43.9161 130.249V131.524C43.9161 132.229 43.3452 132.799 42.6409 132.799H24.787C24.0827 132.799 23.5117 132.229 23.5117 131.524V130.249Z" fill="#D4F9F4"/>
<path d="M121.709 117.496C121.709 116.792 122.28 116.221 122.984 116.221H151.04C151.745 116.221 152.316 116.792 152.316 117.496V118.771C152.316 119.476 151.745 120.047 151.04 120.047H122.984C122.28 120.047 121.709 119.476 121.709 118.771V117.496Z" fill="#D4F9F4"/>
<path d="M135.738 123.871C135.738 123.167 136.309 122.596 137.014 122.596H151.042C151.746 122.596 152.317 123.167 152.317 123.871V125.146C152.317 125.851 151.746 126.422 151.042 126.422H137.014C136.309 126.422 135.738 125.851 135.738 125.146V123.871Z" fill="#D4F9F4"/>
<path d="M129.361 135.35C129.361 134.646 129.932 134.075 130.637 134.075H151.041C151.745 134.075 152.316 134.646 152.316 135.35V136.626C152.316 137.33 151.745 137.901 151.041 137.901H130.637C129.932 137.901 129.361 137.33 129.361 136.626V135.35Z" fill="#D4F9F4"/>
<path d="M84.7246 135.35C84.7246 134.646 85.2956 134.075 85.9999 134.075H125.533C126.238 134.075 126.809 134.646 126.809 135.35V136.626C126.809 137.33 126.238 137.901 125.533 137.901H85.9999C85.2956 137.901 84.7246 137.33 84.7246 136.626V135.35Z" fill="#D4F9F4"/>
<path d="M23.5117 135.35C23.5117 134.646 24.0827 134.075 24.787 134.075H80.8992C81.6035 134.075 82.1744 134.646 82.1744 135.35V136.626C82.1744 137.33 81.6035 137.901 80.8992 137.901H24.787C24.0827 137.901 23.5117 137.33 23.5117 136.626V135.35Z" fill="#D4F9F4"/>
<path d="M93.6523 163.407C93.6523 162.703 94.2233 162.132 94.9276 162.132H151.04C151.744 162.132 152.315 162.703 152.315 163.407V164.682C152.315 165.387 151.744 165.958 151.04 165.958H94.9276C94.2233 165.958 93.6523 165.387 93.6523 164.682V163.407Z" fill="#D4F9F4"/>
<path d="M93.6523 169.782C93.6523 169.078 94.2233 168.507 94.9276 168.507H151.04C151.744 168.507 152.315 169.078 152.315 169.782V171.057C152.315 171.762 151.744 172.333 151.04 172.333H94.9276C94.2233 172.333 93.6523 171.762 93.6523 171.057V169.782Z" fill="#D4F9F4"/>
<path d="M64.3223 163.407C64.3223 162.703 64.8932 162.132 65.5975 162.132H89.8278C90.5321 162.132 91.1031 162.703 91.1031 163.407V164.682C91.1031 165.387 90.5321 165.958 89.8278 165.958H65.5975C64.8932 165.958 64.3223 165.387 64.3223 164.682V163.407Z" fill="#D4F9F4"/>
<path d="M64.3223 169.782C64.3223 169.078 64.8932 168.507 65.5975 168.507H89.8278C90.5321 168.507 91.1031 169.078 91.1031 169.782V171.057C91.1031 171.762 90.5321 172.333 89.8278 172.333H65.5975C64.8932 172.333 64.3223 171.762 64.3223 171.057V169.782Z" fill="#D4F9F4"/>
<path d="M92.377 123.871C92.377 123.167 92.9479 122.596 93.6522 122.596H131.911C132.615 122.596 133.186 123.167 133.186 123.871V125.146C133.186 125.851 132.615 126.422 131.911 126.422H93.6522C92.9479 126.422 92.377 125.851 92.377 125.146V123.871Z" fill="#D4F9F4"/>
<path d="M23.5117 123.871C23.5117 123.167 24.0827 122.596 24.787 122.596H88.5508C89.2551 122.596 89.8261 123.167 89.8261 123.871V125.146C89.8261 125.851 89.2551 126.422 88.5508 126.422H24.787C24.0827 126.422 23.5117 125.851 23.5117 125.146V123.871Z" fill="#D4F9F4"/>
<path d="M68.1465 117.496C68.1465 116.792 68.7174 116.221 69.4218 116.221H117.882C118.587 116.221 119.158 116.792 119.158 117.496V118.771C119.158 119.476 118.587 120.047 117.882 120.047H69.4218C68.7174 120.047 68.1465 119.476 68.1465 118.771V117.496Z" fill="#D4F9F4"/>
<path d="M23.5117 117.496C23.5117 116.792 24.0827 116.221 24.787 116.221H63.0453C63.7496 116.221 64.3206 116.792 64.3206 117.496V118.771C64.3206 119.476 63.7496 120.047 63.0453 120.047H24.787C24.0827 120.047 23.5117 119.476 23.5117 118.771V117.496Z" fill="#D4F9F4"/>
<path d="M102.58 86.8905C102.58 86.1862 103.151 85.6152 103.855 85.6152H151.041C151.745 85.6152 152.316 86.1862 152.316 86.8905V88.1658C152.316 88.8701 151.745 89.4411 151.041 89.4411H103.855C103.151 89.4411 102.58 88.8701 102.58 88.1658V86.8905Z" fill="#D4F9F4"/>
<path d="M77.0742 91.9921C77.0742 91.2878 77.6452 90.7168 78.3495 90.7168H151.04C151.745 90.7168 152.316 91.2878 152.316 91.9921V93.2673C152.316 93.9717 151.745 94.5426 151.04 94.5426H78.3495C77.6452 94.5426 77.0742 93.9717 77.0742 93.2673V91.9921Z" fill="#D4F9F4"/>
<path d="M23.5117 91.9921C23.5117 91.2878 24.0827 90.7168 24.787 90.7168H73.2475C73.9518 90.7168 74.5228 91.2878 74.5228 91.9921V93.2673C74.5228 93.9717 73.9518 94.5426 73.2475 94.5426H24.787C24.0827 94.5426 23.5117 93.9717 23.5117 93.2673V91.9921Z" fill="#D4F9F4"/>
<path d="M45.1934 86.8905C45.1934 86.1862 45.7643 85.6152 46.4686 85.6152H98.755C99.4593 85.6152 100.03 86.1862 100.03 86.8905V88.1658C100.03 88.8701 99.4593 89.4411 98.755 89.4411H46.4686C45.7643 89.4411 45.1934 88.8701 45.1934 88.1658V86.8905Z" fill="#D4F9F4"/>
<path d="M23.5117 86.8905C23.5117 86.1862 24.0827 85.6152 24.787 85.6152H41.3656C42.0699 85.6152 42.6409 86.1862 42.6409 86.8905V88.1658C42.6409 88.8701 42.0699 89.4411 41.3656 89.4411H24.787C24.0827 89.4411 23.5117 88.8701 23.5117 88.1658V86.8905Z" fill="#D4F9F4"/>
<path d="M23.5117 67.7597C23.5117 67.0553 24.0827 66.4844 24.787 66.4844H65.5958C66.3002 66.4844 66.8711 67.0553 66.8711 67.7597V69.0349C66.8711 69.7392 66.3002 70.3102 65.5958 70.3102H24.787C24.0827 70.3102 23.5117 69.7392 23.5117 69.0349V67.7597Z" fill="#D4F9F4"/>
<path d="M69.4199 67.7597C69.4199 67.0553 69.9909 66.4844 70.6952 66.4844H151.038C151.742 66.4844 152.313 67.0553 152.313 67.7597V69.0349C152.313 69.7392 151.742 70.3102 151.038 70.3102H70.6952C69.9909 70.3102 69.4199 69.7392 69.4199 69.0349V67.7597Z" fill="#D4F9F4"/>
<path d="M54.1191 3.995C54.1191 3.29069 54.6901 2.71973 55.3944 2.71973H120.434C121.138 2.71973 121.709 3.29069 121.709 3.995V24.3994C121.709 25.1037 121.138 25.6747 120.434 25.6747H55.3944C54.6901 25.6747 54.1191 25.1037 54.1191 24.3994V3.995Z" fill="#A2A8AD"/>
<path d="M54.1191 3.995C54.1191 3.29069 54.6901 2.71973 55.3944 2.71973H120.434C121.138 2.71973 121.709 3.29069 121.709 3.995V18.023C121.709 18.7274 121.138 19.2983 120.434 19.2983H55.3944C54.6901 19.2983 54.1191 18.7274 54.1191 18.023V3.995Z" fill="#E5E4E7"/>
<path d="M54.1191 3.995C54.1191 3.29069 54.6901 2.71973 55.3944 2.71973H120.434C121.138 2.71973 121.709 3.29069 121.709 3.995V11.6467C121.709 12.351 121.138 12.9219 120.434 12.9219H55.3944C54.6901 12.9219 54.1191 12.351 54.1191 11.6467V3.995Z" fill="#EEEAE7"/>
<path d="M105.129 3.995C105.129 3.29069 105.7 2.71973 106.404 2.71973H112.781C113.485 2.71973 114.056 3.29069 114.056 3.995V6.54556C114.056 7.24987 113.485 7.82083 112.781 7.82083H106.404C105.7 7.82083 105.129 7.24987 105.129 6.54556V3.995Z" fill="#D6D4D2"/>
<path d="M61.7695 3.995C61.7695 3.29069 62.3405 2.71973 63.0448 2.71973H69.4212C70.1255 2.71973 70.6965 3.29069 70.6965 3.995V6.54556C70.6965 7.24987 70.1255 7.82083 69.4212 7.82083H63.0448C62.3405 7.82083 61.7695 7.24987 61.7695 6.54556V3.995Z" fill="#D6D4D2"/>
<path d="M105.13 4.63391C105.13 9.91628 97.4218 14.1985 87.9135 14.1985C78.4052 14.1985 70.6973 9.91628 70.6973 4.63391C70.6973 -0.648459 78.4052 -4.93066 87.9135 -4.93066C97.4218 -4.93066 105.13 -0.648459 105.13 4.63391Z" fill="#BEBCBA"/>
<path fill-rule="evenodd" clip-rule="evenodd" d="M49.0197 179.348C59.9366 179.348 68.7864 170.498 68.7864 159.581C68.7864 148.664 59.9366 139.814 49.0197 139.814C38.1028 139.814 29.2529 148.664 29.2529 159.581C29.2529 170.498 38.1028 179.348 49.0197 179.348ZM49.0197 179.986C60.2887 179.986 69.4241 170.85 69.4241 159.581C69.4241 148.312 60.2887 139.177 49.0197 139.177C37.7506 139.177 28.6152 148.312 28.6152 159.581C28.6152 170.85 37.7506 179.986 49.0197 179.986Z" fill="#B9C6CE"/>
<path fill-rule="evenodd" clip-rule="evenodd" d="M65.1795 147.126C65.3094 147.295 65.4365 147.465 65.5608 147.637C67.9427 150.937 69.2836 154.874 69.4107 158.942C69.4174 159.154 69.4207 159.367 69.4207 159.58H62.458C62.458 156.613 61.4769 153.731 59.6677 151.38C59.6665 151.379 59.6653 151.377 59.6641 151.376L65.1795 147.126ZM65.0554 148.027L60.5469 151.5C62.081 153.69 62.9602 156.271 63.0812 158.942H68.7728C68.6461 155.015 67.3518 151.214 65.0554 148.027Z" fill="#B9C6CE"/>
<path fill-rule="evenodd" clip-rule="evenodd" d="M44.6387 139.652C44.8466 139.607 45.0549 139.564 45.2636 139.525C49.2637 138.776 53.3971 139.241 57.1312 140.859C57.3245 140.943 57.5167 141.03 57.7078 141.12C57.7093 141.12 57.7108 141.121 57.7123 141.122L54.7455 147.421C52.0613 146.157 49.0343 145.816 46.1364 146.452C46.1353 146.452 46.1342 146.452 46.1331 146.453L44.6387 139.652ZM45.4005 140.148L46.6221 145.707C49.2565 145.252 51.9665 145.557 54.4342 146.585L56.8593 141.436C53.2528 139.878 49.263 139.429 45.4005 140.148Z" fill="#B9C6CE"/>
<path fill-rule="evenodd" clip-rule="evenodd" d="M29.4316 153.861C29.4913 153.656 29.5541 153.453 29.62 153.251C30.8824 149.383 33.2735 145.979 36.485 143.479C36.6526 143.349 36.8223 143.221 36.9943 143.096L41.0971 148.721C38.699 150.47 36.9472 152.964 36.1151 155.813L29.4316 153.861ZM30.2323 153.43L35.6956 155.026C36.5606 152.496 38.1283 150.265 40.2147 148.593L36.8609 143.995C33.7629 146.411 31.4549 149.696 30.2323 153.43Z" fill="#B9C6CE"/>
<path fill-rule="evenodd" clip-rule="evenodd" d="M38.7361 177.203C38.5523 177.096 38.3703 176.986 38.1904 176.873C34.7411 174.713 32.0162 171.571 30.3665 167.851C30.2805 167.657 30.1973 167.461 30.1172 167.264L36.5672 164.642C37.685 167.391 39.6815 169.694 42.2451 171.189L38.7361 177.203ZM38.5119 176.322L41.3803 171.406C39.1346 169.956 37.348 167.895 36.2301 165.467L30.9575 167.61C32.5537 171.2 35.1841 174.234 38.5119 176.322Z" fill="#B9C6CE"/>
<path fill-rule="evenodd" clip-rule="evenodd" d="M65.1998 172.011C65.0702 172.18 64.938 172.346 64.8035 172.51C62.2249 175.659 58.7631 177.965 54.8641 179.131C54.6618 179.191 54.4584 179.248 54.2538 179.303C54.2526 179.303 54.2515 179.303 54.2503 179.304L52.4648 172.574C55.3337 171.813 57.87 170.123 59.678 167.77L65.1998 172.011ZM64.2976 172.122L59.7838 168.655C58.061 170.699 55.7913 172.211 53.241 173.013L54.7005 178.514C58.4635 177.385 61.8051 175.159 64.2976 172.122Z" fill="#B9C6CE"/>
<path fill-rule="evenodd" clip-rule="evenodd" d="M70.0599 198.477C79.9203 198.477 87.9137 190.484 87.9137 180.623C87.9137 170.763 79.9203 162.769 70.0599 162.769C60.1994 162.769 52.206 170.763 52.206 180.623C52.206 190.484 60.1994 198.477 70.0599 198.477ZM70.0599 199.115C80.2724 199.115 88.5514 190.836 88.5514 180.623C88.5514 170.411 80.2724 162.132 70.0599 162.132C59.8473 162.132 51.5684 170.411 51.5684 180.623C51.5684 190.836 59.8473 199.115 70.0599 199.115Z" fill="#6B7880"/>
<path fill-rule="evenodd" clip-rule="evenodd" d="M101.74 173.315C102.31 173.565 102.705 174.068 102.887 174.807C103.077 175.582 103.074 176.578 103.029 177.359C103.006 177.753 102.972 178.102 102.944 178.351C102.93 178.476 102.917 178.577 102.908 178.646C102.903 178.681 102.899 178.708 102.897 178.727L102.893 178.748L102.893 178.754L102.892 178.756L102.262 178.662L102.263 178.656L102.265 178.637C102.268 178.62 102.271 178.595 102.276 178.562C102.284 178.496 102.297 178.4 102.31 178.279C102.338 178.039 102.37 177.702 102.392 177.322C102.436 176.552 102.433 175.636 102.267 174.959C102.123 174.373 101.839 174.055 101.484 173.899C101.113 173.737 100.608 173.728 99.9898 173.887C98.7521 174.204 97.214 175.153 95.8057 176.414C94.4009 177.672 93.164 179.206 92.5072 180.652C91.8451 182.11 91.812 183.374 92.6082 184.231C95.0094 186.813 98.5052 186.481 101.794 184.802C102.214 184.587 102.483 184.282 102.782 183.943C102.831 183.888 102.881 183.831 102.932 183.774C103.29 183.376 103.713 182.969 104.441 182.857C104.946 182.78 105.401 182.801 105.824 182.908C107.315 181.932 108.788 181.029 110.023 180.294C110.971 179.73 111.781 179.264 112.354 178.939C112.64 178.777 112.867 178.649 113.023 178.563C113.101 178.519 113.161 178.486 113.201 178.464L113.248 178.438L113.263 178.43C113.263 178.43 113.264 178.43 113.417 178.709C113.57 178.989 113.57 178.989 113.57 178.989L113.555 178.997L113.51 179.022C113.47 179.044 113.41 179.077 113.333 179.12C113.179 179.206 112.953 179.332 112.668 179.494C112.099 179.817 111.293 180.281 110.349 180.842C109.225 181.511 107.906 182.318 106.558 183.191C107.037 183.441 107.472 183.799 107.901 184.22C109.195 185.488 109.091 187.231 108.34 188.757C107.59 190.283 106.161 191.683 104.623 192.389C102.832 193.212 101.446 192.895 99.7139 192.5C99.5843 192.471 99.4528 192.441 99.319 192.411C98.3619 192.196 97.7284 191.787 97.5608 191.127C97.4015 190.499 97.7127 189.798 98.2052 189.121C99.2082 187.74 101.233 186.092 103.447 184.523C103.958 184.16 104.481 183.801 105.007 183.449C104.858 183.45 104.702 183.463 104.538 183.488C104.036 183.565 103.738 183.831 103.406 184.201C103.362 184.25 103.317 184.301 103.271 184.354C102.975 184.692 102.621 185.095 102.084 185.369C98.7052 187.095 94.8381 187.566 92.1413 184.665C91.0782 183.522 91.2279 181.927 91.9266 180.388C92.6307 178.838 93.9326 177.236 95.3804 175.939C96.8247 174.646 98.453 173.623 99.8313 173.269C100.521 173.092 101.187 173.073 101.74 173.315ZM105.924 183.605C105.214 184.073 104.504 184.555 103.816 185.043C101.599 186.614 99.6554 188.21 98.721 189.495C98.2447 190.151 98.095 190.639 98.1789 190.97C98.2545 191.268 98.5682 191.589 99.4586 191.788C99.5832 191.816 99.7049 191.844 99.8239 191.871C101.583 192.27 102.768 192.539 104.357 191.81C105.76 191.165 107.082 189.872 107.768 188.476C108.454 187.081 108.473 185.673 107.455 184.676C106.988 184.218 106.554 183.878 106.093 183.673C106.037 183.649 105.981 183.626 105.924 183.605Z" fill="#334048"/>
<path fill-rule="evenodd" clip-rule="evenodd" d="M47.3644 167.837C49.1262 167.914 50.729 168.565 51.8359 170.241C52.887 171.832 52.8401 173.399 52.3148 174.937C51.9055 176.136 51.1937 177.348 50.4831 178.557C50.2982 178.872 50.1133 179.187 49.9338 179.501C48.822 181.449 47.6402 182.964 46.1791 184.132C46.008 184.268 45.8333 184.4 45.6547 184.527C46.1895 184.394 46.7527 184.225 47.3222 184.043C47.6272 183.946 47.9365 183.845 48.2435 183.744C48.703 183.593 49.1573 183.444 49.5845 183.314C50.299 183.096 50.9746 182.917 51.5349 182.855C51.7144 182.836 51.8909 182.815 52.0649 182.794C53.7885 182.591 55.2612 182.418 56.8556 183.55L56.8773 183.565L58.0781 184.763H62.1348C64.4583 181.192 66.6818 177.671 68.3577 175.017C68.7672 174.369 69.144 173.772 69.4815 173.239C70.3956 171.796 71.0352 170.798 71.2498 170.522C71.2726 170.493 71.3115 170.444 71.3547 170.408C71.3666 170.398 71.3937 170.377 71.4322 170.359C71.4588 170.347 71.5708 170.299 71.7011 170.358C71.8477 170.425 71.8803 170.56 71.8871 170.605C71.8947 170.656 71.8886 170.697 71.886 170.713C71.8762 170.772 71.8497 170.834 71.8351 170.867C71.8151 170.914 71.7881 170.971 71.755 171.037C71.6232 171.304 71.3687 171.778 70.9782 172.486C69.5372 175.1 67.4581 178.297 65.7433 180.836C64.8851 182.106 64.1167 183.214 63.5628 184.004C63.2858 184.399 63.0624 184.715 62.9082 184.932C62.8311 185.041 62.7713 185.125 62.7307 185.181L62.6697 185.267L62.669 185.268C62.6689 185.268 62.6687 185.268 62.5994 185.218L62.669 185.268L62.5733 185.401H62.4805C62.4246 185.487 62.3686 185.573 62.3125 185.658C63.54 185.471 64.806 185.233 66.1326 184.78C67.0881 184.454 67.9677 184.219 68.7527 184.01C68.8964 183.971 69.0369 183.934 69.1741 183.897C70.0563 183.658 70.7922 183.44 71.3993 183.137C71.4344 183.066 71.4697 182.995 71.505 182.923C72.1283 181.67 72.7963 180.429 73.4924 179.239C73.5407 178.943 73.7333 178.669 73.9797 178.422C75.552 175.835 77.2436 173.542 78.8718 171.965C80.1309 170.745 81.3961 169.909 82.574 169.746C83.1734 169.663 83.7502 169.754 84.279 170.056C84.8037 170.356 85.2587 170.85 85.6429 171.536C85.8737 171.948 85.6833 172.36 85.4148 172.674C85.1406 172.994 84.7045 173.319 84.1863 173.642C83.1435 174.293 81.661 175.001 80.1648 175.706C80.0654 175.753 79.966 175.8 79.8666 175.847C78.4589 176.51 77.0577 177.17 75.9756 177.79C75.3957 178.122 74.9221 178.435 74.5927 178.722C74.5532 178.756 74.5167 178.789 74.4829 178.822C74.359 179.026 74.2358 179.233 74.1133 179.441C74.0236 180.61 73.7827 181.493 73.3823 182.175C73.0033 182.821 72.4937 183.266 71.8801 183.605C71.7632 183.844 71.648 184.083 71.5346 184.323C72.5401 183.954 73.6342 183.627 74.7257 183.377C76.0822 183.066 77.4523 182.871 78.6631 182.867C79.8637 182.864 80.9544 183.049 81.7129 183.543C82.4258 184.007 82.7215 184.61 82.7574 185.287C82.7917 185.931 82.5889 186.63 82.3642 187.307C82.3175 187.448 82.2697 187.588 82.2221 187.729C82.0332 188.283 81.846 188.833 81.7354 189.387C81.5985 190.074 81.5889 190.728 81.8349 191.343C81.9603 191.657 82.0787 191.849 82.1781 191.955C82.2736 192.057 82.3238 192.054 82.3349 192.053C82.3602 192.051 82.4301 192.03 82.5406 191.909C82.648 191.791 82.7654 191.609 82.8863 191.36C83.3737 190.357 83.7982 188.523 83.9949 186.559C84.1915 184.597 84.1543 182.568 83.7579 181.176C83.5586 180.475 83.2822 179.986 82.947 179.726C82.6378 179.487 82.2332 179.409 81.6573 179.639L81.4205 179.047C82.1652 178.749 82.817 178.819 83.3373 179.222C83.8317 179.605 84.1577 180.251 84.3712 181.001C84.8001 182.508 84.8289 184.631 84.6294 186.623C84.4299 188.613 83.996 190.535 83.4599 191.639C83.325 191.916 83.1762 192.158 83.0117 192.339C82.8504 192.515 82.6427 192.667 82.3895 192.688C82.122 192.711 81.8926 192.584 81.7121 192.39C81.5356 192.201 81.3816 191.927 81.2429 191.58C80.9339 190.808 80.9599 190.016 81.1101 189.263C81.2298 188.663 81.4345 188.062 81.6247 187.504C81.6708 187.369 81.716 187.236 81.759 187.107C81.986 186.422 82.1478 185.83 82.1207 185.32C82.0953 184.843 81.9038 184.428 81.3648 184.077C80.7632 183.685 79.8245 183.501 78.6649 183.505C77.5156 183.508 76.1948 183.694 74.8681 183.998C73.5657 184.297 72.2745 184.704 71.1491 185.152C70.1332 187.381 69.2866 189.585 68.7019 191.552C69.0933 191.937 69.5195 192.319 69.9484 192.701C69.987 192.735 70.0257 192.769 70.0643 192.804C70.5957 193.276 71.1274 193.749 71.5772 194.212C72.057 194.707 72.469 195.216 72.6895 195.734C72.9165 196.268 72.9454 196.827 72.6303 197.368C72.3283 197.888 71.7356 198.346 70.8333 198.765C70.1325 199.09 69.5192 199.242 68.9955 199.206C68.4566 199.169 68.0294 198.934 67.7291 198.53C67.4382 198.14 67.2818 197.613 67.2195 197.01C67.1569 196.403 67.1869 195.691 67.292 194.904C67.4184 193.958 67.6558 192.887 67.9847 191.734C67.9403 191.688 67.8965 191.642 67.8531 191.596C67.3447 191.055 66.9001 190.485 66.6301 189.889C66.3572 189.286 66.258 188.646 66.4619 187.987C66.6638 187.335 67.1494 186.709 67.957 186.102C68.6013 185.618 69.5575 185.116 70.675 184.656C70.7741 184.441 70.8746 184.226 70.9766 184.011C70.4761 184.198 69.9268 184.354 69.3405 184.512C69.2005 184.55 69.0581 184.588 68.9133 184.627C68.1283 184.836 67.2718 185.065 66.3385 185.384C64.7797 185.916 63.2655 186.167 61.8451 186.373C58.7905 191.034 55.6461 195.63 53.4137 198.331C52.8428 199.021 52.326 199.595 51.8815 200.016C51.6593 200.226 51.4506 200.403 51.2585 200.538C51.0698 200.67 50.8801 200.775 50.6969 200.824C50.5093 200.873 50.2906 200.872 50.1039 200.733C49.9282 200.602 49.848 200.397 49.8121 200.196C49.741 199.798 49.806 199.198 49.9835 198.406C50.1466 197.678 50.2761 196.989 50.4001 196.329C50.8809 193.771 51.2804 191.645 53.24 189.342C55.0152 187.255 57.0353 186.542 59.2098 186.134C59.8915 186.006 60.5798 185.908 61.279 185.809C61.3427 185.8 61.4064 185.791 61.4702 185.782C61.4846 185.76 61.4991 185.738 61.5135 185.716C61.5821 185.611 61.6507 185.506 61.7192 185.401H57.8144L56.465 184.055C55.0873 183.087 53.8618 183.229 52.1194 183.431C51.9528 183.45 51.7815 183.47 51.6048 183.489C51.108 183.544 50.4811 183.707 49.7708 183.924C49.3469 184.053 48.9065 184.198 48.454 184.346C48.1464 184.447 47.8331 184.55 47.5157 184.651C46.7405 184.898 45.9546 185.13 45.2268 185.278C44.8628 185.352 44.5062 185.406 44.1674 185.43C43.1751 185.939 42.0679 186.345 40.809 186.666C38.7952 187.181 37.1839 186.977 35.5888 186.589C35.1049 186.471 34.6284 186.339 34.1449 186.204C33.0234 185.893 31.8643 185.57 30.4883 185.398L30.5674 184.766C31.9918 184.944 33.2243 185.286 34.3636 185.603C34.8359 185.734 35.2922 185.861 35.7395 185.969C37.2769 186.343 38.7746 186.528 40.6511 186.048C41.4695 185.839 42.2166 185.595 42.905 185.311C42.5092 185.162 42.2204 184.878 42.0301 184.501C41.8 184.045 41.7164 183.462 41.7207 182.828C41.7279 181.754 41.9893 180.437 42.3532 179.113C41.4952 180.007 40.5518 180.775 39.6444 181.258C38.6357 181.795 37.576 182.028 36.741 181.53C34.7399 180.338 34.6131 178.263 34.6726 176.146C34.7299 174.109 35.6128 172.58 36.9504 171.412C38.2777 170.254 40.0511 169.452 41.9051 168.838C43.7016 168.244 45.6194 167.761 47.3644 167.837ZM43.3656 177.949C43.2999 178.155 43.2357 178.361 43.1735 178.568C42.7082 180.117 42.3662 181.656 42.3583 182.832C42.3544 183.422 42.435 183.888 42.5994 184.214C42.7552 184.523 42.9863 184.709 43.3336 184.768C43.5307 184.801 43.7521 184.811 43.9946 184.801C44.6407 184.46 45.2316 184.073 45.781 183.634C47.16 182.531 48.2939 181.088 49.3801 179.185C49.5703 178.852 49.7624 178.525 49.9517 178.202C50.6575 177 51.3251 175.863 51.7114 174.731C52.1918 173.324 52.2176 171.976 51.3038 170.592C50.3342 169.124 48.9435 168.544 47.3365 168.474C45.7126 168.403 43.8865 168.854 42.1055 169.444C40.282 170.047 38.6027 170.816 37.3697 171.893C36.1469 172.96 35.3616 174.329 35.31 176.164C35.2499 178.301 35.4129 179.997 37.0674 180.982C37.6022 181.301 38.3874 181.205 39.3447 180.695C40.2847 180.195 41.2998 179.34 42.211 178.33C42.4118 178.107 42.6068 177.877 42.7941 177.644C43.2162 176.337 43.6931 175.088 44.0858 174.118C44.3192 173.542 44.5234 173.063 44.6693 172.728C44.7422 172.56 44.8007 172.429 44.8409 172.339L44.8873 172.236L44.8994 172.209L44.9025 172.202L44.9034 172.2C44.9034 172.2 44.9037 172.2 45.1935 172.332L44.9034 172.2L45.2433 171.459L45.4965 172.233C45.7838 173.112 45.515 174.247 44.9905 175.37C44.5906 176.226 44.0231 177.116 43.3656 177.949ZM44.8365 173.967C44.7417 174.32 44.5996 174.7 44.4127 175.1C44.3662 175.2 44.3171 175.3 44.2656 175.401C44.4084 175.028 44.5471 174.678 44.6768 174.358C44.7318 174.222 44.7851 174.091 44.8365 173.967ZM61.0033 186.494C60.4253 186.576 59.8655 186.66 59.3275 186.761C57.2289 187.155 55.3697 187.823 53.7256 189.755C51.8845 191.92 51.5189 193.855 51.0415 196.382C50.9142 197.056 50.779 197.772 50.6057 198.545C50.4293 199.333 50.3931 199.822 50.4398 200.084C50.4543 200.165 50.4729 200.202 50.482 200.216C50.4914 200.216 50.5077 200.214 50.5333 200.207C50.6117 200.187 50.73 200.13 50.8918 200.016C51.0502 199.905 51.2343 199.75 51.4431 199.553C51.8607 199.157 52.3587 198.606 52.9222 197.924C55.0552 195.344 58.0469 190.991 61.0033 186.494ZM70.2855 185.519C69.487 185.881 68.8142 186.256 68.34 186.612C67.5975 187.17 67.2201 187.694 67.071 188.176C66.9239 188.651 66.9857 189.128 67.2109 189.625C67.4194 190.086 67.7638 190.552 68.1948 191.026C68.7263 189.302 69.4432 187.422 70.2855 185.519ZM68.5035 192.247C68.2313 193.243 68.0338 194.167 67.924 194.988C67.8229 195.746 67.798 196.404 67.8538 196.944C67.9099 197.489 68.0451 197.887 68.2405 198.15C68.4265 198.399 68.6805 198.545 69.0391 198.57C69.4129 198.596 69.9136 198.489 70.5648 198.186C71.421 197.789 71.8738 197.401 72.0791 197.048C72.2714 196.717 72.2696 196.376 72.1028 195.984C71.9295 195.577 71.5847 195.136 71.1195 194.656C70.6869 194.21 70.1723 193.753 69.6357 193.276C69.5988 193.243 69.5617 193.21 69.5246 193.177C69.1837 192.874 68.8364 192.563 68.5035 192.247ZM72.574 182.227C72.6671 182.112 72.7532 181.987 72.8324 181.852C72.9552 181.643 73.0632 181.406 73.155 181.135C72.9583 181.496 72.7644 181.86 72.574 182.227ZM75.3741 177.403C75.4667 177.348 75.5616 177.292 75.6585 177.237C76.764 176.603 78.1877 175.933 79.5872 175.273C79.6892 175.225 79.7912 175.177 79.8928 175.129C81.3988 174.419 82.8442 173.728 83.8488 173.101C84.3542 172.786 84.7217 172.503 84.9302 172.259C85.1443 172.009 85.1156 171.899 85.0866 171.847C84.7422 171.233 84.3608 170.837 83.9627 170.61C83.5685 170.385 83.1361 170.311 82.6615 170.377C81.6914 170.511 80.5495 171.227 79.3155 172.423C78.0207 173.677 76.6727 175.412 75.3741 177.403Z" fill="#334048"/>
<path fill-rule="evenodd" clip-rule="evenodd" d="M182.816 120.707V100.767C182.816 88.7442 173.159 78.9981 161.246 78.9981C149.333 78.9981 139.676 88.7442 139.676 100.767V120.707C139.676 132.73 149.333 142.476 161.246 142.476C173.159 142.476 182.816 132.73 182.816 120.707ZM161.246 61.3838C139.694 61.3838 122.223 79.0161 122.223 100.767V120.707C122.223 142.458 139.694 160.09 161.246 160.09C182.798 160.09 200.27 142.458 200.27 120.707V100.767C200.27 79.0161 182.798 61.3838 161.246 61.3838Z" fill="#DCDCDC"/>
<path fill-rule="evenodd" clip-rule="evenodd" d="M161.246 61.3841C161.191 61.3839 161.137 61.3838 161.082 61.3838C139.621 61.3838 122.223 79.0161 122.223 100.767V120.707C122.223 142.458 139.621 160.09 161.082 160.09C161.137 160.09 161.191 160.09 161.246 160.09V142.475C161.192 142.476 161.137 142.476 161.082 142.476C149.219 142.476 139.603 132.73 139.603 120.707V100.767C139.603 88.7442 149.219 78.9981 161.082 78.9981C161.137 78.9981 161.192 78.9983 161.246 78.9987V61.3841Z" fill="#F0F0F0"/>
<path d="M103.855 122.155C103.855 119.017 106.417 116.474 109.577 116.474H212.908C216.069 116.474 218.63 119.017 218.63 122.155V198.021C218.63 201.159 216.069 203.703 212.908 203.703H109.577C106.417 203.703 103.855 201.159 103.855 198.021V122.155Z" fill="#F3AC36"/>
<path d="M161.242 116.474H212.891C216.06 116.474 218.63 119.017 218.63 122.155V198.021C218.63 201.159 216.06 203.703 212.891 203.703H161.242V116.474Z" fill="#E8960C"/>
<path d="M175.013 149.759C175.013 156.732 168.846 162.384 161.24 162.384C153.633 162.384 147.467 156.732 147.467 149.759C147.467 142.786 153.633 137.134 161.24 137.134C168.846 137.134 175.013 142.786 175.013 149.759Z" fill="#BD7E0C"/>
<path d="M156.648 154.518C156.648 151.255 159.218 148.61 162.387 148.61C165.557 148.61 168.126 151.255 168.126 154.518V177.135C168.126 180.398 165.557 183.043 162.387 183.043C159.218 183.043 156.648 180.398 156.648 177.135V154.518Z" fill="#BD7E0C"/>
</g>
<circle cx="120" cy="120" r="119" stroke="url(#paint0_linear)" stroke-width="2"/>
<defs>
<linearGradient id="paint0_linear" x1="40.5714" y1="31.4286" x2="205.143" y2="222.286" gradientUnits="userSpaceOnUse">
<stop stop-color="#00C6A2"/>
<stop offset="1" stop-color="#2B6B6A"/>
</linearGradient>
</defs>
</svg>
