<?xml version="1.0" encoding="utf-8"?>
<!-- Generator: Adobe Illustrator 21.0.2, SVG Export Plug-In . SVG Version: 6.00 Build 0)  -->
<svg version="1.1" id="Layer_1" xmlns="http://www.w3.org/2000/svg" xmlns:xlink="http://www.w3.org/1999/xlink" x="0px" y="0px"
	 viewBox="0 0 1919 849.1" style="enable-background:new 0 0 1919 849.1;" xml:space="preserve">
<style type="text/css">
	.st0{fill:#FFFFFF;}
	.st1{fill:#269C75;}
	.st2{fill:#FFFEF5;}
	.st3{fill:#94967E;}
	.st4{fill:#B8B8AD;}
	.st5{fill:#FFFDF7;}
	.st6{fill:#64655D;}
	.st7{fill:#777C69;}
	.st8{fill:#5A6364;}
	.st9{fill:#FFFFFD;}
	.st10{fill:#657576;}
	.st11{fill:#FEFFFD;}
	.st12{fill:#FEFCFC;}
	.st13{fill:#7C744D;}
	.st14{fill:#989B79;}
	.st15{fill:#FFFEFE;}
	.st16{fill:#FEFFFE;}
	.st17{fill:#FDFDF1;}
	.st18{fill:#635F42;}
	.st19{fill:#8A8164;}
	.st20{fill:#FFFDFD;}
	.st21{fill:#70714F;}
	.st22{fill:url(#SVGID_1_);}
	.st23{fill:url(#SVGID_2_);}
	.st24{fill:url(#SVGID_3_);}
	.st25{fill:url(#SVGID_4_);}
	.st26{fill:url(#SVGID_5_);}
	.st27{fill:url(#SVGID_6_);}
	.st28{fill:url(#SVGID_7_);}
	.st29{fill:url(#SVGID_8_);}
	.st30{fill:url(#SVGID_9_);}
	.st31{fill:url(#SVGID_10_);}
	.st32{fill:url(#SVGID_11_);}
	.st33{fill:url(#SVGID_12_);}
	.st34{fill:url(#SVGID_13_);}
	.st35{fill:url(#SVGID_14_);}
	.st36{fill:url(#SVGID_15_);}
	.st37{fill:url(#SVGID_16_);}
	.st38{fill:url(#SVGID_17_);}
	.st39{fill:url(#SVGID_18_);}
	.st40{opacity:0.3;fill:#545454;enable-background:new    ;}
</style>
<path class="st0" d="M1424.4,215.1c-18.2,10.3-11.7,22.9-11.7,22.9s-18.2,0-21.9,16.9c-3.7,16.9,5.6,26.7,21.9,31.4
	c16.3,4.7,29.8-11.7,29.8-11.7s9.3,13.6,24.3,13.6c14.9,0,27.1-9.4,27.1-9.4s12.1,16.7,30.3,9.4c9.8-4,22.9-13.6,19.1-33.2
	c-3.7-19.7-23.8-22.5-23.8-22.5s2.8-37-25.7-38.4c-28.5-1.4-35.5,25.3-35.5,25.3S1442.6,204.8,1424.4,215.1z"/>
<path class="st0" d="M-4.2,29.1c-17.8,10-18.7,28.2-18.7,28.2s-30.8,3-40.4,24.7s-7.8,34.7-1.3,47.7s19.1,19.1,34.4,24.3
	s36.1-2.2,36.1-2.2s17.4,18.6,41.3,18.2c23.9-0.4,39.1-18.2,39.1-18.2s26.4,10.9,43.1,7.4c17.3-3.6,28.7-10.2,37.4-25.6
	c9.7-17.1,9.7-33.2,0-50.3s-43.1-26-43.1-26s0-14.7-8.3-32.1C107.2,7.9,88-0.8,65,0.1S30.6,25.2,30.6,25.2S13.7,19.1-4.2,29.1z"/>
<path class="st0" d="M1798.6,230.4c-21.6,8.8-41.4,43.1-41.4,43.1s-22.2-13.7-52.9,0c-30.7,13.7-35,45.3-35,45.3s-25-2.7-38,4.7
	c-12.9,7.3-19.9,15.5-23.5,29.9c-5.3,21.7,0,37.6,23.5,52.1s50.8,4.3,50.8,4.3s30.7,17.5,52.9,17.9c22.2,0.4,47.3-12,47.3-12
	s27.3,20.9,53.3,15.4s39.3-25.6,39.3-25.6s44.8,10.7,60.6-15.8c15.8-26.5,18.4-39.1,9-61.5c-8.9-21.1-46.5-35.9-46.5-35.9
	s-6.4-32.8-20.5-47C1855.4,223,1827.6,218.5,1798.6,230.4z"/>
<polygon class="st1" points="419.7,850.6 410.4,812.1 402.3,850.6 "/>
<polygon class="st2" points="1499.2,850.6 1498.9,763.8 1494.5,767 1494.7,850.6 "/>
<polygon class="st3" points="1494.9,850.6 1494.5,767 1490.8,771.9 1488.9,850.6 "/>
<path class="st4" d="M1474.7,777.9c8.4-9.8,18.3-14.4,18.3-14.4l-36.6,34.6C1456.4,798.1,1466.2,787.7,1474.7,777.9z"/>
<path class="st5" d="M1513.9,763.3c-3.6-1.8-9.7-3.6-9.7-3.6s-0.5-1.6-1.2-2.5c-0.8-1-2.6-2.2-2.6-2.2s-2.3-18.6-4.1-30.4
	c-3.9-26-12.4-66.2-12.4-66.2s5.7,40.3,9.6,66c1.9,12.7,5,32.5,5,32.5s-0.9,4.1,2.1,5.6c1.2,0.6,3.4,0.5,3.4,0.5s7.7,5.4,16.6,9.9
	c7.3,3.7,17.4,7.5,24.8,11c9.7,4.5,43.4,21.7,43.4,21.7l-0.6-1.7C1588.1,803.8,1543.6,778.3,1513.9,763.3z"/>
<path class="st6" d="M1543.7,781.8c17.7,9,45,23.8,45,23.8s-42.1-20.2-60.9-27.5c-13.1-5.5-25.2-13-26.3-13.2
	c-1.1-0.2-1.8-0.3-2.7-0.5c-3.8,1.2-5.3,2.4-5.3,2.4s-1.8,0.4-5.5,0c-1.9-0.2-5.4-1-5.3-2.4l0.1-2.4c0.1-1.3,0-1,0.1-1.7
	c0.2-1.8,0.2-3.1,0.2-3.1s0.9-0.9,1.4,0.1c0.2,0.5-0.3,2.7,0.2,3.1c0.6,0.6,2,0.8,2,0.8l8.1-3.7l0.3-4.4c0,0-5.3-15-5.6-22.9
	c-0.2-7.9-4.8-67.5-4.8-67.5l11,65.4l3.7,31.4c0,0,3.3,1.7,5.3,2.7C1519.9,770.1,1528.6,774,1543.7,781.8z"/>
<path class="st2" d="M1470.6,784.1c-13.9,13.4-34.9,35.1-34.9,35.1s25.8-18.5,40.6-32.3c8.8-8.2,21.5-22.1,21.5-22.1
	s-0.3-1.5-1.3-1.8s-3.8,0.5-3.8,0.5S1479.1,776,1470.6,784.1z"/>
<polygon class="st0" points="1793.4,850.6 1782.9,395.2 1765,402.1 1765.4,850.6 "/>
<polygon class="st7" points="1783.3,850.6 1777.9,395.1 1765,402.1 1763.1,850.6 "/>
<path class="st8" d="M1787,394.2c1.8,3-0.2,9-0.2,9s-1.2-6.4-4.4-8c-2.4-1.2-6.8-0.1-6.8-0.1s-26.9,20.3-43.8,33.8
	c-26.5,21.2-66.4,56-66.4,56s38.9-35.9,64.9-57.5c18-14.9,46.9-37.2,46.9-37.2S1784.9,390.6,1787,394.2z"/>
<path class="st9" d="M1614.3,529.1c0,0,68.7-61.5,114.5-98.8c19.2-15.6,49.6-39.4,49.6-39.4s6.3,0.3,8.2,3.2
	c1.9,2.8-0.2,8.6-0.2,8.6s-22.7,27.1-44.8,43.6c-22.1,16.5-122.6,88.1-122.6,88.1L1614.3,529.1z"/>
<path class="st10" d="M1617.9,530.8c1.3,1.5,1.9,3.2,1.2,3.7c-0.6,0.6-2.2-0.2-3.6-1.7c-1.3-1.5-1.9-3.2-1.2-3.7
	C1614.9,528.5,1616.6,529.3,1617.9,530.8z"/>
<path class="st8" d="M1744,400.9l34.5-17.1l2.6,4.2l-38.9,30.2l-6.7-3.5l-1.4-7.9l1.5-0.4l0.2-12.4h-1.9v-1.5l3.8,0.1L1744,400.9z"
	/>
<path class="st8" d="M1788.9,390.8c-1.2-3.3-3,2.2-3,2.2s3.4,1.2,1,9.4c-0.4,1.5,7.1,3.1,7.1,3.1s5.9,3.9,10.1,6.6
	c13.5,8.8,183.4,108.1,183.4,108.1S1884.8,456.8,1855,439c-8.1-4.9-56.1-40.5-56.1-40.5S1791.8,398.8,1788.9,390.8z"/>
<path class="st11" d="M2026.6,540.1c0,0-90-64.1-150.2-103.1c-25.2-16.3-75.1-45.7-75.1-45.7s2.6,4.3-1.2,4.5c-4.9,0.3-3,2.3-3,2.3
	s36.3,28.5,64.6,45.5c28.3,17,162.6,100.2,162.6,100.2L2026.6,540.1z"/>
<path class="st11" d="M1763.4,194.5c0,0-0.2,42.5,0.8,61.7c0.8,16.2,4.1,67.4,4.1,67.4l3.4-21.4c0,0-1.5-88.2-1.3-97.4
	c0.2-9.3-12-106.6-12-106.6L1763.4,194.5z"/>
<path class="st11" d="M1758.3,98.1c0,0,9.5,85.6,15.3,157.1c2.5,29.9,15,130.4,15,130.4s-0.8-2.8,2.7-4.5c1.5-0.7,2.7-0.7,2.7-0.7
	s-7.1-77.6-10.9-110.4s-18.9-168.4-18.9-168.4L1758.3,98.1z"/>
<path class="st8" d="M1768,209.9c0,0,1.2,22.6,1,52.7c-0.1,15.4-2.1,53.7-1.1,62.8c1,9-0.6,13.2,8.3,41.9c1,3.4,2,16.2,2,16.2
	l-0.1,7.1l8.6,3.2l2-4.1l0.1-6c0,0-8.5-79.5-12.3-112.3s-18-173.3-18-173.3L1768,209.9z"/>
<path class="st9" d="M1801.5,386.7c2.1,4.9,1.1,10.1-2.3,11.6s-7.9-1.4-10-6.3s-1.1-10.1,2.3-11.6
	C1794.9,379,1799.4,381.8,1801.5,386.7z"/>
<path class="st12" d="M1801.4,589c0,0-75,4.2-131.2,10.5c-3,0.3-8.4,2.5-12.2,4.1c-3.6,1.5-8.5,3-8.5,3l1.2,5.7
	c0,0,32.1-1.8,52.5-4.5c12.3-1.6,19.1-3,31.3-4.8c26.2-3.8,67.2-8.7,67.2-8.7L1801.4,589z"/>
<path class="st13" d="M1647.9,615l2.8-2.7l68.6-6.7c0,0-28.9,6.1-47.8,7.9C1662.3,614.5,1647.9,615,1647.9,615z"/>
<path class="st14" d="M1638.1,850.6c-0.1-11.3,0-18.7-0.1-31.2c0,0,0.6-41.7,0.4-68.6l-1.1-65.6v-67.8l-2.8,2.7
	c0,0-2.9,81.3-3.9,132.9c-0.6,29.5-0.6,68.7-0.5,97.7h8V850.6z"/>
<path class="st15" d="M1636.7,850.6h9.3c-0.2-10.9-0.4-18.6-0.5-30.8c0,0,0.2-42.1-0.1-69l-3.4-136.2l-4.8,2.8c0,0-0.7,83.2-0.4,136
	C1637,783.1,1636.9,822.1,1636.7,850.6z"/>
<path class="st16" d="M1644,605.7l-2.4,2.2c0,0-4.7-4.1-8.5-9.5c-6.5-11.7-17.4-24.7-22.8-32.3c-23.7-33.1-62.8-94.7-62.8-94.7
	s46.7,62.6,76.2,103C1632.2,586,1644,605.7,1644,605.7z"/>
<path class="st17" d="M1600.2,555.2c5.3,8.9,16.3,28.1,16.3,28.1l2.3,2.8l-1,3.8c0,0-26.2-44.8-43.5-71.8
	c-9.1-14.2-20.6-31.2-23-36.4c-2.4-5.3-4.3-9.7-4.3-9.7s9.9,13,15.9,21.5C1580.1,518.2,1584.8,529.2,1600.2,555.2z"/>
<path class="st18" d="M1635.5,609.1l6.2-1.2L1571,506.6c0,0,23.4,38.7,38,63.8c3.1,5.3,6.7,11.2,7.9,13.7c1.2,2.4-0.3,4.6,0.8,5.8
	c1,1.2,8,6.9,12.4,12.1C1632.3,604.7,1635.5,609.1,1635.5,609.1z"/>
<path class="st16" d="M1594.9,767.1l-2.9-0.7c0,0,16.6-62,30-100.8c6.8-19.8,17.7-50.2,17.7-50.2l4.5-1.1l3.8,0.6
	c0,0-4.3,9.1-5.8,13.7c-4.3,12.7-4.8,19.6-8.4,32.5s-11.4,32.8-16.6,47.2C1605.1,741.5,1594.9,767.1,1594.9,767.1z"/>
<path class="st19" d="M1634.8,617.1l4.9-1.5l-37.1,113.7c0,0,11.7-44.3,20.5-72.4c3.8-12.1,7.5-19.3,10.1-31.8
	C1633.9,621.7,1634.8,617.1,1634.8,617.1z"/>
<path class="st20" d="M1650.9,609.4c0.2,3.4-2,6.4-5,6.5c-3,0.2-5.6-2.5-5.8-5.9c-0.2-3.4,2-6.4,5-6.5S1650.7,606,1650.9,609.4z"/>
<path class="st21" d="M1623.1,617.4l12.4-8.2l6.2-1.2c0,0-0.6,1.9-0.2,3.3c0.4,1.4,1.9,3.2,1.9,3.2l-7.6,5.5l-7.6,5.5
	c0,0-3.9-0.1-5.1-1.8C1621.8,621.8,1623.1,617.4,1623.1,617.4z"/>
<linearGradient id="SVGID_1_" gradientUnits="userSpaceOnUse" x1="249.4546" y1="411.6217" x2="243.4706" y2="713.1997" gradientTransform="matrix(1 0 0 1 0 140)">
	<stop  offset="0" style="stop-color:#7EF4AA"/>
	<stop  offset="0.2629" style="stop-color:#66DC92"/>
</linearGradient>
<path class="st22" d="M167.9,798.4c-14.6,11.7-46.6,4-46.6,4s25.8,25.7,45.9,35.7c12.1,6,23.8,10.1,35.3,12.4h48.6
	c24.2-4.9,48-16.9,72.2-34.2c20.3-14.5,45-46.3,45-46.3s-39.8,8.5-58-6.1c-9.3-7.5-18.2-25.2-18.2-25.2s26.3,11.8,41.7,5.8
	c9.7-3.8,21.2-17,21.2-17s-23.7,2.7-37.1-3.2c-11.4-5-25.2-20.4-25.2-20.4s11.2,3.3,18.5,2.8c8.6-0.6,21-7,21-7s-27.7-9-39.1-23.1
	c-7.4-9.2-15.7-30.1-15.7-30.1s10.3,9.7,16.1,7.8c3.7-1.2,11.7-7.2,11.7-7.2s-23.1-20.9-31.9-37.9c-10.8-21-19.9-57.5-19.9-57.5
	s-15.8,48.9-38.4,68.7c-12.9,11.3-37.6,21.6-37.6,21.6s7,2.4,11.6,2.7c9.5,0.6,23.4-7,23.4-7s-14.7,16.4-26,24.3
	c-12.4,9-35,17-35,17s12.2,6.7,20.8,7.9c11,1.5,28-4.4,28-4.4s-20.9,15.8-35.3,24.1c-10.7,6.2-28.1,14.3-28.1,14.3
	s11.9,9.1,20.7,10.3c9.2,1.3,23.3-4.5,23.3-4.5s-8.5,16.5-16.7,24.5c-12,11.7-37.5,19.1-37.5,19.1s22.6,7.9,37.1,5.7
	c8.5-1.3,21-7,21-7S178,790.3,167.9,798.4z"/>
<linearGradient id="SVGID_2_" gradientUnits="userSpaceOnUse" x1="618.7364" y1="520.3933" x2="613.3935" y2="789.6358" gradientTransform="matrix(1 0 0 1 0 140)">
	<stop  offset="0" style="stop-color:#67DD93"/>
	<stop  offset="0.5365" style="stop-color:#55CB81"/>
</linearGradient>
<path class="st23" d="M565.2,820.4c-5.5,4.7-15.1,8.3-15.1,8.3s7.7,4.9,13,6c4.3,0.9,11.2,0.2,11.2,0.2s-5.3,8.7-11.4,15.7h77.5
	c-0.7-3.4-1-5.7-1-5.7s7.4,4,15,5.7h16c5.5-0.8,9.9-2.1,9.9-2.1s-21.3-15.3-33.1-29.4c-8.5-10.1-20-29.1-20-29.1s4.6,1.1,7.5,0.1
	c3.2-1,7.6-5.6,7.6-5.6s-15.6-22.2-21.7-40.7c-9.6-29-11.6-83.6-11.6-83.6s-13.8,73.9-28,105.8c-9.4,21.1-24.8,34-24.8,34
	s6.7,2.4,11.1,3.1c4.3,0.6,11.2,0.2,11.2,0.2S571.1,815.3,565.2,820.4z"/>
<linearGradient id="SVGID_3_" gradientUnits="userSpaceOnUse" x1="83.3826" y1="383.2841" x2="90.6839" y2="751.232" gradientTransform="matrix(1 0 0 1 0 140)">
	<stop  offset="0" style="stop-color:#4BC177"/>
	<stop  offset="0.5365" style="stop-color:#55CB81"/>
</linearGradient>
<path class="st24" d="M20.2,760.9c-16.6,12.6-47.1,21.4-47.1,21.4s20.7,19.2,36.5,22c8.1,1.4,20.9-0.4,20.9-0.4s-9.7,23.9-20.3,34.5
	c-5.2,5.2-12.7,9.2-19.9,12.2h215c-10.5-5-36.5-18.4-49.3-35.5c-11.7-15.7-21.7-47.3-21.7-47.3s7.9,5.3,13.4,6.6
	c8.1,1.8,20.8-2.7,20.8-2.7S149,747.1,139.2,729c-7.2-13.4-15.8-36.1-15.8-36.1s8.9,7.8,15.4,11.1c10.4,5.3,28.6,6.3,28.6,6.3
	s-23.9-24.9-35-44.8c-8.7-15.5-17.8-42.8-17.8-42.8s4.3,11,9.7,13.4c4.2,1.9,11.4-0.2,11.4-0.2S122.6,609,116,590.8
	c-9.3-25.5-18.3-67.8-18.3-67.8s-8.8,35.8-19.9,55c-9,15.4-27.9,34.7-27.9,34.7s8,3.6,13.4,4.3c4.4,0.6,11.4-0.2,11.4-0.2
	s-10.1,18.1-18.5,27.6c-9.7,11-28.1,23.3-28.1,23.3s12.7,1.6,20.9,1.9c6.7,0.2,17.1-0.3,17.1-0.3s-9,16.8-16.6,25.3
	C38.3,707,15.7,718,15.7,718s12.7,4.3,21,4.1s20.8-5,20.8-5S37.4,747.8,20.2,760.9z"/>
<linearGradient id="SVGID_4_" gradientUnits="userSpaceOnUse" x1="417.8668" y1="426.9684" x2="396.4727" y2="759.1143" gradientTransform="matrix(1 0 0 1 0 140)">
	<stop  offset="0" style="stop-color:#80F6AC"/>
	<stop  offset="0.7437" style="stop-color:#55CB81"/>
</linearGradient>
<path class="st25" d="M334.6,813.8c-7.8,4.7-12.8,3.9-21,6.3c0,0,4.5,10.3,9.1,13.7c6.4,4.8,18.6,0.4,18.6,0.4s-3.7,8.1-8.7,16.3
	h146c2.7-2.1,4.2-3.4,4.2-3.4s-22-5-32.2-17.5c-8.4-10.3-11.1-30.6-11.1-30.6s10.5,5.4,20.8,7.2c11.7,2.1,30.3-2.8,30.3-2.8
	s-26.5-18.1-41.2-34.6c-10.6-11.9-25-34.3-25-34.3s5.7,1.3,9.3,0.2c4-1.2,9.4-6.6,9.4-6.6S423.7,702,416,680.2
	c-12-34.1-14.6-98.3-14.6-98.3s-17.1,86.9-34.7,124.4c-11.7,24.8-30.9,39.9-30.9,39.9s8.4,2.9,13.9,3.7c5.4,0.8,13.9,0.3,13.9,0.3
	s-9.3,14-16.6,19.9c-6.8,5.5-18.8,9.8-18.8,9.8s9.6,5.7,16.1,7.1c5.4,1.1,13.9,0.3,13.9,0.3S345.4,807.3,334.6,813.8z"/>
<linearGradient id="SVGID_5_" gradientUnits="userSpaceOnUse" x1="324.0456" y1="477.4555" x2="329.6496" y2="759.874" gradientTransform="matrix(1 0 0 1 0 140)">
	<stop  offset="0" style="stop-color:#67DD93"/>
	<stop  offset="0.5365" style="stop-color:#4CC278"/>
</linearGradient>
<path class="st26" d="M300.6,823.4c7.8-0.6,20-0.4,20-0.4s-8.1,14.9-17.2,27.6h61c-3.8-8.4-6.1-14.8-6.1-14.8s7.8,7.2,12.7,11
	c2,1.6,4.5,2.8,6.8,3.8h9.5c-2.5-5.1-7.9-16.3-11.7-24.2c-7.1-14.8-18.2-38-18.2-38s9.6,9.7,17.7,13.2c6.4,2.8,17.6,4.2,17.6,4.2
	s-8-12.2-12.8-20.1c-6.3-10.3-15.5-26.8-15.5-26.8s5.5,5.3,10.1,6.6c4.7,1.3,12.5-0.2,12.5-0.2s-12.3-14.2-17.9-24.5
	c-5.5-10-13-31.4-13-31.4c5.9,1.6,11.8,7,17.7,8.7c0,0-13.6-18.4-18.1-33.5c-7.1-24.2-8.7-67.6-8.7-67.6s-0.4,62.1-15.8,95.2
	c-7.5,16.1-24.4,34.4-24.4,34.4l12.5-2.5L304.7,767l14.9-4.8c0,0-9.2,25.7-19.3,38.8c-10,12.9-37.2,16.6-37.2,16.6
	S287.8,824.3,300.6,823.4z"/>
<linearGradient id="SVGID_6_" gradientUnits="userSpaceOnUse" x1="671.5768" y1="652.223" x2="631.3348" y2="751.6251" gradientTransform="matrix(1 0 0 1 0 140)">
	<stop  offset="0" style="stop-color:#3BB18A"/>
	<stop  offset="1" style="stop-color:#118760"/>
</linearGradient>
<path class="st27" d="M629.3,840c0,0-4.3,4.8-9,8.6H695c-8-7.3-17-17.6-17-17.6s4.6,0.8,7.5,0.1c3.2-0.7,7.5-3.8,7.5-3.8
	s-15.7-15.5-21.9-28.3c-9.7-20.1-12-58-12-58s-13.4,51.2-27.4,73.1c-9.3,14.6-24.7,23.4-24.7,23.4s6.7,1.7,11.2,2.2
	C622.5,840.2,629.3,840,629.3,840z"/>
<linearGradient id="SVGID_7_" gradientUnits="userSpaceOnUse" x1="1812.1548" y1="658.6935" x2="1844.8647" y2="713.1456" gradientTransform="matrix(1 0 0 1 0 140)">
	<stop  offset="0" style="stop-color:#3BB18A"/>
	<stop  offset="1" style="stop-color:#118760"/>
</linearGradient>
<path class="st28" d="M1808.6,843.6c3.5-0.7,7.1-2.7,7.1-2.7s-0.7,5.6-2.7,9.7h45c0.5-1,0.8-1.7,0.8-1.7c-2.8-0.9-4.5-0.6-7.2-2.4
	c-3.7-2.5-8.1-10-8.1-10s2.9,0.3,4.8-0.1c2.2-0.5,5.5-2.7,5.5-2.7s-4.1-1.6-6.4-3.7c-2.5-2.2-5.7-7.5-5.7-7.5s2.9,0.2,4.8-0.1
	s4.7-1.4,4.7-1.4s-6.6-5.7-10.6-15c-6-14.1-11.9-46.8-11.9-46.8s-0.9,24.2-5,37c-2.6,8.2-9.3,18-9.3,18s1.9,2,3.2,2.5
	c1.2,0.4,3.2-0.1,3.2-0.1s-4.9,8.4-8.5,12.9c-5,6.2-14.1,13-14.1,13S1804.6,844.4,1808.6,843.6z"/>
<linearGradient id="SVGID_8_" gradientUnits="userSpaceOnUse" x1="540.5895" y1="522.7856" x2="535.1216" y2="798.3083" gradientTransform="matrix(1 0 0 1 0 140)">
	<stop  offset="0" style="stop-color:#3BB18A"/>
	<stop  offset="1" style="stop-color:#1B916A"/>
</linearGradient>
<path class="st29" d="M486.2,809.1c7.3-1.9,17-9.6,17-9.6s-9.5,22.2-19.2,33.5c-5.6,6.5-14.9,13.4-20.8,17.6h122.7
	c-10.6-9.8-19.7-19.9-19.7-19.9s12.6,1.6,20.5,0.4c10-1.5,24.4-9.5,24.4-9.5s-20-5.8-31.5-12.6c-12.8-7.5-29.4-24.5-29.4-24.5
	s13.1,6.8,22.2,8.4c7.2,1.2,18.6,0.4,18.6,0.4s-15.7-12.4-23.9-22.4c-7.5-9.3-23.8-26.4-23.8-26.4s6.4,2.1,11.2,2.2
	c4.7,0.1,13.1-1.7,13.1-1.7s-19.3-16.4-27.4-30.4c-10.4-18-14-52.1-14-52.1s-6.9,41.5-17.9,65.4c-6.8,14.7-21.1,35.4-21.1,35.4
	l11.3-3.8c4.4-1.5,9.5-7.8,9.5-7.8s-9.5,23.3-19.3,35.5c-7.7,9.6-22.8,21.5-22.8,21.5S478.4,811.2,486.2,809.1z"/>
<linearGradient id="SVGID_9_" gradientUnits="userSpaceOnUse" x1="1941.6636" y1="522.3882" x2="1936.7535" y2="736.9414" gradientTransform="matrix(1 0 0 1 0 140)">
	<stop  offset="0" style="stop-color:#67DD93"/>
	<stop  offset="0.5365" style="stop-color:#55CB81"/>
</linearGradient>
<path class="st30" d="M1900.8,819.6c-4.3,3.2-7.1,2.6-11.7,4.3c0,0,2.5,7,5,9.3c3.6,3.3,10.3,0.2,10.3,0.2s-3.9,10.4-8.2,17.1h77.6
	c5.4-4.9,9-8.4,9-8.4s-12.2-3.3-17.9-11.9c-4.7-7-6.1-20.8-6.1-20.8s5.8,3.6,11.5,4.8c6.5,1.4,16.8-1.9,16.8-1.9
	s-14.7-12.2-22.8-23.4c-5.9-8.1-13.8-23.2-13.8-23.2s3.2,0.8,5.1,0.1c2.2-0.8,5.2-4.5,5.2-4.5s-10.8-17.7-15-32.4
	c-6.6-23.1-8-66.6-8-66.6s-9.5,58.9-19.3,84.3c-6.5,16.8-17.2,27.1-17.2,27.1s4.7,2,7.7,2.5s7.7,0.2,7.7,0.2s-5.2,9.5-9.2,13.5
	c-3.8,3.8-10.4,6.6-10.4,6.6s5.3,3.9,8.9,4.8c3,0.7,7.7,0.2,7.7,0.2S1906.8,815.2,1900.8,819.6z"/>
<linearGradient id="SVGID_10_" gradientUnits="userSpaceOnUse" x1="1905.0372" y1="524.8608" x2="1900.0172" y2="744.4194" gradientTransform="matrix(1 0 0 1 0 140)">
	<stop  offset="0" style="stop-color:#3BB18A"/>
	<stop  offset="1" style="stop-color:#1B916A"/>
</linearGradient>
<path class="st31" d="M1833.2,817.1c0,0,6.8,4.5,11.5,5c5.1,0.6,12.9-2.9,12.9-2.9s-10.2,19.6-19.7,28.1c-1.2,1.1-2.6,2.2-4.1,3.2
	h94.1l-3.7-4.4c0,0,11.7,3.5,19.3,3.6c10.3,0.1,25.8-5.8,25.8-5.8s-23.9-9.2-37.1-19.9c-10.4-8.5-24.1-25.9-24.1-25.9
	s8.7,1.3,14.2,0.3c6.9-1.2,16.9-7.5,16.9-7.5s-13.8-4.6-21.8-10c-8.8-6-20.3-19.5-20.3-19.5s9.1,5.4,15.4,6.7c5,1,12.9,0.3,12.9,0.3
	s-10.9-9.9-16.5-17.8c-5.2-7.4-16.4-21-16.4-21s4.4,1.7,7.7,1.8c3.3,0.1,9-1.4,9-1.4s-13.3-13.1-19-24.2
	c-7.2-14.3-9.7-41.5-9.7-41.5s-4.7,33.1-12.4,52.1c-4.7,11.7-14.6,28.2-14.6,28.2l7.8-3c3-1.2,6.5-6.2,6.5-6.2s-6.6,18.5-13.3,28.3
	c-5.3,7.7-15.7,17.1-15.7,17.1s8.8,2,14.2,0.3c5-1.5,11.7-7.7,11.7-7.7s-6.6,17.7-13.3,26.7C1845.4,808.2,1833.2,817.1,1833.2,817.1
	z"/>
<linearGradient id="SVGID_11_" gradientUnits="userSpaceOnUse" x1="146.2742" y1="238.9444" x2="8.9677" y2="775.1095" gradientTransform="matrix(1 0 0 1 0 140)">
	<stop  offset="0" style="stop-color:#3BB18A"/>
	<stop  offset="1" style="stop-color:#269C75"/>
</linearGradient>
<path class="st32" d="M111.7,850.6L89,806.3c0,0,16.8,7.9,27.8,7.9c14.9,0.1,37.5-14,37.5-14s-34.4-20.8-53.3-45.4
	C86.1,735.3,66.6,695,66.6,695s12.6,2.8,20.5,0.4c10.1-3,24.6-18,24.6-18s-19.9-10.5-31.3-22.8c-12.7-13.7-29.1-44.9-29.1-44.9
	s13,12.5,22.1,15.2c7.2,2.2,18.6,0.4,18.6,0.4s-15.6-22.7-23.5-41.1c-7.4-17.1-23.4-48.5-23.4-48.5s6.4,3.8,11.1,3.9
	s13.1-3.4,13.1-3.4s-19.1-30.1-27-56c-10.2-33.2-13.2-96.3-13.2-96.3S21.6,461,10.2,505.4c-7,27.4-21.7,66.1-21.7,66.1l11.3-7.2
	c4.4-2.8,9.6-14.6,9.6-14.6s-9.9,43.3-19.8,66.1c-7.8,18-23.1,40.2-23.1,40.2s12.7,4.4,20.5,0.4c7.3-3.7,17.1-18.1,17.1-18.1
	s-9.8,41.4-19.7,62.4c-9,19-26.8,40.1-26.8,40.1s9.7,10.3,16.6,11.4c7.4,1.2,18.8-7,18.8-7s-15.2,45.8-29.1,65.9
	c-12.5,18-36,32.5-36,32.5l4.3,6.8h179.5V850.6z"/>
<linearGradient id="SVGID_12_" gradientUnits="userSpaceOnUse" x1="499.4981" y1="601.0278" x2="496.3671" y2="758.8394" gradientTransform="matrix(1 0 0 1 0 140)">
	<stop  offset="0" style="stop-color:#3BB18A"/>
	<stop  offset="1" style="stop-color:#269C75"/>
</linearGradient>
<path class="st33" d="M470.8,844.5c4.6-0.5,11.7-3.1,11.7-3.1s-1.9,3.9-4.9,9.2h48c-5.7-10.5-10.3-25.3-10.3-25.3l18.5,3.7
	c0,0-17.7-22.3-24.9-40.8c-6.6-16.9-10.8-47.2-10.8-47.2s-5.5,54.2-20,80.2c-5.7,10.2-16.7,23.2-16.7,23.2S467.2,844.9,470.8,844.5z
	"/>
<linearGradient id="SVGID_13_" gradientUnits="userSpaceOnUse" x1="520.7811" y1="584.7833" x2="299.9161" y2="734.7454" gradientTransform="matrix(1 0 0 1 0 140)">
	<stop  offset="0" style="stop-color:#3BB18A"/>
	<stop  offset="1" style="stop-color:#269C75"/>
</linearGradient>
<path class="st34" d="M376.4,836c-7.7,3.4-12.8,2.8-21,4.5c0,0,4.5,7.4,9,10h131c-1.1-0.7-2.1-1.5-3-2.3
	c-8.5-7.6-11.2-22.6-11.2-22.6s10.6,4,20.8,5.4c11.7,1.6,30.3-1.9,30.3-1.9s-26.6-13.4-41.4-25.6c-10.7-8.8-25.1-25.3-25.1-25.3
	s5.7,1,9.3,0.2c4-0.9,9.4-4.8,9.4-4.8s-19.5-19.3-27.3-35.3c-12.1-25.1-15-72.3-15-72.3s-16.7,63.8-34.1,91.2
	c-11.6,18.2-30.7,29.2-30.7,29.2s8.4,2.2,13.9,2.8c5.4,0.6,13.9,0.3,13.9,0.3s-9.2,10.2-16.5,14.6c-6.8,4-18.7,7.1-18.7,7.1
	s9.6,4.3,16.2,5.3c5.4,0.8,13.9,0.3,13.9,0.3S387.2,831.3,376.4,836z"/>
<linearGradient id="SVGID_14_" gradientUnits="userSpaceOnUse" x1="54.6024" y1="558.8134" x2="199.6774" y2="528.1674" gradientTransform="matrix(1 0 0 1 0 140)">
	<stop  offset="0" style="stop-color:#3BB18A"/>
	<stop  offset="1" style="stop-color:#269C75"/>
</linearGradient>
<path class="st35" d="M56.2,763.2c0,0,15.7,5.1,25.5,3.1c6.8-1.4,16.4-7.4,16.4-7.4s-12.2,35.5-26.5,53.2S29.2,844,14.8,850.5h254.9
	c-7.3-3.1-14.3-7-19.5-11.8c-12.9-11.9-24.9-38.9-24.9-38.9s15.7,2.1,25.6,0.5c19.3-3.1,44.6-24.7,44.6-24.7s-37.4-9.9-57.7-24.2
	c-21.1-14.8-45.6-49.6-45.6-49.6s15.3,5.4,25.5,5.6c10.1,0.2,25.7-4.6,25.7-4.6s-27.7-12.4-41.4-26.4c-9.4-9.7-20.4-28.6-20.4-28.6
	s12.7,0.6,20.9,0.4c10-0.3,25.6-2.1,25.6-2.1s-22.6-13.9-34.4-26.3C183.4,609,171,588.6,171,588.6s8.5,0.9,13.9,0.3
	c6.6-0.8,16.4-4.8,16.4-4.8s-23.2-21.7-34.2-39.1c-13.7-21.6-24.5-61.9-24.5-61.9s-10.9,47.7-22.3,76.4C112,580.2,96,610.4,96,610.4
	s8.8,2.4,13.9,0.3c6.6-2.7,11.9-15.1,11.9-15.1s-11.2,30.7-21.8,48.2c-13.6,22.4-42.7,50.4-42.7,50.4s22.2-1,35-7
	c7.9-3.7,18.8-12.4,18.8-12.4s-10.5,25.5-19.3,40.6C80,735.7,56.2,763.2,56.2,763.2z"/>
<linearGradient id="SVGID_15_" gradientUnits="userSpaceOnUse" x1="898.421" y1="641.6591" x2="900.597" y2="751.3165" gradientTransform="matrix(1 0 0 1 0 140)">
	<stop  offset="0" style="stop-color:#428A5D"/>
	<stop  offset="0.958" style="stop-color:#43B96F"/>
</linearGradient>
<path class="st36" d="M877,839.7c0,0,3.8,1.3,6.2,1.2c2.5,0,6.2-1.5,6.2-1.5s-4.4,6.7-8.9,11.1h38.1c-1.7-2.4-3.6-5.1-4.9-7.6
	c-2.1-4-4.7-10.7-4.7-10.7s2.7,2.3,4.6,3.3c3.1,1.6,8.5,1.9,8.5,1.9s-7.1-7.4-10.4-13.3c-2.6-4.6-5.3-12.8-5.3-12.8s1.3,3.3,2.9,4
	c1.2,0.6,3.4-0.1,3.4-0.1s-3.9-8-5.9-13.4c-2.8-7.6-5.4-20.2-5.4-20.2s-2.6,10.7-5.9,16.4c-2.7,4.6-8.3,10.3-8.3,10.3s2.4,1.1,4,1.3
	c1.3,0.2,3.4-0.1,3.4-0.1s-3,5.4-5.5,8.2c-2.9,3.3-8.4,6.9-8.4,6.9s3.8,0.5,6.2,0.6c2,0.1,5.1-0.1,5.1-0.1s-2.7,5-5,7.6
	C883.8,836.4,877,839.7,877,839.7z"/>
<linearGradient id="SVGID_16_" gradientUnits="userSpaceOnUse" x1="905.5841" y1="678.8262" x2="948.8201" y2="669.6922" gradientTransform="matrix(1 0 0 1 0 140)">
	<stop  offset="0" style="stop-color:#42B891"/>
	<stop  offset="1" style="stop-color:#158B64"/>
</linearGradient>
<path class="st37" d="M925.2,824.8c0,0-3.1,7.6-5.8,12.1c-3,5.1-8.4,11.6-10.1,13.7h10.8c0.7-0.4,1.1-0.7,1.1-0.7s-0.1,0.2-0.2,0.7
	h47c-1.9-0.9-3.7-1.8-5.2-2.9c-6.3-4.4-13.6-14.8-13.6-14.8s4.6,1.6,7.6,1.7s7.6-1.4,7.6-1.4s-8.3-3.7-12.3-7.9
	c-2.8-2.9-6.1-8.5-6.1-8.5s3.8,0.2,6.2,0.1c3-0.1,7.6-0.6,7.6-0.6s-6.7-4.1-10.3-7.8c-3.1-3.2-6.8-9.3-6.8-9.3s2.5,0.3,4.2,0.1
	c2-0.2,4.9-1.4,4.9-1.4s-6.9-6.5-10.2-11.6c-4.1-6.5-7.3-18.5-7.3-18.5s-3.2,14.2-6.6,22.8c-2.4,6.1-7.2,15.1-7.2,15.1
	s2.6,0.7,4.2,0.1c2-0.8,3.5-4.5,3.5-4.5s-3.3,9.2-6.5,14.4c-4,6.7-12.7,15-12.7,15s6.6-0.3,10.4-2.1
	C922,827.4,925.2,824.8,925.2,824.8z"/>
<linearGradient id="SVGID_17_" gradientUnits="userSpaceOnUse" x1="77.491" y1="504.9393" x2="63.8505" y2="633.4313" gradientTransform="matrix(1 0 0 1 0 140)">
	<stop  offset="0" style="stop-color:#3BB18A"/>
	<stop  offset="1" style="stop-color:#269C75"/>
</linearGradient>
<path class="st38" d="M1.8,782.4c0,0,10.4-1.9,16.4-5.5c7.6-4.6,16.6-17.2,16.6-17.2S24.3,789.8,17.6,809
	c-4.8,13.6-12.2,34.8-12.2,34.8s10.1-1.5,16.4-8.4c4.6-5.1,11.9-14.4,11.9-14.4s-3.7,14-9.3,29.6h66.4
	c-10.6-16.9-21.9-46.4-21.9-46.4s11.4-0.3,18.6,0.4c11.9,1.1,35-8.1,35-8.1S97.2,792,88,775.4c-9.3-16.8-17.7-50-17.7-50l13.8,6.1
	L70.7,702l11.6,3.2c0,0-15.6-23.5-22.5-44.3c-14.1-42.7-14.1-123-14.1-123S44,594,37.2,625.4c-4.2,19.5-17,43.5-17,43.5
	c5.5-2.2,11-9.2,16.5-11.4c0,0-7.2,27.7-12.3,40.7C19.1,711.5,7.6,730,7.6,730s7.3,1.9,11.6,0.2s9.4-8.6,9.4-8.6S20,743,14,756.4
	C9.3,766.6,1.8,782.4,1.8,782.4z"/>
<linearGradient id="SVGID_18_" gradientUnits="userSpaceOnUse" x1="246.4885" y1="401.2928" x2="332.1325" y2="752.5018" gradientTransform="matrix(1 0 0 1 0 140)">
	<stop  offset="0" style="stop-color:#3BB18A"/>
	<stop  offset="1" style="stop-color:#269C75"/>
</linearGradient>
<path class="st39" d="M193.4,804.9c0,0,12.2,7,20.8,7.9c9.2,0.9,23.3-4.5,23.3-4.5s-17,28.3-33.6,42.4h154l-0.2-0.3
	c0,0,0.4,0.1,1,0.3h67.9c7.3-1.9,12.5-3.6,12.5-3.6S396,832.7,372.2,816c-18.8-13.2-43.5-40.6-43.5-40.6s15.7,2,25.6,0.5
	c12.5-1.9,30.4-11.8,30.4-11.8s-24.9-7.3-39.2-15.7c-15.9-9.3-36.7-30.5-36.7-30.5s16.4,8.5,27.7,10.5c9,1.5,23.2,0.5,23.2,0.5
	S340.1,713.5,330,701c-9.4-11.6-29.6-32.9-29.6-32.9s8,2.6,13.9,2.8s16.3-2.2,16.3-2.2s-24.1-20.4-34.2-37.9
	c-13-22.4-17.5-64.9-17.5-64.9s-8.6,51.8-22.3,81.5c-8.5,18.3-26.3,44.2-26.3,44.2l14-4.7c5.5-1.8,11.8-9.7,11.8-9.7
	s-11.9,29-24,44.2c-9.6,12-28.4,26.7-28.4,26.7s15.9,3.1,25.6,0.5c9.1-2.4,21.1-12,21.1-12s-11.8,27.7-24,41.7
	C215.4,790.9,193.4,804.9,193.4,804.9z"/>
<path class="st40" d="M1209.8,752.8l19.7,1.2c0,0,2.2-3.9,5.3-6.6l8-7c0,0-7.4,8.3-8.8,11.6c-2.2,5-1.2,9.3-1.2,9.3
	s-3.7-3.9-7.8-5.4C1220.1,754.2,1209.8,752.8,1209.8,752.8z"/>
<path class="st40" d="M996.5,709.7l23.4,4.9c0,0,3.4-5.4,7.7-8.9l11-9c0,0-10.5,11.1-12.8,15.7c-3.6,7-3.3,13.5-3.3,13.5
	s-3.6-6.3-8.4-9.1C1008.5,713.4,996.5,709.7,996.5,709.7z"/>
<path class="st40" d="M1116.8,716.4l19.7,1.6c0,0,2.2-5.1,5.3-8.6l8-9c0,0-7.4,10.8-8.8,15c-2.2,6.5-1.2,12-1.2,12s-3.7-5-7.8-6.9
	C1127.1,718.3,1116.8,716.4,1116.8,716.4z"/>
<path class="st40" d="M830.8,662.8l23.3,1.9c0,0,2.6-6,6.3-10.1l9.5-10.6c0,0-8.7,12.7-10.4,17.7c-2.6,7.6-1.4,14.2-1.4,14.2
	s-4.3-5.9-9.2-8.2C842.9,665,830.8,662.8,830.8,662.8z"/>
<path class="st40" d="M955.8,573.9l23.3,1.6c0,0,2.6-5,6.3-8.6l9.5-9c0,0-8.7,10.7-10.4,15c-2.6,6.4-1.4,12-1.4,12s-4.3-5-9.2-6.9
	C967.9,575.7,955.8,573.9,955.8,573.9z"/>
<path class="st40" d="M754.8,541.9l23.3,1.6c0,0,2.6-5,6.3-8.6l9.5-9c0,0-8.7,10.7-10.4,15c-2.6,6.4-1.4,12-1.4,12s-4.3-5-9.2-6.9
	C766.9,543.7,754.8,541.9,754.8,541.9z"/>
<path class="st40" d="M658.8,489.8l13.7,0.9c0,0,1.5-3,3.7-5l5.6-5.3c0,0-5.1,6.3-6.1,8.8c-1.5,3.8-0.8,7.1-0.8,7.1
	s-2.6-2.9-5.4-4.1C666,490.9,658.8,489.8,658.8,489.8z"/>
</svg>
