<svg width="240" height="240" viewBox="0 0 240 240" fill="none" xmlns="http://www.w3.org/2000/svg">
<mask id="mask0" mask-type="alpha" maskUnits="userSpaceOnUse" x="0" y="0" width="240" height="240">
<circle cx="120" cy="120" r="120" fill="#C4C4C4"/>
</mask>
<g mask="url(#mask0)">
<path d="M10.2852 7.71387C10.2852 6.6093 11.1806 5.71387 12.2852 5.71387H145.092C146.196 5.71387 147.092 6.6093 147.092 7.71387V49.4502C147.092 50.5644 148.002 51.4638 149.116 51.45L187.161 50.98C188.276 50.9663 189.186 51.8656 189.186 52.9799V245C189.186 246.105 188.291 247 187.186 247H12.2852C11.1806 247 10.2852 246.105 10.2852 245V7.71387Z" fill="#F8F8F8"/>
<path d="M29.4199 42.5062C29.4199 39.9932 30.0391 37.9561 30.8029 37.9561H167.714C168.477 37.9561 169.097 39.9932 169.097 42.5062V69.8069C169.097 72.3198 168.477 74.357 167.714 74.357H30.8029C30.0391 74.357 29.4199 72.3198 29.4199 69.8069V42.5062Z" fill="#D4F9F4"/>
<path d="M29.4199 108.329C29.4199 106.223 30.5586 104.516 31.9633 104.516H131.156C132.56 104.516 133.699 106.223 133.699 108.329V112.142C133.699 114.249 132.56 115.956 131.156 115.956H31.9633C30.5586 115.956 29.4199 114.249 29.4199 112.142V108.329Z" fill="#65ABBD"/>
<path d="M29.4199 135.372C29.4199 133.266 30.9452 131.559 32.8267 131.559H165.69C167.571 131.559 169.097 133.266 169.097 135.372V139.185C169.097 141.292 167.571 142.999 165.69 142.999H32.8267C30.9452 142.999 29.4199 141.292 29.4199 139.185V135.372Z" fill="#65ABBD"/>
<path d="M29.4199 162.413C29.4199 160.307 30.9452 158.6 32.8267 158.6H165.69C167.571 158.6 169.097 160.307 169.097 162.413V166.226C169.097 168.333 167.571 170.04 165.69 170.04H32.8267C30.9452 170.04 29.4199 168.333 29.4199 166.226V162.413Z" fill="#65ABBD"/>
<path d="M29.4199 189.45C29.4199 187.344 30.9452 185.637 32.8267 185.637H165.69C167.571 185.637 169.097 187.344 169.097 189.45V193.264C169.097 195.37 167.571 197.077 165.69 197.077H32.8267C30.9452 197.077 29.4199 195.37 29.4199 193.264V189.45Z" fill="#65ABBD"/>
<path d="M29.4199 216.492C29.4199 214.386 30.9452 212.679 32.8267 212.679H165.69C167.571 212.679 169.097 214.386 169.097 216.492V220.306C169.097 222.412 167.571 224.119 165.69 224.119H32.8267C30.9452 224.119 29.4199 222.412 29.4199 220.306V216.492Z" fill="#65ABBD"/>
<path d="M146.137 6.23438L189.188 52.5156H148.137C147.032 52.5156 146.137 51.6201 146.137 50.5156V6.23438Z" fill="#616161"/>
<path d="M141.207 159.412C141.207 158.86 141.655 158.412 142.207 158.412H183.805C184.357 158.412 184.805 158.86 184.805 159.412V231.428C184.805 232.196 183.975 232.677 183.309 232.296L163.502 220.978C163.195 220.803 162.817 220.803 162.51 220.978L142.703 232.296C142.037 232.677 141.207 232.196 141.207 231.428V159.412Z" fill="#338475"/>
<path d="M141.207 159.412C141.207 158.86 141.655 158.412 142.207 158.412H162.006C162.558 158.412 163.006 158.86 163.006 159.412V220.114C163.006 220.473 162.814 220.805 162.502 220.983L142.703 232.296C142.037 232.677 141.207 232.196 141.207 231.428V159.412Z" fill="#5EAFA0"/>
<path d="M168.203 205.944C166.222 208.889 161.888 208.889 159.907 205.944L151.535 193.504C150.412 191.836 148.4 191.002 146.427 191.388L131.71 194.265C128.227 194.946 125.163 191.882 125.844 188.399L128.721 173.682C129.107 171.709 128.273 169.697 126.605 168.574L114.165 160.202C111.22 158.221 111.22 153.887 114.165 151.906L126.605 143.534C128.273 142.411 129.107 140.399 128.721 138.426L125.844 123.709C125.163 120.226 128.227 117.162 131.71 117.843L146.427 120.72C148.4 121.106 150.412 120.272 151.535 118.604L159.907 106.164C161.888 103.219 166.222 103.219 168.203 106.164L176.575 118.604C177.698 120.272 179.71 121.106 181.683 120.72L196.4 117.843C199.883 117.162 202.947 120.226 202.266 123.709L199.389 138.426C199.003 140.399 199.837 142.411 201.505 143.534L213.945 151.906C216.89 153.887 216.89 158.221 213.945 160.202L201.505 168.574C199.837 169.697 199.003 171.709 199.389 173.682L202.266 188.399C202.947 191.882 199.883 194.946 196.4 194.265L181.683 191.388C179.71 191.002 177.698 191.836 176.575 193.504L168.203 205.944Z" fill="#E8960C"/>
<path d="M168.789 194.944C167.996 198.274 164.166 199.841 161.267 198.021L151.363 191.804C150.286 191.128 148.993 190.888 147.745 191.132L131.715 194.266C128.232 194.946 125.168 191.883 125.848 188.399L128.725 173.682C129.111 171.709 128.278 169.697 126.61 168.575L114.169 160.203C111.225 158.221 111.225 153.888 114.169 151.906L126.61 143.534C128.278 142.412 129.111 140.4 128.725 138.427L125.848 123.71C125.168 120.227 128.232 117.163 131.715 117.844L146.432 120.721C148.405 121.106 150.417 120.273 151.539 118.605L159.911 106.164C161.893 103.22 166.226 103.22 168.208 106.164L176.58 118.605C177.702 120.273 179.714 121.106 181.687 120.721L196.404 117.844C199.887 117.163 202.951 120.227 202.27 123.71L199.214 139.344C198.925 140.823 199.319 142.354 200.285 143.51L207.09 151.65C209.036 153.978 208.477 157.489 205.904 159.097L197.193 164.541C195.381 165.674 194.489 167.834 194.974 169.915L196.928 178.305C197.77 181.919 194.521 185.158 190.91 184.306L177.22 181.076C174.537 180.442 171.847 182.101 171.208 184.784L168.789 194.944Z" fill="#F3AC36"/>
<path d="M166.394 180.98C165.412 184.908 160.412 186.101 157.762 183.039L152.968 177.5C151.158 175.407 147.992 175.183 145.905 177L138.955 183.049C135.065 186.435 129.218 182.428 130.97 177.578L133.329 171.049C134.254 168.489 132.962 165.66 130.422 164.683L116.974 159.511C113.198 158.058 112.621 152.955 115.978 150.696L126.61 143.541C128.278 142.418 129.111 140.406 128.725 138.433L125.848 123.716C125.168 120.233 128.232 117.169 131.715 117.85L146.432 120.727C148.405 121.112 150.417 120.279 151.539 118.611L159.911 106.17C161.893 103.226 166.226 103.226 168.208 106.17L176.58 118.611C177.702 120.279 179.714 121.112 181.687 120.727L193.29 118.459C197.439 117.648 200.659 122.031 198.646 125.747L192.146 137.747C190.931 139.99 191.599 142.788 193.696 144.24L201.087 149.357C204.715 151.868 203.549 157.505 199.222 158.371L191.558 159.904C188.23 160.569 186.518 164.286 188.175 167.248L190.074 170.642C192.54 175.05 187.659 179.917 183.257 177.44L174.963 172.771C172.087 171.153 168.46 172.714 167.66 175.916L166.394 180.98Z" fill="#FFC751"/>
<circle cx="163.004" cy="157.079" r="30.1033" fill="#F8A61C"/>
<ellipse cx="154.58" cy="140.182" rx="5.48004" ry="2.74002" transform="rotate(-31.3207 154.58 140.182)" fill="#FFED95"/>
</g>
<circle cx="120" cy="120" r="119" stroke="url(#paint0_linear)" stroke-width="2"/>
<defs>
<linearGradient id="paint0_linear" x1="40.5714" y1="31.4286" x2="205.143" y2="222.286" gradientUnits="userSpaceOnUse">
<stop stop-color="#00C6A2"/>
<stop offset="1" stop-color="#2B6B6A"/>
</linearGradient>
</defs>
</svg>
