<svg width="240" height="240" viewBox="0 0 240 240" fill="none" xmlns="http://www.w3.org/2000/svg">
<mask id="mask0" mask-type="alpha" maskUnits="userSpaceOnUse" x="0" y="0" width="240" height="240">
<circle cx="120" cy="120" r="120" fill="#C4C4C4"/>
</mask>
<g mask="url(#mask0)">
<path fill-rule="evenodd" clip-rule="evenodd" d="M64.8785 83.1054H45.5193C37.5005 83.1054 30.9999 89.6059 30.9999 97.6248C30.9999 105.644 37.5005 112.144 45.5193 112.144H64.8785C72.8973 112.144 79.3979 105.644 79.3979 97.6248C79.3979 89.6059 72.8973 83.1054 64.8785 83.1054ZM45.5193 73.4258C32.1546 73.4258 21.3203 84.26 21.3203 97.6248C21.3203 110.989 32.1546 121.824 45.5193 121.824H64.8785C78.2432 121.824 89.0774 110.989 89.0774 97.6248C89.0774 84.26 78.2432 73.4258 64.8785 73.4258H45.5193Z" fill="#E8960C"/>
<path d="M-14.168 108.918C-14.168 107.136 -12.7234 105.691 -10.9414 105.691H121.346C123.128 105.691 124.573 107.136 124.573 108.918V202.487C124.573 204.269 123.128 205.714 121.346 205.714H-10.9414C-12.7234 205.714 -14.168 204.269 -14.168 202.487V108.918Z" fill="#562415"/>
<path d="M-23.8516 99.2358C-23.8516 97.4538 -22.407 96.0093 -20.625 96.0093H131.022C132.804 96.0093 134.248 97.4538 134.248 99.2358V144.407C134.248 146.189 132.804 147.634 131.022 147.634H-20.625C-22.407 147.634 -23.8516 146.189 -23.8516 144.407V99.2358Z" fill="#532B17"/>
<path d="M43.9043 92.7841C43.9043 91.0022 45.3489 89.5576 47.1308 89.5576H63.2635C65.0454 89.5576 66.49 91.0022 66.49 92.7841V168.56C66.49 169.602 65.9868 170.58 65.1389 171.186L57.0725 176.948C55.9507 177.749 54.4436 177.749 53.3218 176.948L45.2554 171.186C44.4075 170.58 43.9043 169.602 43.9043 168.56V92.7841Z" fill="#F3AC36"/>
<path d="M34.2285 150.858C34.2285 147.294 37.1176 144.405 40.6816 144.405H69.7203C73.2843 144.405 76.1734 147.294 76.1734 150.858V154.084C76.1734 157.648 73.2843 160.537 69.7203 160.537H40.6816C37.1176 160.537 34.2285 157.648 34.2285 154.084V150.858Z" fill="#DC6A4F"/>
<path d="M169.908 140.59L181.174 129.967L201.483 151.505L190.218 162.128L169.908 140.59Z" fill="#5DA3B5"/>
<path d="M185.886 168.164C181.903 163.94 182.098 157.287 186.322 153.304L194.982 145.138C199.206 141.155 205.859 141.35 209.841 145.574L255.491 193.985C259.474 198.209 259.279 204.862 255.055 208.845L246.395 217.011C242.171 220.994 235.518 220.798 231.536 216.575L185.886 168.164Z" fill="#BA2338"/>
<path d="M188.709 171.163C187.713 170.107 187.762 168.444 188.818 167.448L208.95 148.464C210.006 147.469 211.669 147.517 212.665 148.573L219.303 155.613C220.299 156.668 220.25 158.332 219.194 159.327L199.062 178.311C198.006 179.307 196.343 179.258 195.347 178.202L188.709 171.163Z" fill="#D95F40"/>
<path d="M204.283 187.691C203.288 186.635 203.336 184.972 204.392 183.976L224.52 164.996C225.576 164.001 227.239 164.05 228.235 165.106L234.872 172.145C235.868 173.201 235.819 174.864 234.763 175.86L214.636 194.839C213.58 195.835 211.917 195.786 210.921 194.73L204.283 187.691Z" fill="#D95F40"/>
<mask id="mask1" mask-type="alpha" maskUnits="userSpaceOnUse" x="70" y="32" width="128" height="127">
<path d="M197.001 95.0717C197.001 129.905 168.763 158.143 133.929 158.143C99.0956 158.143 70.8574 129.905 70.8574 95.0717C70.8574 60.2382 99.0956 32 133.929 32C168.763 32 197.001 60.2382 197.001 95.0717Z" fill="#C4C4C4"/>
</mask>
<g mask="url(#mask1)">
<path fill-rule="evenodd" clip-rule="evenodd" d="M103.69 64.1944H85.9389C78.5861 64.1944 72.6255 70.155 72.6255 77.5077C72.6255 84.8605 78.5861 90.821 85.9389 90.821H103.69C111.043 90.821 117.003 84.8605 117.003 77.5077C117.003 70.155 111.043 64.1944 103.69 64.1944ZM85.9389 55.3188C73.6843 55.3188 63.75 65.2531 63.75 77.5077C63.75 89.7623 73.6843 99.6966 85.9389 99.6966H103.69C115.945 99.6966 125.879 89.7623 125.879 77.5077C125.879 65.2531 115.945 55.3188 103.69 55.3188H85.9389Z" fill="#FFD174"/>
<path d="M31.207 87.8643C31.207 86.2303 32.5316 84.9058 34.1655 84.9058H155.465C157.099 84.9058 158.423 86.2303 158.423 87.8643V173.661C158.423 175.295 157.099 176.62 155.465 176.62H34.1655C32.5316 176.62 31.207 175.295 31.207 173.661V87.8643Z" fill="#562415"/>
<path d="M22.3301 78.9873C22.3301 77.3534 23.6547 76.0288 25.2886 76.0288H164.339C165.973 76.0288 167.297 77.3534 167.297 78.9873V120.407C167.297 122.04 165.973 123.365 164.339 123.365H25.2886C23.6546 123.365 22.3301 122.04 22.3301 120.407V78.9873Z" fill="#532B17"/>
<path d="M84.457 73.0698C84.457 71.4359 85.7816 70.1113 87.4155 70.1113H102.208C103.842 70.1113 105.167 71.4359 105.167 73.0698V142.552C105.167 143.507 104.705 144.404 103.928 144.959L96.5314 150.242C95.5028 150.977 94.1209 150.977 93.0922 150.242L85.6959 144.959C84.9185 144.404 84.457 143.507 84.457 142.552V73.0698Z" fill="#FFDF63"/>
<path d="M75.584 126.322C75.584 123.054 78.2331 120.405 81.501 120.405H108.128C111.396 120.405 114.045 123.054 114.045 126.322V129.28C114.045 132.548 111.396 135.197 108.128 135.197H81.501C78.2331 135.197 75.584 132.548 75.584 129.28V126.322Z" fill="#DC6A4F"/>
<path d="M197.001 95.0717C197.001 129.905 168.763 158.143 133.929 158.143C99.0956 158.143 70.8574 129.905 70.8574 95.0717C70.8574 60.2382 99.0956 32 133.929 32C168.763 32 197.001 60.2382 197.001 95.0717Z" fill="white" fill-opacity="0.1"/>
<path d="M154.51 39.144L167.846 53.8134L88.2994 126.128L74.9636 111.459L154.51 39.144Z" fill="white" fill-opacity="0.06"/>
</g>
<path fill-rule="evenodd" clip-rule="evenodd" d="M133.929 142.375C160.054 142.375 181.233 121.197 181.233 95.0717C181.233 68.9465 160.054 47.7679 133.929 47.7679C107.804 47.7679 86.6253 68.9465 86.6253 95.0717C86.6253 121.197 107.804 142.375 133.929 142.375ZM133.929 158.143C168.763 158.143 197.001 129.905 197.001 95.0717C197.001 60.2382 168.763 32 133.929 32C99.0956 32 70.8574 60.2382 70.8574 95.0717C70.8574 129.905 99.0956 158.143 133.929 158.143Z" fill="#65ABBD"/>
</g>
<circle cx="120" cy="120" r="119" stroke="url(#paint0_linear)" stroke-width="2"/>
<defs>
<linearGradient id="paint0_linear" x1="40.5714" y1="31.4286" x2="205.143" y2="222.286" gradientUnits="userSpaceOnUse">
<stop stop-color="#00C6A2"/>
<stop offset="1" stop-color="#2B6B6A"/>
</linearGradient>
</defs>
</svg>
