<svg width="339" height="289" viewBox="0 0 339 289" fill="none" xmlns="http://www.w3.org/2000/svg">
<path d="M202.887 8.88587C231.821 21.1811 258.344 68.8008 258.344 68.8008C258.344 68.8008 288.074 49.8179 329.238 68.8008C370.402 87.7838 376.12 131.682 376.12 131.682C376.12 131.682 409.582 127.967 427.003 138.207C444.297 148.372 453.676 159.712 458.448 179.733C465.621 209.828 458.448 231.936 427.003 252.105C395.558 272.274 358.968 258.037 358.968 258.037C358.968 258.037 317.804 282.359 288.074 282.952C258.344 283.546 224.613 266.342 224.613 266.342C224.613 266.342 188.022 295.41 153.147 287.698C118.272 279.986 100.549 252.105 100.549 252.105C100.549 252.105 40.517 266.935 19.3636 230.156C-1.7897 193.377 -5.32678 175.77 7.35745 144.733C19.3521 115.382 69.6754 94.9024 69.6754 94.9024C69.6754 94.9024 78.251 49.3922 97.1182 29.6485C126.717 -1.32532 163.985 -7.64546 202.887 8.88587Z" fill="white"/>
</svg>
